%TF.GenerationSoftware,KiCad,Pcbnew,9.0.2*%
%TF.CreationDate,2025-12-02T18:06:08+01:00*%
%TF.ProjectId,stacja_pogody_modu__wew,73746163-6a61-45f7-906f-676f64795f6d,rev?*%
%TF.SameCoordinates,Original*%
%TF.FileFunction,Copper,L2,Bot*%
%TF.FilePolarity,Positive*%
%FSLAX46Y46*%
G04 Gerber Fmt 4.6, Leading zero omitted, Abs format (unit mm)*
G04 Created by KiCad (PCBNEW 9.0.2) date 2025-12-02 18:06:08*
%MOMM*%
%LPD*%
G01*
G04 APERTURE LIST*
G04 Aperture macros list*
%AMRoundRect*
0 Rectangle with rounded corners*
0 $1 Rounding radius*
0 $2 $3 $4 $5 $6 $7 $8 $9 X,Y pos of 4 corners*
0 Add a 4 corners polygon primitive as box body*
4,1,4,$2,$3,$4,$5,$6,$7,$8,$9,$2,$3,0*
0 Add four circle primitives for the rounded corners*
1,1,$1+$1,$2,$3*
1,1,$1+$1,$4,$5*
1,1,$1+$1,$6,$7*
1,1,$1+$1,$8,$9*
0 Add four rect primitives between the rounded corners*
20,1,$1+$1,$2,$3,$4,$5,0*
20,1,$1+$1,$4,$5,$6,$7,0*
20,1,$1+$1,$6,$7,$8,$9,0*
20,1,$1+$1,$8,$9,$2,$3,0*%
G04 Aperture macros list end*
%TA.AperFunction,ComponentPad*%
%ADD10C,1.800000*%
%TD*%
%TA.AperFunction,HeatsinkPad*%
%ADD11O,1.550000X0.890000*%
%TD*%
%TA.AperFunction,HeatsinkPad*%
%ADD12O,0.950000X1.250000*%
%TD*%
%TA.AperFunction,HeatsinkPad*%
%ADD13C,0.600000*%
%TD*%
%TA.AperFunction,ComponentPad*%
%ADD14C,1.000000*%
%TD*%
%TA.AperFunction,ComponentPad*%
%ADD15R,1.700000X1.700000*%
%TD*%
%TA.AperFunction,ComponentPad*%
%ADD16C,1.700000*%
%TD*%
%TA.AperFunction,ComponentPad*%
%ADD17C,2.000000*%
%TD*%
%TA.AperFunction,SMDPad,CuDef*%
%ADD18RoundRect,0.243750X0.456250X-0.243750X0.456250X0.243750X-0.456250X0.243750X-0.456250X-0.243750X0*%
%TD*%
%TA.AperFunction,HeatsinkPad*%
%ADD19O,1.800000X1.000000*%
%TD*%
%TA.AperFunction,HeatsinkPad*%
%ADD20O,2.200000X1.000000*%
%TD*%
%TA.AperFunction,ViaPad*%
%ADD21C,0.600000*%
%TD*%
%TA.AperFunction,Conductor*%
%ADD22C,0.200000*%
%TD*%
%TA.AperFunction,Conductor*%
%ADD23C,0.500000*%
%TD*%
%TA.AperFunction,Conductor*%
%ADD24C,0.300000*%
%TD*%
%ADD25C,0.300000*%
%ADD26C,0.350000*%
%ADD27O,1.150000X0.500000*%
%ADD28O,0.550000X0.850000*%
%ADD29C,0.200000*%
%ADD30O,1.400000X0.600000*%
%ADD31O,1.800000X0.600000*%
G04 APERTURE END LIST*
D10*
%TO.P,U4,18,SD_SCK*%
%TO.N,/LCD_SCK*%
X107265200Y-96216900D03*
%TO.P,U4,17,SD_MISO*%
%TO.N,/LCD_MISO*%
X107265200Y-93676900D03*
%TO.P,U4,16,SD_MOSI*%
%TO.N,/LCD_MOSI*%
X107265200Y-91136900D03*
%TO.P,U4,15,SD_CS*%
%TO.N,/SD_CS*%
X107265200Y-88596900D03*
%TO.P,U4,14,T_IRQ*%
%TO.N,/T_IRQ*%
X185363572Y-108916620D03*
%TO.P,U4,13,T_DOUT*%
%TO.N,/LCD_MISO*%
X185363572Y-106376620D03*
%TO.P,U4,12,T_DIN*%
%TO.N,/LCD_MOSI*%
X185363572Y-103836620D03*
%TO.P,U4,11,T_CS*%
%TO.N,/T_CS*%
X185363572Y-101296620D03*
%TO.P,U4,10,T_CLK*%
%TO.N,/LCD_SCK*%
X185363572Y-98756620D03*
%TO.P,U4,9,MISO*%
%TO.N,/LCD_MISO*%
X185363572Y-96216620D03*
%TO.P,U4,8,LED*%
%TO.N,/LCD_LED*%
X185363572Y-93676620D03*
%TO.P,U4,7,SCK*%
%TO.N,/LCD_SCK*%
X185363572Y-91136620D03*
%TO.P,U4,6,MOSI*%
%TO.N,/LCD_MOSI*%
X185363572Y-88596620D03*
%TO.P,U4,5,DC*%
%TO.N,/LCD_DC*%
X185363572Y-86056620D03*
%TO.P,U4,4,RST*%
%TO.N,/LCD_RST*%
X185363572Y-83516620D03*
%TO.P,U4,3,CS*%
%TO.N,/LCD_CS*%
X185363572Y-80976620D03*
%TO.P,U4,2,GND*%
%TO.N,GND*%
X185363572Y-78436620D03*
%TO.P,U4,1,VCC*%
%TO.N,+3.3V*%
X185363572Y-75896620D03*
%TD*%
D11*
%TO.P,J1,6,Shield*%
%TO.N,GND*%
X96400000Y-80500000D03*
D12*
X99100000Y-79500000D03*
X99100000Y-74500000D03*
D11*
X96400000Y-73500000D03*
%TD*%
D13*
%TO.P,U3,39,GND*%
%TO.N,GND*%
X130100000Y-67260000D03*
X130100000Y-68660000D03*
X130800000Y-66560000D03*
X130800000Y-67960000D03*
X130800000Y-69360000D03*
X131500000Y-67260000D03*
X131500000Y-68660000D03*
X132200000Y-66560000D03*
X132200000Y-67960000D03*
X132200000Y-69360000D03*
X132900000Y-67260000D03*
X132900000Y-68660000D03*
%TD*%
D14*
%TO.P,Y2,1,1*%
%TO.N,Net-(U3-IO32)*%
X116100000Y-71345000D03*
%TO.P,Y2,2,2*%
%TO.N,Net-(U3-IO33)*%
X118000000Y-71345000D03*
%TD*%
D15*
%TO.P,U6,1,GND*%
%TO.N,GND*%
X170039700Y-55233400D03*
D16*
%TO.P,U6,2,VCC*%
%TO.N,+3.3V*%
X172579700Y-55233400D03*
%TO.P,U6,3,CE*%
%TO.N,/NRF_CE*%
X170039700Y-57773400D03*
%TO.P,U6,4,~{CSN}*%
%TO.N,/NRF_CSN*%
X172579700Y-57773400D03*
%TO.P,U6,5,SCK*%
%TO.N,/LCD_SCK*%
X170039700Y-60313400D03*
%TO.P,U6,6,MOSI*%
%TO.N,/LCD_MOSI*%
X172579700Y-60313400D03*
%TO.P,U6,7,MISO*%
%TO.N,/LCD_MISO*%
X170039700Y-62853400D03*
%TO.P,U6,8,IRQ*%
%TO.N,/NRF_IRQ*%
X172579700Y-62853400D03*
%TD*%
D17*
%TO.P,EN,1,A*%
%TO.N,/ESP_ENABLE*%
X170350000Y-121875000D03*
X170350000Y-128375000D03*
%TO.P,EN,2,A*%
%TO.N,GND*%
X174850000Y-121875000D03*
X174850000Y-128375000D03*
%TD*%
D18*
%TO.P,D2,1,K*%
%TO.N,GND*%
X130454400Y-126489700D03*
%TO.P,D2,2,A*%
%TO.N,Net-(D2-A)*%
X130454400Y-124614700D03*
%TD*%
D17*
%TO.P,BOOT,1,A*%
%TO.N,/ESP_BOOT*%
X161250000Y-121875000D03*
X161250000Y-128375000D03*
%TO.P,BOOT,2,A*%
%TO.N,GND*%
X165750000Y-121875000D03*
X165750000Y-128375000D03*
%TD*%
%TO.P,SW1,1,A*%
%TO.N,GND*%
X141696000Y-128345000D03*
X141696000Y-121845000D03*
%TO.P,SW1,2,A*%
%TO.N,/Button_1*%
X137196000Y-128345000D03*
X137196000Y-121845000D03*
%TD*%
D15*
%TO.P,J3,1,Pin_1*%
%TO.N,+3.3V*%
X105968800Y-125450600D03*
D16*
%TO.P,J3,2,Pin_2*%
%TO.N,GND*%
X108508800Y-125450600D03*
%TO.P,J3,3,Pin_3*%
%TO.N,/CH340_TX*%
X111048800Y-125450600D03*
%TO.P,J3,4,Pin_4*%
%TO.N,/CH340_RX*%
X113588800Y-125450600D03*
%TO.P,J3,5,Pin_5*%
%TO.N,/CH340_RTS*%
X116128800Y-125450600D03*
%TO.P,J3,6,Pin_6*%
%TO.N,/CH340_DTR*%
X118668800Y-125450600D03*
%TD*%
D17*
%TO.P,SW2,1,A*%
%TO.N,GND*%
X150496000Y-128345000D03*
X150496000Y-121845000D03*
%TO.P,SW2,2,A*%
%TO.N,/Button_2*%
X145996000Y-128345000D03*
X145996000Y-121845000D03*
%TD*%
D18*
%TO.P,D3,1,K*%
%TO.N,GND*%
X156274400Y-126548800D03*
%TO.P,D3,2,A*%
%TO.N,Net-(D3-A)*%
X156274400Y-124673800D03*
%TD*%
%TO.P,D4,1,K*%
%TO.N,GND*%
X179074400Y-126948800D03*
%TO.P,D4,2,A*%
%TO.N,Net-(D4-A)*%
X179074400Y-125073800D03*
%TD*%
%TO.P,D1,1,K*%
%TO.N,GND*%
X123672600Y-126542800D03*
%TO.P,D1,2,A*%
%TO.N,Net-(D1-A)*%
X123672600Y-124667800D03*
%TD*%
D19*
%TO.P,J2,S1,SHIELD*%
%TO.N,GND*%
X101805000Y-84680000D03*
D20*
X97825000Y-84680000D03*
D19*
X101805000Y-93320000D03*
D20*
X97825000Y-93320000D03*
%TD*%
D21*
%TO.N,+3.3V*%
X161112200Y-73634600D03*
X136702800Y-111252000D03*
X160175000Y-73625000D03*
X125984700Y-105434700D03*
X158850000Y-78650000D03*
X132207000Y-89052400D03*
X125072200Y-106347200D03*
X145973800Y-111252000D03*
X125547200Y-105872200D03*
X132207000Y-87975000D03*
X158851600Y-77038200D03*
%TO.N,GND*%
X183250000Y-99000000D03*
X151950000Y-63225000D03*
X119225000Y-106650000D03*
X139325000Y-89050000D03*
X147600000Y-87400000D03*
X119750000Y-104900000D03*
X156325000Y-94500000D03*
X132725000Y-81375000D03*
X146050000Y-90400000D03*
X115400000Y-77825000D03*
X122200000Y-101100000D03*
X151900000Y-66200000D03*
X169425000Y-102850000D03*
X112500000Y-100925000D03*
X175775000Y-71875000D03*
X119125000Y-90450000D03*
X119300000Y-101075000D03*
X101325000Y-104575000D03*
X160000000Y-55000000D03*
X180325000Y-82350000D03*
X132150000Y-85450000D03*
X169525000Y-89850000D03*
X156825000Y-113900000D03*
X106775000Y-100925000D03*
X148675000Y-99375000D03*
X117200000Y-80875000D03*
X130900000Y-119800000D03*
X101125000Y-109975000D03*
X117175000Y-73725000D03*
X120975000Y-101125000D03*
X112775000Y-106875000D03*
X118350000Y-132850000D03*
X117650000Y-103675000D03*
X135525000Y-68800000D03*
X146700000Y-82050000D03*
X113350000Y-88850000D03*
X120850000Y-103900000D03*
X117700000Y-102225000D03*
X119925000Y-99300000D03*
X128175000Y-90400000D03*
X102775000Y-73375000D03*
X164025000Y-109300000D03*
X129975000Y-112475000D03*
X120900000Y-106650000D03*
X110650000Y-88850000D03*
X182475000Y-94725000D03*
X107725000Y-65500000D03*
X169550000Y-94375000D03*
X142100000Y-105675000D03*
X155025000Y-87150000D03*
X117700000Y-106650000D03*
X117700000Y-101075000D03*
X108900000Y-132975000D03*
X174825000Y-107100000D03*
X124050000Y-81525000D03*
X183075000Y-90250000D03*
X130150000Y-85450000D03*
X170600000Y-114625000D03*
X122200000Y-106650000D03*
X183100000Y-102800000D03*
X116150000Y-110425000D03*
X103500000Y-82150000D03*
X179300000Y-102700000D03*
X107725000Y-74225000D03*
X122200000Y-105250000D03*
X157075000Y-79075000D03*
X109200000Y-104000000D03*
X188100000Y-104925000D03*
X118725000Y-103900000D03*
X129525000Y-95975000D03*
X122200000Y-102200000D03*
X174625000Y-94425000D03*
X163075000Y-94250000D03*
X112000000Y-76200000D03*
X108900000Y-61350000D03*
X117650000Y-105250000D03*
X130800000Y-132850000D03*
X142075000Y-99475000D03*
X135525000Y-62850000D03*
X152925000Y-82525000D03*
X156775000Y-106325000D03*
X179275000Y-89375000D03*
X100925000Y-118625000D03*
X129500000Y-93675000D03*
X130000000Y-103975000D03*
X165100000Y-55000000D03*
X119900000Y-95475000D03*
X137450000Y-85800000D03*
X140450000Y-92750000D03*
X106975000Y-110075000D03*
X119800000Y-102800000D03*
X129950000Y-107800000D03*
X129100000Y-62850000D03*
X148550000Y-105750000D03*
X169525000Y-85075000D03*
X187600000Y-99500000D03*
X146550000Y-71500000D03*
X126250000Y-123250000D03*
X165225000Y-63225000D03*
X139850000Y-61700000D03*
X122175000Y-103800000D03*
X124575000Y-90425000D03*
X107750000Y-79500000D03*
%TO.N,Net-(D1-A)*%
X123672600Y-117775000D03*
%TO.N,Net-(D2-A)*%
X126898400Y-117729000D03*
%TO.N,Net-(D3-A)*%
X156286200Y-123425000D03*
%TO.N,Net-(D4-A)*%
X179070000Y-123750000D03*
%TO.N,/CH340_RTS*%
X138709400Y-93522800D03*
X148329900Y-82620100D03*
%TO.N,/CH340_TX*%
X140975000Y-81525000D03*
%TO.N,/CH340_RX*%
X140185050Y-82639950D03*
%TO.N,/ESP_ENABLE*%
X114600000Y-63450000D03*
X155907400Y-72417600D03*
%TO.N,/LED1*%
X130633700Y-97483700D03*
X131300000Y-83475000D03*
%TO.N,/LED2*%
X143200000Y-66575000D03*
X98933000Y-85750000D03*
%TO.N,/Button_1*%
X120481000Y-64050000D03*
X138425000Y-60225000D03*
%TO.N,/Button_2*%
X134188200Y-96900000D03*
X134188200Y-83769200D03*
%TO.N,/NRF_IRQ*%
X121191000Y-64991000D03*
%TO.N,/LCD_SCK*%
X144975000Y-70400000D03*
X175150000Y-59150000D03*
%TO.N,/LCD_MOSI*%
X143762500Y-61575000D03*
%TO.N,/NRF_CSN*%
X145950000Y-74210000D03*
%TO.N,/LCD_MISO*%
X144975000Y-69125000D03*
%TO.N,/LCD_DC*%
X119482800Y-72950000D03*
%TO.N,/T_CS*%
X119442400Y-75475000D03*
%TO.N,/LCD_LED*%
X119513600Y-74200000D03*
%TO.N,/T_IRQ*%
X115275000Y-67875000D03*
%TO.N,/SD_CS*%
X143019301Y-72969301D03*
%TO.N,/LCD_RST*%
X119450000Y-71670000D03*
%TO.N,/LCD_CS*%
X145194200Y-75475000D03*
%TO.N,/USB_D-*%
X107362200Y-84800000D03*
X107350000Y-86328600D03*
%TO.N,/USB_D+*%
X101200000Y-88750000D03*
X101225000Y-90025000D03*
%TO.N,Net-(J2-CC1)*%
X106650000Y-87223600D03*
X103632000Y-87706200D03*
%TD*%
D22*
%TO.N,/ESP_ENABLE*%
X114575000Y-63475000D02*
X114600000Y-63450000D01*
X107162200Y-63475000D02*
X114575000Y-63475000D01*
X105225000Y-65412200D02*
X107162200Y-63475000D01*
X105225000Y-77731200D02*
X105225000Y-65412200D01*
X99950000Y-83006200D02*
X105225000Y-77731200D01*
X99950000Y-95962200D02*
X99950000Y-83006200D01*
X123698000Y-82778600D02*
X108127800Y-98348800D01*
X138425000Y-80875000D02*
X136521400Y-82778600D01*
X108127800Y-98348800D02*
X102336600Y-98348800D01*
X102336600Y-98348800D02*
X99950000Y-95962200D01*
X147425000Y-80875000D02*
X138425000Y-80875000D01*
X136521400Y-82778600D02*
X123698000Y-82778600D01*
X155875000Y-72425000D02*
X147425000Y-80875000D01*
X155875000Y-72400000D02*
X155875000Y-72425000D01*
%TO.N,/LED2*%
X143200000Y-68025000D02*
X143200000Y-66575000D01*
X139975000Y-71250000D02*
X143200000Y-68025000D01*
X114962189Y-60350000D02*
X125862189Y-71250000D01*
X104275000Y-64225000D02*
X108150000Y-60350000D01*
X104275000Y-77741400D02*
X104275000Y-64225000D01*
X99275000Y-82741400D02*
X104275000Y-77741400D01*
X99275000Y-85408000D02*
X99275000Y-82741400D01*
X108150000Y-60350000D02*
X114962189Y-60350000D01*
X125862189Y-71250000D02*
X139975000Y-71250000D01*
X98933000Y-85750000D02*
X99275000Y-85408000D01*
D23*
%TO.N,+3.3V*%
X189204600Y-108305600D02*
X186613800Y-110896400D01*
X125984700Y-105434700D02*
X125547200Y-105872200D01*
X158850000Y-77039800D02*
X158851600Y-77038200D01*
X185363572Y-75896620D02*
X187375800Y-73884392D01*
X171170600Y-110896400D02*
X158851600Y-98577400D01*
X105968800Y-124356200D02*
X105968800Y-125450600D01*
X160175000Y-73625000D02*
X161102600Y-73625000D01*
X125547200Y-105872200D02*
X125072200Y-106347200D01*
X136702800Y-111252000D02*
X135864600Y-111252000D01*
X158851600Y-78651600D02*
X158851600Y-98577400D01*
X187375800Y-67513200D02*
X175094900Y-55232300D01*
X133934200Y-113182400D02*
X133934200Y-126644400D01*
X132207000Y-99212400D02*
X125984700Y-105434700D01*
D24*
X161102600Y-73625000D02*
X161112200Y-73634600D01*
D23*
X175094900Y-55232300D02*
X175093800Y-55233400D01*
X132207000Y-87975000D02*
X132207000Y-89052400D01*
X105968800Y-126893800D02*
X105968800Y-125450600D01*
X125072200Y-106347200D02*
X121969400Y-109450000D01*
X120875000Y-109450000D02*
X105968800Y-124356200D01*
X175093800Y-55233400D02*
X172579700Y-55233400D01*
X135864600Y-111252000D02*
X133934200Y-113182400D01*
X107395800Y-128320800D02*
X105968800Y-126893800D01*
X146177000Y-111252000D02*
X136702800Y-111252000D01*
X160100000Y-73650000D02*
X158851600Y-74898400D01*
X158851600Y-98577400D02*
X146177000Y-111252000D01*
X158850000Y-78650000D02*
X158850000Y-77039800D01*
X187375800Y-73884392D02*
X187375800Y-67513200D01*
X121969400Y-109450000D02*
X120875000Y-109450000D01*
X132207000Y-89052400D02*
X132207000Y-99212400D01*
X187375800Y-73884392D02*
X189204600Y-75713192D01*
D24*
X160150000Y-73650000D02*
X160100000Y-73650000D01*
D23*
X158851600Y-74898400D02*
X158851600Y-77038200D01*
X186613800Y-110896400D02*
X171170600Y-110896400D01*
D24*
X160175000Y-73625000D02*
X160150000Y-73650000D01*
D23*
X132257800Y-128320800D02*
X107395800Y-128320800D01*
X133934200Y-126644400D02*
X132257800Y-128320800D01*
D24*
X158850000Y-78650000D02*
X158851600Y-78651600D01*
D23*
X189204600Y-75713192D02*
X189204600Y-108305600D01*
D24*
%TO.N,GND*%
X148056400Y-130784600D02*
X154406600Y-130784600D01*
X141696000Y-128345000D02*
X141696000Y-121845000D01*
X154406600Y-130784600D02*
X154432000Y-130784600D01*
X174914600Y-56489600D02*
X171295900Y-56489600D01*
X165775200Y-128294200D02*
X165775200Y-121794200D01*
X139141200Y-130784600D02*
X139256400Y-130784600D01*
X96400000Y-80500000D02*
X96400000Y-83455000D01*
X130401300Y-126542800D02*
X130454400Y-126489700D01*
X99100000Y-74500000D02*
X98985600Y-74500000D01*
X97625000Y-120900000D02*
X107509600Y-130784600D01*
X96400000Y-83455000D02*
X97625000Y-84680000D01*
X107509600Y-130784600D02*
X139547600Y-130784600D01*
X137450000Y-85800000D02*
X137844912Y-86194912D01*
X148183500Y-130657500D02*
X150496000Y-128345000D01*
X178943000Y-60518000D02*
X174914600Y-56489600D01*
X179074400Y-129764200D02*
X178054000Y-130784600D01*
X174843000Y-128294200D02*
X174843000Y-121794200D01*
X148056400Y-130784600D02*
X148183500Y-130657500D01*
X139547600Y-130784600D02*
X148056400Y-130784600D01*
X165775200Y-130363400D02*
X165775200Y-128294200D01*
X165354000Y-130784600D02*
X165775200Y-130363400D01*
X178054000Y-130784600D02*
X173964600Y-130784600D01*
X122580400Y-126568200D02*
X123647200Y-126568200D01*
X97625000Y-84680000D02*
X97625000Y-93320000D01*
X123647200Y-126568200D02*
X123672600Y-126542800D01*
X97985600Y-73500000D02*
X96400000Y-73500000D01*
X173964600Y-130784600D02*
X174843000Y-129906200D01*
X139547600Y-130784600D02*
X139141200Y-130784600D01*
X150496000Y-128345000D02*
X150496000Y-121845000D01*
X121818400Y-127330200D02*
X122580400Y-126568200D01*
X154432000Y-130784600D02*
X156274400Y-128942200D01*
X97625000Y-93320000D02*
X97625000Y-120900000D01*
X179074400Y-126948800D02*
X179074400Y-129764200D01*
X137844912Y-87569912D02*
X139325000Y-89050000D01*
X165201600Y-130784600D02*
X165354000Y-130784600D01*
X98985600Y-74500000D02*
X97985600Y-73500000D01*
X123672600Y-126542800D02*
X130401300Y-126542800D01*
X165201600Y-130784600D02*
X173964600Y-130784600D01*
X171295900Y-56489600D02*
X170039700Y-55233400D01*
X174843000Y-129906200D02*
X174843000Y-128294200D01*
X96400000Y-73500000D02*
X96400000Y-80500000D01*
X99100000Y-79500000D02*
X99100000Y-74500000D01*
X154406600Y-130784600D02*
X165201600Y-130784600D01*
X156274400Y-128942200D02*
X156274400Y-126548800D01*
X108508800Y-125450600D02*
X110388400Y-127330200D01*
X178943000Y-72016048D02*
X178943000Y-60518000D01*
X185363572Y-78436620D02*
X178943000Y-72016048D01*
X139256400Y-130784600D02*
X141696000Y-128345000D01*
X137844912Y-86194912D02*
X137844912Y-87569912D01*
X110388400Y-127330200D02*
X121818400Y-127330200D01*
D22*
%TO.N,Net-(D1-A)*%
X123672600Y-117779800D02*
X123672600Y-124667800D01*
%TO.N,Net-(D2-A)*%
X126898400Y-121058700D02*
X130454400Y-124614700D01*
X126898400Y-117729000D02*
X126898400Y-121058700D01*
%TO.N,Net-(D3-A)*%
X156286200Y-123342400D02*
X156286200Y-123425000D01*
X156286200Y-124662000D02*
X156274400Y-124673800D01*
X156286200Y-123425000D02*
X156286200Y-124662000D01*
%TO.N,Net-(D4-A)*%
X179070000Y-125069400D02*
X179074400Y-125073800D01*
X179070000Y-123750000D02*
X179070000Y-125069400D01*
X179070000Y-123698000D02*
X179070000Y-123750000D01*
%TO.N,/CH340_RTS*%
X138709400Y-93522800D02*
X138709400Y-92303600D01*
X138709400Y-92303600D02*
X148361400Y-82651600D01*
%TO.N,/CH340_TX*%
X139075000Y-81875000D02*
X135686800Y-85263200D01*
X135686800Y-100812600D02*
X111048800Y-125450600D01*
X135686800Y-85263200D02*
X135686800Y-100812600D01*
X139425000Y-81525000D02*
X139075000Y-81875000D01*
X140975000Y-81525000D02*
X139425000Y-81525000D01*
%TO.N,/CH340_RX*%
X136850000Y-85050000D02*
X136850000Y-102189400D01*
X136850000Y-102189400D02*
X113588800Y-125450600D01*
X139262500Y-82637500D02*
X136850000Y-85050000D01*
X140182600Y-82637500D02*
X139262500Y-82637500D01*
%TO.N,/LED1*%
X131191000Y-83584000D02*
X131300000Y-83475000D01*
X131191000Y-96926400D02*
X131191000Y-83584000D01*
X131191000Y-96926400D02*
X130633700Y-97483700D01*
%TO.N,/LED2*%
X98933000Y-85775800D02*
X98933000Y-85750000D01*
%TO.N,/Button_1*%
X138425000Y-60225000D02*
X138423400Y-60223400D01*
X138423400Y-60223400D02*
X124307600Y-60223400D01*
X124307600Y-60223400D02*
X120481000Y-64050000D01*
%TO.N,/Button_2*%
X134188200Y-83769200D02*
X134188200Y-96900000D01*
%TO.N,/NRF_IRQ*%
X174000000Y-59700000D02*
X174000000Y-61433100D01*
X121191000Y-64991000D02*
X125298200Y-60883800D01*
X162800000Y-60883800D02*
X164633800Y-59050000D01*
X173350000Y-59050000D02*
X174000000Y-59700000D01*
X174000000Y-61433100D02*
X172579700Y-62853400D01*
X164633800Y-59050000D02*
X173350000Y-59050000D01*
X125298200Y-60883800D02*
X162800000Y-60883800D01*
%TO.N,/LCD_SCK*%
X145025000Y-70300000D02*
X144975000Y-70350000D01*
X107265200Y-96216900D02*
X114250000Y-89232100D01*
X150498800Y-64826200D02*
X145025000Y-70300000D01*
X143325000Y-75675000D02*
X144975000Y-74025000D01*
X144975000Y-74025000D02*
X144975000Y-70400000D01*
X114250000Y-89232100D02*
X114250000Y-67625000D01*
X144975000Y-70350000D02*
X144975000Y-70400000D01*
X173973800Y-64826200D02*
X150498800Y-64826200D01*
X175150000Y-59150000D02*
X175475000Y-59475000D01*
X114850000Y-67025000D02*
X116097800Y-67025000D01*
X114250000Y-67625000D02*
X114850000Y-67025000D01*
X124747800Y-75675000D02*
X143325000Y-75675000D01*
X116097800Y-67025000D02*
X124747800Y-75675000D01*
X175475000Y-63325000D02*
X173973800Y-64826200D01*
X175475000Y-59475000D02*
X175475000Y-63325000D01*
%TO.N,/LCD_MOSI*%
X143762500Y-61562500D02*
X143762500Y-61575000D01*
X110950000Y-67675000D02*
X110950000Y-87452100D01*
X143161400Y-73888600D02*
X125238600Y-73888600D01*
X171190700Y-61702400D02*
X148497600Y-61702400D01*
X188493400Y-91726448D02*
X185363572Y-88596620D01*
X188493400Y-100706792D02*
X188493400Y-91726448D01*
X143762500Y-61575000D02*
X143762500Y-61612500D01*
X143775000Y-68625000D02*
X146175000Y-66225000D01*
X110950000Y-87452100D02*
X107265200Y-91136900D01*
X125238600Y-73888600D02*
X116825000Y-65475000D01*
X143762500Y-61612500D02*
X146175000Y-64025000D01*
X172579700Y-60313400D02*
X171190700Y-61702400D01*
X143775000Y-73275000D02*
X143161400Y-73888600D01*
X143775000Y-68625000D02*
X143775000Y-73275000D01*
X185363572Y-103836620D02*
X188493400Y-100706792D01*
X146175000Y-66225000D02*
X146175000Y-64025000D01*
X113150000Y-65475000D02*
X110950000Y-67675000D01*
X116825000Y-65475000D02*
X113150000Y-65475000D01*
X148497600Y-61702400D02*
X146175000Y-64025000D01*
%TO.N,/NRF_CSN*%
X174218600Y-70205600D02*
X176479200Y-67945000D01*
X176479200Y-67945000D02*
X176479200Y-59429200D01*
X174823400Y-57773400D02*
X172579700Y-57773400D01*
X176479200Y-59429200D02*
X174823400Y-57773400D01*
X167956000Y-65975000D02*
X172186600Y-70205600D01*
X154225000Y-65975000D02*
X167956000Y-65975000D01*
X145975000Y-74225000D02*
X154225000Y-65975000D01*
X172186600Y-70205600D02*
X174218600Y-70205600D01*
%TO.N,/LCD_MISO*%
X144375000Y-73600000D02*
X143100000Y-74875000D01*
X145000000Y-69125000D02*
X144375000Y-69750000D01*
X113100000Y-67350000D02*
X113100000Y-87842100D01*
X143100000Y-74875000D02*
X125192400Y-74875000D01*
X144375000Y-69750000D02*
X144375000Y-73600000D01*
X116738400Y-66421000D02*
X114029000Y-66421000D01*
X125192400Y-74875000D02*
X116738400Y-66421000D01*
X114029000Y-66421000D02*
X113100000Y-67350000D01*
X145000000Y-69125000D02*
X144833800Y-69291200D01*
X113100000Y-87842100D02*
X107265200Y-93676900D01*
%TO.N,/LCD_DC*%
X165146380Y-68450000D02*
X182753000Y-86056620D01*
X182753000Y-86056620D02*
X185363572Y-86056620D01*
X146875000Y-77600000D02*
X156025000Y-68450000D01*
X119482800Y-72950000D02*
X124132800Y-77600000D01*
X156025000Y-68450000D02*
X165146380Y-68450000D01*
X124132800Y-77600000D02*
X146875000Y-77600000D01*
%TO.N,/T_CS*%
X123415400Y-79448000D02*
X119442400Y-75475000D01*
X163017200Y-70078600D02*
X156279300Y-70078600D01*
X146909900Y-79448000D02*
X123415400Y-79448000D01*
X182930800Y-101296620D02*
X180670200Y-99036020D01*
X180670200Y-99036020D02*
X180670200Y-87731600D01*
X156279300Y-70078600D02*
X146909900Y-79448000D01*
X180670200Y-87731600D02*
X163017200Y-70078600D01*
X185363572Y-101296620D02*
X182930800Y-101296620D01*
%TO.N,/LCD_LED*%
X123938600Y-78625000D02*
X146925000Y-78625000D01*
X156325000Y-69225000D02*
X163814600Y-69225000D01*
X183337200Y-93676620D02*
X185363572Y-93676620D01*
X146925000Y-78625000D02*
X156325000Y-69225000D01*
X181838600Y-87249000D02*
X181838600Y-92178020D01*
X163814600Y-69225000D02*
X181838600Y-87249000D01*
X181838600Y-92178020D02*
X183337200Y-93676620D01*
X119513600Y-74200000D02*
X123938600Y-78625000D01*
%TO.N,/T_IRQ*%
X115250000Y-74686200D02*
X120788800Y-80225000D01*
X147025000Y-80225000D02*
X156079200Y-71170800D01*
X162255200Y-71170800D02*
X177660300Y-86575900D01*
X115250000Y-67900000D02*
X115250000Y-74686200D01*
X115275000Y-67875000D02*
X115250000Y-67900000D01*
X177660300Y-104355900D02*
X182245000Y-108940600D01*
X120788800Y-80225000D02*
X147025000Y-80225000D01*
X177660300Y-86575900D02*
X177660300Y-104355900D01*
X185339592Y-108940600D02*
X185363572Y-108916620D01*
X182245000Y-108940600D02*
X185339592Y-108940600D01*
X156079200Y-71170800D02*
X162255200Y-71170800D01*
%TO.N,/SD_CS*%
X112675000Y-64850000D02*
X117375000Y-64850000D01*
X142938202Y-73050400D02*
X143019301Y-72969301D01*
X125575400Y-73050400D02*
X142938202Y-73050400D01*
X117375000Y-64850000D02*
X125575400Y-73050400D01*
X110100000Y-85762100D02*
X110100000Y-67425000D01*
X110100000Y-67425000D02*
X112675000Y-64850000D01*
X107265200Y-88596900D02*
X110100000Y-85762100D01*
%TO.N,/LCD_RST*%
X124226200Y-76525000D02*
X146875000Y-76525000D01*
X166658580Y-67600000D02*
X182575200Y-83516620D01*
X182575200Y-83516620D02*
X185363572Y-83516620D01*
X119401200Y-71700000D02*
X124226200Y-76525000D01*
X146875000Y-76525000D02*
X155800000Y-67600000D01*
X155800000Y-67600000D02*
X166658580Y-67600000D01*
%TO.N,/LCD_CS*%
X145194200Y-75475000D02*
X146550000Y-75475000D01*
X155250000Y-66775000D02*
X167511400Y-66775000D01*
X181713020Y-80976620D02*
X185363572Y-80976620D01*
X146550000Y-75475000D02*
X155250000Y-66775000D01*
X145189200Y-75480000D02*
X145225000Y-75515800D01*
X167511400Y-66775000D02*
X181713020Y-80976620D01*
X145189200Y-75480000D02*
X145194200Y-75475000D01*
%TO.N,/USB_D-*%
X107365800Y-85115400D02*
X107365800Y-86178600D01*
%TO.N,/USB_D+*%
X101225000Y-89750000D02*
X101225000Y-90025000D01*
X101225000Y-88775000D02*
X101200000Y-88750000D01*
X101225000Y-90025000D02*
X101225000Y-88775000D01*
%TO.N,Net-(J2-CC1)*%
X104825800Y-87223600D02*
X104343200Y-87706200D01*
X106689200Y-87223600D02*
X106650000Y-87223600D01*
X104343200Y-87706200D02*
X103632000Y-87706200D01*
X106650000Y-87223600D02*
X104825800Y-87223600D01*
X106700000Y-87234400D02*
X106689200Y-87223600D01*
%TD*%
%TA.AperFunction,Conductor*%
%TO.N,GND*%
G36*
X108943039Y-53520185D02*
G01*
X108988794Y-53572989D01*
X109000000Y-53624500D01*
X109000000Y-58940000D01*
X157000000Y-58940000D01*
X157000000Y-53624500D01*
X157019685Y-53557461D01*
X157072489Y-53511706D01*
X157124000Y-53500500D01*
X189375500Y-53500500D01*
X189442539Y-53520185D01*
X189488294Y-53572989D01*
X189499500Y-53624500D01*
X189499500Y-74647362D01*
X189479815Y-74714401D01*
X189427011Y-74760156D01*
X189357853Y-74770100D01*
X189294297Y-74741075D01*
X189287819Y-74735043D01*
X188162619Y-73609843D01*
X188129134Y-73548520D01*
X188126300Y-73522162D01*
X188126300Y-67439279D01*
X188097459Y-67294292D01*
X188097458Y-67294291D01*
X188097458Y-67294287D01*
X188066908Y-67220533D01*
X188040887Y-67157711D01*
X188040880Y-67157698D01*
X187958752Y-67034785D01*
X187958751Y-67034784D01*
X187854216Y-66930249D01*
X183389185Y-62465218D01*
X178886302Y-57962334D01*
X178802679Y-57878711D01*
X183149500Y-57878711D01*
X183149500Y-58121288D01*
X183181161Y-58361785D01*
X183243947Y-58596104D01*
X183316320Y-58770827D01*
X183336776Y-58820212D01*
X183458064Y-59030289D01*
X183458066Y-59030292D01*
X183458067Y-59030293D01*
X183605733Y-59222736D01*
X183605739Y-59222743D01*
X183777256Y-59394260D01*
X183777262Y-59394265D01*
X183969711Y-59541936D01*
X184179788Y-59663224D01*
X184403900Y-59756054D01*
X184638211Y-59818838D01*
X184818586Y-59842584D01*
X184878711Y-59850500D01*
X184878712Y-59850500D01*
X185121289Y-59850500D01*
X185169388Y-59844167D01*
X185361789Y-59818838D01*
X185596100Y-59756054D01*
X185820212Y-59663224D01*
X186030289Y-59541936D01*
X186222738Y-59394265D01*
X186394265Y-59222738D01*
X186541936Y-59030289D01*
X186663224Y-58820212D01*
X186756054Y-58596100D01*
X186818838Y-58361789D01*
X186850500Y-58121288D01*
X186850500Y-57878712D01*
X186818838Y-57638211D01*
X186756054Y-57403900D01*
X186663224Y-57179788D01*
X186541936Y-56969711D01*
X186394265Y-56777262D01*
X186394260Y-56777256D01*
X186222743Y-56605739D01*
X186222736Y-56605733D01*
X186030293Y-56458067D01*
X186030292Y-56458066D01*
X186030289Y-56458064D01*
X185820212Y-56336776D01*
X185820205Y-56336773D01*
X185596104Y-56243947D01*
X185361785Y-56181161D01*
X185121289Y-56149500D01*
X185121288Y-56149500D01*
X184878712Y-56149500D01*
X184878711Y-56149500D01*
X184638214Y-56181161D01*
X184403895Y-56243947D01*
X184179794Y-56336773D01*
X184179785Y-56336777D01*
X183969706Y-56458067D01*
X183777263Y-56605733D01*
X183777256Y-56605739D01*
X183605739Y-56777256D01*
X183605733Y-56777263D01*
X183458067Y-56969706D01*
X183336777Y-57179785D01*
X183336773Y-57179794D01*
X183243947Y-57403895D01*
X183181161Y-57638214D01*
X183149500Y-57878711D01*
X178802679Y-57878711D01*
X175573321Y-54649352D01*
X175573318Y-54649349D01*
X175492902Y-54595618D01*
X175450395Y-54567216D01*
X175313813Y-54510641D01*
X175313805Y-54510639D01*
X175168822Y-54481800D01*
X175168818Y-54481800D01*
X175020983Y-54481800D01*
X175020981Y-54481800D01*
X175015873Y-54482303D01*
X175003721Y-54482900D01*
X173766921Y-54482900D01*
X173699882Y-54463215D01*
X173666603Y-54431785D01*
X173609807Y-54353611D01*
X173459486Y-54203290D01*
X173287520Y-54078351D01*
X173098114Y-53981844D01*
X173098113Y-53981843D01*
X173098112Y-53981843D01*
X172895943Y-53916154D01*
X172895941Y-53916153D01*
X172895940Y-53916153D01*
X172734657Y-53890608D01*
X172685987Y-53882900D01*
X172473413Y-53882900D01*
X172424742Y-53890608D01*
X172263460Y-53916153D01*
X172061285Y-53981844D01*
X171871879Y-54078351D01*
X171699915Y-54203289D01*
X171585985Y-54317219D01*
X171524662Y-54350703D01*
X171454970Y-54345719D01*
X171399037Y-54303847D01*
X171382122Y-54272870D01*
X171333054Y-54141313D01*
X171333050Y-54141306D01*
X171246890Y-54026212D01*
X171246887Y-54026209D01*
X171131793Y-53940049D01*
X171131786Y-53940045D01*
X170997079Y-53889803D01*
X170997072Y-53889801D01*
X170937544Y-53883400D01*
X170289700Y-53883400D01*
X170289700Y-54800388D01*
X170232693Y-54767475D01*
X170105526Y-54733400D01*
X169973874Y-54733400D01*
X169846707Y-54767475D01*
X169789700Y-54800388D01*
X169789700Y-53883400D01*
X169141855Y-53883400D01*
X169082327Y-53889801D01*
X169082320Y-53889803D01*
X168947613Y-53940045D01*
X168947606Y-53940049D01*
X168832512Y-54026209D01*
X168832509Y-54026212D01*
X168746349Y-54141306D01*
X168746345Y-54141313D01*
X168696103Y-54276020D01*
X168696101Y-54276027D01*
X168689700Y-54335555D01*
X168689700Y-54983400D01*
X169606688Y-54983400D01*
X169573775Y-55040407D01*
X169539700Y-55167574D01*
X169539700Y-55299226D01*
X169573775Y-55426393D01*
X169606688Y-55483400D01*
X168689700Y-55483400D01*
X168689700Y-56131244D01*
X168696101Y-56190772D01*
X168696103Y-56190779D01*
X168746345Y-56325486D01*
X168746349Y-56325493D01*
X168832509Y-56440587D01*
X168832512Y-56440590D01*
X168947606Y-56526750D01*
X168947613Y-56526754D01*
X169079170Y-56575822D01*
X169135104Y-56617693D01*
X169159521Y-56683158D01*
X169144669Y-56751431D01*
X169123519Y-56779685D01*
X169009589Y-56893615D01*
X168884651Y-57065579D01*
X168788144Y-57254985D01*
X168722453Y-57457160D01*
X168689200Y-57667113D01*
X168689200Y-57879686D01*
X168722453Y-58089639D01*
X168786639Y-58287182D01*
X168788634Y-58357023D01*
X168752554Y-58416856D01*
X168689853Y-58447684D01*
X168668708Y-58449500D01*
X164720469Y-58449500D01*
X164720453Y-58449499D01*
X164712857Y-58449499D01*
X164554743Y-58449499D01*
X164447387Y-58478265D01*
X164402010Y-58490424D01*
X164402009Y-58490425D01*
X164351896Y-58519359D01*
X164351895Y-58519360D01*
X164336565Y-58528211D01*
X164265085Y-58569479D01*
X164265082Y-58569481D01*
X164153278Y-58681286D01*
X162587584Y-60246981D01*
X162526261Y-60280466D01*
X162499903Y-60283300D01*
X139349500Y-60283300D01*
X139282461Y-60263615D01*
X139236706Y-60210811D01*
X139225500Y-60159300D01*
X139225500Y-60146155D01*
X139225499Y-60146153D01*
X139195862Y-59997160D01*
X139194737Y-59991503D01*
X139157804Y-59902338D01*
X139134397Y-59845827D01*
X139134390Y-59845814D01*
X139046789Y-59714711D01*
X139046786Y-59714707D01*
X138935292Y-59603213D01*
X138935288Y-59603210D01*
X138804185Y-59515609D01*
X138804172Y-59515602D01*
X138658501Y-59455264D01*
X138658489Y-59455261D01*
X138503845Y-59424500D01*
X138503842Y-59424500D01*
X138346158Y-59424500D01*
X138346155Y-59424500D01*
X138191510Y-59455261D01*
X138191498Y-59455264D01*
X138045827Y-59515602D01*
X138045814Y-59515609D01*
X137916520Y-59602002D01*
X137849843Y-59622880D01*
X137847629Y-59622900D01*
X124394270Y-59622900D01*
X124394254Y-59622899D01*
X124386658Y-59622899D01*
X124228543Y-59622899D01*
X124152179Y-59643361D01*
X124075814Y-59663823D01*
X124075809Y-59663826D01*
X123938890Y-59742875D01*
X123938882Y-59742881D01*
X120466339Y-63215425D01*
X120405016Y-63248910D01*
X120402850Y-63249361D01*
X120247508Y-63280261D01*
X120247498Y-63280264D01*
X120101827Y-63340602D01*
X120101814Y-63340609D01*
X119970711Y-63428210D01*
X119970707Y-63428213D01*
X119859213Y-63539707D01*
X119859210Y-63539711D01*
X119771609Y-63670814D01*
X119771602Y-63670827D01*
X119711264Y-63816498D01*
X119711261Y-63816508D01*
X119684625Y-63950414D01*
X119652240Y-64012325D01*
X119591524Y-64046899D01*
X119521754Y-64043158D01*
X119475327Y-64013903D01*
X115449779Y-59988355D01*
X115449777Y-59988352D01*
X115330906Y-59869481D01*
X115330905Y-59869480D01*
X115228455Y-59810331D01*
X115228454Y-59810330D01*
X115193972Y-59790422D01*
X115124432Y-59771789D01*
X115041246Y-59749499D01*
X114883132Y-59749499D01*
X114875536Y-59749499D01*
X114875520Y-59749500D01*
X108236670Y-59749500D01*
X108236654Y-59749499D01*
X108229058Y-59749499D01*
X108070943Y-59749499D01*
X107994579Y-59769961D01*
X107918214Y-59790423D01*
X107918209Y-59790426D01*
X107781290Y-59869475D01*
X107781282Y-59869481D01*
X103794481Y-63856282D01*
X103794479Y-63856285D01*
X103744361Y-63943094D01*
X103744359Y-63943096D01*
X103715425Y-63993209D01*
X103715424Y-63993210D01*
X103708113Y-64020497D01*
X103674499Y-64145943D01*
X103674499Y-64145945D01*
X103674499Y-64314046D01*
X103674500Y-64314059D01*
X103674500Y-77441302D01*
X103654815Y-77508341D01*
X103638181Y-77528983D01*
X98794481Y-82372682D01*
X98794480Y-82372684D01*
X98749723Y-82450206D01*
X98715423Y-82509615D01*
X98674499Y-82662343D01*
X98674499Y-82662345D01*
X98674499Y-82830446D01*
X98674500Y-82830459D01*
X98674500Y-83558943D01*
X98654815Y-83625982D01*
X98602011Y-83671737D01*
X98532853Y-83681681D01*
X98526309Y-83680560D01*
X98523495Y-83680000D01*
X98075000Y-83680000D01*
X98075000Y-84380000D01*
X97575000Y-84380000D01*
X97575000Y-83680000D01*
X97126504Y-83680000D01*
X96933318Y-83718427D01*
X96933306Y-83718430D01*
X96751328Y-83793807D01*
X96751315Y-83793814D01*
X96587537Y-83903248D01*
X96587533Y-83903251D01*
X96448251Y-84042533D01*
X96448248Y-84042537D01*
X96338814Y-84206315D01*
X96338807Y-84206328D01*
X96263430Y-84388307D01*
X96263430Y-84388309D01*
X96255138Y-84430000D01*
X97058012Y-84430000D01*
X97040795Y-84439940D01*
X96984940Y-84495795D01*
X96945444Y-84564204D01*
X96925000Y-84640504D01*
X96925000Y-84719496D01*
X96945444Y-84795796D01*
X96984940Y-84864205D01*
X97040795Y-84920060D01*
X97058012Y-84930000D01*
X96255138Y-84930000D01*
X96263430Y-84971690D01*
X96263430Y-84971692D01*
X96338807Y-85153671D01*
X96338814Y-85153684D01*
X96448248Y-85317462D01*
X96448251Y-85317466D01*
X96587533Y-85456748D01*
X96587537Y-85456751D01*
X96751315Y-85566185D01*
X96751328Y-85566192D01*
X96933306Y-85641569D01*
X96933318Y-85641572D01*
X97126504Y-85679999D01*
X97126508Y-85680000D01*
X97575000Y-85680000D01*
X97575000Y-84980000D01*
X98075000Y-84980000D01*
X98075000Y-85680000D01*
X98096181Y-85701181D01*
X98129666Y-85762504D01*
X98132500Y-85788862D01*
X98132500Y-85828846D01*
X98163261Y-85983489D01*
X98163264Y-85983501D01*
X98223602Y-86129172D01*
X98223609Y-86129185D01*
X98311210Y-86260288D01*
X98311213Y-86260292D01*
X98422707Y-86371786D01*
X98422711Y-86371789D01*
X98553814Y-86459390D01*
X98553827Y-86459397D01*
X98644236Y-86496845D01*
X98699503Y-86519737D01*
X98854153Y-86550499D01*
X98854156Y-86550500D01*
X98854158Y-86550500D01*
X99011844Y-86550500D01*
X99011845Y-86550499D01*
X99166497Y-86519737D01*
X99178047Y-86514952D01*
X99247513Y-86507483D01*
X99309993Y-86538755D01*
X99345647Y-86598843D01*
X99349500Y-86629513D01*
X99349500Y-92530923D01*
X99329815Y-92597962D01*
X99277011Y-92643717D01*
X99207853Y-92653661D01*
X99144297Y-92624636D01*
X99137819Y-92618604D01*
X99062466Y-92543251D01*
X99062462Y-92543248D01*
X98898684Y-92433814D01*
X98898671Y-92433807D01*
X98716693Y-92358430D01*
X98716681Y-92358427D01*
X98523495Y-92320000D01*
X98075000Y-92320000D01*
X98075000Y-93020000D01*
X97575000Y-93020000D01*
X97575000Y-92320000D01*
X97126504Y-92320000D01*
X96933318Y-92358427D01*
X96933306Y-92358430D01*
X96751328Y-92433807D01*
X96751315Y-92433814D01*
X96587537Y-92543248D01*
X96587533Y-92543251D01*
X96448251Y-92682533D01*
X96448248Y-92682537D01*
X96338814Y-92846315D01*
X96338807Y-92846328D01*
X96263430Y-93028307D01*
X96263430Y-93028309D01*
X96255138Y-93070000D01*
X97058012Y-93070000D01*
X97040795Y-93079940D01*
X96984940Y-93135795D01*
X96945444Y-93204204D01*
X96925000Y-93280504D01*
X96925000Y-93359496D01*
X96945444Y-93435796D01*
X96984940Y-93504205D01*
X97040795Y-93560060D01*
X97058012Y-93570000D01*
X96255138Y-93570000D01*
X96263430Y-93611690D01*
X96263430Y-93611692D01*
X96338807Y-93793671D01*
X96338814Y-93793684D01*
X96448248Y-93957462D01*
X96448251Y-93957466D01*
X96587533Y-94096748D01*
X96587537Y-94096751D01*
X96751315Y-94206185D01*
X96751328Y-94206192D01*
X96933306Y-94281569D01*
X96933318Y-94281572D01*
X97126504Y-94319999D01*
X97126508Y-94320000D01*
X97575000Y-94320000D01*
X97575000Y-93620000D01*
X98075000Y-93620000D01*
X98075000Y-94320000D01*
X98523492Y-94320000D01*
X98523495Y-94319999D01*
X98716681Y-94281572D01*
X98716693Y-94281569D01*
X98898671Y-94206192D01*
X98898684Y-94206185D01*
X99062462Y-94096751D01*
X99062466Y-94096748D01*
X99137819Y-94021396D01*
X99199142Y-93987911D01*
X99268834Y-93992895D01*
X99324767Y-94034767D01*
X99349184Y-94100231D01*
X99349500Y-94109077D01*
X99349500Y-95875530D01*
X99349499Y-95875548D01*
X99349499Y-96041254D01*
X99349498Y-96041254D01*
X99390423Y-96193985D01*
X99419358Y-96244100D01*
X99419359Y-96244104D01*
X99419360Y-96244104D01*
X99469479Y-96330914D01*
X99469481Y-96330917D01*
X99588349Y-96449785D01*
X99588355Y-96449790D01*
X101851739Y-98713174D01*
X101851749Y-98713185D01*
X101856079Y-98717515D01*
X101856080Y-98717516D01*
X101967884Y-98829320D01*
X101967886Y-98829321D01*
X101967890Y-98829324D01*
X102032870Y-98866840D01*
X102032874Y-98866841D01*
X102032875Y-98866842D01*
X102068845Y-98887609D01*
X102104812Y-98908376D01*
X102104814Y-98908376D01*
X102104815Y-98908377D01*
X102257543Y-98949300D01*
X102415657Y-98949300D01*
X108041131Y-98949300D01*
X108041147Y-98949301D01*
X108048743Y-98949301D01*
X108206854Y-98949301D01*
X108206857Y-98949301D01*
X108359585Y-98908377D01*
X108431525Y-98866842D01*
X108431529Y-98866840D01*
X108496509Y-98829324D01*
X108496508Y-98829324D01*
X108496516Y-98829320D01*
X108608320Y-98717516D01*
X108608320Y-98717514D01*
X108618524Y-98707311D01*
X108618527Y-98707306D01*
X123910416Y-83415419D01*
X123971739Y-83381934D01*
X123998097Y-83379100D01*
X130375500Y-83379100D01*
X130442539Y-83398785D01*
X130488294Y-83451589D01*
X130499500Y-83503100D01*
X130499500Y-83553846D01*
X130530261Y-83708489D01*
X130530263Y-83708497D01*
X130580495Y-83829769D01*
X130581061Y-83831134D01*
X130590500Y-83878587D01*
X130590500Y-96574346D01*
X130570815Y-96641385D01*
X130518011Y-96687140D01*
X130490692Y-96695963D01*
X130400208Y-96713961D01*
X130400198Y-96713964D01*
X130254527Y-96774302D01*
X130254514Y-96774309D01*
X130123411Y-96861910D01*
X130123407Y-96861913D01*
X130011913Y-96973407D01*
X130011910Y-96973411D01*
X129924309Y-97104514D01*
X129924302Y-97104527D01*
X129863964Y-97250198D01*
X129863961Y-97250210D01*
X129833200Y-97404853D01*
X129833200Y-97562546D01*
X129863961Y-97717189D01*
X129863964Y-97717201D01*
X129924302Y-97862872D01*
X129924309Y-97862885D01*
X130011910Y-97993988D01*
X130011913Y-97993992D01*
X130123407Y-98105486D01*
X130123411Y-98105489D01*
X130254514Y-98193090D01*
X130254527Y-98193097D01*
X130371452Y-98241528D01*
X130400203Y-98253437D01*
X130544849Y-98282209D01*
X130554853Y-98284199D01*
X130554856Y-98284200D01*
X130554858Y-98284200D01*
X130712544Y-98284200D01*
X130712545Y-98284199D01*
X130867197Y-98253437D01*
X131012879Y-98193094D01*
X131143989Y-98105489D01*
X131165983Y-98083495D01*
X131244819Y-98004660D01*
X131306142Y-97971175D01*
X131375834Y-97976159D01*
X131431767Y-98018031D01*
X131456184Y-98083495D01*
X131456500Y-98092341D01*
X131456500Y-98850169D01*
X131436815Y-98917208D01*
X131420181Y-98937850D01*
X125669403Y-104688627D01*
X125629180Y-104715505D01*
X125605519Y-104725306D01*
X125605518Y-104725307D01*
X125474415Y-104812907D01*
X125474407Y-104812913D01*
X125362913Y-104924407D01*
X125362910Y-104924411D01*
X125275309Y-105055514D01*
X125275303Y-105055526D01*
X125265506Y-105079178D01*
X125260874Y-105086109D01*
X125259778Y-105091150D01*
X125238627Y-105119404D01*
X125231904Y-105126127D01*
X125191678Y-105153006D01*
X125168026Y-105162803D01*
X125168014Y-105162809D01*
X125036911Y-105250410D01*
X125036907Y-105250413D01*
X124925413Y-105361907D01*
X124925410Y-105361911D01*
X124837809Y-105493014D01*
X124837803Y-105493026D01*
X124828006Y-105516678D01*
X124823374Y-105523609D01*
X124822278Y-105528650D01*
X124801127Y-105556904D01*
X124756904Y-105601127D01*
X124716678Y-105628006D01*
X124693026Y-105637803D01*
X124693014Y-105637809D01*
X124561911Y-105725410D01*
X124561907Y-105725413D01*
X124450413Y-105836907D01*
X124450407Y-105836915D01*
X124362807Y-105968018D01*
X124362806Y-105968019D01*
X124353005Y-105991680D01*
X124326127Y-106031903D01*
X121694851Y-108663181D01*
X121633528Y-108696666D01*
X121607170Y-108699500D01*
X120801080Y-108699500D01*
X120656092Y-108728340D01*
X120656082Y-108728343D01*
X120519511Y-108784912D01*
X120519498Y-108784919D01*
X120396584Y-108867048D01*
X120396580Y-108867051D01*
X105385848Y-123877783D01*
X105352636Y-123927490D01*
X105350775Y-123930276D01*
X105303716Y-124000705D01*
X105290871Y-124031713D01*
X105286365Y-124039318D01*
X105267009Y-124057357D01*
X105250406Y-124077959D01*
X105241849Y-124080806D01*
X105235252Y-124086955D01*
X105209215Y-124091666D01*
X105184110Y-124100021D01*
X105179691Y-124100100D01*
X105070930Y-124100100D01*
X105070923Y-124100101D01*
X105011316Y-124106508D01*
X104876471Y-124156802D01*
X104876464Y-124156806D01*
X104761255Y-124243052D01*
X104761252Y-124243055D01*
X104675006Y-124358264D01*
X104675002Y-124358271D01*
X104624708Y-124493117D01*
X104618301Y-124552716D01*
X104618300Y-124552735D01*
X104618300Y-126348470D01*
X104618301Y-126348476D01*
X104624708Y-126408083D01*
X104675002Y-126542928D01*
X104675006Y-126542935D01*
X104761252Y-126658144D01*
X104761255Y-126658147D01*
X104876464Y-126744393D01*
X104876471Y-126744397D01*
X104921418Y-126761161D01*
X105011317Y-126794691D01*
X105070927Y-126801100D01*
X105094297Y-126801099D01*
X105161336Y-126820781D01*
X105207092Y-126873583D01*
X105218300Y-126925099D01*
X105218300Y-126967718D01*
X105218300Y-126967720D01*
X105218299Y-126967720D01*
X105247140Y-127112707D01*
X105247143Y-127112717D01*
X105303712Y-127249288D01*
X105303720Y-127249303D01*
X105333919Y-127294497D01*
X105333920Y-127294500D01*
X105333921Y-127294500D01*
X105382690Y-127367490D01*
X105385851Y-127372220D01*
X106917378Y-128903747D01*
X106917385Y-128903753D01*
X106983063Y-128947638D01*
X106983074Y-128947644D01*
X106988085Y-128950992D01*
X107040305Y-128985884D01*
X107096880Y-129009318D01*
X107176888Y-129042459D01*
X107293041Y-129065563D01*
X107312268Y-129069387D01*
X107321881Y-129071300D01*
X107321882Y-129071300D01*
X132331720Y-129071300D01*
X132429262Y-129051896D01*
X132476713Y-129042458D01*
X132613295Y-128985884D01*
X132665515Y-128950992D01*
X132665515Y-128950991D01*
X132665517Y-128950991D01*
X132700865Y-128927372D01*
X132736216Y-128903752D01*
X133082676Y-128557292D01*
X133413067Y-128226902D01*
X135695500Y-128226902D01*
X135695500Y-128463097D01*
X135732446Y-128696368D01*
X135805433Y-128920996D01*
X135912519Y-129131163D01*
X135912657Y-129131433D01*
X136051483Y-129322510D01*
X136218490Y-129489517D01*
X136409567Y-129628343D01*
X136508991Y-129679002D01*
X136620003Y-129735566D01*
X136620005Y-129735566D01*
X136620008Y-129735568D01*
X136710904Y-129765102D01*
X136844631Y-129808553D01*
X137077903Y-129845500D01*
X137077908Y-129845500D01*
X137314097Y-129845500D01*
X137547368Y-129808553D01*
X137548870Y-129808065D01*
X137771992Y-129735568D01*
X137982433Y-129628343D01*
X138173510Y-129489517D01*
X138340517Y-129322510D01*
X138479343Y-129131433D01*
X138586568Y-128920992D01*
X138659553Y-128696368D01*
X138676829Y-128587292D01*
X138696500Y-128463097D01*
X138696500Y-128226947D01*
X140196000Y-128226947D01*
X140196000Y-128463052D01*
X140232934Y-128696247D01*
X140305897Y-128920802D01*
X140413087Y-129131174D01*
X140473338Y-129214104D01*
X140473340Y-129214105D01*
X141172212Y-128515233D01*
X141183482Y-128557292D01*
X141255890Y-128682708D01*
X141358292Y-128785110D01*
X141483708Y-128857518D01*
X141525765Y-128868787D01*
X140826893Y-129567658D01*
X140909828Y-129627914D01*
X141120197Y-129735102D01*
X141344752Y-129808065D01*
X141344751Y-129808065D01*
X141577948Y-129845000D01*
X141814052Y-129845000D01*
X142047247Y-129808065D01*
X142271802Y-129735102D01*
X142482163Y-129627918D01*
X142482169Y-129627914D01*
X142565104Y-129567658D01*
X142565105Y-129567658D01*
X141866233Y-128868787D01*
X141908292Y-128857518D01*
X142033708Y-128785110D01*
X142136110Y-128682708D01*
X142208518Y-128557292D01*
X142219787Y-128515234D01*
X142918658Y-129214105D01*
X142918658Y-129214104D01*
X142978914Y-129131169D01*
X142978918Y-129131163D01*
X143086102Y-128920802D01*
X143159065Y-128696247D01*
X143196000Y-128463052D01*
X143196000Y-128226947D01*
X143195993Y-128226902D01*
X144495500Y-128226902D01*
X144495500Y-128463097D01*
X144532446Y-128696368D01*
X144605433Y-128920996D01*
X144712519Y-129131163D01*
X144712657Y-129131433D01*
X144851483Y-129322510D01*
X145018490Y-129489517D01*
X145209567Y-129628343D01*
X145308991Y-129679002D01*
X145420003Y-129735566D01*
X145420005Y-129735566D01*
X145420008Y-129735568D01*
X145510904Y-129765102D01*
X145644631Y-129808553D01*
X145877903Y-129845500D01*
X145877908Y-129845500D01*
X146114097Y-129845500D01*
X146347368Y-129808553D01*
X146348870Y-129808065D01*
X146571992Y-129735568D01*
X146782433Y-129628343D01*
X146973510Y-129489517D01*
X147140517Y-129322510D01*
X147279343Y-129131433D01*
X147386568Y-128920992D01*
X147459553Y-128696368D01*
X147476829Y-128587292D01*
X147496500Y-128463097D01*
X147496500Y-128226947D01*
X148996000Y-128226947D01*
X148996000Y-128463052D01*
X149032934Y-128696247D01*
X149105897Y-128920802D01*
X149213087Y-129131174D01*
X149273338Y-129214104D01*
X149273340Y-129214105D01*
X149972212Y-128515233D01*
X149983482Y-128557292D01*
X150055890Y-128682708D01*
X150158292Y-128785110D01*
X150283708Y-128857518D01*
X150325765Y-128868787D01*
X149626893Y-129567658D01*
X149709828Y-129627914D01*
X149920197Y-129735102D01*
X150144752Y-129808065D01*
X150144751Y-129808065D01*
X150377948Y-129845000D01*
X150614052Y-129845000D01*
X150847247Y-129808065D01*
X151071802Y-129735102D01*
X151282163Y-129627918D01*
X151282169Y-129627914D01*
X151365104Y-129567658D01*
X151365105Y-129567658D01*
X150666233Y-128868787D01*
X150708292Y-128857518D01*
X150833708Y-128785110D01*
X150936110Y-128682708D01*
X151008518Y-128557292D01*
X151019787Y-128515234D01*
X151718658Y-129214105D01*
X151718658Y-129214104D01*
X151778914Y-129131169D01*
X151778918Y-129131163D01*
X151886102Y-128920802D01*
X151959065Y-128696247D01*
X151996000Y-128463052D01*
X151996000Y-128256902D01*
X159749500Y-128256902D01*
X159749500Y-128493097D01*
X159786446Y-128726368D01*
X159859433Y-128950996D01*
X159920732Y-129071300D01*
X159966657Y-129161433D01*
X160105483Y-129352510D01*
X160272490Y-129519517D01*
X160463567Y-129658343D01*
X160562991Y-129709002D01*
X160674003Y-129765566D01*
X160674005Y-129765566D01*
X160674008Y-129765568D01*
X160794412Y-129804689D01*
X160898631Y-129838553D01*
X161131903Y-129875500D01*
X161131908Y-129875500D01*
X161368097Y-129875500D01*
X161601368Y-129838553D01*
X161602870Y-129838065D01*
X161825992Y-129765568D01*
X162036433Y-129658343D01*
X162227510Y-129519517D01*
X162394517Y-129352510D01*
X162533343Y-129161433D01*
X162640568Y-128950992D01*
X162713553Y-128726368D01*
X162717958Y-128698554D01*
X162750500Y-128493097D01*
X162750500Y-128256947D01*
X164250000Y-128256947D01*
X164250000Y-128493052D01*
X164286934Y-128726247D01*
X164359897Y-128950802D01*
X164467087Y-129161174D01*
X164527338Y-129244104D01*
X164527340Y-129244105D01*
X165226212Y-128545233D01*
X165237482Y-128587292D01*
X165309890Y-128712708D01*
X165412292Y-128815110D01*
X165537708Y-128887518D01*
X165579765Y-128898787D01*
X164880893Y-129597658D01*
X164963828Y-129657914D01*
X165174197Y-129765102D01*
X165398752Y-129838065D01*
X165398751Y-129838065D01*
X165631948Y-129875000D01*
X165868052Y-129875000D01*
X166101247Y-129838065D01*
X166325802Y-129765102D01*
X166536163Y-129657918D01*
X166536169Y-129657914D01*
X166619104Y-129597658D01*
X166619105Y-129597658D01*
X165920233Y-128898787D01*
X165962292Y-128887518D01*
X166087708Y-128815110D01*
X166190110Y-128712708D01*
X166262518Y-128587292D01*
X166273787Y-128545234D01*
X166972658Y-129244105D01*
X166972658Y-129244104D01*
X167032914Y-129161169D01*
X167032918Y-129161163D01*
X167140102Y-128950802D01*
X167213065Y-128726247D01*
X167250000Y-128493052D01*
X167250000Y-128256947D01*
X167249993Y-128256902D01*
X168849500Y-128256902D01*
X168849500Y-128493097D01*
X168886446Y-128726368D01*
X168959433Y-128950996D01*
X169020732Y-129071300D01*
X169066657Y-129161433D01*
X169205483Y-129352510D01*
X169372490Y-129519517D01*
X169563567Y-129658343D01*
X169662991Y-129709002D01*
X169774003Y-129765566D01*
X169774005Y-129765566D01*
X169774008Y-129765568D01*
X169894412Y-129804689D01*
X169998631Y-129838553D01*
X170231903Y-129875500D01*
X170231908Y-129875500D01*
X170468097Y-129875500D01*
X170701368Y-129838553D01*
X170702870Y-129838065D01*
X170925992Y-129765568D01*
X171136433Y-129658343D01*
X171327510Y-129519517D01*
X171494517Y-129352510D01*
X171633343Y-129161433D01*
X171740568Y-128950992D01*
X171813553Y-128726368D01*
X171817958Y-128698554D01*
X171850500Y-128493097D01*
X171850500Y-128256947D01*
X173350000Y-128256947D01*
X173350000Y-128493052D01*
X173386934Y-128726247D01*
X173459897Y-128950802D01*
X173567087Y-129161174D01*
X173627338Y-129244104D01*
X173627340Y-129244105D01*
X174326212Y-128545233D01*
X174337482Y-128587292D01*
X174409890Y-128712708D01*
X174512292Y-128815110D01*
X174637708Y-128887518D01*
X174679765Y-128898787D01*
X173980893Y-129597658D01*
X174063828Y-129657914D01*
X174274197Y-129765102D01*
X174498752Y-129838065D01*
X174498751Y-129838065D01*
X174731948Y-129875000D01*
X174968052Y-129875000D01*
X175201247Y-129838065D01*
X175425802Y-129765102D01*
X175636163Y-129657918D01*
X175636169Y-129657914D01*
X175719104Y-129597658D01*
X175719105Y-129597658D01*
X175020233Y-128898787D01*
X175062292Y-128887518D01*
X175187708Y-128815110D01*
X175290110Y-128712708D01*
X175362518Y-128587292D01*
X175373787Y-128545233D01*
X176072658Y-129244105D01*
X176072658Y-129244104D01*
X176132914Y-129161169D01*
X176132918Y-129161163D01*
X176240102Y-128950802D01*
X176313065Y-128726247D01*
X176350000Y-128493052D01*
X176350000Y-128256947D01*
X176313065Y-128023752D01*
X176240102Y-127799197D01*
X176132914Y-127588828D01*
X176072658Y-127505894D01*
X176072658Y-127505893D01*
X175373787Y-128204765D01*
X175362518Y-128162708D01*
X175290110Y-128037292D01*
X175187708Y-127934890D01*
X175062292Y-127862482D01*
X175020234Y-127851212D01*
X175629330Y-127242115D01*
X177874400Y-127242115D01*
X177884807Y-127343973D01*
X177939494Y-127509009D01*
X177939496Y-127509014D01*
X178030770Y-127656991D01*
X178153708Y-127779929D01*
X178301685Y-127871203D01*
X178301690Y-127871205D01*
X178466726Y-127925892D01*
X178568584Y-127936299D01*
X178568597Y-127936300D01*
X178824400Y-127936300D01*
X179324400Y-127936300D01*
X179580203Y-127936300D01*
X179580215Y-127936299D01*
X179682073Y-127925892D01*
X179847109Y-127871205D01*
X179847114Y-127871203D01*
X179995091Y-127779929D01*
X180118029Y-127656991D01*
X180209303Y-127509014D01*
X180209305Y-127509009D01*
X180263992Y-127343973D01*
X180274399Y-127242115D01*
X180274400Y-127242102D01*
X180274400Y-127198800D01*
X179324400Y-127198800D01*
X179324400Y-127936300D01*
X178824400Y-127936300D01*
X178824400Y-127198800D01*
X177874400Y-127198800D01*
X177874400Y-127242115D01*
X175629330Y-127242115D01*
X175719105Y-127152340D01*
X175719105Y-127152339D01*
X175636174Y-127092087D01*
X175425802Y-126984897D01*
X175201247Y-126911934D01*
X175201248Y-126911934D01*
X174968052Y-126875000D01*
X174731948Y-126875000D01*
X174498752Y-126911934D01*
X174274197Y-126984897D01*
X174063830Y-127092084D01*
X173980894Y-127152340D01*
X174679766Y-127851212D01*
X174637708Y-127862482D01*
X174512292Y-127934890D01*
X174409890Y-128037292D01*
X174337482Y-128162708D01*
X174326212Y-128204765D01*
X173627340Y-127505894D01*
X173567084Y-127588830D01*
X173459897Y-127799197D01*
X173386934Y-128023752D01*
X173350000Y-128256947D01*
X171850500Y-128256947D01*
X171850500Y-128256902D01*
X171813553Y-128023631D01*
X171740566Y-127799003D01*
X171633477Y-127588830D01*
X171633343Y-127588567D01*
X171494517Y-127397490D01*
X171327510Y-127230483D01*
X171136433Y-127091657D01*
X170925996Y-126984433D01*
X170701368Y-126911446D01*
X170468097Y-126874500D01*
X170468092Y-126874500D01*
X170231908Y-126874500D01*
X170231903Y-126874500D01*
X169998631Y-126911446D01*
X169774003Y-126984433D01*
X169563566Y-127091657D01*
X169480044Y-127152340D01*
X169372490Y-127230483D01*
X169372488Y-127230485D01*
X169372487Y-127230485D01*
X169205485Y-127397487D01*
X169205485Y-127397488D01*
X169205483Y-127397490D01*
X169189171Y-127419942D01*
X169066657Y-127588566D01*
X168959433Y-127799003D01*
X168886446Y-128023631D01*
X168849500Y-128256902D01*
X167249993Y-128256902D01*
X167213065Y-128023752D01*
X167140102Y-127799197D01*
X167032914Y-127588828D01*
X166972658Y-127505894D01*
X166972658Y-127505893D01*
X166273787Y-128204765D01*
X166262518Y-128162708D01*
X166190110Y-128037292D01*
X166087708Y-127934890D01*
X165962292Y-127862482D01*
X165920234Y-127851212D01*
X166619105Y-127152340D01*
X166619104Y-127152338D01*
X166536174Y-127092087D01*
X166325802Y-126984897D01*
X166101247Y-126911934D01*
X166101248Y-126911934D01*
X165868052Y-126875000D01*
X165631948Y-126875000D01*
X165398752Y-126911934D01*
X165174197Y-126984897D01*
X164963830Y-127092084D01*
X164880894Y-127152340D01*
X165579766Y-127851212D01*
X165537708Y-127862482D01*
X165412292Y-127934890D01*
X165309890Y-128037292D01*
X165237482Y-128162708D01*
X165226212Y-128204765D01*
X164527340Y-127505894D01*
X164467084Y-127588830D01*
X164359897Y-127799197D01*
X164286934Y-128023752D01*
X164250000Y-128256947D01*
X162750500Y-128256947D01*
X162750500Y-128256902D01*
X162713553Y-128023631D01*
X162640566Y-127799003D01*
X162533477Y-127588830D01*
X162533343Y-127588567D01*
X162394517Y-127397490D01*
X162227510Y-127230483D01*
X162036433Y-127091657D01*
X161825996Y-126984433D01*
X161601368Y-126911446D01*
X161368097Y-126874500D01*
X161368092Y-126874500D01*
X161131908Y-126874500D01*
X161131903Y-126874500D01*
X160898631Y-126911446D01*
X160674003Y-126984433D01*
X160463566Y-127091657D01*
X160380044Y-127152340D01*
X160272490Y-127230483D01*
X160272488Y-127230485D01*
X160272487Y-127230485D01*
X160105485Y-127397487D01*
X160105485Y-127397488D01*
X160105483Y-127397490D01*
X160089171Y-127419942D01*
X159966657Y-127588566D01*
X159859433Y-127799003D01*
X159786446Y-128023631D01*
X159749500Y-128256902D01*
X151996000Y-128256902D01*
X151996000Y-128226947D01*
X151959065Y-127993752D01*
X151886102Y-127769197D01*
X151778914Y-127558828D01*
X151718658Y-127475894D01*
X151718658Y-127475893D01*
X151019787Y-128174765D01*
X151008518Y-128132708D01*
X150936110Y-128007292D01*
X150833708Y-127904890D01*
X150708292Y-127832482D01*
X150666234Y-127821212D01*
X151365105Y-127122340D01*
X151365104Y-127122338D01*
X151282174Y-127062087D01*
X151071802Y-126954897D01*
X150847247Y-126881934D01*
X150847248Y-126881934D01*
X150771335Y-126869911D01*
X150614052Y-126845000D01*
X150377948Y-126845000D01*
X150144752Y-126881934D01*
X149920197Y-126954897D01*
X149709830Y-127062084D01*
X149626894Y-127122340D01*
X150325766Y-127821212D01*
X150283708Y-127832482D01*
X150158292Y-127904890D01*
X150055890Y-128007292D01*
X149983482Y-128132708D01*
X149972212Y-128174766D01*
X149273340Y-127475894D01*
X149213084Y-127558830D01*
X149105897Y-127769197D01*
X149032934Y-127993752D01*
X148996000Y-128226947D01*
X147496500Y-128226947D01*
X147496500Y-128226902D01*
X147459553Y-127993631D01*
X147396377Y-127799197D01*
X147386568Y-127769008D01*
X147386566Y-127769005D01*
X147386566Y-127769003D01*
X147329493Y-127656991D01*
X147279343Y-127558567D01*
X147140517Y-127367490D01*
X146973510Y-127200483D01*
X146782433Y-127061657D01*
X146759376Y-127049909D01*
X146571996Y-126954433D01*
X146347368Y-126881446D01*
X146114097Y-126844500D01*
X146114092Y-126844500D01*
X145877908Y-126844500D01*
X145877903Y-126844500D01*
X145644631Y-126881446D01*
X145420003Y-126954433D01*
X145209566Y-127061657D01*
X145100550Y-127140862D01*
X145018490Y-127200483D01*
X145018488Y-127200485D01*
X145018487Y-127200485D01*
X144851485Y-127367487D01*
X144851485Y-127367488D01*
X144851483Y-127367490D01*
X144842446Y-127379929D01*
X144712657Y-127558566D01*
X144605433Y-127769003D01*
X144532446Y-127993631D01*
X144495500Y-128226902D01*
X143195993Y-128226902D01*
X143159065Y-127993752D01*
X143086102Y-127769197D01*
X142978914Y-127558828D01*
X142918658Y-127475894D01*
X142918658Y-127475893D01*
X142219787Y-128174765D01*
X142208518Y-128132708D01*
X142136110Y-128007292D01*
X142033708Y-127904890D01*
X141908292Y-127832482D01*
X141866234Y-127821212D01*
X142565105Y-127122340D01*
X142565104Y-127122338D01*
X142482174Y-127062087D01*
X142271802Y-126954897D01*
X142047247Y-126881934D01*
X142047248Y-126881934D01*
X141814052Y-126845000D01*
X141577948Y-126845000D01*
X141344752Y-126881934D01*
X141120197Y-126954897D01*
X140909830Y-127062084D01*
X140826894Y-127122340D01*
X141525766Y-127821212D01*
X141483708Y-127832482D01*
X141358292Y-127904890D01*
X141255890Y-128007292D01*
X141183482Y-128132708D01*
X141172212Y-128174766D01*
X140473340Y-127475894D01*
X140413084Y-127558830D01*
X140305897Y-127769197D01*
X140232934Y-127993752D01*
X140196000Y-128226947D01*
X138696500Y-128226947D01*
X138696500Y-128226902D01*
X138659553Y-127993631D01*
X138596377Y-127799197D01*
X138586568Y-127769008D01*
X138586566Y-127769005D01*
X138586566Y-127769003D01*
X138529493Y-127656991D01*
X138479343Y-127558567D01*
X138340517Y-127367490D01*
X138173510Y-127200483D01*
X137982433Y-127061657D01*
X137959376Y-127049909D01*
X137771996Y-126954433D01*
X137547368Y-126881446D01*
X137314097Y-126844500D01*
X137314092Y-126844500D01*
X137077908Y-126844500D01*
X137077903Y-126844500D01*
X136844631Y-126881446D01*
X136620003Y-126954433D01*
X136409566Y-127061657D01*
X136300550Y-127140862D01*
X136218490Y-127200483D01*
X136218488Y-127200485D01*
X136218487Y-127200485D01*
X136051485Y-127367487D01*
X136051485Y-127367488D01*
X136051483Y-127367490D01*
X136042446Y-127379929D01*
X135912657Y-127558566D01*
X135805433Y-127769003D01*
X135732446Y-127993631D01*
X135695500Y-128226902D01*
X133413067Y-128226902D01*
X133505614Y-128134355D01*
X134517147Y-127122820D01*
X134517150Y-127122817D01*
X134517149Y-127122817D01*
X134517152Y-127122815D01*
X134558016Y-127061657D01*
X134599284Y-126999895D01*
X134622718Y-126943320D01*
X134655859Y-126863312D01*
X134660075Y-126842115D01*
X155074400Y-126842115D01*
X155084807Y-126943973D01*
X155139494Y-127109009D01*
X155139496Y-127109014D01*
X155230770Y-127256991D01*
X155353708Y-127379929D01*
X155501685Y-127471203D01*
X155501690Y-127471205D01*
X155666726Y-127525892D01*
X155768584Y-127536299D01*
X155768597Y-127536300D01*
X156024400Y-127536300D01*
X156524400Y-127536300D01*
X156780203Y-127536300D01*
X156780215Y-127536299D01*
X156882073Y-127525892D01*
X157047109Y-127471205D01*
X157047114Y-127471203D01*
X157195091Y-127379929D01*
X157318029Y-127256991D01*
X157409303Y-127109014D01*
X157409305Y-127109009D01*
X157463992Y-126943973D01*
X157474399Y-126842115D01*
X157474400Y-126842102D01*
X157474400Y-126798800D01*
X156524400Y-126798800D01*
X156524400Y-127536300D01*
X156024400Y-127536300D01*
X156024400Y-126798800D01*
X155074400Y-126798800D01*
X155074400Y-126842115D01*
X134660075Y-126842115D01*
X134684700Y-126718317D01*
X134684700Y-126570482D01*
X134684700Y-124380444D01*
X155073900Y-124380444D01*
X155073900Y-124967155D01*
X155084313Y-125069076D01*
X155139037Y-125234222D01*
X155139042Y-125234233D01*
X155230371Y-125382299D01*
X155230374Y-125382303D01*
X155353399Y-125505328D01*
X155354583Y-125506058D01*
X155355223Y-125506770D01*
X155359064Y-125509807D01*
X155358545Y-125510463D01*
X155401306Y-125558008D01*
X155412525Y-125626971D01*
X155384679Y-125691052D01*
X155359277Y-125713062D01*
X155359377Y-125713188D01*
X155356577Y-125715401D01*
X155354584Y-125717129D01*
X155353715Y-125717664D01*
X155353709Y-125717669D01*
X155230770Y-125840608D01*
X155139496Y-125988585D01*
X155139494Y-125988590D01*
X155084807Y-126153626D01*
X155074400Y-126255484D01*
X155074400Y-126298800D01*
X157474400Y-126298800D01*
X157474400Y-126255497D01*
X157474399Y-126255484D01*
X157463992Y-126153626D01*
X157409305Y-125988590D01*
X157409303Y-125988585D01*
X157318029Y-125840608D01*
X157195090Y-125717669D01*
X157195085Y-125717665D01*
X157194222Y-125717133D01*
X157193753Y-125716612D01*
X157189423Y-125713188D01*
X157190008Y-125712448D01*
X157147496Y-125665186D01*
X157136273Y-125596224D01*
X157164116Y-125532141D01*
X157189798Y-125509886D01*
X157189736Y-125509807D01*
X157191506Y-125508407D01*
X157194220Y-125506055D01*
X157195403Y-125505326D01*
X157318426Y-125382303D01*
X157409762Y-125234225D01*
X157464487Y-125069075D01*
X157474900Y-124967148D01*
X157474900Y-124780444D01*
X177873900Y-124780444D01*
X177873900Y-125367155D01*
X177884313Y-125469076D01*
X177939037Y-125634222D01*
X177939042Y-125634233D01*
X178030371Y-125782299D01*
X178030374Y-125782303D01*
X178153399Y-125905328D01*
X178154583Y-125906058D01*
X178155223Y-125906770D01*
X178159064Y-125909807D01*
X178158545Y-125910463D01*
X178201306Y-125958008D01*
X178212525Y-126026971D01*
X178184679Y-126091052D01*
X178159277Y-126113062D01*
X178159377Y-126113188D01*
X178156577Y-126115401D01*
X178154584Y-126117129D01*
X178153715Y-126117664D01*
X178153709Y-126117669D01*
X178030770Y-126240608D01*
X177939496Y-126388585D01*
X177939494Y-126388590D01*
X177884807Y-126553626D01*
X177874400Y-126655484D01*
X177874400Y-126698800D01*
X180274400Y-126698800D01*
X180274400Y-126655497D01*
X180274399Y-126655484D01*
X180263992Y-126553626D01*
X180209305Y-126388590D01*
X180209303Y-126388585D01*
X180118029Y-126240608D01*
X179995090Y-126117669D01*
X179995085Y-126117665D01*
X179994222Y-126117133D01*
X179993753Y-126116612D01*
X179989423Y-126113188D01*
X179990008Y-126112448D01*
X179947496Y-126065186D01*
X179936273Y-125996224D01*
X179964116Y-125932141D01*
X179989798Y-125909886D01*
X179989736Y-125909807D01*
X179991506Y-125908407D01*
X179994220Y-125906055D01*
X179995403Y-125905326D01*
X180118426Y-125782303D01*
X180209762Y-125634225D01*
X180264487Y-125469075D01*
X180274900Y-125367148D01*
X180274900Y-124780452D01*
X180264487Y-124678525D01*
X180209762Y-124513375D01*
X180209758Y-124513369D01*
X180209757Y-124513366D01*
X180118428Y-124365300D01*
X180118425Y-124365296D01*
X179995404Y-124242275D01*
X179995403Y-124242274D01*
X179875909Y-124168569D01*
X179829187Y-124116623D01*
X179817964Y-124047660D01*
X179826446Y-124015583D01*
X179839737Y-123983497D01*
X179870500Y-123828842D01*
X179870500Y-123671158D01*
X179870500Y-123671155D01*
X179870499Y-123671153D01*
X179861657Y-123626700D01*
X179839737Y-123516503D01*
X179834493Y-123503842D01*
X179779397Y-123370827D01*
X179779390Y-123370814D01*
X179691789Y-123239711D01*
X179691786Y-123239707D01*
X179580292Y-123128213D01*
X179580288Y-123128210D01*
X179449185Y-123040609D01*
X179449172Y-123040602D01*
X179303501Y-122980264D01*
X179303489Y-122980261D01*
X179148845Y-122949500D01*
X179148842Y-122949500D01*
X178991158Y-122949500D01*
X178991155Y-122949500D01*
X178836510Y-122980261D01*
X178836498Y-122980264D01*
X178690827Y-123040602D01*
X178690814Y-123040609D01*
X178559711Y-123128210D01*
X178559707Y-123128213D01*
X178448213Y-123239707D01*
X178448210Y-123239711D01*
X178360609Y-123370814D01*
X178360602Y-123370827D01*
X178300264Y-123516498D01*
X178300261Y-123516510D01*
X178269500Y-123671153D01*
X178269500Y-123828846D01*
X178300261Y-123983489D01*
X178300263Y-123983496D01*
X178315343Y-124019904D01*
X178322811Y-124089373D01*
X178291535Y-124151852D01*
X178265879Y-124172893D01*
X178153397Y-124242273D01*
X178030374Y-124365296D01*
X178030371Y-124365300D01*
X177939042Y-124513366D01*
X177939037Y-124513377D01*
X177884313Y-124678523D01*
X177873900Y-124780444D01*
X157474900Y-124780444D01*
X157474900Y-124380452D01*
X157464487Y-124278525D01*
X157409762Y-124113375D01*
X157409758Y-124113369D01*
X157409757Y-124113366D01*
X157318428Y-123965300D01*
X157318425Y-123965296D01*
X157195403Y-123842274D01*
X157195399Y-123842271D01*
X157111946Y-123790796D01*
X157065221Y-123738848D01*
X157054000Y-123669885D01*
X157055426Y-123661066D01*
X157086700Y-123503844D01*
X157086700Y-123346155D01*
X157086699Y-123346153D01*
X157079123Y-123308065D01*
X157055937Y-123191503D01*
X157042202Y-123158343D01*
X156995597Y-123045827D01*
X156995590Y-123045814D01*
X156907989Y-122914711D01*
X156907986Y-122914707D01*
X156796492Y-122803213D01*
X156796488Y-122803210D01*
X156665385Y-122715609D01*
X156665372Y-122715602D01*
X156519701Y-122655264D01*
X156519689Y-122655261D01*
X156365045Y-122624500D01*
X156365042Y-122624500D01*
X156207358Y-122624500D01*
X156207355Y-122624500D01*
X156052710Y-122655261D01*
X156052698Y-122655264D01*
X155907027Y-122715602D01*
X155907014Y-122715609D01*
X155775911Y-122803210D01*
X155775907Y-122803213D01*
X155664413Y-122914707D01*
X155664410Y-122914711D01*
X155576809Y-123045814D01*
X155576802Y-123045827D01*
X155516464Y-123191498D01*
X155516461Y-123191510D01*
X155485700Y-123346153D01*
X155485700Y-123503846D01*
X155514394Y-123648101D01*
X155508167Y-123717693D01*
X155465304Y-123772870D01*
X155457875Y-123777830D01*
X155353397Y-123842273D01*
X155230374Y-123965296D01*
X155230371Y-123965300D01*
X155139042Y-124113366D01*
X155139037Y-124113377D01*
X155084313Y-124278523D01*
X155073900Y-124380444D01*
X134684700Y-124380444D01*
X134684700Y-121726902D01*
X135695500Y-121726902D01*
X135695500Y-121963097D01*
X135732446Y-122196368D01*
X135805433Y-122420996D01*
X135909124Y-122624500D01*
X135912657Y-122631433D01*
X136051483Y-122822510D01*
X136218490Y-122989517D01*
X136409567Y-123128343D01*
X136508991Y-123179002D01*
X136620003Y-123235566D01*
X136620005Y-123235566D01*
X136620008Y-123235568D01*
X136710904Y-123265102D01*
X136844631Y-123308553D01*
X137077903Y-123345500D01*
X137077908Y-123345500D01*
X137314097Y-123345500D01*
X137547368Y-123308553D01*
X137548870Y-123308065D01*
X137771992Y-123235568D01*
X137982433Y-123128343D01*
X138173510Y-122989517D01*
X138340517Y-122822510D01*
X138479343Y-122631433D01*
X138586568Y-122420992D01*
X138659553Y-122196368D01*
X138676829Y-122087292D01*
X138696500Y-121963097D01*
X138696500Y-121726947D01*
X140196000Y-121726947D01*
X140196000Y-121963052D01*
X140232934Y-122196247D01*
X140305897Y-122420802D01*
X140413087Y-122631174D01*
X140473338Y-122714104D01*
X140473340Y-122714105D01*
X141172212Y-122015233D01*
X141183482Y-122057292D01*
X141255890Y-122182708D01*
X141358292Y-122285110D01*
X141483708Y-122357518D01*
X141525765Y-122368787D01*
X140826893Y-123067658D01*
X140909828Y-123127914D01*
X141120197Y-123235102D01*
X141344752Y-123308065D01*
X141344751Y-123308065D01*
X141577948Y-123345000D01*
X141814052Y-123345000D01*
X142047247Y-123308065D01*
X142271802Y-123235102D01*
X142482163Y-123127918D01*
X142482169Y-123127914D01*
X142565104Y-123067658D01*
X142565105Y-123067658D01*
X141866233Y-122368787D01*
X141908292Y-122357518D01*
X142033708Y-122285110D01*
X142136110Y-122182708D01*
X142208518Y-122057292D01*
X142219787Y-122015234D01*
X142918658Y-122714105D01*
X142918658Y-122714104D01*
X142978914Y-122631169D01*
X142978918Y-122631163D01*
X143086102Y-122420802D01*
X143159065Y-122196247D01*
X143196000Y-121963052D01*
X143196000Y-121726947D01*
X143195993Y-121726902D01*
X144495500Y-121726902D01*
X144495500Y-121963097D01*
X144532446Y-122196368D01*
X144605433Y-122420996D01*
X144709124Y-122624500D01*
X144712657Y-122631433D01*
X144851483Y-122822510D01*
X145018490Y-122989517D01*
X145209567Y-123128343D01*
X145308991Y-123179002D01*
X145420003Y-123235566D01*
X145420005Y-123235566D01*
X145420008Y-123235568D01*
X145510904Y-123265102D01*
X145644631Y-123308553D01*
X145877903Y-123345500D01*
X145877908Y-123345500D01*
X146114097Y-123345500D01*
X146347368Y-123308553D01*
X146348870Y-123308065D01*
X146571992Y-123235568D01*
X146782433Y-123128343D01*
X146973510Y-122989517D01*
X147140517Y-122822510D01*
X147279343Y-122631433D01*
X147386568Y-122420992D01*
X147459553Y-122196368D01*
X147476829Y-122087292D01*
X147496500Y-121963097D01*
X147496500Y-121726947D01*
X148996000Y-121726947D01*
X148996000Y-121963052D01*
X149032934Y-122196247D01*
X149105897Y-122420802D01*
X149213087Y-122631174D01*
X149273338Y-122714104D01*
X149273340Y-122714105D01*
X149972212Y-122015233D01*
X149983482Y-122057292D01*
X150055890Y-122182708D01*
X150158292Y-122285110D01*
X150283708Y-122357518D01*
X150325765Y-122368787D01*
X149626893Y-123067658D01*
X149709828Y-123127914D01*
X149920197Y-123235102D01*
X150144752Y-123308065D01*
X150144751Y-123308065D01*
X150377948Y-123345000D01*
X150614052Y-123345000D01*
X150847247Y-123308065D01*
X151071802Y-123235102D01*
X151282163Y-123127918D01*
X151282169Y-123127914D01*
X151365104Y-123067658D01*
X151365105Y-123067658D01*
X150666233Y-122368787D01*
X150708292Y-122357518D01*
X150833708Y-122285110D01*
X150936110Y-122182708D01*
X151008518Y-122057292D01*
X151019787Y-122015234D01*
X151718658Y-122714105D01*
X151718658Y-122714104D01*
X151778914Y-122631169D01*
X151778918Y-122631163D01*
X151886102Y-122420802D01*
X151959065Y-122196247D01*
X151996000Y-121963052D01*
X151996000Y-121756902D01*
X159749500Y-121756902D01*
X159749500Y-121993097D01*
X159786446Y-122226368D01*
X159859433Y-122450996D01*
X159947839Y-122624500D01*
X159966657Y-122661433D01*
X160105483Y-122852510D01*
X160272490Y-123019517D01*
X160463567Y-123158343D01*
X160528661Y-123191510D01*
X160674003Y-123265566D01*
X160674005Y-123265566D01*
X160674008Y-123265568D01*
X160794412Y-123304689D01*
X160898631Y-123338553D01*
X161131903Y-123375500D01*
X161131908Y-123375500D01*
X161368097Y-123375500D01*
X161601368Y-123338553D01*
X161602870Y-123338065D01*
X161825992Y-123265568D01*
X162036433Y-123158343D01*
X162227510Y-123019517D01*
X162394517Y-122852510D01*
X162533343Y-122661433D01*
X162640568Y-122450992D01*
X162713553Y-122226368D01*
X162717958Y-122198554D01*
X162750500Y-121993097D01*
X162750500Y-121756947D01*
X164250000Y-121756947D01*
X164250000Y-121993052D01*
X164286934Y-122226247D01*
X164359897Y-122450802D01*
X164467087Y-122661174D01*
X164527338Y-122744104D01*
X164527340Y-122744105D01*
X165226212Y-122045233D01*
X165237482Y-122087292D01*
X165309890Y-122212708D01*
X165412292Y-122315110D01*
X165537708Y-122387518D01*
X165579765Y-122398787D01*
X164880893Y-123097658D01*
X164963828Y-123157914D01*
X165174197Y-123265102D01*
X165398752Y-123338065D01*
X165398751Y-123338065D01*
X165631948Y-123375000D01*
X165868052Y-123375000D01*
X166101247Y-123338065D01*
X166325802Y-123265102D01*
X166536163Y-123157918D01*
X166536169Y-123157914D01*
X166619104Y-123097658D01*
X166619105Y-123097658D01*
X165920233Y-122398787D01*
X165962292Y-122387518D01*
X166087708Y-122315110D01*
X166190110Y-122212708D01*
X166262518Y-122087292D01*
X166273787Y-122045234D01*
X166972658Y-122744105D01*
X166972658Y-122744104D01*
X167032914Y-122661169D01*
X167032918Y-122661163D01*
X167140102Y-122450802D01*
X167213065Y-122226247D01*
X167250000Y-121993052D01*
X167250000Y-121756947D01*
X167249993Y-121756902D01*
X168849500Y-121756902D01*
X168849500Y-121993097D01*
X168886446Y-122226368D01*
X168959433Y-122450996D01*
X169047839Y-122624500D01*
X169066657Y-122661433D01*
X169205483Y-122852510D01*
X169372490Y-123019517D01*
X169563567Y-123158343D01*
X169628661Y-123191510D01*
X169774003Y-123265566D01*
X169774005Y-123265566D01*
X169774008Y-123265568D01*
X169894412Y-123304689D01*
X169998631Y-123338553D01*
X170231903Y-123375500D01*
X170231908Y-123375500D01*
X170468097Y-123375500D01*
X170701368Y-123338553D01*
X170702870Y-123338065D01*
X170925992Y-123265568D01*
X171136433Y-123158343D01*
X171327510Y-123019517D01*
X171494517Y-122852510D01*
X171633343Y-122661433D01*
X171740568Y-122450992D01*
X171813553Y-122226368D01*
X171817958Y-122198554D01*
X171850500Y-121993097D01*
X171850500Y-121756947D01*
X173350000Y-121756947D01*
X173350000Y-121993052D01*
X173386934Y-122226247D01*
X173459897Y-122450802D01*
X173567087Y-122661174D01*
X173627338Y-122744104D01*
X173627340Y-122744105D01*
X174326212Y-122045233D01*
X174337482Y-122087292D01*
X174409890Y-122212708D01*
X174512292Y-122315110D01*
X174637708Y-122387518D01*
X174679765Y-122398787D01*
X173980893Y-123097658D01*
X174063828Y-123157914D01*
X174274197Y-123265102D01*
X174498752Y-123338065D01*
X174498751Y-123338065D01*
X174731948Y-123375000D01*
X174968052Y-123375000D01*
X175201247Y-123338065D01*
X175425802Y-123265102D01*
X175636163Y-123157918D01*
X175636169Y-123157914D01*
X175719104Y-123097658D01*
X175719105Y-123097658D01*
X175020233Y-122398787D01*
X175062292Y-122387518D01*
X175187708Y-122315110D01*
X175290110Y-122212708D01*
X175362518Y-122087292D01*
X175373787Y-122045233D01*
X176072658Y-122744105D01*
X176072658Y-122744104D01*
X176132914Y-122661169D01*
X176132918Y-122661163D01*
X176240102Y-122450802D01*
X176313065Y-122226247D01*
X176350000Y-121993052D01*
X176350000Y-121756947D01*
X176313065Y-121523752D01*
X176240102Y-121299197D01*
X176132914Y-121088828D01*
X176072658Y-121005894D01*
X176072658Y-121005893D01*
X175373787Y-121704765D01*
X175362518Y-121662708D01*
X175290110Y-121537292D01*
X175187708Y-121434890D01*
X175062292Y-121362482D01*
X175020234Y-121351212D01*
X175719105Y-120652340D01*
X175719104Y-120652338D01*
X175636174Y-120592087D01*
X175425802Y-120484897D01*
X175201247Y-120411934D01*
X175201248Y-120411934D01*
X174968052Y-120375000D01*
X174731948Y-120375000D01*
X174498752Y-120411934D01*
X174274197Y-120484897D01*
X174063830Y-120592084D01*
X173980894Y-120652340D01*
X174679766Y-121351212D01*
X174637708Y-121362482D01*
X174512292Y-121434890D01*
X174409890Y-121537292D01*
X174337482Y-121662708D01*
X174326212Y-121704765D01*
X173627340Y-121005894D01*
X173567084Y-121088830D01*
X173459897Y-121299197D01*
X173386934Y-121523752D01*
X173350000Y-121756947D01*
X171850500Y-121756947D01*
X171850500Y-121756902D01*
X171813553Y-121523631D01*
X171740629Y-121299197D01*
X171740568Y-121299008D01*
X171740566Y-121299005D01*
X171740566Y-121299003D01*
X171684002Y-121187991D01*
X171633343Y-121088567D01*
X171494517Y-120897490D01*
X171327510Y-120730483D01*
X171136433Y-120591657D01*
X171077555Y-120561657D01*
X170925996Y-120484433D01*
X170701368Y-120411446D01*
X170468097Y-120374500D01*
X170468092Y-120374500D01*
X170231908Y-120374500D01*
X170231903Y-120374500D01*
X169998631Y-120411446D01*
X169774003Y-120484433D01*
X169563566Y-120591657D01*
X169480047Y-120652338D01*
X169372490Y-120730483D01*
X169372488Y-120730485D01*
X169372487Y-120730485D01*
X169205485Y-120897487D01*
X169205485Y-120897488D01*
X169205483Y-120897490D01*
X169151326Y-120972030D01*
X169066657Y-121088566D01*
X168959433Y-121299003D01*
X168886446Y-121523631D01*
X168849500Y-121756902D01*
X167249993Y-121756902D01*
X167213065Y-121523752D01*
X167140102Y-121299197D01*
X167032914Y-121088828D01*
X166972658Y-121005894D01*
X166972658Y-121005893D01*
X166273787Y-121704765D01*
X166262518Y-121662708D01*
X166190110Y-121537292D01*
X166087708Y-121434890D01*
X165962292Y-121362482D01*
X165920234Y-121351212D01*
X166619105Y-120652340D01*
X166619104Y-120652338D01*
X166536174Y-120592087D01*
X166325802Y-120484897D01*
X166101247Y-120411934D01*
X166101248Y-120411934D01*
X165868052Y-120375000D01*
X165631948Y-120375000D01*
X165398752Y-120411934D01*
X165174197Y-120484897D01*
X164963830Y-120592084D01*
X164880894Y-120652340D01*
X165579766Y-121351212D01*
X165537708Y-121362482D01*
X165412292Y-121434890D01*
X165309890Y-121537292D01*
X165237482Y-121662708D01*
X165226212Y-121704765D01*
X164527340Y-121005894D01*
X164467084Y-121088830D01*
X164359897Y-121299197D01*
X164286934Y-121523752D01*
X164250000Y-121756947D01*
X162750500Y-121756947D01*
X162750500Y-121756902D01*
X162713553Y-121523631D01*
X162640629Y-121299197D01*
X162640568Y-121299008D01*
X162640566Y-121299005D01*
X162640566Y-121299003D01*
X162584002Y-121187991D01*
X162533343Y-121088567D01*
X162394517Y-120897490D01*
X162227510Y-120730483D01*
X162036433Y-120591657D01*
X161977555Y-120561657D01*
X161825996Y-120484433D01*
X161601368Y-120411446D01*
X161368097Y-120374500D01*
X161368092Y-120374500D01*
X161131908Y-120374500D01*
X161131903Y-120374500D01*
X160898631Y-120411446D01*
X160674003Y-120484433D01*
X160463566Y-120591657D01*
X160380047Y-120652338D01*
X160272490Y-120730483D01*
X160272488Y-120730485D01*
X160272487Y-120730485D01*
X160105485Y-120897487D01*
X160105485Y-120897488D01*
X160105483Y-120897490D01*
X160051326Y-120972030D01*
X159966657Y-121088566D01*
X159859433Y-121299003D01*
X159786446Y-121523631D01*
X159749500Y-121756902D01*
X151996000Y-121756902D01*
X151996000Y-121726947D01*
X151959065Y-121493752D01*
X151886102Y-121269197D01*
X151778914Y-121058828D01*
X151718658Y-120975894D01*
X151718658Y-120975893D01*
X151019787Y-121674765D01*
X151008518Y-121632708D01*
X150936110Y-121507292D01*
X150833708Y-121404890D01*
X150708292Y-121332482D01*
X150666234Y-121321212D01*
X151365105Y-120622340D01*
X151365104Y-120622338D01*
X151282174Y-120562087D01*
X151071802Y-120454897D01*
X150847247Y-120381934D01*
X150847248Y-120381934D01*
X150614052Y-120345000D01*
X150377948Y-120345000D01*
X150144752Y-120381934D01*
X149920197Y-120454897D01*
X149709830Y-120562084D01*
X149626894Y-120622340D01*
X150325766Y-121321212D01*
X150283708Y-121332482D01*
X150158292Y-121404890D01*
X150055890Y-121507292D01*
X149983482Y-121632708D01*
X149972212Y-121674766D01*
X149273340Y-120975894D01*
X149213084Y-121058830D01*
X149105897Y-121269197D01*
X149032934Y-121493752D01*
X148996000Y-121726947D01*
X147496500Y-121726947D01*
X147496500Y-121726902D01*
X147459553Y-121493631D01*
X147396316Y-121299009D01*
X147386568Y-121269008D01*
X147386566Y-121269005D01*
X147386566Y-121269003D01*
X147319691Y-121137754D01*
X147279343Y-121058567D01*
X147140517Y-120867490D01*
X146973510Y-120700483D01*
X146782433Y-120561657D01*
X146571996Y-120454433D01*
X146347368Y-120381446D01*
X146114097Y-120344500D01*
X146114092Y-120344500D01*
X145877908Y-120344500D01*
X145877903Y-120344500D01*
X145644631Y-120381446D01*
X145420003Y-120454433D01*
X145209566Y-120561657D01*
X145126047Y-120622338D01*
X145018490Y-120700483D01*
X145018488Y-120700485D01*
X145018487Y-120700485D01*
X144851485Y-120867487D01*
X144851485Y-120867488D01*
X144851483Y-120867490D01*
X144829689Y-120897487D01*
X144712657Y-121058566D01*
X144605433Y-121269003D01*
X144532446Y-121493631D01*
X144495500Y-121726902D01*
X143195993Y-121726902D01*
X143159065Y-121493752D01*
X143086102Y-121269197D01*
X142978914Y-121058828D01*
X142918658Y-120975894D01*
X142918658Y-120975893D01*
X142219787Y-121674765D01*
X142208518Y-121632708D01*
X142136110Y-121507292D01*
X142033708Y-121404890D01*
X141908292Y-121332482D01*
X141866234Y-121321212D01*
X142565105Y-120622340D01*
X142565104Y-120622338D01*
X142482174Y-120562087D01*
X142271802Y-120454897D01*
X142047247Y-120381934D01*
X142047248Y-120381934D01*
X141814052Y-120345000D01*
X141577948Y-120345000D01*
X141344752Y-120381934D01*
X141120197Y-120454897D01*
X140909830Y-120562084D01*
X140826894Y-120622340D01*
X141525766Y-121321212D01*
X141483708Y-121332482D01*
X141358292Y-121404890D01*
X141255890Y-121507292D01*
X141183482Y-121632708D01*
X141172212Y-121674766D01*
X140473340Y-120975894D01*
X140413084Y-121058830D01*
X140305897Y-121269197D01*
X140232934Y-121493752D01*
X140196000Y-121726947D01*
X138696500Y-121726947D01*
X138696500Y-121726902D01*
X138659553Y-121493631D01*
X138596316Y-121299009D01*
X138586568Y-121269008D01*
X138586566Y-121269005D01*
X138586566Y-121269003D01*
X138519691Y-121137754D01*
X138479343Y-121058567D01*
X138340517Y-120867490D01*
X138173510Y-120700483D01*
X137982433Y-120561657D01*
X137771996Y-120454433D01*
X137547368Y-120381446D01*
X137314097Y-120344500D01*
X137314092Y-120344500D01*
X137077908Y-120344500D01*
X137077903Y-120344500D01*
X136844631Y-120381446D01*
X136620003Y-120454433D01*
X136409566Y-120561657D01*
X136326047Y-120622338D01*
X136218490Y-120700483D01*
X136218488Y-120700485D01*
X136218487Y-120700485D01*
X136051485Y-120867487D01*
X136051485Y-120867488D01*
X136051483Y-120867490D01*
X136029689Y-120897487D01*
X135912657Y-121058566D01*
X135805433Y-121269003D01*
X135732446Y-121493631D01*
X135695500Y-121726902D01*
X134684700Y-121726902D01*
X134684700Y-114370788D01*
X181914344Y-114370788D01*
X181914344Y-114613365D01*
X181946005Y-114853862D01*
X182008791Y-115088181D01*
X182101617Y-115312282D01*
X182101620Y-115312289D01*
X182222908Y-115522366D01*
X182222910Y-115522369D01*
X182222911Y-115522370D01*
X182370577Y-115714813D01*
X182370583Y-115714820D01*
X182542100Y-115886337D01*
X182542106Y-115886342D01*
X182734555Y-116034013D01*
X182944632Y-116155301D01*
X183168744Y-116248131D01*
X183403055Y-116310915D01*
X183583430Y-116334661D01*
X183643555Y-116342577D01*
X183643556Y-116342577D01*
X183886133Y-116342577D01*
X183934232Y-116336244D01*
X184126633Y-116310915D01*
X184360944Y-116248131D01*
X184585056Y-116155301D01*
X184795133Y-116034013D01*
X184987582Y-115886342D01*
X185159109Y-115714815D01*
X185306780Y-115522366D01*
X185428068Y-115312289D01*
X185520898Y-115088177D01*
X185583682Y-114853866D01*
X185615344Y-114613365D01*
X185615344Y-114370789D01*
X185583682Y-114130288D01*
X185520898Y-113895977D01*
X185428068Y-113671865D01*
X185306780Y-113461788D01*
X185159109Y-113269339D01*
X185159104Y-113269333D01*
X184987587Y-113097816D01*
X184987580Y-113097810D01*
X184795137Y-112950144D01*
X184795136Y-112950143D01*
X184795133Y-112950141D01*
X184585056Y-112828853D01*
X184580353Y-112826905D01*
X184360948Y-112736024D01*
X184126629Y-112673238D01*
X183886133Y-112641577D01*
X183886132Y-112641577D01*
X183643556Y-112641577D01*
X183643555Y-112641577D01*
X183403058Y-112673238D01*
X183168739Y-112736024D01*
X182944638Y-112828850D01*
X182944629Y-112828854D01*
X182734550Y-112950144D01*
X182542107Y-113097810D01*
X182542100Y-113097816D01*
X182370583Y-113269333D01*
X182370577Y-113269340D01*
X182222911Y-113461783D01*
X182101621Y-113671862D01*
X182101617Y-113671871D01*
X182008791Y-113895972D01*
X181946005Y-114130291D01*
X181914344Y-114370788D01*
X134684700Y-114370788D01*
X134684700Y-113544630D01*
X134704385Y-113477591D01*
X134721019Y-113456949D01*
X136139149Y-112038819D01*
X136166076Y-112024115D01*
X136191895Y-112007523D01*
X136198095Y-112006631D01*
X136200472Y-112005334D01*
X136226830Y-112002500D01*
X136398196Y-112002500D01*
X136445644Y-112011937D01*
X136469303Y-112021737D01*
X136469308Y-112021738D01*
X136469311Y-112021739D01*
X136623953Y-112052499D01*
X136623956Y-112052500D01*
X136623958Y-112052500D01*
X136781644Y-112052500D01*
X136781645Y-112052499D01*
X136857952Y-112037320D01*
X136936288Y-112021739D01*
X136936289Y-112021738D01*
X136936297Y-112021737D01*
X136959955Y-112011937D01*
X137007404Y-112002500D01*
X145669196Y-112002500D01*
X145716644Y-112011937D01*
X145740303Y-112021737D01*
X145740308Y-112021738D01*
X145740311Y-112021739D01*
X145894953Y-112052499D01*
X145894956Y-112052500D01*
X145894958Y-112052500D01*
X146052644Y-112052500D01*
X146052645Y-112052499D01*
X146207297Y-112021737D01*
X146245062Y-112006093D01*
X146268323Y-111999037D01*
X146395913Y-111973658D01*
X146532495Y-111917084D01*
X146597291Y-111873789D01*
X146597294Y-111873786D01*
X146597296Y-111873786D01*
X146626547Y-111854240D01*
X146655416Y-111834952D01*
X158763918Y-99726447D01*
X158825241Y-99692963D01*
X158894933Y-99697947D01*
X158939280Y-99726448D01*
X170692186Y-111479354D01*
X170721658Y-111499045D01*
X170765870Y-111528586D01*
X170815105Y-111561484D01*
X170815106Y-111561484D01*
X170815107Y-111561485D01*
X170815109Y-111561486D01*
X170951682Y-111618056D01*
X170951687Y-111618058D01*
X170951691Y-111618058D01*
X170951692Y-111618059D01*
X171096679Y-111646900D01*
X171096682Y-111646900D01*
X186687720Y-111646900D01*
X186785262Y-111627496D01*
X186832713Y-111618058D01*
X186969295Y-111561484D01*
X187018529Y-111528586D01*
X187018534Y-111528583D01*
X187042871Y-111512321D01*
X187092216Y-111479352D01*
X189287819Y-109283747D01*
X189349142Y-109250263D01*
X189418834Y-109255247D01*
X189474767Y-109297119D01*
X189499184Y-109362583D01*
X189499500Y-109371429D01*
X189499500Y-135375500D01*
X189479815Y-135442539D01*
X189427011Y-135488294D01*
X189375500Y-135499500D01*
X95624500Y-135499500D01*
X95557461Y-135479815D01*
X95511706Y-135427011D01*
X95500500Y-135375500D01*
X95500500Y-130878711D01*
X98149500Y-130878711D01*
X98149500Y-131121288D01*
X98181161Y-131361785D01*
X98243947Y-131596104D01*
X98336773Y-131820205D01*
X98336776Y-131820212D01*
X98458064Y-132030289D01*
X98458066Y-132030292D01*
X98458067Y-132030293D01*
X98605733Y-132222736D01*
X98605739Y-132222743D01*
X98777256Y-132394260D01*
X98777262Y-132394265D01*
X98969711Y-132541936D01*
X99179788Y-132663224D01*
X99403900Y-132756054D01*
X99638211Y-132818838D01*
X99818586Y-132842584D01*
X99878711Y-132850500D01*
X99878712Y-132850500D01*
X100121289Y-132850500D01*
X100169388Y-132844167D01*
X100361789Y-132818838D01*
X100596100Y-132756054D01*
X100820212Y-132663224D01*
X101030289Y-132541936D01*
X101222738Y-132394265D01*
X101394265Y-132222738D01*
X101541936Y-132030289D01*
X101663224Y-131820212D01*
X101756054Y-131596100D01*
X101818838Y-131361789D01*
X101850500Y-131121288D01*
X101850500Y-130878712D01*
X101850500Y-130878711D01*
X183149500Y-130878711D01*
X183149500Y-131121288D01*
X183181161Y-131361785D01*
X183243947Y-131596104D01*
X183336773Y-131820205D01*
X183336776Y-131820212D01*
X183458064Y-132030289D01*
X183458066Y-132030292D01*
X183458067Y-132030293D01*
X183605733Y-132222736D01*
X183605739Y-132222743D01*
X183777256Y-132394260D01*
X183777262Y-132394265D01*
X183969711Y-132541936D01*
X184179788Y-132663224D01*
X184403900Y-132756054D01*
X184638211Y-132818838D01*
X184818586Y-132842584D01*
X184878711Y-132850500D01*
X184878712Y-132850500D01*
X185121289Y-132850500D01*
X185169388Y-132844167D01*
X185361789Y-132818838D01*
X185596100Y-132756054D01*
X185820212Y-132663224D01*
X186030289Y-132541936D01*
X186222738Y-132394265D01*
X186394265Y-132222738D01*
X186541936Y-132030289D01*
X186663224Y-131820212D01*
X186756054Y-131596100D01*
X186818838Y-131361789D01*
X186850500Y-131121288D01*
X186850500Y-130878712D01*
X186818838Y-130638211D01*
X186756054Y-130403900D01*
X186663224Y-130179788D01*
X186541936Y-129969711D01*
X186440921Y-129838065D01*
X186394266Y-129777263D01*
X186394260Y-129777256D01*
X186222743Y-129605739D01*
X186222736Y-129605733D01*
X186030293Y-129458067D01*
X186030292Y-129458066D01*
X186030289Y-129458064D01*
X185820212Y-129336776D01*
X185785776Y-129322512D01*
X185596104Y-129243947D01*
X185361785Y-129181161D01*
X185121289Y-129149500D01*
X185121288Y-129149500D01*
X184878712Y-129149500D01*
X184878711Y-129149500D01*
X184638214Y-129181161D01*
X184403895Y-129243947D01*
X184179794Y-129336773D01*
X184179785Y-129336777D01*
X183969706Y-129458067D01*
X183777263Y-129605733D01*
X183777256Y-129605739D01*
X183605739Y-129777256D01*
X183605733Y-129777263D01*
X183458067Y-129969706D01*
X183336777Y-130179785D01*
X183336773Y-130179794D01*
X183243947Y-130403895D01*
X183181161Y-130638214D01*
X183149500Y-130878711D01*
X101850500Y-130878711D01*
X101818838Y-130638211D01*
X101756054Y-130403900D01*
X101663224Y-130179788D01*
X101541936Y-129969711D01*
X101440921Y-129838065D01*
X101394266Y-129777263D01*
X101394260Y-129777256D01*
X101222743Y-129605739D01*
X101222736Y-129605733D01*
X101030293Y-129458067D01*
X101030292Y-129458066D01*
X101030289Y-129458064D01*
X100820212Y-129336776D01*
X100785776Y-129322512D01*
X100596104Y-129243947D01*
X100361785Y-129181161D01*
X100121289Y-129149500D01*
X100121288Y-129149500D01*
X99878712Y-129149500D01*
X99878711Y-129149500D01*
X99638214Y-129181161D01*
X99403895Y-129243947D01*
X99179794Y-129336773D01*
X99179785Y-129336777D01*
X98969706Y-129458067D01*
X98777263Y-129605733D01*
X98777256Y-129605739D01*
X98605739Y-129777256D01*
X98605733Y-129777263D01*
X98458067Y-129969706D01*
X98336777Y-130179785D01*
X98336773Y-130179794D01*
X98243947Y-130403895D01*
X98181161Y-130638214D01*
X98149500Y-130878711D01*
X95500500Y-130878711D01*
X95500500Y-114370788D01*
X106014344Y-114370788D01*
X106014344Y-114613365D01*
X106046005Y-114853862D01*
X106108791Y-115088181D01*
X106201617Y-115312282D01*
X106201620Y-115312289D01*
X106322908Y-115522366D01*
X106322910Y-115522369D01*
X106322911Y-115522370D01*
X106470577Y-115714813D01*
X106470583Y-115714820D01*
X106642100Y-115886337D01*
X106642106Y-115886342D01*
X106834555Y-116034013D01*
X107044632Y-116155301D01*
X107268744Y-116248131D01*
X107503055Y-116310915D01*
X107683430Y-116334661D01*
X107743555Y-116342577D01*
X107743556Y-116342577D01*
X107986133Y-116342577D01*
X108034232Y-116336244D01*
X108226633Y-116310915D01*
X108460944Y-116248131D01*
X108685056Y-116155301D01*
X108895133Y-116034013D01*
X109087582Y-115886342D01*
X109259109Y-115714815D01*
X109406780Y-115522366D01*
X109528068Y-115312289D01*
X109620898Y-115088177D01*
X109683682Y-114853866D01*
X109715344Y-114613365D01*
X109715344Y-114370789D01*
X109683682Y-114130288D01*
X109620898Y-113895977D01*
X109528068Y-113671865D01*
X109406780Y-113461788D01*
X109259109Y-113269339D01*
X109259104Y-113269333D01*
X109087587Y-113097816D01*
X109087580Y-113097810D01*
X108895137Y-112950144D01*
X108895136Y-112950143D01*
X108895133Y-112950141D01*
X108685056Y-112828853D01*
X108680353Y-112826905D01*
X108460948Y-112736024D01*
X108226629Y-112673238D01*
X107986133Y-112641577D01*
X107986132Y-112641577D01*
X107743556Y-112641577D01*
X107743555Y-112641577D01*
X107503058Y-112673238D01*
X107268739Y-112736024D01*
X107044638Y-112828850D01*
X107044629Y-112828854D01*
X106834550Y-112950144D01*
X106642107Y-113097810D01*
X106642100Y-113097816D01*
X106470583Y-113269333D01*
X106470577Y-113269340D01*
X106322911Y-113461783D01*
X106201621Y-113671862D01*
X106201617Y-113671871D01*
X106108791Y-113895972D01*
X106046005Y-114130291D01*
X106014344Y-114370788D01*
X95500500Y-114370788D01*
X95500500Y-81472544D01*
X95520185Y-81405505D01*
X95572989Y-81359750D01*
X95642147Y-81349806D01*
X95671953Y-81357983D01*
X95794353Y-81408683D01*
X95794361Y-81408685D01*
X95976921Y-81444999D01*
X95976924Y-81445000D01*
X96150000Y-81445000D01*
X96150000Y-80750000D01*
X96650000Y-80750000D01*
X96650000Y-81445000D01*
X96823076Y-81445000D01*
X96823078Y-81444999D01*
X97005638Y-81408685D01*
X97005646Y-81408683D01*
X97177622Y-81337449D01*
X97177631Y-81337444D01*
X97332401Y-81234029D01*
X97332405Y-81234026D01*
X97464026Y-81102405D01*
X97464029Y-81102401D01*
X97567444Y-80947631D01*
X97567451Y-80947618D01*
X97638682Y-80775649D01*
X97638683Y-80775644D01*
X97643784Y-80750000D01*
X96774728Y-80750000D01*
X96866614Y-80711940D01*
X96936940Y-80641614D01*
X96975000Y-80549728D01*
X96975000Y-80450272D01*
X96936940Y-80358386D01*
X96866614Y-80288060D01*
X96774728Y-80250000D01*
X97643784Y-80250000D01*
X97638683Y-80224355D01*
X97638682Y-80224350D01*
X97567451Y-80052381D01*
X97567444Y-80052368D01*
X97464029Y-79897598D01*
X97464026Y-79897594D01*
X97332405Y-79765973D01*
X97332401Y-79765970D01*
X97177631Y-79662555D01*
X97177622Y-79662550D01*
X97005646Y-79591316D01*
X97005638Y-79591314D01*
X96823077Y-79555000D01*
X96650000Y-79555000D01*
X96650000Y-80250000D01*
X96150000Y-80250000D01*
X96150000Y-79555000D01*
X95976923Y-79555000D01*
X95794361Y-79591314D01*
X95794349Y-79591317D01*
X95671952Y-79642016D01*
X95639326Y-79645523D01*
X95606853Y-79650193D01*
X95604765Y-79649239D01*
X95602483Y-79649485D01*
X95573139Y-79634796D01*
X95543297Y-79621168D01*
X95542056Y-79619237D01*
X95540004Y-79618210D01*
X95523263Y-79589994D01*
X95505523Y-79562390D01*
X95505087Y-79559360D01*
X95504352Y-79558121D01*
X95500500Y-79527455D01*
X95500500Y-79249999D01*
X98125789Y-79249999D01*
X98125790Y-79250000D01*
X98843763Y-79250000D01*
X98825000Y-79295299D01*
X98825000Y-79704701D01*
X98843763Y-79750000D01*
X98125789Y-79750000D01*
X98162466Y-79934389D01*
X98162468Y-79934397D01*
X98235964Y-80111833D01*
X98235969Y-80111842D01*
X98342667Y-80271526D01*
X98342670Y-80271530D01*
X98478469Y-80407329D01*
X98478473Y-80407332D01*
X98638157Y-80514030D01*
X98638167Y-80514035D01*
X98815599Y-80587530D01*
X98815606Y-80587533D01*
X98850000Y-80594373D01*
X98850000Y-79765056D01*
X98866866Y-79805775D01*
X98944225Y-79883134D01*
X99045299Y-79925000D01*
X99154701Y-79925000D01*
X99255775Y-79883134D01*
X99333134Y-79805775D01*
X99350000Y-79765056D01*
X99350000Y-80594372D01*
X99384393Y-80587533D01*
X99384400Y-80587530D01*
X99561832Y-80514035D01*
X99561842Y-80514030D01*
X99721526Y-80407332D01*
X99721530Y-80407329D01*
X99857329Y-80271530D01*
X99857332Y-80271526D01*
X99964030Y-80111842D01*
X99964035Y-80111833D01*
X100037531Y-79934397D01*
X100037533Y-79934389D01*
X100074210Y-79750000D01*
X99356237Y-79750000D01*
X99375000Y-79704701D01*
X99375000Y-79295299D01*
X99356237Y-79250000D01*
X100074210Y-79250000D01*
X100074210Y-79249999D01*
X100037533Y-79065610D01*
X100037531Y-79065602D01*
X99964035Y-78888166D01*
X99964030Y-78888157D01*
X99857332Y-78728473D01*
X99857329Y-78728469D01*
X99721530Y-78592670D01*
X99721526Y-78592667D01*
X99561842Y-78485969D01*
X99561833Y-78485964D01*
X99384397Y-78412468D01*
X99384389Y-78412466D01*
X99350000Y-78405625D01*
X99350000Y-79234943D01*
X99333134Y-79194225D01*
X99255775Y-79116866D01*
X99154701Y-79075000D01*
X99045299Y-79075000D01*
X98944225Y-79116866D01*
X98866866Y-79194225D01*
X98850000Y-79234943D01*
X98850000Y-78405625D01*
X98815610Y-78412466D01*
X98815602Y-78412468D01*
X98638166Y-78485964D01*
X98638157Y-78485969D01*
X98478473Y-78592667D01*
X98478469Y-78592670D01*
X98342670Y-78728469D01*
X98342667Y-78728473D01*
X98235969Y-78888157D01*
X98235964Y-78888166D01*
X98162468Y-79065602D01*
X98162466Y-79065610D01*
X98125789Y-79249999D01*
X95500500Y-79249999D01*
X95500500Y-74472544D01*
X95520185Y-74405505D01*
X95572989Y-74359750D01*
X95642147Y-74349806D01*
X95671953Y-74357983D01*
X95794353Y-74408683D01*
X95794361Y-74408685D01*
X95976921Y-74444999D01*
X95976924Y-74445000D01*
X96150000Y-74445000D01*
X96150000Y-73750000D01*
X96650000Y-73750000D01*
X96650000Y-74445000D01*
X96823076Y-74445000D01*
X96823078Y-74444999D01*
X97005638Y-74408685D01*
X97005646Y-74408683D01*
X97177622Y-74337449D01*
X97177631Y-74337444D01*
X97308500Y-74249999D01*
X98125789Y-74249999D01*
X98125790Y-74250000D01*
X98843763Y-74250000D01*
X98825000Y-74295299D01*
X98825000Y-74704701D01*
X98843763Y-74750000D01*
X98125789Y-74750000D01*
X98162466Y-74934389D01*
X98162468Y-74934397D01*
X98235964Y-75111833D01*
X98235969Y-75111842D01*
X98342667Y-75271526D01*
X98342670Y-75271530D01*
X98478469Y-75407329D01*
X98478473Y-75407332D01*
X98638157Y-75514030D01*
X98638167Y-75514035D01*
X98815599Y-75587530D01*
X98815606Y-75587533D01*
X98850000Y-75594373D01*
X98850000Y-74765056D01*
X98866866Y-74805775D01*
X98944225Y-74883134D01*
X99045299Y-74925000D01*
X99154701Y-74925000D01*
X99255775Y-74883134D01*
X99333134Y-74805775D01*
X99350000Y-74765056D01*
X99350000Y-75594372D01*
X99384393Y-75587533D01*
X99384400Y-75587530D01*
X99561832Y-75514035D01*
X99561842Y-75514030D01*
X99721526Y-75407332D01*
X99721530Y-75407329D01*
X99857329Y-75271530D01*
X99857332Y-75271526D01*
X99964030Y-75111842D01*
X99964035Y-75111833D01*
X100037531Y-74934397D01*
X100037533Y-74934389D01*
X100074210Y-74750000D01*
X99356237Y-74750000D01*
X99375000Y-74704701D01*
X99375000Y-74295299D01*
X99356237Y-74250000D01*
X100074210Y-74250000D01*
X100074210Y-74249999D01*
X100037533Y-74065610D01*
X100037531Y-74065602D01*
X99964035Y-73888166D01*
X99964030Y-73888157D01*
X99857332Y-73728473D01*
X99857329Y-73728469D01*
X99721530Y-73592670D01*
X99721526Y-73592667D01*
X99561842Y-73485969D01*
X99561833Y-73485964D01*
X99384397Y-73412468D01*
X99384389Y-73412466D01*
X99350000Y-73405625D01*
X99350000Y-74234943D01*
X99333134Y-74194225D01*
X99255775Y-74116866D01*
X99154701Y-74075000D01*
X99045299Y-74075000D01*
X98944225Y-74116866D01*
X98866866Y-74194225D01*
X98850000Y-74234943D01*
X98850000Y-73405625D01*
X98815610Y-73412466D01*
X98815602Y-73412468D01*
X98638166Y-73485964D01*
X98638157Y-73485969D01*
X98478473Y-73592667D01*
X98478469Y-73592670D01*
X98342670Y-73728469D01*
X98342667Y-73728473D01*
X98235969Y-73888157D01*
X98235964Y-73888166D01*
X98162468Y-74065602D01*
X98162466Y-74065610D01*
X98125789Y-74249999D01*
X97308500Y-74249999D01*
X97332401Y-74234029D01*
X97332405Y-74234026D01*
X97370783Y-74195649D01*
X97464026Y-74102405D01*
X97464029Y-74102401D01*
X97567444Y-73947631D01*
X97567451Y-73947618D01*
X97638682Y-73775649D01*
X97638683Y-73775644D01*
X97643784Y-73750000D01*
X96774728Y-73750000D01*
X96866614Y-73711940D01*
X96936940Y-73641614D01*
X96975000Y-73549728D01*
X96975000Y-73450272D01*
X96936940Y-73358386D01*
X96866614Y-73288060D01*
X96774728Y-73250000D01*
X97643784Y-73250000D01*
X97638683Y-73224355D01*
X97638682Y-73224350D01*
X97567451Y-73052381D01*
X97567444Y-73052368D01*
X97464029Y-72897598D01*
X97464026Y-72897594D01*
X97332405Y-72765973D01*
X97332401Y-72765970D01*
X97177631Y-72662555D01*
X97177622Y-72662550D01*
X97005646Y-72591316D01*
X97005638Y-72591314D01*
X96823077Y-72555000D01*
X96650000Y-72555000D01*
X96650000Y-73250000D01*
X96150000Y-73250000D01*
X96150000Y-72555000D01*
X95976923Y-72555000D01*
X95794361Y-72591314D01*
X95794349Y-72591317D01*
X95671952Y-72642016D01*
X95602483Y-72649485D01*
X95540004Y-72618210D01*
X95504352Y-72558121D01*
X95500500Y-72527455D01*
X95500500Y-57878711D01*
X98149500Y-57878711D01*
X98149500Y-58121288D01*
X98181161Y-58361785D01*
X98243947Y-58596104D01*
X98316320Y-58770827D01*
X98336776Y-58820212D01*
X98458064Y-59030289D01*
X98458066Y-59030292D01*
X98458067Y-59030293D01*
X98605733Y-59222736D01*
X98605739Y-59222743D01*
X98777256Y-59394260D01*
X98777262Y-59394265D01*
X98969711Y-59541936D01*
X99179788Y-59663224D01*
X99403900Y-59756054D01*
X99638211Y-59818838D01*
X99818586Y-59842584D01*
X99878711Y-59850500D01*
X99878712Y-59850500D01*
X100121289Y-59850500D01*
X100169388Y-59844167D01*
X100361789Y-59818838D01*
X100596100Y-59756054D01*
X100820212Y-59663224D01*
X101030289Y-59541936D01*
X101222738Y-59394265D01*
X101394265Y-59222738D01*
X101541936Y-59030289D01*
X101663224Y-58820212D01*
X101756054Y-58596100D01*
X101818838Y-58361789D01*
X101850500Y-58121288D01*
X101850500Y-57878712D01*
X101818838Y-57638211D01*
X101756054Y-57403900D01*
X101663224Y-57179788D01*
X101541936Y-56969711D01*
X101394265Y-56777262D01*
X101394260Y-56777256D01*
X101222743Y-56605739D01*
X101222736Y-56605733D01*
X101030293Y-56458067D01*
X101030292Y-56458066D01*
X101030289Y-56458064D01*
X100820212Y-56336776D01*
X100820205Y-56336773D01*
X100596104Y-56243947D01*
X100361785Y-56181161D01*
X100121289Y-56149500D01*
X100121288Y-56149500D01*
X99878712Y-56149500D01*
X99878711Y-56149500D01*
X99638214Y-56181161D01*
X99403895Y-56243947D01*
X99179794Y-56336773D01*
X99179785Y-56336777D01*
X98969706Y-56458067D01*
X98777263Y-56605733D01*
X98777256Y-56605739D01*
X98605739Y-56777256D01*
X98605733Y-56777263D01*
X98458067Y-56969706D01*
X98336777Y-57179785D01*
X98336773Y-57179794D01*
X98243947Y-57403895D01*
X98181161Y-57638214D01*
X98149500Y-57878711D01*
X95500500Y-57878711D01*
X95500500Y-53624500D01*
X95520185Y-53557461D01*
X95572989Y-53511706D01*
X95624500Y-53500500D01*
X108876000Y-53500500D01*
X108943039Y-53520185D01*
G37*
%TD.AperFunction*%
%TA.AperFunction,Conductor*%
G36*
X162022142Y-71790985D02*
G01*
X162042784Y-71807619D01*
X177023481Y-86788316D01*
X177056966Y-86849639D01*
X177059800Y-86875997D01*
X177059800Y-104269230D01*
X177059799Y-104269248D01*
X177059799Y-104434954D01*
X177059798Y-104434954D01*
X177100723Y-104587687D01*
X177100724Y-104587688D01*
X177115775Y-104613756D01*
X177115777Y-104613759D01*
X177179777Y-104724612D01*
X177179781Y-104724617D01*
X177298649Y-104843485D01*
X177298655Y-104843490D01*
X181760139Y-109304974D01*
X181760149Y-109304985D01*
X181764479Y-109309315D01*
X181764480Y-109309316D01*
X181876284Y-109421120D01*
X181933626Y-109454226D01*
X182013215Y-109500177D01*
X182165943Y-109541101D01*
X182165946Y-109541101D01*
X182331653Y-109541101D01*
X182331669Y-109541100D01*
X184033955Y-109541100D01*
X184100994Y-109560785D01*
X184144440Y-109608805D01*
X184165759Y-109650645D01*
X184295324Y-109828978D01*
X184295328Y-109828983D01*
X184400564Y-109934219D01*
X184434049Y-109995542D01*
X184429065Y-110065234D01*
X184387193Y-110121167D01*
X184321729Y-110145584D01*
X184312883Y-110145900D01*
X171532830Y-110145900D01*
X171465791Y-110126215D01*
X171445149Y-110109581D01*
X159638419Y-98302851D01*
X159604934Y-98241528D01*
X159602100Y-98215170D01*
X159602100Y-78950741D01*
X159611539Y-78903288D01*
X159611847Y-78902545D01*
X159619737Y-78883497D01*
X159650500Y-78728842D01*
X159650500Y-78571158D01*
X159650500Y-78571155D01*
X159650499Y-78571153D01*
X159619739Y-78416511D01*
X159619738Y-78416508D01*
X159619737Y-78416503D01*
X159609937Y-78392844D01*
X159600500Y-78345396D01*
X159600500Y-77346667D01*
X159609939Y-77299215D01*
X159621335Y-77271701D01*
X159621337Y-77271697D01*
X159652100Y-77117042D01*
X159652100Y-76959358D01*
X159652100Y-76959355D01*
X159652099Y-76959353D01*
X159621339Y-76804711D01*
X159621338Y-76804708D01*
X159621337Y-76804703D01*
X159611537Y-76781044D01*
X159602100Y-76733596D01*
X159602100Y-75260629D01*
X159621785Y-75193590D01*
X159638419Y-75172948D01*
X160399548Y-74411819D01*
X160460871Y-74378334D01*
X160487229Y-74375500D01*
X160784419Y-74375500D01*
X160831871Y-74384939D01*
X160841642Y-74388986D01*
X160878703Y-74404337D01*
X161025259Y-74433489D01*
X161033353Y-74435099D01*
X161033356Y-74435100D01*
X161033358Y-74435100D01*
X161191044Y-74435100D01*
X161191045Y-74435099D01*
X161345697Y-74404337D01*
X161458366Y-74357667D01*
X161491372Y-74343997D01*
X161491372Y-74343996D01*
X161491379Y-74343994D01*
X161622489Y-74256389D01*
X161733989Y-74144889D01*
X161821594Y-74013779D01*
X161881937Y-73868097D01*
X161912700Y-73713442D01*
X161912700Y-73555758D01*
X161912700Y-73555755D01*
X161912699Y-73555753D01*
X161898817Y-73485964D01*
X161881937Y-73401103D01*
X161875913Y-73386559D01*
X161821597Y-73255427D01*
X161821590Y-73255414D01*
X161733989Y-73124311D01*
X161733986Y-73124307D01*
X161622492Y-73012813D01*
X161622488Y-73012810D01*
X161491385Y-72925209D01*
X161491372Y-72925202D01*
X161345701Y-72864864D01*
X161345689Y-72864861D01*
X161191045Y-72834100D01*
X161191042Y-72834100D01*
X161033358Y-72834100D01*
X161033355Y-72834100D01*
X160878711Y-72864860D01*
X160878701Y-72864863D01*
X160878223Y-72865062D01*
X160877715Y-72865162D01*
X160872880Y-72866630D01*
X160872735Y-72866153D01*
X160830773Y-72874500D01*
X160479604Y-72874500D01*
X160432155Y-72865062D01*
X160408497Y-72855263D01*
X160408493Y-72855262D01*
X160408488Y-72855260D01*
X160253845Y-72824500D01*
X160253842Y-72824500D01*
X160096158Y-72824500D01*
X160096155Y-72824500D01*
X159941510Y-72855261D01*
X159941498Y-72855264D01*
X159795827Y-72915602D01*
X159795814Y-72915609D01*
X159664711Y-73003210D01*
X159664707Y-73003213D01*
X159553215Y-73114705D01*
X159553208Y-73114713D01*
X159518289Y-73166973D01*
X159502869Y-73185762D01*
X158268652Y-74419978D01*
X158268649Y-74419981D01*
X158222466Y-74489099D01*
X158222467Y-74489100D01*
X158186514Y-74542908D01*
X158129943Y-74679482D01*
X158129940Y-74679492D01*
X158101100Y-74824479D01*
X158101100Y-76733596D01*
X158091662Y-76781044D01*
X158081863Y-76804703D01*
X158081862Y-76804706D01*
X158081860Y-76804711D01*
X158051100Y-76959353D01*
X158051100Y-77117046D01*
X158081861Y-77271689D01*
X158081863Y-77271697D01*
X158090061Y-77291488D01*
X158099500Y-77338941D01*
X158099500Y-78345396D01*
X158090062Y-78392844D01*
X158080263Y-78416503D01*
X158080262Y-78416506D01*
X158080260Y-78416511D01*
X158049500Y-78571153D01*
X158049500Y-78728846D01*
X158080261Y-78883489D01*
X158080264Y-78883501D01*
X158091661Y-78911015D01*
X158101100Y-78958467D01*
X158101100Y-98215170D01*
X158081415Y-98282209D01*
X158064781Y-98302851D01*
X145947988Y-110419643D01*
X145933002Y-110428018D01*
X145921868Y-110439601D01*
X145892878Y-110450444D01*
X145889049Y-110452585D01*
X145886753Y-110453132D01*
X145740303Y-110482263D01*
X145707532Y-110495836D01*
X145697938Y-110498123D01*
X145688602Y-110497640D01*
X145669196Y-110501500D01*
X137007404Y-110501500D01*
X136959955Y-110492062D01*
X136936297Y-110482263D01*
X136936293Y-110482262D01*
X136936288Y-110482260D01*
X136781645Y-110451500D01*
X136781642Y-110451500D01*
X136623958Y-110451500D01*
X136623955Y-110451500D01*
X136469311Y-110482260D01*
X136469306Y-110482262D01*
X136469304Y-110482262D01*
X136469303Y-110482263D01*
X136445644Y-110492062D01*
X136398196Y-110501500D01*
X135790680Y-110501500D01*
X135645692Y-110530340D01*
X135645686Y-110530342D01*
X135509108Y-110586914D01*
X135509096Y-110586921D01*
X135459869Y-110619813D01*
X135386188Y-110669044D01*
X135386180Y-110669050D01*
X133351247Y-112703984D01*
X133340521Y-112720037D01*
X133329841Y-112736023D01*
X133299374Y-112781619D01*
X133269114Y-112826907D01*
X133212543Y-112963482D01*
X133212540Y-112963492D01*
X133183700Y-113108479D01*
X133183700Y-126282170D01*
X133164015Y-126349209D01*
X133147381Y-126369851D01*
X131983251Y-127533981D01*
X131921928Y-127567466D01*
X131895570Y-127570300D01*
X131407875Y-127570300D01*
X131340836Y-127550615D01*
X131295081Y-127497811D01*
X131285137Y-127428653D01*
X131314162Y-127365097D01*
X131342778Y-127340762D01*
X131375086Y-127320833D01*
X131375090Y-127320830D01*
X131498029Y-127197891D01*
X131589303Y-127049914D01*
X131589305Y-127049909D01*
X131643992Y-126884873D01*
X131654399Y-126783015D01*
X131654400Y-126783002D01*
X131654400Y-126739700D01*
X129254400Y-126739700D01*
X129254400Y-126783015D01*
X129264807Y-126884873D01*
X129319494Y-127049909D01*
X129319496Y-127049914D01*
X129410770Y-127197891D01*
X129533709Y-127320830D01*
X129533713Y-127320833D01*
X129566022Y-127340762D01*
X129612747Y-127392710D01*
X129623968Y-127461672D01*
X129596125Y-127525754D01*
X129538056Y-127564610D01*
X129500925Y-127570300D01*
X124696283Y-127570300D01*
X124629244Y-127550615D01*
X124583489Y-127497811D01*
X124573545Y-127428653D01*
X124602570Y-127365097D01*
X124608602Y-127358619D01*
X124716229Y-127250991D01*
X124807503Y-127103014D01*
X124807505Y-127103009D01*
X124862192Y-126937973D01*
X124872599Y-126836115D01*
X124872600Y-126836102D01*
X124872600Y-126792800D01*
X122472600Y-126792800D01*
X122472600Y-126836115D01*
X122483007Y-126937973D01*
X122537694Y-127103009D01*
X122537696Y-127103014D01*
X122628970Y-127250991D01*
X122736598Y-127358619D01*
X122770083Y-127419942D01*
X122765099Y-127489634D01*
X122723227Y-127545567D01*
X122657763Y-127569984D01*
X122648917Y-127570300D01*
X107758030Y-127570300D01*
X107690991Y-127550615D01*
X107670349Y-127533981D01*
X107059170Y-126922802D01*
X107025685Y-126861479D01*
X107030669Y-126791787D01*
X107072537Y-126735856D01*
X107176346Y-126658146D01*
X107262596Y-126542931D01*
X107312891Y-126408083D01*
X107319300Y-126348473D01*
X107319299Y-126324579D01*
X107322130Y-126311563D01*
X107332740Y-126292125D01*
X107338979Y-126270875D01*
X107355603Y-126250243D01*
X107355608Y-126250236D01*
X107355611Y-126250234D01*
X107355618Y-126250226D01*
X108025837Y-125580008D01*
X108042875Y-125643593D01*
X108108701Y-125757607D01*
X108201793Y-125850699D01*
X108315807Y-125916525D01*
X108379390Y-125933562D01*
X107747082Y-126565869D01*
X107747082Y-126565870D01*
X107801249Y-126605224D01*
X107990582Y-126701695D01*
X108192670Y-126767357D01*
X108402554Y-126800600D01*
X108615046Y-126800600D01*
X108824927Y-126767357D01*
X108824930Y-126767357D01*
X109027017Y-126701695D01*
X109216354Y-126605222D01*
X109270516Y-126565870D01*
X109270517Y-126565870D01*
X108638208Y-125933562D01*
X108701793Y-125916525D01*
X108815807Y-125850699D01*
X108908899Y-125757607D01*
X108974725Y-125643593D01*
X108991762Y-125580008D01*
X109624070Y-126212317D01*
X109624070Y-126212316D01*
X109663422Y-126158155D01*
X109668032Y-126149107D01*
X109716005Y-126098309D01*
X109783825Y-126081512D01*
X109849961Y-126104047D01*
X109889004Y-126149104D01*
X109893749Y-126158417D01*
X110018690Y-126330386D01*
X110169013Y-126480709D01*
X110340979Y-126605648D01*
X110340981Y-126605649D01*
X110340984Y-126605651D01*
X110530388Y-126702157D01*
X110732557Y-126767846D01*
X110942513Y-126801100D01*
X110942514Y-126801100D01*
X111155086Y-126801100D01*
X111155087Y-126801100D01*
X111365043Y-126767846D01*
X111567212Y-126702157D01*
X111756616Y-126605651D01*
X111842938Y-126542935D01*
X111928586Y-126480709D01*
X111928588Y-126480706D01*
X111928592Y-126480704D01*
X112078904Y-126330392D01*
X112078906Y-126330388D01*
X112078909Y-126330386D01*
X112203848Y-126158420D01*
X112203850Y-126158417D01*
X112203851Y-126158416D01*
X112208314Y-126149654D01*
X112256288Y-126098859D01*
X112324108Y-126082063D01*
X112390244Y-126104599D01*
X112429284Y-126149654D01*
X112433391Y-126157715D01*
X112433751Y-126158420D01*
X112558690Y-126330386D01*
X112709013Y-126480709D01*
X112880979Y-126605648D01*
X112880981Y-126605649D01*
X112880984Y-126605651D01*
X113070388Y-126702157D01*
X113272557Y-126767846D01*
X113482513Y-126801100D01*
X113482514Y-126801100D01*
X113695086Y-126801100D01*
X113695087Y-126801100D01*
X113905043Y-126767846D01*
X114107212Y-126702157D01*
X114296616Y-126605651D01*
X114382938Y-126542935D01*
X114468586Y-126480709D01*
X114468588Y-126480706D01*
X114468592Y-126480704D01*
X114618904Y-126330392D01*
X114618906Y-126330388D01*
X114618909Y-126330386D01*
X114743848Y-126158420D01*
X114743850Y-126158417D01*
X114743851Y-126158416D01*
X114748314Y-126149654D01*
X114796288Y-126098859D01*
X114864108Y-126082063D01*
X114930244Y-126104599D01*
X114969284Y-126149654D01*
X114973391Y-126157715D01*
X114973751Y-126158420D01*
X115098690Y-126330386D01*
X115249013Y-126480709D01*
X115420979Y-126605648D01*
X115420981Y-126605649D01*
X115420984Y-126605651D01*
X115610388Y-126702157D01*
X115812557Y-126767846D01*
X116022513Y-126801100D01*
X116022514Y-126801100D01*
X116235086Y-126801100D01*
X116235087Y-126801100D01*
X116445043Y-126767846D01*
X116647212Y-126702157D01*
X116836616Y-126605651D01*
X116922938Y-126542935D01*
X117008586Y-126480709D01*
X117008588Y-126480706D01*
X117008592Y-126480704D01*
X117158904Y-126330392D01*
X117158906Y-126330388D01*
X117158909Y-126330386D01*
X117283848Y-126158420D01*
X117283850Y-126158417D01*
X117283851Y-126158416D01*
X117288314Y-126149654D01*
X117336288Y-126098859D01*
X117404108Y-126082063D01*
X117470244Y-126104599D01*
X117509284Y-126149654D01*
X117513391Y-126157715D01*
X117513751Y-126158420D01*
X117638690Y-126330386D01*
X117789013Y-126480709D01*
X117960979Y-126605648D01*
X117960981Y-126605649D01*
X117960984Y-126605651D01*
X118150388Y-126702157D01*
X118352557Y-126767846D01*
X118562513Y-126801100D01*
X118562514Y-126801100D01*
X118775086Y-126801100D01*
X118775087Y-126801100D01*
X118985043Y-126767846D01*
X119187212Y-126702157D01*
X119376616Y-126605651D01*
X119462938Y-126542935D01*
X119548586Y-126480709D01*
X119548588Y-126480706D01*
X119548592Y-126480704D01*
X119698904Y-126330392D01*
X119698906Y-126330388D01*
X119698909Y-126330386D01*
X119823848Y-126158420D01*
X119823850Y-126158417D01*
X119823851Y-126158416D01*
X119920357Y-125969012D01*
X119986046Y-125766843D01*
X120019300Y-125556887D01*
X120019300Y-125344313D01*
X119986046Y-125134357D01*
X119920357Y-124932188D01*
X119823851Y-124742784D01*
X119823849Y-124742781D01*
X119823848Y-124742779D01*
X119698909Y-124570813D01*
X119548586Y-124420490D01*
X119485208Y-124374444D01*
X122472100Y-124374444D01*
X122472100Y-124961155D01*
X122482513Y-125063076D01*
X122537237Y-125228222D01*
X122537242Y-125228233D01*
X122628571Y-125376299D01*
X122628574Y-125376303D01*
X122751599Y-125499328D01*
X122752783Y-125500058D01*
X122753423Y-125500770D01*
X122757264Y-125503807D01*
X122756745Y-125504463D01*
X122799506Y-125552008D01*
X122810725Y-125620971D01*
X122782879Y-125685052D01*
X122757477Y-125707062D01*
X122757577Y-125707188D01*
X122754777Y-125709401D01*
X122752784Y-125711129D01*
X122751915Y-125711664D01*
X122751909Y-125711669D01*
X122628970Y-125834608D01*
X122537696Y-125982585D01*
X122537694Y-125982590D01*
X122483007Y-126147626D01*
X122472600Y-126249484D01*
X122472600Y-126292800D01*
X124872600Y-126292800D01*
X124872600Y-126249497D01*
X124872599Y-126249484D01*
X124862192Y-126147626D01*
X124807505Y-125982590D01*
X124807503Y-125982585D01*
X124716229Y-125834608D01*
X124593290Y-125711669D01*
X124593285Y-125711665D01*
X124592422Y-125711133D01*
X124591953Y-125710612D01*
X124587623Y-125707188D01*
X124588208Y-125706448D01*
X124545696Y-125659186D01*
X124534473Y-125590224D01*
X124562316Y-125526141D01*
X124587998Y-125503886D01*
X124587936Y-125503807D01*
X124589706Y-125502407D01*
X124592420Y-125500055D01*
X124593603Y-125499326D01*
X124716626Y-125376303D01*
X124807962Y-125228225D01*
X124862687Y-125063075D01*
X124873100Y-124961148D01*
X124873100Y-124374452D01*
X124862687Y-124272525D01*
X124807962Y-124107375D01*
X124807958Y-124107369D01*
X124807957Y-124107366D01*
X124716628Y-123959300D01*
X124716625Y-123959296D01*
X124593603Y-123836274D01*
X124593599Y-123836271D01*
X124445533Y-123744942D01*
X124445527Y-123744939D01*
X124445525Y-123744938D01*
X124437534Y-123742290D01*
X124358096Y-123715967D01*
X124300651Y-123676194D01*
X124273828Y-123611678D01*
X124273100Y-123598261D01*
X124273100Y-118354765D01*
X124292785Y-118287726D01*
X124293998Y-118285874D01*
X124381990Y-118154185D01*
X124381990Y-118154184D01*
X124381994Y-118154179D01*
X124442337Y-118008497D01*
X124473100Y-117853842D01*
X124473100Y-117696158D01*
X124473100Y-117696155D01*
X124473099Y-117696153D01*
X124467551Y-117668257D01*
X124463950Y-117650153D01*
X126097900Y-117650153D01*
X126097900Y-117807846D01*
X126128661Y-117962489D01*
X126128664Y-117962501D01*
X126189002Y-118108172D01*
X126189009Y-118108185D01*
X126277002Y-118239874D01*
X126297880Y-118306551D01*
X126297900Y-118308765D01*
X126297900Y-120972030D01*
X126297899Y-120972048D01*
X126297899Y-121137754D01*
X126297898Y-121137754D01*
X126297899Y-121137757D01*
X126338823Y-121290485D01*
X126338824Y-121290487D01*
X126338823Y-121290487D01*
X126343744Y-121299009D01*
X126343745Y-121299010D01*
X126417877Y-121427412D01*
X126417881Y-121427417D01*
X126536749Y-121546285D01*
X126536755Y-121546290D01*
X129217745Y-124227280D01*
X129251230Y-124288603D01*
X129253656Y-124318196D01*
X129253900Y-124318196D01*
X129253900Y-124321177D01*
X129253905Y-124321239D01*
X129253900Y-124321337D01*
X129253900Y-124908055D01*
X129264313Y-125009976D01*
X129319037Y-125175122D01*
X129319042Y-125175133D01*
X129410371Y-125323199D01*
X129410374Y-125323203D01*
X129533399Y-125446228D01*
X129534583Y-125446958D01*
X129535223Y-125447670D01*
X129539064Y-125450707D01*
X129538545Y-125451363D01*
X129581306Y-125498908D01*
X129592525Y-125567871D01*
X129564679Y-125631952D01*
X129539277Y-125653962D01*
X129539377Y-125654088D01*
X129536577Y-125656301D01*
X129534584Y-125658029D01*
X129533715Y-125658564D01*
X129533709Y-125658569D01*
X129410770Y-125781508D01*
X129319496Y-125929485D01*
X129319494Y-125929490D01*
X129264807Y-126094526D01*
X129254400Y-126196384D01*
X129254400Y-126239700D01*
X131654400Y-126239700D01*
X131654400Y-126196397D01*
X131654399Y-126196384D01*
X131643992Y-126094526D01*
X131589305Y-125929490D01*
X131589303Y-125929485D01*
X131498029Y-125781508D01*
X131375090Y-125658569D01*
X131375085Y-125658565D01*
X131374222Y-125658033D01*
X131373753Y-125657512D01*
X131369423Y-125654088D01*
X131370008Y-125653348D01*
X131327496Y-125606086D01*
X131316273Y-125537124D01*
X131344116Y-125473041D01*
X131369798Y-125450786D01*
X131369736Y-125450707D01*
X131371506Y-125449307D01*
X131374220Y-125446955D01*
X131375403Y-125446226D01*
X131498426Y-125323203D01*
X131589762Y-125175125D01*
X131644487Y-125009975D01*
X131654900Y-124908048D01*
X131654900Y-124321352D01*
X131644487Y-124219425D01*
X131589762Y-124054275D01*
X131589758Y-124054269D01*
X131589757Y-124054266D01*
X131498428Y-123906200D01*
X131498425Y-123906196D01*
X131375403Y-123783174D01*
X131375399Y-123783171D01*
X131227333Y-123691842D01*
X131227327Y-123691839D01*
X131227325Y-123691838D01*
X131220176Y-123689469D01*
X131062176Y-123637113D01*
X130960255Y-123626700D01*
X130960248Y-123626700D01*
X130366997Y-123626700D01*
X130299958Y-123607015D01*
X130279316Y-123590381D01*
X127535219Y-120846284D01*
X127501734Y-120784961D01*
X127498900Y-120758603D01*
X127498900Y-118308765D01*
X127518585Y-118241726D01*
X127519798Y-118239874D01*
X127607790Y-118108185D01*
X127607790Y-118108184D01*
X127607794Y-118108179D01*
X127668137Y-117962497D01*
X127698900Y-117807842D01*
X127698900Y-117650158D01*
X127698900Y-117650155D01*
X127698899Y-117650153D01*
X127668138Y-117495510D01*
X127668137Y-117495503D01*
X127668135Y-117495498D01*
X127607797Y-117349827D01*
X127607790Y-117349814D01*
X127520189Y-117218711D01*
X127520186Y-117218707D01*
X127408692Y-117107213D01*
X127408688Y-117107210D01*
X127277585Y-117019609D01*
X127277572Y-117019602D01*
X127131901Y-116959264D01*
X127131889Y-116959261D01*
X126977245Y-116928500D01*
X126977242Y-116928500D01*
X126819558Y-116928500D01*
X126819555Y-116928500D01*
X126664910Y-116959261D01*
X126664898Y-116959264D01*
X126519227Y-117019602D01*
X126519214Y-117019609D01*
X126388111Y-117107210D01*
X126388107Y-117107213D01*
X126276613Y-117218707D01*
X126276610Y-117218711D01*
X126189009Y-117349814D01*
X126189002Y-117349827D01*
X126128664Y-117495498D01*
X126128661Y-117495510D01*
X126097900Y-117650153D01*
X124463950Y-117650153D01*
X124442338Y-117541508D01*
X124442337Y-117541507D01*
X124442337Y-117541503D01*
X124423286Y-117495510D01*
X124381997Y-117395827D01*
X124381990Y-117395814D01*
X124294389Y-117264711D01*
X124294386Y-117264707D01*
X124182892Y-117153213D01*
X124182888Y-117153210D01*
X124051785Y-117065609D01*
X124051772Y-117065602D01*
X123906101Y-117005264D01*
X123906089Y-117005261D01*
X123751445Y-116974500D01*
X123751442Y-116974500D01*
X123593758Y-116974500D01*
X123593755Y-116974500D01*
X123439110Y-117005261D01*
X123439098Y-117005264D01*
X123293427Y-117065602D01*
X123293414Y-117065609D01*
X123162311Y-117153210D01*
X123162307Y-117153213D01*
X123050813Y-117264707D01*
X123050810Y-117264711D01*
X122963209Y-117395814D01*
X122963202Y-117395827D01*
X122902864Y-117541498D01*
X122902861Y-117541510D01*
X122872100Y-117696153D01*
X122872100Y-117853846D01*
X122902861Y-118008489D01*
X122902864Y-118008501D01*
X122963202Y-118154172D01*
X122963209Y-118154185D01*
X123051202Y-118285874D01*
X123072080Y-118352551D01*
X123072100Y-118354765D01*
X123072100Y-123598261D01*
X123052415Y-123665300D01*
X122999611Y-123711055D01*
X122987104Y-123715967D01*
X122899677Y-123744937D01*
X122899666Y-123744942D01*
X122751600Y-123836271D01*
X122751596Y-123836274D01*
X122628574Y-123959296D01*
X122628571Y-123959300D01*
X122537242Y-124107366D01*
X122537237Y-124107377D01*
X122482513Y-124272523D01*
X122472100Y-124374444D01*
X119485208Y-124374444D01*
X119376620Y-124295551D01*
X119187214Y-124199044D01*
X119187213Y-124199043D01*
X119187212Y-124199043D01*
X118985043Y-124133354D01*
X118985041Y-124133353D01*
X118985040Y-124133353D01*
X118820962Y-124107366D01*
X118775087Y-124100100D01*
X118562513Y-124100100D01*
X118516638Y-124107366D01*
X118352560Y-124133353D01*
X118150385Y-124199044D01*
X117960979Y-124295551D01*
X117789013Y-124420490D01*
X117638690Y-124570813D01*
X117513749Y-124742782D01*
X117509284Y-124751546D01*
X117461309Y-124802342D01*
X117393488Y-124819136D01*
X117327353Y-124796598D01*
X117288316Y-124751546D01*
X117283850Y-124742782D01*
X117158909Y-124570813D01*
X117008586Y-124420490D01*
X116836620Y-124295551D01*
X116647214Y-124199044D01*
X116647213Y-124199043D01*
X116647212Y-124199043D01*
X116445043Y-124133354D01*
X116445041Y-124133353D01*
X116445040Y-124133353D01*
X116280962Y-124107366D01*
X116235087Y-124100100D01*
X116087896Y-124100100D01*
X116020857Y-124080415D01*
X115975102Y-124027611D01*
X115965158Y-123958453D01*
X115994183Y-123894897D01*
X116000215Y-123888419D01*
X119544134Y-120344500D01*
X137330520Y-102558116D01*
X137409577Y-102421184D01*
X137450501Y-102268457D01*
X137450501Y-102110342D01*
X137450501Y-102102747D01*
X137450500Y-102102729D01*
X137450500Y-93443953D01*
X137908900Y-93443953D01*
X137908900Y-93601646D01*
X137939661Y-93756289D01*
X137939664Y-93756301D01*
X138000002Y-93901972D01*
X138000009Y-93901985D01*
X138087610Y-94033088D01*
X138087613Y-94033092D01*
X138199107Y-94144586D01*
X138199111Y-94144589D01*
X138330214Y-94232190D01*
X138330227Y-94232197D01*
X138449431Y-94281572D01*
X138475903Y-94292537D01*
X138613963Y-94319999D01*
X138630553Y-94323299D01*
X138630556Y-94323300D01*
X138630558Y-94323300D01*
X138788244Y-94323300D01*
X138788245Y-94323299D01*
X138942897Y-94292537D01*
X139078917Y-94236196D01*
X139088572Y-94232197D01*
X139088572Y-94232196D01*
X139088579Y-94232194D01*
X139219689Y-94144589D01*
X139331189Y-94033089D01*
X139418794Y-93901979D01*
X139479137Y-93756297D01*
X139509900Y-93601642D01*
X139509900Y-93443958D01*
X139509900Y-93443955D01*
X139509899Y-93443953D01*
X139491001Y-93348947D01*
X139479137Y-93289303D01*
X139422553Y-93152695D01*
X139418797Y-93143627D01*
X139418790Y-93143614D01*
X139330798Y-93011925D01*
X139309920Y-92945247D01*
X139309900Y-92943034D01*
X139309900Y-92603696D01*
X139329585Y-92536657D01*
X139346214Y-92516020D01*
X148423206Y-83439027D01*
X148484527Y-83405544D01*
X148486540Y-83405124D01*
X148563397Y-83389837D01*
X148709079Y-83329494D01*
X148840189Y-83241889D01*
X148951689Y-83130389D01*
X149039294Y-82999279D01*
X149099637Y-82853597D01*
X149130400Y-82698942D01*
X149130400Y-82541258D01*
X149130400Y-82541255D01*
X149130399Y-82541253D01*
X149116057Y-82469152D01*
X149099637Y-82386603D01*
X149093871Y-82372682D01*
X149039297Y-82240927D01*
X149039290Y-82240914D01*
X148951689Y-82109811D01*
X148951686Y-82109807D01*
X148840192Y-81998313D01*
X148840188Y-81998310D01*
X148709085Y-81910709D01*
X148709072Y-81910702D01*
X148563401Y-81850364D01*
X148563389Y-81850361D01*
X148408745Y-81819600D01*
X148408742Y-81819600D01*
X148251058Y-81819600D01*
X148251055Y-81819600D01*
X148096410Y-81850361D01*
X148096398Y-81850364D01*
X147950727Y-81910702D01*
X147950714Y-81910709D01*
X147819611Y-81998310D01*
X147819607Y-81998313D01*
X147708113Y-82109807D01*
X147708110Y-82109811D01*
X147620509Y-82240914D01*
X147620502Y-82240927D01*
X147560164Y-82386598D01*
X147560161Y-82386610D01*
X147529400Y-82541253D01*
X147529400Y-82583002D01*
X147509715Y-82650041D01*
X147493081Y-82670683D01*
X138342336Y-91821427D01*
X138342323Y-91821440D01*
X138340686Y-91823078D01*
X138340684Y-91823080D01*
X138228880Y-91934884D01*
X138222327Y-91946235D01*
X138215346Y-91958325D01*
X138215346Y-91958326D01*
X138175960Y-92026545D01*
X138149823Y-92071815D01*
X138108899Y-92224543D01*
X138108899Y-92224545D01*
X138108899Y-92392646D01*
X138108900Y-92392659D01*
X138108900Y-92943034D01*
X138089215Y-93010073D01*
X138088002Y-93011925D01*
X138000009Y-93143614D01*
X138000002Y-93143627D01*
X137939664Y-93289298D01*
X137939661Y-93289310D01*
X137908900Y-93443953D01*
X137450500Y-93443953D01*
X137450500Y-85350097D01*
X137470185Y-85283058D01*
X137486819Y-85262416D01*
X139474916Y-83274319D01*
X139536239Y-83240834D01*
X139562597Y-83238000D01*
X139601618Y-83238000D01*
X139668657Y-83257685D01*
X139670509Y-83258898D01*
X139805864Y-83349340D01*
X139805877Y-83349347D01*
X139951548Y-83409685D01*
X139951553Y-83409687D01*
X140084143Y-83436061D01*
X140106203Y-83440449D01*
X140106206Y-83440450D01*
X140106208Y-83440450D01*
X140263894Y-83440450D01*
X140263895Y-83440449D01*
X140418547Y-83409687D01*
X140564229Y-83349344D01*
X140695339Y-83261739D01*
X140806839Y-83150239D01*
X140894444Y-83019129D01*
X140954787Y-82873447D01*
X140985550Y-82718792D01*
X140985550Y-82561108D01*
X140985550Y-82561105D01*
X140967259Y-82469152D01*
X140973486Y-82399560D01*
X141016349Y-82344383D01*
X141064684Y-82323343D01*
X141208497Y-82294737D01*
X141354179Y-82234394D01*
X141485289Y-82146789D01*
X141596789Y-82035289D01*
X141684394Y-81904179D01*
X141744737Y-81758497D01*
X141775500Y-81603842D01*
X141775500Y-81599500D01*
X141795185Y-81532461D01*
X141847989Y-81486706D01*
X141899500Y-81475500D01*
X147338331Y-81475500D01*
X147338347Y-81475501D01*
X147345943Y-81475501D01*
X147504054Y-81475501D01*
X147504057Y-81475501D01*
X147656785Y-81434577D01*
X147726233Y-81394481D01*
X147793716Y-81355520D01*
X147905520Y-81243716D01*
X147905520Y-81243714D01*
X147915724Y-81233511D01*
X147915727Y-81233506D01*
X155894817Y-73254419D01*
X155956140Y-73220934D01*
X155982498Y-73218100D01*
X155986244Y-73218100D01*
X155986245Y-73218099D01*
X156140897Y-73187337D01*
X156286579Y-73126994D01*
X156417689Y-73039389D01*
X156529189Y-72927889D01*
X156616794Y-72796779D01*
X156677137Y-72651097D01*
X156707900Y-72496442D01*
X156707900Y-72338758D01*
X156707900Y-72338755D01*
X156707899Y-72338753D01*
X156698557Y-72291789D01*
X156677137Y-72184103D01*
X156662163Y-72147952D01*
X156616797Y-72038427D01*
X156616790Y-72038414D01*
X156567196Y-71964191D01*
X156546318Y-71897513D01*
X156564803Y-71830133D01*
X156616782Y-71783443D01*
X156670298Y-71771300D01*
X161955103Y-71771300D01*
X162022142Y-71790985D01*
G37*
%TD.AperFunction*%
%TA.AperFunction,Conductor*%
G36*
X133365812Y-83398785D02*
G01*
X133411567Y-83451589D01*
X133421511Y-83520747D01*
X133419521Y-83529702D01*
X133419651Y-83529728D01*
X133387700Y-83690353D01*
X133387700Y-83848046D01*
X133418461Y-84002689D01*
X133418464Y-84002701D01*
X133478802Y-84148372D01*
X133478809Y-84148385D01*
X133566802Y-84280074D01*
X133587680Y-84346751D01*
X133587700Y-84348965D01*
X133587700Y-96320234D01*
X133568015Y-96387273D01*
X133566802Y-96389125D01*
X133478809Y-96520814D01*
X133478802Y-96520827D01*
X133418464Y-96666498D01*
X133418461Y-96666510D01*
X133387700Y-96821153D01*
X133387700Y-96978846D01*
X133418461Y-97133489D01*
X133418464Y-97133501D01*
X133478802Y-97279172D01*
X133478809Y-97279185D01*
X133566410Y-97410288D01*
X133566413Y-97410292D01*
X133677907Y-97521786D01*
X133677911Y-97521789D01*
X133809014Y-97609390D01*
X133809027Y-97609397D01*
X133954698Y-97669735D01*
X133954703Y-97669737D01*
X134109353Y-97700499D01*
X134109356Y-97700500D01*
X134109358Y-97700500D01*
X134267044Y-97700500D01*
X134267045Y-97700499D01*
X134421697Y-97669737D01*
X134567379Y-97609394D01*
X134698489Y-97521789D01*
X134809989Y-97410289D01*
X134859198Y-97336643D01*
X134912810Y-97291838D01*
X134982135Y-97283131D01*
X135045162Y-97313285D01*
X135081882Y-97372728D01*
X135086300Y-97405534D01*
X135086300Y-100512502D01*
X135066615Y-100579541D01*
X135049981Y-100600183D01*
X111533322Y-124116841D01*
X111471999Y-124150326D01*
X111407323Y-124147091D01*
X111365045Y-124133354D01*
X111225072Y-124111184D01*
X111155087Y-124100100D01*
X110942513Y-124100100D01*
X110896638Y-124107366D01*
X110732560Y-124133353D01*
X110530385Y-124199044D01*
X110340979Y-124295551D01*
X110169013Y-124420490D01*
X110018690Y-124570813D01*
X109893749Y-124742782D01*
X109889002Y-124752099D01*
X109841027Y-124802893D01*
X109773205Y-124819687D01*
X109707071Y-124797148D01*
X109668034Y-124752095D01*
X109663426Y-124743052D01*
X109624070Y-124688882D01*
X109624069Y-124688882D01*
X108991762Y-125321190D01*
X108974725Y-125257607D01*
X108908899Y-125143593D01*
X108815807Y-125050501D01*
X108701793Y-124984675D01*
X108638209Y-124967637D01*
X109270516Y-124335328D01*
X109216350Y-124295975D01*
X109027017Y-124199504D01*
X108824929Y-124133842D01*
X108615046Y-124100600D01*
X108402554Y-124100600D01*
X108192672Y-124133842D01*
X108192669Y-124133842D01*
X107990582Y-124199504D01*
X107801239Y-124295980D01*
X107747082Y-124335327D01*
X107747082Y-124335328D01*
X108379391Y-124967637D01*
X108315807Y-124984675D01*
X108201793Y-125050501D01*
X108108701Y-125143593D01*
X108042875Y-125257607D01*
X108025837Y-125321191D01*
X107355618Y-124650972D01*
X107322133Y-124589649D01*
X107322130Y-124589636D01*
X107319299Y-124576615D01*
X107319299Y-124552728D01*
X107312891Y-124493117D01*
X107262596Y-124358269D01*
X107220890Y-124302557D01*
X107216418Y-124294161D01*
X107211194Y-124268891D01*
X107202177Y-124244715D01*
X107204238Y-124235237D01*
X107202275Y-124225737D01*
X107211543Y-124201653D01*
X107217028Y-124176442D01*
X107225711Y-124164842D01*
X107227371Y-124160530D01*
X107230843Y-124157986D01*
X107238177Y-124148189D01*
X121149548Y-110236819D01*
X121210871Y-110203334D01*
X121237229Y-110200500D01*
X122043320Y-110200500D01*
X122140862Y-110181096D01*
X122188313Y-110171658D01*
X122324895Y-110115084D01*
X122374129Y-110082186D01*
X122447816Y-110032952D01*
X125387497Y-107093269D01*
X125427724Y-107066391D01*
X125451379Y-107056594D01*
X125582489Y-106968989D01*
X125693989Y-106857489D01*
X125781594Y-106726379D01*
X125791392Y-106702721D01*
X125796023Y-106695790D01*
X125797121Y-106690747D01*
X125818269Y-106662496D01*
X125862496Y-106618269D01*
X125902721Y-106591392D01*
X125926379Y-106581594D01*
X126057489Y-106493989D01*
X126168989Y-106382489D01*
X126256594Y-106251379D01*
X126266392Y-106227721D01*
X126271023Y-106220790D01*
X126272121Y-106215747D01*
X126293269Y-106187496D01*
X126299996Y-106180769D01*
X126340221Y-106153892D01*
X126363879Y-106144094D01*
X126494989Y-106056489D01*
X126606489Y-105944989D01*
X126694094Y-105813879D01*
X126703891Y-105790224D01*
X126730769Y-105749997D01*
X132789952Y-99690816D01*
X132853574Y-99595597D01*
X132872084Y-99567895D01*
X132928658Y-99431313D01*
X132957500Y-99286318D01*
X132957500Y-89357004D01*
X132966939Y-89309551D01*
X132976737Y-89285897D01*
X133007500Y-89131242D01*
X133007500Y-88973558D01*
X133007500Y-88973555D01*
X133007499Y-88973553D01*
X132976739Y-88818911D01*
X132976738Y-88818908D01*
X132976737Y-88818903D01*
X132966937Y-88795244D01*
X132957500Y-88747796D01*
X132957500Y-88279604D01*
X132966939Y-88232151D01*
X132973425Y-88216492D01*
X132976737Y-88208497D01*
X133007500Y-88053842D01*
X133007500Y-87896158D01*
X133007500Y-87896155D01*
X133007499Y-87896153D01*
X132993730Y-87826934D01*
X132976737Y-87741503D01*
X132953025Y-87684256D01*
X132916397Y-87595827D01*
X132916390Y-87595814D01*
X132828789Y-87464711D01*
X132828786Y-87464707D01*
X132717292Y-87353213D01*
X132717288Y-87353210D01*
X132586185Y-87265609D01*
X132586172Y-87265602D01*
X132440501Y-87205264D01*
X132440489Y-87205261D01*
X132285845Y-87174500D01*
X132285842Y-87174500D01*
X132128158Y-87174500D01*
X132128155Y-87174500D01*
X131973510Y-87205261D01*
X131973498Y-87205264D01*
X131962952Y-87209633D01*
X131893482Y-87217102D01*
X131831003Y-87185826D01*
X131795352Y-87125737D01*
X131791500Y-87095072D01*
X131791500Y-84166940D01*
X131811185Y-84099901D01*
X131827814Y-84079263D01*
X131921789Y-83985289D01*
X132009394Y-83854179D01*
X132018940Y-83831134D01*
X132034401Y-83793807D01*
X132069737Y-83708497D01*
X132100500Y-83553842D01*
X132100500Y-83503100D01*
X132120185Y-83436061D01*
X132172989Y-83390306D01*
X132224500Y-83379100D01*
X133298773Y-83379100D01*
X133365812Y-83398785D01*
G37*
%TD.AperFunction*%
%TA.AperFunction,Conductor*%
G36*
X136168834Y-101282315D02*
G01*
X136224767Y-101324187D01*
X136249184Y-101389651D01*
X136249500Y-101398497D01*
X136249500Y-101889302D01*
X136229815Y-101956341D01*
X136213181Y-101976983D01*
X114073322Y-124116841D01*
X114011999Y-124150326D01*
X113947323Y-124147091D01*
X113905045Y-124133354D01*
X113765072Y-124111184D01*
X113695087Y-124100100D01*
X113547896Y-124100100D01*
X113480857Y-124080415D01*
X113435102Y-124027611D01*
X113425158Y-123958453D01*
X113454183Y-123894897D01*
X113460215Y-123888419D01*
X117004134Y-120344500D01*
X136037821Y-101310814D01*
X136099142Y-101277331D01*
X136168834Y-101282315D01*
G37*
%TD.AperFunction*%
%TA.AperFunction,Conductor*%
G36*
X188373434Y-101778506D02*
G01*
X188429367Y-101820378D01*
X188453784Y-101885842D01*
X188454100Y-101894688D01*
X188454100Y-107943370D01*
X188434415Y-108010409D01*
X188417781Y-108031051D01*
X186866344Y-109582487D01*
X186805021Y-109615972D01*
X186735329Y-109610988D01*
X186679396Y-109569116D01*
X186654979Y-109503652D01*
X186660732Y-109456488D01*
X186672223Y-109421121D01*
X186729587Y-109244571D01*
X186764072Y-109026842D01*
X186764072Y-108806398D01*
X186729587Y-108588669D01*
X186661467Y-108379014D01*
X186661467Y-108379013D01*
X186607141Y-108272395D01*
X186561387Y-108182598D01*
X186544832Y-108159812D01*
X186431819Y-108004261D01*
X186431815Y-108004256D01*
X186275935Y-107848376D01*
X186275930Y-107848372D01*
X186136317Y-107746938D01*
X186093651Y-107691609D01*
X186087672Y-107621995D01*
X186120277Y-107560200D01*
X186136317Y-107546302D01*
X186275930Y-107444867D01*
X186275928Y-107444867D01*
X186275937Y-107444862D01*
X186431814Y-107288985D01*
X186561387Y-107110642D01*
X186661467Y-106914226D01*
X186729587Y-106704571D01*
X186764072Y-106486842D01*
X186764072Y-106266398D01*
X186729587Y-106048669D01*
X186661467Y-105839014D01*
X186661467Y-105839013D01*
X186624996Y-105767437D01*
X186561387Y-105642598D01*
X186499127Y-105556904D01*
X186431819Y-105464261D01*
X186431815Y-105464256D01*
X186275935Y-105308376D01*
X186275930Y-105308372D01*
X186136317Y-105206938D01*
X186093651Y-105151609D01*
X186087672Y-105081995D01*
X186120277Y-105020200D01*
X186136317Y-105006302D01*
X186275930Y-104904867D01*
X186275928Y-104904867D01*
X186275937Y-104904862D01*
X186431814Y-104748985D01*
X186561387Y-104570642D01*
X186661467Y-104374226D01*
X186729587Y-104164571D01*
X186764072Y-103946842D01*
X186764072Y-103726398D01*
X186729587Y-103508669D01*
X186706760Y-103438414D01*
X186704765Y-103368573D01*
X186737008Y-103312417D01*
X188242420Y-101807005D01*
X188303742Y-101773522D01*
X188373434Y-101778506D01*
G37*
%TD.AperFunction*%
%TA.AperFunction,Conductor*%
G36*
X178435417Y-86355699D02*
G01*
X178468922Y-86379557D01*
X180033381Y-87944016D01*
X180066866Y-88005339D01*
X180069700Y-88031697D01*
X180069700Y-98949350D01*
X180069699Y-98949368D01*
X180069699Y-99115074D01*
X180069698Y-99115074D01*
X180110624Y-99267809D01*
X180110625Y-99267810D01*
X180128666Y-99299057D01*
X180128667Y-99299058D01*
X180189677Y-99404732D01*
X180189681Y-99404737D01*
X180308549Y-99523605D01*
X180308555Y-99523610D01*
X182445939Y-101660994D01*
X182445949Y-101661005D01*
X182450279Y-101665335D01*
X182450280Y-101665336D01*
X182562084Y-101777140D01*
X182637505Y-101820684D01*
X182699015Y-101856197D01*
X182851743Y-101897120D01*
X184021736Y-101897120D01*
X184088775Y-101916805D01*
X184132220Y-101964824D01*
X184165757Y-102030643D01*
X184295324Y-102208978D01*
X184295328Y-102208983D01*
X184451208Y-102364863D01*
X184451213Y-102364867D01*
X184590826Y-102466302D01*
X184633492Y-102521632D01*
X184639471Y-102591245D01*
X184606865Y-102653040D01*
X184590826Y-102666938D01*
X184451213Y-102768372D01*
X184451208Y-102768376D01*
X184295328Y-102924256D01*
X184295324Y-102924261D01*
X184165759Y-103102594D01*
X184065676Y-103299013D01*
X184065675Y-103299016D01*
X183997557Y-103508667D01*
X183963072Y-103726398D01*
X183963072Y-103946841D01*
X183997557Y-104164572D01*
X184065675Y-104374223D01*
X184065676Y-104374226D01*
X184165759Y-104570645D01*
X184295324Y-104748978D01*
X184295328Y-104748983D01*
X184451208Y-104904863D01*
X184451213Y-104904867D01*
X184590826Y-105006302D01*
X184633492Y-105061632D01*
X184639471Y-105131245D01*
X184606865Y-105193040D01*
X184590826Y-105206938D01*
X184451213Y-105308372D01*
X184451208Y-105308376D01*
X184295328Y-105464256D01*
X184295324Y-105464261D01*
X184165759Y-105642594D01*
X184065676Y-105839013D01*
X184065675Y-105839016D01*
X183997557Y-106048667D01*
X183963072Y-106266398D01*
X183963072Y-106486841D01*
X183997557Y-106704572D01*
X184065675Y-106914223D01*
X184065676Y-106914226D01*
X184093580Y-106968989D01*
X184156906Y-107093272D01*
X184165759Y-107110645D01*
X184295324Y-107288978D01*
X184295328Y-107288983D01*
X184451208Y-107444863D01*
X184451213Y-107444867D01*
X184590826Y-107546302D01*
X184633492Y-107601632D01*
X184639471Y-107671245D01*
X184606865Y-107733040D01*
X184590826Y-107746938D01*
X184451213Y-107848372D01*
X184451208Y-107848376D01*
X184295328Y-108004256D01*
X184295324Y-108004261D01*
X184165759Y-108182594D01*
X184120003Y-108272395D01*
X184072028Y-108323191D01*
X184009518Y-108340100D01*
X182545097Y-108340100D01*
X182478058Y-108320415D01*
X182457416Y-108303781D01*
X178297119Y-104143484D01*
X178263634Y-104082161D01*
X178260800Y-104055803D01*
X178260800Y-86496845D01*
X178259739Y-86488787D01*
X178261724Y-86488525D01*
X178263127Y-86429487D01*
X178302287Y-86371623D01*
X178366514Y-86344116D01*
X178435417Y-86355699D01*
G37*
%TD.AperFunction*%
%TA.AperFunction,Conductor*%
G36*
X186969275Y-91052004D02*
G01*
X186975753Y-91058036D01*
X187856581Y-91938864D01*
X187890066Y-92000187D01*
X187892900Y-92026545D01*
X187892900Y-100406694D01*
X187873215Y-100473733D01*
X187856581Y-100494375D01*
X186975753Y-101375203D01*
X186914430Y-101408688D01*
X186844738Y-101403704D01*
X186788805Y-101361832D01*
X186764388Y-101296368D01*
X186764072Y-101287522D01*
X186764072Y-101186398D01*
X186739733Y-101032729D01*
X186729587Y-100968669D01*
X186661467Y-100759014D01*
X186661467Y-100759013D01*
X186594923Y-100628416D01*
X186561387Y-100562598D01*
X186524990Y-100512502D01*
X186431819Y-100384261D01*
X186431815Y-100384256D01*
X186275935Y-100228376D01*
X186275930Y-100228372D01*
X186136317Y-100126938D01*
X186093651Y-100071609D01*
X186087672Y-100001995D01*
X186120277Y-99940200D01*
X186136317Y-99926302D01*
X186275930Y-99824867D01*
X186275928Y-99824867D01*
X186275937Y-99824862D01*
X186431814Y-99668985D01*
X186561387Y-99490642D01*
X186661467Y-99294226D01*
X186729587Y-99084571D01*
X186764072Y-98866842D01*
X186764072Y-98646398D01*
X186729587Y-98428669D01*
X186661467Y-98219014D01*
X186661467Y-98219013D01*
X186626809Y-98150995D01*
X186561387Y-98022598D01*
X186524026Y-97971175D01*
X186431819Y-97844261D01*
X186431815Y-97844256D01*
X186275935Y-97688376D01*
X186275930Y-97688372D01*
X186136317Y-97586938D01*
X186093651Y-97531609D01*
X186087672Y-97461995D01*
X186120277Y-97400200D01*
X186136317Y-97386302D01*
X186275550Y-97285143D01*
X186275937Y-97284862D01*
X186431814Y-97128985D01*
X186561387Y-96950642D01*
X186661467Y-96754226D01*
X186729587Y-96544571D01*
X186764072Y-96326842D01*
X186764072Y-96106398D01*
X186729587Y-95888669D01*
X186684159Y-95748853D01*
X186661468Y-95679016D01*
X186661467Y-95679013D01*
X186626809Y-95610995D01*
X186561387Y-95482598D01*
X186432022Y-95304541D01*
X186431819Y-95304261D01*
X186431815Y-95304256D01*
X186275935Y-95148376D01*
X186275930Y-95148372D01*
X186136317Y-95046938D01*
X186093651Y-94991609D01*
X186087672Y-94921995D01*
X186120277Y-94860200D01*
X186136317Y-94846302D01*
X186275550Y-94745143D01*
X186275937Y-94744862D01*
X186431814Y-94588985D01*
X186561387Y-94410642D01*
X186661467Y-94214226D01*
X186729587Y-94004571D01*
X186764072Y-93786842D01*
X186764072Y-93566398D01*
X186729587Y-93348669D01*
X186684159Y-93208853D01*
X186661468Y-93139016D01*
X186661467Y-93139013D01*
X186619390Y-93056435D01*
X186561387Y-92942598D01*
X186432022Y-92764541D01*
X186431819Y-92764261D01*
X186431815Y-92764256D01*
X186275935Y-92608376D01*
X186275930Y-92608372D01*
X186136317Y-92506938D01*
X186093651Y-92451609D01*
X186087672Y-92381995D01*
X186120277Y-92320200D01*
X186136317Y-92306302D01*
X186275550Y-92205143D01*
X186275937Y-92204862D01*
X186431814Y-92048985D01*
X186561387Y-91870642D01*
X186661467Y-91674226D01*
X186729587Y-91464571D01*
X186764072Y-91246842D01*
X186764072Y-91145717D01*
X186783757Y-91078678D01*
X186836561Y-91032923D01*
X186905719Y-91022979D01*
X186969275Y-91052004D01*
G37*
%TD.AperFunction*%
%TA.AperFunction,Conductor*%
G36*
X181475903Y-92665004D02*
G01*
X181482381Y-92671036D01*
X182852339Y-94040994D01*
X182852349Y-94041005D01*
X182856679Y-94045335D01*
X182856680Y-94045336D01*
X182968484Y-94157140D01*
X182968486Y-94157141D01*
X182968490Y-94157144D01*
X183098488Y-94232197D01*
X183105416Y-94236197D01*
X183217219Y-94266154D01*
X183258142Y-94277120D01*
X183258143Y-94277120D01*
X184021736Y-94277120D01*
X184088775Y-94296805D01*
X184132220Y-94344824D01*
X184165757Y-94410643D01*
X184295324Y-94588978D01*
X184295328Y-94588983D01*
X184451208Y-94744863D01*
X184451213Y-94744867D01*
X184590826Y-94846302D01*
X184633492Y-94901632D01*
X184639471Y-94971245D01*
X184606865Y-95033040D01*
X184590826Y-95046938D01*
X184451213Y-95148372D01*
X184451208Y-95148376D01*
X184295328Y-95304256D01*
X184295324Y-95304261D01*
X184165759Y-95482594D01*
X184065676Y-95679013D01*
X184065675Y-95679016D01*
X183997557Y-95888667D01*
X183973390Y-96041254D01*
X183963072Y-96106398D01*
X183963072Y-96326842D01*
X183978928Y-96426953D01*
X183997557Y-96544572D01*
X184065675Y-96754223D01*
X184065676Y-96754226D01*
X184165759Y-96950645D01*
X184295324Y-97128978D01*
X184295328Y-97128983D01*
X184451208Y-97284863D01*
X184451213Y-97284867D01*
X184590826Y-97386302D01*
X184633492Y-97441632D01*
X184639471Y-97511245D01*
X184606865Y-97573040D01*
X184590826Y-97586938D01*
X184451213Y-97688372D01*
X184451208Y-97688376D01*
X184295328Y-97844256D01*
X184295324Y-97844261D01*
X184165759Y-98022594D01*
X184065676Y-98219013D01*
X184065675Y-98219016D01*
X183997557Y-98428667D01*
X183963072Y-98646398D01*
X183963072Y-98866841D01*
X183997557Y-99084572D01*
X184065675Y-99294223D01*
X184065676Y-99294226D01*
X184165759Y-99490645D01*
X184295324Y-99668978D01*
X184295328Y-99668983D01*
X184451208Y-99824863D01*
X184451213Y-99824867D01*
X184590826Y-99926302D01*
X184633492Y-99981632D01*
X184639471Y-100051245D01*
X184606865Y-100113040D01*
X184590826Y-100126938D01*
X184451213Y-100228372D01*
X184451208Y-100228376D01*
X184295328Y-100384256D01*
X184295324Y-100384261D01*
X184165757Y-100562596D01*
X184132220Y-100628416D01*
X184084246Y-100679211D01*
X184021736Y-100696120D01*
X183230897Y-100696120D01*
X183163858Y-100676435D01*
X183143216Y-100659801D01*
X181307019Y-98823604D01*
X181273534Y-98762281D01*
X181270700Y-98735923D01*
X181270700Y-92758717D01*
X181290385Y-92691678D01*
X181343189Y-92645923D01*
X181412347Y-92635979D01*
X181475903Y-92665004D01*
G37*
%TD.AperFunction*%
%TA.AperFunction,Conductor*%
G36*
X106030703Y-70777579D02*
G01*
X106068477Y-70836357D01*
X106069259Y-70839141D01*
X106092910Y-70927406D01*
X106109147Y-70988004D01*
X106129688Y-71037593D01*
X106201976Y-71212112D01*
X106323264Y-71422189D01*
X106323266Y-71422192D01*
X106323267Y-71422193D01*
X106470933Y-71614636D01*
X106470939Y-71614643D01*
X106642456Y-71786160D01*
X106642463Y-71786166D01*
X106672973Y-71809577D01*
X106834911Y-71933836D01*
X107044988Y-72055124D01*
X107269100Y-72147954D01*
X107503411Y-72210738D01*
X107683786Y-72234484D01*
X107743911Y-72242400D01*
X107743912Y-72242400D01*
X107986489Y-72242400D01*
X108034588Y-72236067D01*
X108226989Y-72210738D01*
X108461300Y-72147954D01*
X108685412Y-72055124D01*
X108895489Y-71933836D01*
X109087938Y-71786165D01*
X109259465Y-71614638D01*
X109259660Y-71614385D01*
X109277123Y-71591626D01*
X109333550Y-71550422D01*
X109403296Y-71546265D01*
X109464217Y-71580477D01*
X109496971Y-71642193D01*
X109499500Y-71667110D01*
X109499500Y-85462002D01*
X109479815Y-85529041D01*
X109463181Y-85549683D01*
X108325637Y-86687226D01*
X108264314Y-86720711D01*
X108194622Y-86715727D01*
X108138689Y-86673855D01*
X108114272Y-86608391D01*
X108118786Y-86568119D01*
X108118549Y-86568072D01*
X108119104Y-86565280D01*
X108119300Y-86563534D01*
X108119732Y-86562108D01*
X108119737Y-86562097D01*
X108124127Y-86540030D01*
X108144335Y-86438437D01*
X108150500Y-86407442D01*
X108150500Y-86249758D01*
X108150500Y-86249755D01*
X108150499Y-86249753D01*
X108134007Y-86166842D01*
X108119737Y-86095103D01*
X108119735Y-86095098D01*
X108059397Y-85949427D01*
X108059390Y-85949414D01*
X107987198Y-85841371D01*
X107966320Y-85774693D01*
X107966300Y-85772480D01*
X107966300Y-85374377D01*
X107985985Y-85307338D01*
X107987198Y-85305486D01*
X108002184Y-85283058D01*
X108071594Y-85179179D01*
X108131937Y-85033497D01*
X108162700Y-84878842D01*
X108162700Y-84721158D01*
X108162700Y-84721155D01*
X108162699Y-84721153D01*
X108131938Y-84566510D01*
X108131937Y-84566503D01*
X108102649Y-84495795D01*
X108071597Y-84420827D01*
X108071590Y-84420814D01*
X107983989Y-84289711D01*
X107983986Y-84289707D01*
X107872492Y-84178213D01*
X107872488Y-84178210D01*
X107741385Y-84090609D01*
X107741372Y-84090602D01*
X107595701Y-84030264D01*
X107595689Y-84030261D01*
X107441045Y-83999500D01*
X107441042Y-83999500D01*
X107283358Y-83999500D01*
X107283355Y-83999500D01*
X107128710Y-84030261D01*
X107128698Y-84030264D01*
X106983027Y-84090602D01*
X106983014Y-84090609D01*
X106851911Y-84178210D01*
X106851907Y-84178213D01*
X106740413Y-84289707D01*
X106740410Y-84289711D01*
X106652809Y-84420814D01*
X106652802Y-84420827D01*
X106592464Y-84566498D01*
X106592461Y-84566510D01*
X106561700Y-84721153D01*
X106561700Y-84878846D01*
X106592461Y-85033489D01*
X106592464Y-85033501D01*
X106652802Y-85179172D01*
X106652809Y-85179185D01*
X106743795Y-85315354D01*
X106741601Y-85316819D01*
X106764460Y-85370578D01*
X106765300Y-85384984D01*
X106765300Y-85729859D01*
X106745615Y-85796898D01*
X106728981Y-85817540D01*
X106728213Y-85818307D01*
X106728210Y-85818311D01*
X106640609Y-85949414D01*
X106640602Y-85949427D01*
X106580264Y-86095098D01*
X106580261Y-86095110D01*
X106549500Y-86249753D01*
X106549500Y-86325643D01*
X106529815Y-86392682D01*
X106477011Y-86438437D01*
X106449694Y-86447260D01*
X106416506Y-86453862D01*
X106416498Y-86453864D01*
X106270827Y-86514202D01*
X106270814Y-86514209D01*
X106139125Y-86602202D01*
X106072447Y-86623080D01*
X106070234Y-86623100D01*
X104746740Y-86623100D01*
X104705819Y-86634064D01*
X104705819Y-86634065D01*
X104668551Y-86644051D01*
X104594014Y-86664023D01*
X104594009Y-86664026D01*
X104457090Y-86743075D01*
X104457082Y-86743081D01*
X104345280Y-86854883D01*
X104345280Y-86854884D01*
X104345278Y-86854886D01*
X104263703Y-86936461D01*
X104198340Y-87001824D01*
X104137017Y-87035308D01*
X104067325Y-87030324D01*
X104041770Y-87017245D01*
X104011179Y-86996805D01*
X104011177Y-86996804D01*
X103865501Y-86936464D01*
X103865489Y-86936461D01*
X103710845Y-86905700D01*
X103710842Y-86905700D01*
X103553158Y-86905700D01*
X103553155Y-86905700D01*
X103398510Y-86936461D01*
X103398498Y-86936464D01*
X103252827Y-86996802D01*
X103252814Y-86996809D01*
X103121711Y-87084410D01*
X103121707Y-87084413D01*
X103010213Y-87195907D01*
X103010210Y-87195911D01*
X102922609Y-87327014D01*
X102922602Y-87327027D01*
X102862264Y-87472698D01*
X102862261Y-87472710D01*
X102831500Y-87627353D01*
X102831500Y-87785046D01*
X102862261Y-87939689D01*
X102862264Y-87939701D01*
X102922602Y-88085372D01*
X102922609Y-88085385D01*
X103010210Y-88216488D01*
X103010213Y-88216492D01*
X103121707Y-88327986D01*
X103121711Y-88327989D01*
X103252814Y-88415590D01*
X103252827Y-88415597D01*
X103398498Y-88475935D01*
X103398503Y-88475937D01*
X103553153Y-88506699D01*
X103553156Y-88506700D01*
X103553158Y-88506700D01*
X103710844Y-88506700D01*
X103710845Y-88506699D01*
X103865497Y-88475937D01*
X104011179Y-88415594D01*
X104011185Y-88415590D01*
X104142875Y-88327598D01*
X104160921Y-88321947D01*
X104176831Y-88311723D01*
X104207792Y-88307271D01*
X104209553Y-88306720D01*
X104211766Y-88306700D01*
X104256531Y-88306700D01*
X104256547Y-88306701D01*
X104264143Y-88306701D01*
X104422254Y-88306701D01*
X104422257Y-88306701D01*
X104574985Y-88265777D01*
X104625104Y-88236839D01*
X104711916Y-88186720D01*
X104823720Y-88074916D01*
X104823721Y-88074913D01*
X105038217Y-87860416D01*
X105099539Y-87826934D01*
X105125897Y-87824100D01*
X105884793Y-87824100D01*
X105951832Y-87843785D01*
X105997587Y-87896589D01*
X106007531Y-87965747D01*
X105995277Y-88004396D01*
X105967306Y-88059289D01*
X105967303Y-88059296D01*
X105899185Y-88268947D01*
X105890791Y-88321947D01*
X105864700Y-88486678D01*
X105864700Y-88707122D01*
X105871142Y-88747796D01*
X105899185Y-88924852D01*
X105967303Y-89134503D01*
X105967304Y-89134506D01*
X106012629Y-89223459D01*
X106067242Y-89330642D01*
X106067387Y-89330925D01*
X106196952Y-89509258D01*
X106196956Y-89509263D01*
X106352836Y-89665143D01*
X106352841Y-89665147D01*
X106492454Y-89766582D01*
X106535120Y-89821912D01*
X106541099Y-89891525D01*
X106508493Y-89953320D01*
X106492454Y-89967218D01*
X106352841Y-90068652D01*
X106352836Y-90068656D01*
X106196956Y-90224536D01*
X106196952Y-90224541D01*
X106067387Y-90402874D01*
X105967304Y-90599293D01*
X105967303Y-90599296D01*
X105899185Y-90808947D01*
X105865286Y-91022979D01*
X105864700Y-91026678D01*
X105864700Y-91247122D01*
X105881942Y-91355986D01*
X105899185Y-91464852D01*
X105967303Y-91674503D01*
X105967304Y-91674506D01*
X106035322Y-91807996D01*
X106067242Y-91870642D01*
X106067387Y-91870925D01*
X106196952Y-92049258D01*
X106196956Y-92049263D01*
X106352836Y-92205143D01*
X106352841Y-92205147D01*
X106492454Y-92306582D01*
X106535120Y-92361912D01*
X106541099Y-92431525D01*
X106508493Y-92493320D01*
X106492454Y-92507218D01*
X106352841Y-92608652D01*
X106352836Y-92608656D01*
X106196956Y-92764536D01*
X106196952Y-92764541D01*
X106067387Y-92942874D01*
X105967304Y-93139293D01*
X105967303Y-93139296D01*
X105899185Y-93348947D01*
X105885430Y-93435796D01*
X105864700Y-93566678D01*
X105864700Y-93787122D01*
X105865737Y-93793671D01*
X105899185Y-94004852D01*
X105967303Y-94214503D01*
X105967304Y-94214506D01*
X106021057Y-94319999D01*
X106067242Y-94410642D01*
X106067387Y-94410925D01*
X106196952Y-94589258D01*
X106196956Y-94589263D01*
X106352836Y-94745143D01*
X106352841Y-94745147D01*
X106492454Y-94846582D01*
X106535120Y-94901912D01*
X106541099Y-94971525D01*
X106508493Y-95033320D01*
X106492454Y-95047218D01*
X106352841Y-95148652D01*
X106352836Y-95148656D01*
X106196956Y-95304536D01*
X106196952Y-95304541D01*
X106067387Y-95482874D01*
X105967304Y-95679293D01*
X105967303Y-95679296D01*
X105899185Y-95888947D01*
X105864700Y-96106678D01*
X105864700Y-96327121D01*
X105899185Y-96544852D01*
X105967303Y-96754503D01*
X105967304Y-96754506D01*
X106032077Y-96881627D01*
X106067242Y-96950642D01*
X106067387Y-96950925D01*
X106196952Y-97129258D01*
X106196956Y-97129263D01*
X106352836Y-97285143D01*
X106352841Y-97285147D01*
X106531178Y-97414715D01*
X106531179Y-97414716D01*
X106725670Y-97513816D01*
X106776466Y-97561790D01*
X106793261Y-97629611D01*
X106770723Y-97695746D01*
X106716008Y-97739197D01*
X106669375Y-97748300D01*
X102636697Y-97748300D01*
X102569658Y-97728615D01*
X102549016Y-97711981D01*
X100586819Y-95749784D01*
X100553334Y-95688461D01*
X100550500Y-95662103D01*
X100550500Y-94179077D01*
X100570185Y-94112038D01*
X100622989Y-94066283D01*
X100692147Y-94056339D01*
X100755703Y-94085364D01*
X100762181Y-94091396D01*
X100767533Y-94096748D01*
X100767537Y-94096751D01*
X100931315Y-94206185D01*
X100931328Y-94206192D01*
X101113306Y-94281569D01*
X101113318Y-94281572D01*
X101306504Y-94319999D01*
X101306508Y-94320000D01*
X101555000Y-94320000D01*
X101555000Y-93620000D01*
X102055000Y-93620000D01*
X102055000Y-94320000D01*
X102303492Y-94320000D01*
X102303495Y-94319999D01*
X102496681Y-94281572D01*
X102496693Y-94281569D01*
X102678671Y-94206192D01*
X102678684Y-94206185D01*
X102842462Y-94096751D01*
X102842466Y-94096748D01*
X102981748Y-93957466D01*
X102981751Y-93957462D01*
X103091185Y-93793684D01*
X103091192Y-93793671D01*
X103166569Y-93611692D01*
X103166569Y-93611690D01*
X103174862Y-93570000D01*
X102371988Y-93570000D01*
X102389205Y-93560060D01*
X102445060Y-93504205D01*
X102484556Y-93435796D01*
X102505000Y-93359496D01*
X102505000Y-93280504D01*
X102484556Y-93204204D01*
X102445060Y-93135795D01*
X102389205Y-93079940D01*
X102371988Y-93070000D01*
X103174862Y-93070000D01*
X103166569Y-93028309D01*
X103166569Y-93028307D01*
X103091192Y-92846328D01*
X103091185Y-92846315D01*
X102981751Y-92682537D01*
X102981748Y-92682533D01*
X102842466Y-92543251D01*
X102842462Y-92543248D01*
X102678684Y-92433814D01*
X102678671Y-92433807D01*
X102496693Y-92358430D01*
X102496681Y-92358427D01*
X102303495Y-92320000D01*
X102055000Y-92320000D01*
X102055000Y-93020000D01*
X101555000Y-93020000D01*
X101555000Y-92320000D01*
X101306504Y-92320000D01*
X101113318Y-92358427D01*
X101113306Y-92358430D01*
X100931328Y-92433807D01*
X100931315Y-92433814D01*
X100767537Y-92543248D01*
X100767533Y-92543251D01*
X100762181Y-92548604D01*
X100700858Y-92582089D01*
X100631166Y-92577105D01*
X100575233Y-92535233D01*
X100550816Y-92469769D01*
X100550500Y-92460923D01*
X100550500Y-90769054D01*
X100570185Y-90702015D01*
X100622989Y-90656260D01*
X100692147Y-90646316D01*
X100743389Y-90665951D01*
X100845821Y-90734394D01*
X100845823Y-90734395D01*
X100845827Y-90734397D01*
X100929498Y-90769054D01*
X100991503Y-90794737D01*
X101146153Y-90825499D01*
X101146156Y-90825500D01*
X101146158Y-90825500D01*
X101303844Y-90825500D01*
X101303845Y-90825499D01*
X101458497Y-90794737D01*
X101604179Y-90734394D01*
X101735289Y-90646789D01*
X101846789Y-90535289D01*
X101934394Y-90404179D01*
X101994737Y-90258497D01*
X102025500Y-90103842D01*
X102025500Y-89946158D01*
X102025500Y-89946155D01*
X102025499Y-89946153D01*
X102009679Y-89866620D01*
X101994737Y-89791503D01*
X101994735Y-89791498D01*
X101934397Y-89645827D01*
X101934390Y-89645814D01*
X101846398Y-89514125D01*
X101840747Y-89496078D01*
X101830523Y-89480169D01*
X101826071Y-89449207D01*
X101825520Y-89447447D01*
X101825500Y-89445234D01*
X101825500Y-89292350D01*
X101845185Y-89225311D01*
X101846398Y-89223459D01*
X101849500Y-89218816D01*
X101909394Y-89129179D01*
X101969737Y-88983497D01*
X102000500Y-88828842D01*
X102000500Y-88671158D01*
X102000500Y-88671155D01*
X102000499Y-88671153D01*
X101969738Y-88516510D01*
X101969737Y-88516503D01*
X101969735Y-88516498D01*
X101909397Y-88370827D01*
X101909390Y-88370814D01*
X101821789Y-88239711D01*
X101821786Y-88239707D01*
X101710292Y-88128213D01*
X101710288Y-88128210D01*
X101579185Y-88040609D01*
X101579172Y-88040602D01*
X101433501Y-87980264D01*
X101433489Y-87980261D01*
X101278845Y-87949500D01*
X101278842Y-87949500D01*
X101121158Y-87949500D01*
X101121155Y-87949500D01*
X100966510Y-87980261D01*
X100966498Y-87980264D01*
X100820827Y-88040602D01*
X100820809Y-88040612D01*
X100743390Y-88092342D01*
X100676713Y-88113220D01*
X100609333Y-88094735D01*
X100562643Y-88042756D01*
X100550500Y-87989240D01*
X100550500Y-85539077D01*
X100570185Y-85472038D01*
X100622989Y-85426283D01*
X100692147Y-85416339D01*
X100755703Y-85445364D01*
X100762181Y-85451396D01*
X100767533Y-85456748D01*
X100767537Y-85456751D01*
X100931315Y-85566185D01*
X100931328Y-85566192D01*
X101113306Y-85641569D01*
X101113318Y-85641572D01*
X101306504Y-85679999D01*
X101306508Y-85680000D01*
X101555000Y-85680000D01*
X101555000Y-84980000D01*
X102055000Y-84980000D01*
X102055000Y-85680000D01*
X102303492Y-85680000D01*
X102303495Y-85679999D01*
X102496681Y-85641572D01*
X102496693Y-85641569D01*
X102678671Y-85566192D01*
X102678684Y-85566185D01*
X102842462Y-85456751D01*
X102842466Y-85456748D01*
X102981748Y-85317466D01*
X102981751Y-85317462D01*
X103091185Y-85153684D01*
X103091192Y-85153671D01*
X103166569Y-84971692D01*
X103166569Y-84971690D01*
X103174862Y-84930000D01*
X102371988Y-84930000D01*
X102389205Y-84920060D01*
X102445060Y-84864205D01*
X102484556Y-84795796D01*
X102505000Y-84719496D01*
X102505000Y-84640504D01*
X102484556Y-84564204D01*
X102445060Y-84495795D01*
X102389205Y-84439940D01*
X102371988Y-84430000D01*
X103174862Y-84430000D01*
X103166569Y-84388309D01*
X103166569Y-84388307D01*
X103091192Y-84206328D01*
X103091185Y-84206315D01*
X102981751Y-84042537D01*
X102981748Y-84042533D01*
X102842466Y-83903251D01*
X102842462Y-83903248D01*
X102678684Y-83793814D01*
X102678671Y-83793807D01*
X102496693Y-83718430D01*
X102496681Y-83718427D01*
X102303495Y-83680000D01*
X102055000Y-83680000D01*
X102055000Y-84380000D01*
X101555000Y-84380000D01*
X101555000Y-83680000D01*
X101306504Y-83680000D01*
X101113318Y-83718427D01*
X101113306Y-83718430D01*
X100931328Y-83793807D01*
X100931315Y-83793814D01*
X100767537Y-83903248D01*
X100767533Y-83903251D01*
X100762181Y-83908604D01*
X100700858Y-83942089D01*
X100631166Y-83937105D01*
X100575233Y-83895233D01*
X100550816Y-83829769D01*
X100550500Y-83820923D01*
X100550500Y-83306297D01*
X100570185Y-83239258D01*
X100586819Y-83218616D01*
X103099915Y-80705520D01*
X105705520Y-78099916D01*
X105784577Y-77962984D01*
X105825501Y-77810257D01*
X105825501Y-77652142D01*
X105825501Y-77644547D01*
X105825500Y-77644529D01*
X105825500Y-70871292D01*
X105845185Y-70804253D01*
X105897989Y-70758498D01*
X105967147Y-70748554D01*
X106030703Y-70777579D01*
G37*
%TD.AperFunction*%
%TA.AperFunction,Conductor*%
G36*
X115055703Y-75341584D02*
G01*
X115062181Y-75347616D01*
X120303939Y-80589374D01*
X120303949Y-80589385D01*
X120308279Y-80593715D01*
X120308280Y-80593716D01*
X120420084Y-80705520D01*
X120488182Y-80744836D01*
X120557015Y-80784577D01*
X120709743Y-80825500D01*
X137325903Y-80825500D01*
X137392942Y-80845185D01*
X137438697Y-80897989D01*
X137448641Y-80967147D01*
X137419616Y-81030703D01*
X137413584Y-81037181D01*
X136308984Y-82141781D01*
X136247661Y-82175266D01*
X136221303Y-82178100D01*
X123784669Y-82178100D01*
X123784653Y-82178099D01*
X123777057Y-82178099D01*
X123618943Y-82178099D01*
X123504397Y-82208792D01*
X123466214Y-82219023D01*
X123439592Y-82234394D01*
X123439591Y-82234394D01*
X123329287Y-82298077D01*
X123329282Y-82298081D01*
X108779222Y-96848142D01*
X108717899Y-96881627D01*
X108648207Y-96876643D01*
X108592274Y-96834771D01*
X108567857Y-96769307D01*
X108573610Y-96722143D01*
X108631215Y-96544851D01*
X108665700Y-96327122D01*
X108665700Y-96106678D01*
X108631215Y-95888949D01*
X108608388Y-95818694D01*
X108606393Y-95748853D01*
X108638636Y-95692697D01*
X114608506Y-89722828D01*
X114608511Y-89722824D01*
X114618714Y-89712620D01*
X114618716Y-89712620D01*
X114730520Y-89600816D01*
X114783538Y-89508985D01*
X114809577Y-89463885D01*
X114850501Y-89311157D01*
X114850501Y-89153043D01*
X114850501Y-89145448D01*
X114850500Y-89145430D01*
X114850500Y-75435297D01*
X114870185Y-75368258D01*
X114922989Y-75322503D01*
X114992147Y-75312559D01*
X115055703Y-75341584D01*
G37*
%TD.AperFunction*%
%TA.AperFunction,Conductor*%
G36*
X113568834Y-88325014D02*
G01*
X113624767Y-88366886D01*
X113649184Y-88432350D01*
X113649500Y-88441196D01*
X113649500Y-88932002D01*
X113629815Y-88999041D01*
X113613181Y-89019683D01*
X108877381Y-93755483D01*
X108816058Y-93788968D01*
X108746366Y-93783984D01*
X108690433Y-93742112D01*
X108666016Y-93676648D01*
X108665700Y-93667802D01*
X108665700Y-93566678D01*
X108646263Y-93443958D01*
X108631215Y-93348949D01*
X108608388Y-93278694D01*
X108606393Y-93208853D01*
X108638636Y-93152697D01*
X113437819Y-88353515D01*
X113499142Y-88320030D01*
X113568834Y-88325014D01*
G37*
%TD.AperFunction*%
%TA.AperFunction,Conductor*%
G36*
X164913322Y-69070185D02*
G01*
X164933963Y-69086818D01*
X182384284Y-86537140D01*
X182521215Y-86616197D01*
X182673943Y-86657121D01*
X182673946Y-86657121D01*
X182839654Y-86657121D01*
X182839670Y-86657120D01*
X184021736Y-86657120D01*
X184088775Y-86676805D01*
X184132220Y-86724824D01*
X184165757Y-86790643D01*
X184295324Y-86968978D01*
X184295328Y-86968983D01*
X184451208Y-87124863D01*
X184451213Y-87124867D01*
X184590826Y-87226302D01*
X184633492Y-87281632D01*
X184639471Y-87351245D01*
X184606865Y-87413040D01*
X184590826Y-87426938D01*
X184451213Y-87528372D01*
X184451208Y-87528376D01*
X184295328Y-87684256D01*
X184295324Y-87684261D01*
X184165759Y-87862594D01*
X184065676Y-88059013D01*
X184065675Y-88059016D01*
X183997557Y-88268667D01*
X183981377Y-88370827D01*
X183963072Y-88486398D01*
X183963072Y-88706842D01*
X183973465Y-88772460D01*
X183997557Y-88924572D01*
X184065675Y-89134223D01*
X184065676Y-89134226D01*
X184127080Y-89254735D01*
X184155827Y-89311154D01*
X184165759Y-89330645D01*
X184295324Y-89508978D01*
X184295328Y-89508983D01*
X184451208Y-89664863D01*
X184451213Y-89664867D01*
X184590826Y-89766302D01*
X184633492Y-89821632D01*
X184639471Y-89891245D01*
X184606865Y-89953040D01*
X184590826Y-89966938D01*
X184451213Y-90068372D01*
X184451208Y-90068376D01*
X184295328Y-90224256D01*
X184295324Y-90224261D01*
X184165759Y-90402594D01*
X184065676Y-90599013D01*
X184065675Y-90599016D01*
X183997557Y-90808667D01*
X183994891Y-90825499D01*
X183963072Y-91026398D01*
X183963072Y-91246842D01*
X183963409Y-91248968D01*
X183997557Y-91464572D01*
X184065675Y-91674223D01*
X184065676Y-91674226D01*
X184133694Y-91807716D01*
X184140680Y-91821427D01*
X184165759Y-91870645D01*
X184295324Y-92048978D01*
X184295328Y-92048983D01*
X184451208Y-92204863D01*
X184451213Y-92204867D01*
X184590826Y-92306302D01*
X184633492Y-92361632D01*
X184639471Y-92431245D01*
X184606865Y-92493040D01*
X184590826Y-92506938D01*
X184451213Y-92608372D01*
X184451208Y-92608376D01*
X184295328Y-92764256D01*
X184295324Y-92764261D01*
X184165757Y-92942596D01*
X184132220Y-93008416D01*
X184084246Y-93059211D01*
X184021736Y-93076120D01*
X183637297Y-93076120D01*
X183570258Y-93056435D01*
X183549616Y-93039801D01*
X182475419Y-91965604D01*
X182441934Y-91904281D01*
X182439100Y-91877923D01*
X182439100Y-87169944D01*
X182439099Y-87169940D01*
X182434293Y-87152002D01*
X182432852Y-87146623D01*
X182398177Y-87017215D01*
X182359595Y-86950389D01*
X182359595Y-86950388D01*
X182319124Y-86880290D01*
X182319121Y-86880286D01*
X182319120Y-86880284D01*
X182207316Y-86768480D01*
X182207315Y-86768479D01*
X182202985Y-86764149D01*
X182202974Y-86764139D01*
X164701016Y-69262181D01*
X164667531Y-69200858D01*
X164672515Y-69131166D01*
X164714387Y-69075233D01*
X164779851Y-69050816D01*
X164788697Y-69050500D01*
X164846283Y-69050500D01*
X164913322Y-69070185D01*
G37*
%TD.AperFunction*%
%TA.AperFunction,Conductor*%
G36*
X112405396Y-67156955D02*
G01*
X112418833Y-67157916D01*
X112436561Y-67171187D01*
X112456701Y-67180385D01*
X112463983Y-67191715D01*
X112474766Y-67199788D01*
X112482503Y-67220533D01*
X112494476Y-67239162D01*
X112497627Y-67261082D01*
X112499183Y-67265252D01*
X112499498Y-67274096D01*
X112499499Y-67274097D01*
X112499499Y-67429057D01*
X112499499Y-67429059D01*
X112499500Y-67439058D01*
X112499500Y-87542002D01*
X112479815Y-87609041D01*
X112463181Y-87629683D01*
X108877381Y-91215483D01*
X108816058Y-91248968D01*
X108746366Y-91243984D01*
X108690433Y-91202112D01*
X108666016Y-91136648D01*
X108665700Y-91127802D01*
X108665700Y-91026678D01*
X108633836Y-90825499D01*
X108631215Y-90808949D01*
X108608388Y-90738694D01*
X108606393Y-90668853D01*
X108638636Y-90612697D01*
X111308506Y-87942828D01*
X111308511Y-87942824D01*
X111318714Y-87932620D01*
X111318716Y-87932620D01*
X111430520Y-87820816D01*
X111491659Y-87714920D01*
X111509577Y-87683885D01*
X111550500Y-87531157D01*
X111550500Y-87373043D01*
X111550500Y-67975097D01*
X111570185Y-67908058D01*
X111586819Y-67887416D01*
X112287818Y-67186417D01*
X112307251Y-67175805D01*
X112323987Y-67161304D01*
X112337319Y-67159386D01*
X112349141Y-67152932D01*
X112371227Y-67154511D01*
X112393145Y-67151360D01*
X112405396Y-67156955D01*
G37*
%TD.AperFunction*%
%TA.AperFunction,Conductor*%
G36*
X187419133Y-75004939D02*
G01*
X187463480Y-75033440D01*
X188417781Y-75987741D01*
X188451266Y-76049064D01*
X188454100Y-76075422D01*
X188454100Y-90538551D01*
X188434415Y-90605590D01*
X188381611Y-90651345D01*
X188312453Y-90661289D01*
X188248897Y-90632264D01*
X188242419Y-90626232D01*
X186737010Y-89120823D01*
X186703525Y-89059500D01*
X186706759Y-88994825D01*
X186729587Y-88924571D01*
X186764072Y-88706842D01*
X186764072Y-88486398D01*
X186729587Y-88268669D01*
X186683950Y-88128210D01*
X186661468Y-88059016D01*
X186661467Y-88059013D01*
X186621340Y-87980261D01*
X186561387Y-87862598D01*
X186473407Y-87741503D01*
X186431819Y-87684261D01*
X186431815Y-87684256D01*
X186275935Y-87528376D01*
X186275930Y-87528372D01*
X186136317Y-87426938D01*
X186093651Y-87371609D01*
X186087672Y-87301995D01*
X186120277Y-87240200D01*
X186136317Y-87226302D01*
X186275930Y-87124867D01*
X186275928Y-87124867D01*
X186275937Y-87124862D01*
X186431814Y-86968985D01*
X186561387Y-86790642D01*
X186661467Y-86594226D01*
X186729587Y-86384571D01*
X186764072Y-86166842D01*
X186764072Y-85946398D01*
X186729587Y-85728669D01*
X186661467Y-85519014D01*
X186661467Y-85519013D01*
X186594923Y-85388416D01*
X186561387Y-85322598D01*
X186532660Y-85283058D01*
X186431819Y-85144261D01*
X186431815Y-85144256D01*
X186275935Y-84988376D01*
X186275930Y-84988372D01*
X186136317Y-84886938D01*
X186093651Y-84831609D01*
X186087672Y-84761995D01*
X186120277Y-84700200D01*
X186136317Y-84686302D01*
X186275930Y-84584867D01*
X186275928Y-84584867D01*
X186275937Y-84584862D01*
X186431814Y-84428985D01*
X186561387Y-84250642D01*
X186661467Y-84054226D01*
X186729587Y-83844571D01*
X186764072Y-83626842D01*
X186764072Y-83406398D01*
X186729587Y-83188669D01*
X186674499Y-83019122D01*
X186661468Y-82979016D01*
X186661467Y-82979013D01*
X186594923Y-82848416D01*
X186561387Y-82782598D01*
X186544832Y-82759812D01*
X186431819Y-82604261D01*
X186431815Y-82604256D01*
X186275935Y-82448376D01*
X186275930Y-82448372D01*
X186136317Y-82346938D01*
X186093651Y-82291609D01*
X186087672Y-82221995D01*
X186120277Y-82160200D01*
X186136317Y-82146302D01*
X186275930Y-82044867D01*
X186275928Y-82044867D01*
X186275937Y-82044862D01*
X186431814Y-81888985D01*
X186561387Y-81710642D01*
X186661467Y-81514226D01*
X186729587Y-81304571D01*
X186764072Y-81086842D01*
X186764072Y-80866398D01*
X186729587Y-80648669D01*
X186695527Y-80543841D01*
X186661468Y-80439016D01*
X186661467Y-80439013D01*
X186620805Y-80359211D01*
X186561387Y-80242598D01*
X186466388Y-80111842D01*
X186431819Y-80064261D01*
X186431815Y-80064256D01*
X186275935Y-79908376D01*
X186275930Y-79908372D01*
X186135891Y-79806628D01*
X186093225Y-79751298D01*
X186087246Y-79681685D01*
X186119851Y-79619890D01*
X186135891Y-79605992D01*
X186161085Y-79587686D01*
X186161086Y-79587686D01*
X185492981Y-78919582D01*
X185556565Y-78902545D01*
X185670579Y-78836719D01*
X185763671Y-78743627D01*
X185829497Y-78629613D01*
X185846534Y-78566030D01*
X186514638Y-79234134D01*
X186514638Y-79234133D01*
X186560958Y-79170380D01*
X186661004Y-78974030D01*
X186729098Y-78764455D01*
X186763572Y-78546801D01*
X186763572Y-78326438D01*
X186729098Y-78108784D01*
X186661004Y-77899209D01*
X186560960Y-77702863D01*
X186514638Y-77639105D01*
X186514637Y-77639105D01*
X185846534Y-78307209D01*
X185829497Y-78243627D01*
X185763671Y-78129613D01*
X185670579Y-78036521D01*
X185556565Y-77970695D01*
X185492979Y-77953657D01*
X186161085Y-77285552D01*
X186135891Y-77267248D01*
X186093225Y-77211918D01*
X186087246Y-77142305D01*
X186119851Y-77080509D01*
X186135885Y-77066614D01*
X186275937Y-76964862D01*
X186431814Y-76808985D01*
X186561387Y-76630642D01*
X186661467Y-76434226D01*
X186729587Y-76224571D01*
X186764072Y-76006842D01*
X186764072Y-75786398D01*
X186742656Y-75651186D01*
X186751610Y-75581896D01*
X186777445Y-75544112D01*
X187288118Y-75033439D01*
X187349441Y-74999955D01*
X187419133Y-75004939D01*
G37*
%TD.AperFunction*%
%TA.AperFunction,Conductor*%
G36*
X166425522Y-68220185D02*
G01*
X166446164Y-68236819D01*
X182090339Y-83880994D01*
X182090349Y-83881005D01*
X182094679Y-83885335D01*
X182094680Y-83885336D01*
X182206484Y-83997140D01*
X182263858Y-84030264D01*
X182293295Y-84047259D01*
X182293297Y-84047261D01*
X182331351Y-84069231D01*
X182343415Y-84076197D01*
X182496143Y-84117121D01*
X182496146Y-84117121D01*
X182661853Y-84117121D01*
X182661869Y-84117120D01*
X184021736Y-84117120D01*
X184088775Y-84136805D01*
X184132220Y-84184824D01*
X184165757Y-84250643D01*
X184295324Y-84428978D01*
X184295328Y-84428983D01*
X184451208Y-84584863D01*
X184451213Y-84584867D01*
X184590826Y-84686302D01*
X184633492Y-84741632D01*
X184639471Y-84811245D01*
X184606865Y-84873040D01*
X184590826Y-84886938D01*
X184451213Y-84988372D01*
X184451208Y-84988376D01*
X184295328Y-85144256D01*
X184295324Y-85144261D01*
X184165757Y-85322596D01*
X184132220Y-85388416D01*
X184084246Y-85439211D01*
X184021736Y-85456120D01*
X183053098Y-85456120D01*
X182986059Y-85436435D01*
X182965417Y-85419801D01*
X165957796Y-68412181D01*
X165924311Y-68350858D01*
X165929295Y-68281166D01*
X165971167Y-68225233D01*
X166036631Y-68200816D01*
X166045477Y-68200500D01*
X166358483Y-68200500D01*
X166425522Y-68220185D01*
G37*
%TD.AperFunction*%
%TA.AperFunction,Conductor*%
G36*
X174800809Y-56003585D02*
G01*
X174821451Y-56020219D01*
X186588981Y-67787748D01*
X186622466Y-67849071D01*
X186625300Y-67875429D01*
X186625300Y-73522161D01*
X186605615Y-73589200D01*
X186588981Y-73609842D01*
X185716080Y-74482742D01*
X185654757Y-74516227D01*
X185609001Y-74517534D01*
X185473799Y-74496120D01*
X185473794Y-74496120D01*
X185253350Y-74496120D01*
X185180773Y-74507615D01*
X185035619Y-74530605D01*
X184825968Y-74598723D01*
X184825965Y-74598724D01*
X184629546Y-74698807D01*
X184451213Y-74828372D01*
X184451208Y-74828376D01*
X184295328Y-74984256D01*
X184295324Y-74984261D01*
X184165759Y-75162594D01*
X184065676Y-75359013D01*
X184065675Y-75359016D01*
X183997557Y-75568667D01*
X183963072Y-75786398D01*
X183963072Y-76006841D01*
X183997557Y-76224572D01*
X184065675Y-76434223D01*
X184065676Y-76434226D01*
X184165759Y-76630645D01*
X184295324Y-76808978D01*
X184295328Y-76808983D01*
X184451212Y-76964867D01*
X184591251Y-77066610D01*
X184633917Y-77121939D01*
X184639896Y-77191553D01*
X184607291Y-77253348D01*
X184591251Y-77267246D01*
X184566057Y-77285550D01*
X184566057Y-77285552D01*
X185234162Y-77953657D01*
X185170579Y-77970695D01*
X185056565Y-78036521D01*
X184963473Y-78129613D01*
X184897647Y-78243627D01*
X184880609Y-78307210D01*
X184212504Y-77639105D01*
X184212503Y-77639105D01*
X184166188Y-77702853D01*
X184066139Y-77899209D01*
X183998045Y-78108784D01*
X183963572Y-78326438D01*
X183963572Y-78546801D01*
X183998045Y-78764455D01*
X184066139Y-78974030D01*
X184166183Y-79170376D01*
X184212504Y-79234133D01*
X184880609Y-78566028D01*
X184897647Y-78629613D01*
X184963473Y-78743627D01*
X185056565Y-78836719D01*
X185170579Y-78902545D01*
X185234162Y-78919582D01*
X184566057Y-79587685D01*
X184566057Y-79587686D01*
X184591252Y-79605991D01*
X184633918Y-79661321D01*
X184639897Y-79730934D01*
X184607292Y-79792730D01*
X184591253Y-79806628D01*
X184451208Y-79908376D01*
X184295328Y-80064256D01*
X184295324Y-80064261D01*
X184165757Y-80242596D01*
X184132220Y-80308416D01*
X184084246Y-80359211D01*
X184021736Y-80376120D01*
X182013118Y-80376120D01*
X181946079Y-80356435D01*
X181925437Y-80339801D01*
X179994883Y-78409247D01*
X172603416Y-71017781D01*
X172569931Y-70956458D01*
X172574915Y-70886766D01*
X172616787Y-70830833D01*
X172682251Y-70806416D01*
X172691097Y-70806100D01*
X174131931Y-70806100D01*
X174131947Y-70806101D01*
X174139543Y-70806101D01*
X174297654Y-70806101D01*
X174297657Y-70806101D01*
X174450385Y-70765177D01*
X174500504Y-70736239D01*
X174587316Y-70686120D01*
X174699120Y-70574316D01*
X174699120Y-70574314D01*
X174709328Y-70564107D01*
X174709330Y-70564104D01*
X174990157Y-70283277D01*
X181908001Y-70283277D01*
X181908001Y-70525854D01*
X181939507Y-70765177D01*
X181939663Y-70766355D01*
X181943097Y-70779172D01*
X182002448Y-71000670D01*
X182090031Y-71212114D01*
X182095277Y-71224778D01*
X182216565Y-71434855D01*
X182216567Y-71434858D01*
X182216568Y-71434859D01*
X182364234Y-71627302D01*
X182364240Y-71627309D01*
X182535757Y-71798826D01*
X182535764Y-71798832D01*
X182581042Y-71833575D01*
X182728212Y-71946502D01*
X182938289Y-72067790D01*
X183162401Y-72160620D01*
X183396712Y-72223404D01*
X183577087Y-72247150D01*
X183637212Y-72255066D01*
X183637213Y-72255066D01*
X183879790Y-72255066D01*
X183927889Y-72248733D01*
X184120290Y-72223404D01*
X184354601Y-72160620D01*
X184578713Y-72067790D01*
X184788790Y-71946502D01*
X184981239Y-71798831D01*
X185152766Y-71627304D01*
X185300437Y-71434855D01*
X185421725Y-71224778D01*
X185514555Y-71000666D01*
X185577339Y-70766355D01*
X185609001Y-70525854D01*
X185609001Y-70283278D01*
X185577339Y-70042777D01*
X185514555Y-69808466D01*
X185421725Y-69584354D01*
X185300437Y-69374277D01*
X185160706Y-69192175D01*
X185152767Y-69181829D01*
X185152761Y-69181822D01*
X184981244Y-69010305D01*
X184981237Y-69010299D01*
X184788794Y-68862633D01*
X184788793Y-68862632D01*
X184788790Y-68862630D01*
X184578713Y-68741342D01*
X184548137Y-68728677D01*
X184354605Y-68648513D01*
X184120286Y-68585727D01*
X183879790Y-68554066D01*
X183879789Y-68554066D01*
X183637213Y-68554066D01*
X183637212Y-68554066D01*
X183396715Y-68585727D01*
X183162396Y-68648513D01*
X182938295Y-68741339D01*
X182938286Y-68741343D01*
X182728207Y-68862633D01*
X182535764Y-69010299D01*
X182535757Y-69010305D01*
X182364240Y-69181822D01*
X182364234Y-69181829D01*
X182216568Y-69374272D01*
X182095278Y-69584351D01*
X182095274Y-69584360D01*
X182002448Y-69808461D01*
X181939662Y-70042780D01*
X181908001Y-70283277D01*
X174990157Y-70283277D01*
X176847913Y-68425521D01*
X176847916Y-68425520D01*
X176959720Y-68313716D01*
X177009839Y-68226904D01*
X177038777Y-68176785D01*
X177079700Y-68024057D01*
X177079700Y-67865943D01*
X177079700Y-59518259D01*
X177079701Y-59518246D01*
X177079701Y-59350145D01*
X177079701Y-59350143D01*
X177038777Y-59197415D01*
X176986162Y-59106284D01*
X176959720Y-59060484D01*
X176847916Y-58948680D01*
X176847913Y-58948678D01*
X175310990Y-57411755D01*
X175310988Y-57411752D01*
X175192117Y-57292881D01*
X175192116Y-57292880D01*
X175105304Y-57242760D01*
X175105304Y-57242759D01*
X175105300Y-57242758D01*
X175055185Y-57213823D01*
X174902457Y-57172899D01*
X174744343Y-57172899D01*
X174736747Y-57172899D01*
X174736731Y-57172900D01*
X173865419Y-57172900D01*
X173798380Y-57153215D01*
X173754935Y-57105195D01*
X173734752Y-57065585D01*
X173734751Y-57065584D01*
X173609809Y-56893613D01*
X173459486Y-56743290D01*
X173287520Y-56618351D01*
X173286815Y-56617991D01*
X173278754Y-56613885D01*
X173227959Y-56565912D01*
X173211163Y-56498092D01*
X173233699Y-56431956D01*
X173278754Y-56392915D01*
X173287516Y-56388451D01*
X173374171Y-56325493D01*
X173459486Y-56263509D01*
X173459488Y-56263506D01*
X173459492Y-56263504D01*
X173609804Y-56113192D01*
X173609807Y-56113188D01*
X173666603Y-56035015D01*
X173721933Y-55992349D01*
X173766921Y-55983900D01*
X174733770Y-55983900D01*
X174800809Y-56003585D01*
G37*
%TD.AperFunction*%
%TA.AperFunction,Conductor*%
G36*
X117132862Y-71855022D02*
G01*
X117153102Y-71878381D01*
X117222857Y-71982777D01*
X117222863Y-71982785D01*
X117362214Y-72122136D01*
X117362218Y-72122139D01*
X117526079Y-72231628D01*
X117526092Y-72231635D01*
X117708160Y-72307049D01*
X117708165Y-72307051D01*
X117708169Y-72307051D01*
X117708170Y-72307052D01*
X117901456Y-72345500D01*
X117901459Y-72345500D01*
X118098543Y-72345500D01*
X118249500Y-72315472D01*
X118291835Y-72307051D01*
X118473914Y-72231632D01*
X118550754Y-72180289D01*
X118639469Y-72121012D01*
X118639897Y-72120877D01*
X118640189Y-72120534D01*
X118673293Y-72110420D01*
X118706147Y-72100134D01*
X118706579Y-72100252D01*
X118707010Y-72100121D01*
X118740224Y-72109482D01*
X118773527Y-72118618D01*
X118773974Y-72118994D01*
X118774260Y-72119075D01*
X118775490Y-72120270D01*
X118801184Y-72141896D01*
X118806776Y-72148209D01*
X118828211Y-72180289D01*
X118889294Y-72241372D01*
X118891783Y-72244182D01*
X118905114Y-72272551D01*
X118920125Y-72300042D01*
X118919848Y-72303907D01*
X118921498Y-72307418D01*
X118917376Y-72338480D01*
X118915141Y-72369734D01*
X118912731Y-72373483D01*
X118912307Y-72376681D01*
X118905562Y-72384638D01*
X118886640Y-72414081D01*
X118861013Y-72439707D01*
X118861010Y-72439711D01*
X118773409Y-72570814D01*
X118773402Y-72570827D01*
X118713064Y-72716498D01*
X118713061Y-72716510D01*
X118682300Y-72871153D01*
X118682300Y-73028846D01*
X118713061Y-73183489D01*
X118713064Y-73183501D01*
X118773402Y-73329172D01*
X118773409Y-73329185D01*
X118861010Y-73460288D01*
X118861013Y-73460292D01*
X118903440Y-73502719D01*
X118936925Y-73564042D01*
X118931941Y-73633734D01*
X118903443Y-73678078D01*
X118891813Y-73689708D01*
X118891808Y-73689714D01*
X118804209Y-73820814D01*
X118804202Y-73820827D01*
X118743864Y-73966498D01*
X118743861Y-73966510D01*
X118713100Y-74121153D01*
X118713100Y-74278846D01*
X118743861Y-74433489D01*
X118743864Y-74433501D01*
X118804202Y-74579172D01*
X118804209Y-74579185D01*
X118891808Y-74710286D01*
X118891810Y-74710288D01*
X118891811Y-74710289D01*
X118895736Y-74714214D01*
X118929224Y-74775534D01*
X118924243Y-74845226D01*
X118895741Y-74889580D01*
X118820610Y-74964711D01*
X118733009Y-75095814D01*
X118733002Y-75095827D01*
X118672664Y-75241498D01*
X118672661Y-75241510D01*
X118641900Y-75396153D01*
X118641900Y-75553846D01*
X118672661Y-75708489D01*
X118672664Y-75708501D01*
X118733002Y-75854172D01*
X118733009Y-75854185D01*
X118820610Y-75985288D01*
X118820613Y-75985292D01*
X118932107Y-76096786D01*
X118932111Y-76096789D01*
X119063214Y-76184390D01*
X119063227Y-76184397D01*
X119208898Y-76244735D01*
X119208903Y-76244737D01*
X119273547Y-76257595D01*
X119364249Y-76275638D01*
X119426160Y-76308023D01*
X119427739Y-76309574D01*
X122530984Y-79412819D01*
X122564469Y-79474142D01*
X122559485Y-79543834D01*
X122517613Y-79599767D01*
X122452149Y-79624184D01*
X122443303Y-79624500D01*
X121088897Y-79624500D01*
X121021858Y-79604815D01*
X121001216Y-79588181D01*
X115886819Y-74473784D01*
X115853334Y-74412461D01*
X115850500Y-74386103D01*
X115850500Y-72466567D01*
X115870185Y-72399528D01*
X115922989Y-72353773D01*
X115992147Y-72343829D01*
X115998693Y-72344950D01*
X116001458Y-72345500D01*
X116001459Y-72345500D01*
X116198543Y-72345500D01*
X116349500Y-72315472D01*
X116391835Y-72307051D01*
X116573914Y-72231632D01*
X116737782Y-72122139D01*
X116877139Y-71982782D01*
X116934114Y-71897513D01*
X116946898Y-71878381D01*
X117000510Y-71833575D01*
X117069835Y-71824868D01*
X117132862Y-71855022D01*
G37*
%TD.AperFunction*%
%TA.AperFunction,Conductor*%
G36*
X153691741Y-65446385D02*
G01*
X153737496Y-65499189D01*
X153747440Y-65568347D01*
X153718415Y-65631903D01*
X153712383Y-65638381D01*
X145977584Y-73373181D01*
X145916261Y-73406666D01*
X145910277Y-73407815D01*
X145900161Y-73409500D01*
X145871158Y-73409500D01*
X145721805Y-73439208D01*
X145719874Y-73439530D01*
X145687031Y-73435551D01*
X145654099Y-73432605D01*
X145652509Y-73431370D01*
X145650511Y-73431128D01*
X145625046Y-73410036D01*
X145598922Y-73389742D01*
X145598252Y-73387842D01*
X145596702Y-73386559D01*
X145586682Y-73355045D01*
X145575678Y-73323852D01*
X145575577Y-73320121D01*
X145575531Y-73319974D01*
X145575570Y-73319828D01*
X145575500Y-73317215D01*
X145575500Y-70979765D01*
X145595185Y-70912726D01*
X145596398Y-70910874D01*
X145612507Y-70886766D01*
X145684394Y-70779179D01*
X145689708Y-70766351D01*
X145744735Y-70633501D01*
X145744737Y-70633497D01*
X145775500Y-70478842D01*
X145775500Y-70450097D01*
X145795185Y-70383058D01*
X145811819Y-70362416D01*
X150711216Y-65463019D01*
X150772539Y-65429534D01*
X150798897Y-65426700D01*
X153624702Y-65426700D01*
X153691741Y-65446385D01*
G37*
%TD.AperFunction*%
%TA.AperFunction,Conductor*%
G36*
X114729131Y-60970185D02*
G01*
X114749773Y-60986819D01*
X125377328Y-71614374D01*
X125377338Y-71614385D01*
X125381668Y-71618715D01*
X125381669Y-71618716D01*
X125493473Y-71730520D01*
X125556832Y-71767100D01*
X125630404Y-71809577D01*
X125783132Y-71850501D01*
X125783135Y-71850501D01*
X125948842Y-71850501D01*
X125948858Y-71850500D01*
X139888331Y-71850500D01*
X139888347Y-71850501D01*
X139895943Y-71850501D01*
X140054054Y-71850501D01*
X140054057Y-71850501D01*
X140206785Y-71809577D01*
X140280357Y-71767100D01*
X140343716Y-71730520D01*
X140455520Y-71618716D01*
X140455520Y-71618714D01*
X140465724Y-71608511D01*
X140465727Y-71608506D01*
X142962821Y-69111413D01*
X143024142Y-69077930D01*
X143093834Y-69082914D01*
X143149767Y-69124786D01*
X143174184Y-69190250D01*
X143174500Y-69199096D01*
X143174500Y-72044801D01*
X143154815Y-72111840D01*
X143102011Y-72157595D01*
X143050500Y-72168801D01*
X142940456Y-72168801D01*
X142785811Y-72199562D01*
X142785799Y-72199565D01*
X142640128Y-72259903D01*
X142640115Y-72259910D01*
X142509013Y-72347510D01*
X142486790Y-72369734D01*
X142442941Y-72413582D01*
X142381621Y-72447066D01*
X142355262Y-72449900D01*
X125875497Y-72449900D01*
X125808458Y-72430215D01*
X125787816Y-72413581D01*
X117862590Y-64488355D01*
X117862588Y-64488352D01*
X117743717Y-64369481D01*
X117743716Y-64369480D01*
X117656904Y-64319360D01*
X117656904Y-64319359D01*
X117656900Y-64319358D01*
X117606785Y-64290423D01*
X117454057Y-64249499D01*
X117295943Y-64249499D01*
X117288347Y-64249499D01*
X117288331Y-64249500D01*
X115231941Y-64249500D01*
X115164902Y-64229815D01*
X115119147Y-64177011D01*
X115109203Y-64107853D01*
X115138228Y-64044297D01*
X115144260Y-64037819D01*
X115221786Y-63960292D01*
X115221789Y-63960289D01*
X115309394Y-63829179D01*
X115314643Y-63816508D01*
X115323067Y-63796166D01*
X115369737Y-63683497D01*
X115400500Y-63528842D01*
X115400500Y-63371158D01*
X115400500Y-63371155D01*
X115400499Y-63371153D01*
X115382419Y-63280261D01*
X115369737Y-63216503D01*
X115369735Y-63216498D01*
X115309397Y-63070827D01*
X115309390Y-63070814D01*
X115221789Y-62939711D01*
X115221786Y-62939707D01*
X115110292Y-62828213D01*
X115110288Y-62828210D01*
X114979185Y-62740609D01*
X114979172Y-62740602D01*
X114833501Y-62680264D01*
X114833489Y-62680261D01*
X114678845Y-62649500D01*
X114678842Y-62649500D01*
X114521158Y-62649500D01*
X114521155Y-62649500D01*
X114366510Y-62680261D01*
X114366498Y-62680264D01*
X114220827Y-62740602D01*
X114220814Y-62740609D01*
X114089711Y-62828210D01*
X114089707Y-62828213D01*
X114079740Y-62838181D01*
X114018417Y-62871666D01*
X113992059Y-62874500D01*
X107248870Y-62874500D01*
X107248854Y-62874499D01*
X107241258Y-62874499D01*
X107083143Y-62874499D01*
X107006779Y-62894961D01*
X106930414Y-62915423D01*
X106930409Y-62915426D01*
X106793490Y-62994475D01*
X106793482Y-62994481D01*
X105087181Y-64700783D01*
X105067744Y-64711395D01*
X105051011Y-64725896D01*
X105037679Y-64727812D01*
X105025858Y-64734268D01*
X105003771Y-64732688D01*
X104981853Y-64735840D01*
X104969601Y-64730244D01*
X104956166Y-64729284D01*
X104938439Y-64716013D01*
X104918297Y-64706815D01*
X104911014Y-64695483D01*
X104900233Y-64687412D01*
X104892495Y-64666666D01*
X104880523Y-64648037D01*
X104877371Y-64626118D01*
X104875816Y-64621948D01*
X104875500Y-64613102D01*
X104875500Y-64525097D01*
X104895185Y-64458058D01*
X104911819Y-64437416D01*
X108362417Y-60986819D01*
X108423740Y-60953334D01*
X108450098Y-60950500D01*
X114662092Y-60950500D01*
X114729131Y-60970185D01*
G37*
%TD.AperFunction*%
%TA.AperFunction,Conductor*%
G36*
X142846685Y-61486850D02*
G01*
X142855647Y-61485562D01*
X142879687Y-61496540D01*
X142905039Y-61503985D01*
X142910966Y-61510825D01*
X142919203Y-61514587D01*
X142933492Y-61536821D01*
X142950794Y-61556789D01*
X142953081Y-61567303D01*
X142956977Y-61573365D01*
X142962000Y-61608300D01*
X142962000Y-61653846D01*
X142992761Y-61808489D01*
X142992764Y-61808501D01*
X143053102Y-61954172D01*
X143053109Y-61954185D01*
X143140710Y-62085288D01*
X143140713Y-62085292D01*
X143252207Y-62196786D01*
X143252211Y-62196789D01*
X143383314Y-62284390D01*
X143383327Y-62284397D01*
X143451461Y-62312618D01*
X143529003Y-62344737D01*
X143637539Y-62366326D01*
X143699446Y-62398709D01*
X143701026Y-62400261D01*
X145538181Y-64237416D01*
X145571666Y-64298739D01*
X145574500Y-64325097D01*
X145574500Y-65924902D01*
X145554815Y-65991941D01*
X145538181Y-66012583D01*
X144012181Y-67538583D01*
X143950858Y-67572068D01*
X143881166Y-67567084D01*
X143825233Y-67525212D01*
X143800816Y-67459748D01*
X143800500Y-67450902D01*
X143800500Y-67154765D01*
X143820185Y-67087726D01*
X143821398Y-67085874D01*
X143841170Y-67056284D01*
X143909394Y-66954179D01*
X143969737Y-66808497D01*
X144000500Y-66653842D01*
X144000500Y-66496158D01*
X144000500Y-66496155D01*
X144000499Y-66496153D01*
X143969738Y-66341510D01*
X143969737Y-66341503D01*
X143969735Y-66341498D01*
X143909397Y-66195827D01*
X143909390Y-66195814D01*
X143821789Y-66064711D01*
X143821786Y-66064707D01*
X143710292Y-65953213D01*
X143710288Y-65953210D01*
X143579185Y-65865609D01*
X143579172Y-65865602D01*
X143433501Y-65805264D01*
X143433489Y-65805261D01*
X143278845Y-65774500D01*
X143278842Y-65774500D01*
X143121158Y-65774500D01*
X143121155Y-65774500D01*
X142966510Y-65805261D01*
X142966498Y-65805264D01*
X142820827Y-65865602D01*
X142820814Y-65865609D01*
X142689711Y-65953210D01*
X142689707Y-65953213D01*
X142578213Y-66064707D01*
X142578210Y-66064711D01*
X142490609Y-66195814D01*
X142490602Y-66195827D01*
X142430264Y-66341498D01*
X142430261Y-66341510D01*
X142399500Y-66496153D01*
X142399500Y-66653846D01*
X142430261Y-66808489D01*
X142430264Y-66808501D01*
X142490602Y-66954172D01*
X142490609Y-66954185D01*
X142578602Y-67085874D01*
X142599480Y-67152551D01*
X142599500Y-67154765D01*
X142599500Y-67724902D01*
X142579815Y-67791941D01*
X142563181Y-67812583D01*
X139762584Y-70613181D01*
X139701261Y-70646666D01*
X139674903Y-70649500D01*
X126162286Y-70649500D01*
X126095247Y-70629815D01*
X126074605Y-70613181D01*
X121412648Y-65951224D01*
X121379163Y-65889901D01*
X121384147Y-65820209D01*
X121426019Y-65764276D01*
X121452877Y-65748982D01*
X121570172Y-65700397D01*
X121570172Y-65700396D01*
X121570179Y-65700394D01*
X121701289Y-65612789D01*
X121812789Y-65501289D01*
X121900394Y-65370179D01*
X121960737Y-65224497D01*
X121991500Y-65069842D01*
X121991638Y-65069150D01*
X122024023Y-65007239D01*
X122025518Y-65005716D01*
X125510616Y-61520619D01*
X125571939Y-61487134D01*
X125598297Y-61484300D01*
X142838000Y-61484300D01*
X142846685Y-61486850D01*
G37*
%TD.AperFunction*%
%TA.AperFunction,Conductor*%
G36*
X112419737Y-64095185D02*
G01*
X112465492Y-64147989D01*
X112475436Y-64217147D01*
X112446411Y-64280703D01*
X112414700Y-64306886D01*
X112401170Y-64314697D01*
X112393095Y-64319360D01*
X112349689Y-64344420D01*
X112306285Y-64369479D01*
X112306282Y-64369481D01*
X109619479Y-67056284D01*
X109602734Y-67085289D01*
X109583724Y-67118216D01*
X109540423Y-67193215D01*
X109499499Y-67345943D01*
X109499499Y-67345945D01*
X109499499Y-67514046D01*
X109499500Y-67514059D01*
X109499500Y-69116689D01*
X109479815Y-69183728D01*
X109427011Y-69229483D01*
X109357853Y-69239427D01*
X109294297Y-69210402D01*
X109277124Y-69192175D01*
X109259466Y-69169163D01*
X109259460Y-69169156D01*
X109087943Y-68997639D01*
X109087936Y-68997633D01*
X108895493Y-68849967D01*
X108895492Y-68849966D01*
X108895489Y-68849964D01*
X108685412Y-68728676D01*
X108615627Y-68699770D01*
X108461304Y-68635847D01*
X108226985Y-68573061D01*
X107986489Y-68541400D01*
X107986488Y-68541400D01*
X107743912Y-68541400D01*
X107743911Y-68541400D01*
X107503414Y-68573061D01*
X107269095Y-68635847D01*
X107044994Y-68728673D01*
X107044985Y-68728677D01*
X106834906Y-68849967D01*
X106642463Y-68997633D01*
X106642456Y-68997639D01*
X106470939Y-69169156D01*
X106470933Y-69169163D01*
X106323267Y-69361606D01*
X106201977Y-69571685D01*
X106201973Y-69571694D01*
X106109147Y-69795795D01*
X106109146Y-69795800D01*
X106077084Y-69915458D01*
X106069275Y-69944601D01*
X106032910Y-70004261D01*
X105970063Y-70034790D01*
X105900687Y-70026495D01*
X105846809Y-69982010D01*
X105825535Y-69915458D01*
X105825500Y-69912507D01*
X105825500Y-65712297D01*
X105845185Y-65645258D01*
X105861819Y-65624616D01*
X107374617Y-64111819D01*
X107435940Y-64078334D01*
X107462298Y-64075500D01*
X112352698Y-64075500D01*
X112419737Y-64095185D01*
G37*
%TD.AperFunction*%
%TA.AperFunction,Conductor*%
G36*
X168694937Y-62322585D02*
G01*
X168740692Y-62375389D01*
X168750636Y-62444547D01*
X168745829Y-62465218D01*
X168722453Y-62537160D01*
X168689200Y-62747113D01*
X168689200Y-62959686D01*
X168713416Y-63112584D01*
X168722454Y-63169643D01*
X168778004Y-63340609D01*
X168788144Y-63371814D01*
X168884651Y-63561220D01*
X169009590Y-63733186D01*
X169159909Y-63883505D01*
X169159914Y-63883509D01*
X169322153Y-64001382D01*
X169364819Y-64056711D01*
X169370798Y-64126325D01*
X169338193Y-64188120D01*
X169277354Y-64222477D01*
X169249268Y-64225700D01*
X150419742Y-64225700D01*
X150267013Y-64266623D01*
X150241064Y-64281606D01*
X150241063Y-64281606D01*
X150130087Y-64345677D01*
X150130082Y-64345681D01*
X150018278Y-64457486D01*
X145809478Y-68666285D01*
X145748155Y-68699770D01*
X145678463Y-68694786D01*
X145622530Y-68652914D01*
X145618695Y-68647495D01*
X145596789Y-68614711D01*
X145596786Y-68614707D01*
X145485292Y-68503213D01*
X145485288Y-68503210D01*
X145354185Y-68415609D01*
X145354172Y-68415602D01*
X145208501Y-68355264D01*
X145208494Y-68355262D01*
X145173682Y-68348337D01*
X145111772Y-68315950D01*
X145077199Y-68255234D01*
X145080940Y-68185464D01*
X145110193Y-68139041D01*
X146655520Y-66593716D01*
X146734577Y-66456784D01*
X146775501Y-66304057D01*
X146775501Y-66145942D01*
X146775501Y-66138347D01*
X146775500Y-66138329D01*
X146775500Y-64325097D01*
X146795185Y-64258058D01*
X146811819Y-64237416D01*
X148710016Y-62339219D01*
X148771339Y-62305734D01*
X148797697Y-62302900D01*
X168627898Y-62302900D01*
X168694937Y-62322585D01*
G37*
%TD.AperFunction*%
%TA.AperFunction,Conductor*%
G36*
X171557730Y-56128430D02*
G01*
X171585985Y-56149581D01*
X171699913Y-56263509D01*
X171871882Y-56388450D01*
X171880646Y-56392916D01*
X171931442Y-56440891D01*
X171948236Y-56508712D01*
X171925698Y-56574847D01*
X171880646Y-56613884D01*
X171871882Y-56618349D01*
X171699913Y-56743290D01*
X171549590Y-56893613D01*
X171424649Y-57065582D01*
X171420184Y-57074346D01*
X171372209Y-57125142D01*
X171304388Y-57141936D01*
X171238253Y-57119398D01*
X171199216Y-57074346D01*
X171194750Y-57065582D01*
X171069809Y-56893613D01*
X170955881Y-56779685D01*
X170922396Y-56718362D01*
X170927380Y-56648670D01*
X170969252Y-56592737D01*
X171000229Y-56575822D01*
X171131786Y-56526754D01*
X171131793Y-56526750D01*
X171246887Y-56440590D01*
X171246890Y-56440587D01*
X171333050Y-56325493D01*
X171333054Y-56325486D01*
X171382122Y-56193929D01*
X171423993Y-56137995D01*
X171489457Y-56113578D01*
X171557730Y-56128430D01*
G37*
%TD.AperFunction*%
%TD*%
D25*
X161112200Y-73634600D03*
X136702800Y-111252000D03*
X160175000Y-73625000D03*
X125984700Y-105434700D03*
X158850000Y-78650000D03*
X132207000Y-89052400D03*
X125072200Y-106347200D03*
X145973800Y-111252000D03*
X125547200Y-105872200D03*
X132207000Y-87975000D03*
X158851600Y-77038200D03*
X183250000Y-99000000D03*
X151950000Y-63225000D03*
X119225000Y-106650000D03*
X139325000Y-89050000D03*
X147600000Y-87400000D03*
X119750000Y-104900000D03*
X156325000Y-94500000D03*
X132725000Y-81375000D03*
X146050000Y-90400000D03*
X115400000Y-77825000D03*
X122200000Y-101100000D03*
X151900000Y-66200000D03*
X169425000Y-102850000D03*
X112500000Y-100925000D03*
X175775000Y-71875000D03*
X119125000Y-90450000D03*
X119300000Y-101075000D03*
X101325000Y-104575000D03*
X160000000Y-55000000D03*
X180325000Y-82350000D03*
X132150000Y-85450000D03*
X169525000Y-89850000D03*
X156825000Y-113900000D03*
X106775000Y-100925000D03*
X148675000Y-99375000D03*
X117200000Y-80875000D03*
X130900000Y-119800000D03*
X101125000Y-109975000D03*
X117175000Y-73725000D03*
X120975000Y-101125000D03*
X112775000Y-106875000D03*
X118350000Y-132850000D03*
X117650000Y-103675000D03*
X135525000Y-68800000D03*
X146700000Y-82050000D03*
X113350000Y-88850000D03*
X120850000Y-103900000D03*
X117700000Y-102225000D03*
X119925000Y-99300000D03*
X128175000Y-90400000D03*
X102775000Y-73375000D03*
X164025000Y-109300000D03*
X129975000Y-112475000D03*
X120900000Y-106650000D03*
X110650000Y-88850000D03*
X182475000Y-94725000D03*
X107725000Y-65500000D03*
X169550000Y-94375000D03*
X142100000Y-105675000D03*
X155025000Y-87150000D03*
X117700000Y-106650000D03*
X117700000Y-101075000D03*
X108900000Y-132975000D03*
X174825000Y-107100000D03*
X124050000Y-81525000D03*
X183075000Y-90250000D03*
X130150000Y-85450000D03*
X170600000Y-114625000D03*
X122200000Y-106650000D03*
X183100000Y-102800000D03*
X116150000Y-110425000D03*
X103500000Y-82150000D03*
X179300000Y-102700000D03*
X107725000Y-74225000D03*
X122200000Y-105250000D03*
X157075000Y-79075000D03*
X109200000Y-104000000D03*
X188100000Y-104925000D03*
X118725000Y-103900000D03*
X129525000Y-95975000D03*
X122200000Y-102200000D03*
X174625000Y-94425000D03*
X163075000Y-94250000D03*
X112000000Y-76200000D03*
X108900000Y-61350000D03*
X117650000Y-105250000D03*
X130800000Y-132850000D03*
X142075000Y-99475000D03*
X135525000Y-62850000D03*
X152925000Y-82525000D03*
X156775000Y-106325000D03*
X179275000Y-89375000D03*
X100925000Y-118625000D03*
X129500000Y-93675000D03*
X130000000Y-103975000D03*
X165100000Y-55000000D03*
X119900000Y-95475000D03*
X137450000Y-85800000D03*
X140450000Y-92750000D03*
X106975000Y-110075000D03*
X119800000Y-102800000D03*
X129950000Y-107800000D03*
X129100000Y-62850000D03*
X148550000Y-105750000D03*
X169525000Y-85075000D03*
X187600000Y-99500000D03*
X146550000Y-71500000D03*
X126250000Y-123250000D03*
X165225000Y-63225000D03*
X139850000Y-61700000D03*
X122175000Y-103800000D03*
X124575000Y-90425000D03*
X107750000Y-79500000D03*
X123672600Y-117775000D03*
X126898400Y-117729000D03*
X156286200Y-123425000D03*
X179070000Y-123750000D03*
X138709400Y-93522800D03*
X148329900Y-82620100D03*
X140975000Y-81525000D03*
X140185050Y-82639950D03*
X114600000Y-63450000D03*
X155907400Y-72417600D03*
X130633700Y-97483700D03*
X131300000Y-83475000D03*
X143200000Y-66575000D03*
X98933000Y-85750000D03*
X120481000Y-64050000D03*
X138425000Y-60225000D03*
X134188200Y-96900000D03*
X134188200Y-83769200D03*
X121191000Y-64991000D03*
X144975000Y-70400000D03*
X175150000Y-59150000D03*
X143762500Y-61575000D03*
X145950000Y-74210000D03*
X144975000Y-69125000D03*
X119482800Y-72950000D03*
X119442400Y-75475000D03*
X119513600Y-74200000D03*
X115275000Y-67875000D03*
X143019301Y-72969301D03*
X119450000Y-71670000D03*
X145194200Y-75475000D03*
X107362200Y-84800000D03*
X107350000Y-86328600D03*
X101200000Y-88750000D03*
X101225000Y-90025000D03*
X106650000Y-87223600D03*
X103632000Y-87706200D03*
D26*
X107265200Y-96216900D03*
X107265200Y-93676900D03*
X107265200Y-91136900D03*
X107265200Y-88596900D03*
X185363572Y-108916620D03*
X185363572Y-106376620D03*
X185363572Y-103836620D03*
X185363572Y-101296620D03*
X185363572Y-98756620D03*
X185363572Y-96216620D03*
X185363572Y-93676620D03*
X185363572Y-91136620D03*
X185363572Y-88596620D03*
X185363572Y-86056620D03*
X185363572Y-83516620D03*
X185363572Y-80976620D03*
X185363572Y-78436620D03*
X185363572Y-75896620D03*
X183764844Y-114492077D03*
X183758501Y-70404566D03*
X107865200Y-70391900D03*
X107864844Y-114492077D03*
D27*
X96400000Y-80500000D03*
D28*
X99100000Y-79500000D03*
X99100000Y-74500000D03*
D27*
X96400000Y-73500000D03*
D26*
X185000000Y-58000000D03*
X185000000Y-131000000D03*
X100000000Y-131000000D03*
X100000000Y-58000000D03*
D29*
X130100000Y-67260000D03*
X130100000Y-68660000D03*
X130800000Y-66560000D03*
X130800000Y-67960000D03*
X130800000Y-69360000D03*
X131500000Y-67260000D03*
X131500000Y-68660000D03*
X132200000Y-66560000D03*
X132200000Y-67960000D03*
X132200000Y-69360000D03*
X132900000Y-67260000D03*
X132900000Y-68660000D03*
D26*
X116100000Y-71345000D03*
X118000000Y-71345000D03*
X170039700Y-55233400D03*
X172579700Y-55233400D03*
X170039700Y-57773400D03*
X172579700Y-57773400D03*
X170039700Y-60313400D03*
X172579700Y-60313400D03*
X170039700Y-62853400D03*
X172579700Y-62853400D03*
X170350000Y-121875000D03*
X170350000Y-128375000D03*
X174850000Y-121875000D03*
X174850000Y-128375000D03*
X161250000Y-121875000D03*
X161250000Y-128375000D03*
X165750000Y-121875000D03*
X165750000Y-128375000D03*
X141696000Y-128345000D03*
X141696000Y-121845000D03*
X137196000Y-128345000D03*
X137196000Y-121845000D03*
X105968800Y-125450600D03*
X108508800Y-125450600D03*
X111048800Y-125450600D03*
X113588800Y-125450600D03*
X116128800Y-125450600D03*
X118668800Y-125450600D03*
X150496000Y-128345000D03*
X150496000Y-121845000D03*
X145996000Y-128345000D03*
X145996000Y-121845000D03*
D30*
X101805000Y-84680000D03*
D31*
X97825000Y-84680000D03*
D30*
X101805000Y-93320000D03*
D31*
X97825000Y-93320000D03*
M02*
