%TF.GenerationSoftware,KiCad,Pcbnew,9.0.2*%
%TF.CreationDate,2025-12-02T18:06:08+01:00*%
%TF.ProjectId,stacja_pogody_modu__wew,73746163-6a61-45f7-906f-676f64795f6d,rev?*%
%TF.SameCoordinates,Original*%
%TF.FileFunction,Profile,NP*%
%FSLAX46Y46*%
G04 Gerber Fmt 4.6, Leading zero omitted, Abs format (unit mm)*
G04 Created by KiCad (PCBNEW 9.0.2) date 2025-12-02 18:06:08*
%MOMM*%
%LPD*%
G01*
G04 APERTURE LIST*
%TA.AperFunction,Profile*%
%ADD10C,0.050000*%
%TD*%
%ADD11C,0.350000*%
%ADD12O,1.150000X0.500000*%
%ADD13O,0.550000X0.850000*%
%ADD14C,0.200000*%
%ADD15O,1.400000X0.600000*%
%ADD16O,1.800000X0.600000*%
G04 APERTURE END LIST*
D10*
X95000000Y-53000000D02*
X190000000Y-53000000D01*
X190000000Y-136000000D01*
X95000000Y-136000000D01*
X95000000Y-53000000D01*
D11*
X107265200Y-96216900D03*
X107265200Y-93676900D03*
X107265200Y-91136900D03*
X107265200Y-88596900D03*
X185363572Y-108916620D03*
X185363572Y-106376620D03*
X185363572Y-103836620D03*
X185363572Y-101296620D03*
X185363572Y-98756620D03*
X185363572Y-96216620D03*
X185363572Y-93676620D03*
X185363572Y-91136620D03*
X185363572Y-88596620D03*
X185363572Y-86056620D03*
X185363572Y-83516620D03*
X185363572Y-80976620D03*
X185363572Y-78436620D03*
X185363572Y-75896620D03*
X183764844Y-114492077D03*
X183758501Y-70404566D03*
X107865200Y-70391900D03*
X107864844Y-114492077D03*
D12*
X96400000Y-80500000D03*
D13*
X99100000Y-79500000D03*
X99100000Y-74500000D03*
D12*
X96400000Y-73500000D03*
D11*
X185000000Y-58000000D03*
X185000000Y-131000000D03*
X100000000Y-131000000D03*
X100000000Y-58000000D03*
D14*
X130100000Y-67260000D03*
X130100000Y-68660000D03*
X130800000Y-66560000D03*
X130800000Y-67960000D03*
X130800000Y-69360000D03*
X131500000Y-67260000D03*
X131500000Y-68660000D03*
X132200000Y-66560000D03*
X132200000Y-67960000D03*
X132200000Y-69360000D03*
X132900000Y-67260000D03*
X132900000Y-68660000D03*
D11*
X116100000Y-71345000D03*
X118000000Y-71345000D03*
X170039700Y-55233400D03*
X172579700Y-55233400D03*
X170039700Y-57773400D03*
X172579700Y-57773400D03*
X170039700Y-60313400D03*
X172579700Y-60313400D03*
X170039700Y-62853400D03*
X172579700Y-62853400D03*
X170350000Y-121875000D03*
X170350000Y-128375000D03*
X174850000Y-121875000D03*
X174850000Y-128375000D03*
X161250000Y-121875000D03*
X161250000Y-128375000D03*
X165750000Y-121875000D03*
X165750000Y-128375000D03*
X141696000Y-128345000D03*
X141696000Y-121845000D03*
X137196000Y-128345000D03*
X137196000Y-121845000D03*
X105968800Y-125450600D03*
X108508800Y-125450600D03*
X111048800Y-125450600D03*
X113588800Y-125450600D03*
X116128800Y-125450600D03*
X118668800Y-125450600D03*
X150496000Y-128345000D03*
X150496000Y-121845000D03*
X145996000Y-128345000D03*
X145996000Y-121845000D03*
D15*
X101805000Y-84680000D03*
D16*
X97825000Y-84680000D03*
D15*
X101805000Y-93320000D03*
D16*
X97825000Y-93320000D03*
M02*
