M48
; DRILL file {KiCad 9.0.2} date 2025-12-02T18:06:08+0100
; FORMAT={-:-/ absolute / metric / decimal}
; #@! TF.CreationDate,2025-12-02T18:06:08+01:00
; #@! TF.GenerationSoftware,Kicad,Pcbnew,9.0.2
; #@! TF.FileFunction,Plated,1,2,PTH
FMAT,2
METRIC
; #@! TA.AperFunction,Plated,PTH,ComponentDrill
T1C0.200
; #@! TA.AperFunction,Plated,PTH,ViaDrill
T2C0.300
; #@! TA.AperFunction,Plated,PTH,ComponentDrill
T3C0.500
; #@! TA.AperFunction,Plated,PTH,ComponentDrill
T4C0.550
; #@! TA.AperFunction,Plated,PTH,ComponentDrill
T5C0.600
; #@! TA.AperFunction,Plated,PTH,ComponentDrill
T6C1.000
; #@! TA.AperFunction,Plated,PTH,ComponentDrill
T7C1.100
%
G90
G05
T1
X130.1Y-67.26
X130.1Y-68.66
X130.8Y-66.56
X130.8Y-67.96
X130.8Y-69.36
X131.5Y-67.26
X131.5Y-68.66
X132.2Y-66.56
X132.2Y-67.96
X132.2Y-69.36
X132.9Y-67.26
X132.9Y-68.66
T2
X98.933Y-85.75
X100.925Y-118.625
X101.125Y-109.975
X101.2Y-88.75
X101.225Y-90.025
X101.325Y-104.575
X102.775Y-73.375
X103.5Y-82.15
X103.632Y-87.706
X106.65Y-87.224
X106.775Y-100.925
X106.975Y-110.075
X107.35Y-86.329
X107.362Y-84.8
X107.725Y-65.5
X107.725Y-74.225
X107.75Y-79.5
X108.9Y-61.35
X108.9Y-132.975
X109.2Y-104.0
X110.65Y-88.85
X112.0Y-76.2
X112.5Y-100.925
X112.775Y-106.875
X113.35Y-88.85
X114.6Y-63.45
X115.275Y-67.875
X115.4Y-77.825
X116.15Y-110.425
X117.175Y-73.725
X117.2Y-80.875
X117.65Y-103.675
X117.65Y-105.25
X117.7Y-101.075
X117.7Y-102.225
X117.7Y-106.65
X118.35Y-132.85
X118.725Y-103.9
X119.125Y-90.45
X119.225Y-106.65
X119.3Y-101.075
X119.442Y-75.475
X119.45Y-71.67
X119.483Y-72.95
X119.514Y-74.2
X119.75Y-104.9
X119.8Y-102.8
X119.9Y-95.475
X119.925Y-99.3
X120.481Y-64.05
X120.85Y-103.9
X120.9Y-106.65
X120.975Y-101.125
X121.191Y-64.991
X122.175Y-103.8
X122.2Y-101.1
X122.2Y-102.2
X122.2Y-105.25
X122.2Y-106.65
X123.673Y-117.775
X124.05Y-81.525
X124.575Y-90.425
X125.072Y-106.347
X125.547Y-105.872
X125.985Y-105.435
X126.25Y-123.25
X126.898Y-117.729
X128.175Y-90.4
X129.1Y-62.85
X129.5Y-93.675
X129.525Y-95.975
X129.95Y-107.8
X129.975Y-112.475
X130.0Y-103.975
X130.15Y-85.45
X130.634Y-97.484
X130.8Y-132.85
X130.9Y-119.8
X131.3Y-83.475
X132.15Y-85.45
X132.207Y-87.975
X132.207Y-89.052
X132.725Y-81.375
X134.188Y-83.769
X134.188Y-96.9
X135.525Y-62.85
X135.525Y-68.8
X136.703Y-111.252
X137.45Y-85.8
X138.425Y-60.225
X138.709Y-93.523
X139.325Y-89.05
X139.85Y-61.7
X140.185Y-82.64
X140.45Y-92.75
X140.975Y-81.525
X142.075Y-99.475
X142.1Y-105.675
X143.019Y-72.969
X143.2Y-66.575
X143.762Y-61.575
X144.975Y-69.125
X144.975Y-70.4
X145.194Y-75.475
X145.95Y-74.21
X145.974Y-111.252
X146.05Y-90.4
X146.55Y-71.5
X146.7Y-82.05
X147.6Y-87.4
X148.33Y-82.62
X148.55Y-105.75
X148.675Y-99.375
X151.9Y-66.2
X151.95Y-63.225
X152.925Y-82.525
X155.025Y-87.15
X155.907Y-72.418
X156.286Y-123.425
X156.325Y-94.5
X156.775Y-106.325
X156.825Y-113.9
X157.075Y-79.075
X158.85Y-78.65
X158.852Y-77.038
X160.0Y-55.0
X160.175Y-73.625
X161.112Y-73.635
X163.075Y-94.25
X164.025Y-109.3
X165.1Y-55.0
X165.225Y-63.225
X169.425Y-102.85
X169.525Y-85.075
X169.525Y-89.85
X169.55Y-94.375
X170.6Y-114.625
X174.625Y-94.425
X174.825Y-107.1
X175.15Y-59.15
X175.775Y-71.875
X179.07Y-123.75
X179.275Y-89.375
X179.3Y-102.7
X180.325Y-82.35
X182.475Y-94.725
X183.075Y-90.25
X183.1Y-102.8
X183.25Y-99.0
X187.6Y-99.5
X188.1Y-104.925
T3
X116.1Y-71.345
X118.0Y-71.345
T6
X105.969Y-125.451
X107.265Y-88.597
X107.265Y-91.137
X107.265Y-93.677
X107.265Y-96.217
X108.509Y-125.451
X111.049Y-125.451
X113.589Y-125.451
X116.129Y-125.451
X118.669Y-125.451
X170.04Y-55.233
X170.04Y-57.773
X170.04Y-60.313
X170.04Y-62.853
X172.58Y-55.233
X172.58Y-57.773
X172.58Y-60.313
X172.58Y-62.853
X185.364Y-75.897
X185.364Y-78.437
X185.364Y-80.977
X185.364Y-83.517
X185.364Y-86.057
X185.364Y-88.597
X185.364Y-91.137
X185.364Y-93.677
X185.364Y-96.217
X185.364Y-98.757
X185.364Y-101.297
X185.364Y-103.837
X185.364Y-106.377
X185.364Y-108.917
T7
X137.196Y-121.845
X137.196Y-128.345
X141.696Y-121.845
X141.696Y-128.345
X145.996Y-121.845
X145.996Y-128.345
X150.496Y-121.845
X150.496Y-128.345
X161.25Y-121.875
X161.25Y-128.375
X165.75Y-121.875
X165.75Y-128.375
X170.35Y-121.875
X170.35Y-128.375
X174.85Y-121.875
X174.85Y-128.375
T3
G00X96.725Y-73.5
M15
G01X96.075Y-73.5
M16
G05
G00X96.725Y-80.5
M15
G01X96.075Y-80.5
M16
G05
T4
G00X99.1Y-74.35
M15
G01X99.1Y-74.65
M16
G05
G00X99.1Y-79.35
M15
G01X99.1Y-79.65
M16
G05
T5
G00X98.425Y-84.68
M15
G01X97.225Y-84.68
M16
G05
G00X98.425Y-93.32
M15
G01X97.225Y-93.32
M16
G05
G00X102.205Y-84.68
M15
G01X101.405Y-84.68
M16
G05
G00X102.205Y-93.32
M15
G01X101.405Y-93.32
M16
G05
M30
