%TF.GenerationSoftware,KiCad,Pcbnew,9.0.2*%
%TF.CreationDate,2025-12-02T18:06:08+01:00*%
%TF.ProjectId,stacja_pogody_modu__wew,73746163-6a61-45f7-906f-676f64795f6d,rev?*%
%TF.SameCoordinates,Original*%
%TF.FileFunction,Soldermask,Bot*%
%TF.FilePolarity,Negative*%
%FSLAX46Y46*%
G04 Gerber Fmt 4.6, Leading zero omitted, Abs format (unit mm)*
G04 Created by KiCad (PCBNEW 9.0.2) date 2025-12-02 18:06:08*
%MOMM*%
%LPD*%
G01*
G04 APERTURE LIST*
G04 Aperture macros list*
%AMRoundRect*
0 Rectangle with rounded corners*
0 $1 Rounding radius*
0 $2 $3 $4 $5 $6 $7 $8 $9 X,Y pos of 4 corners*
0 Add a 4 corners polygon primitive as box body*
4,1,4,$2,$3,$4,$5,$6,$7,$8,$9,$2,$3,0*
0 Add four circle primitives for the rounded corners*
1,1,$1+$1,$2,$3*
1,1,$1+$1,$4,$5*
1,1,$1+$1,$6,$7*
1,1,$1+$1,$8,$9*
0 Add four rect primitives between the rounded corners*
20,1,$1+$1,$2,$3,$4,$5,0*
20,1,$1+$1,$4,$5,$6,$7,0*
20,1,$1+$1,$6,$7,$8,$9,0*
20,1,$1+$1,$8,$9,$2,$3,0*%
G04 Aperture macros list end*
%ADD10C,1.800000*%
%ADD11C,3.200000*%
%ADD12O,1.550000X0.890000*%
%ADD13O,0.950000X1.250000*%
%ADD14C,0.600000*%
%ADD15C,1.000000*%
%ADD16R,1.700000X1.700000*%
%ADD17C,1.700000*%
%ADD18C,2.000000*%
%ADD19RoundRect,0.243750X0.456250X-0.243750X0.456250X0.243750X-0.456250X0.243750X-0.456250X-0.243750X0*%
%ADD20O,1.800000X1.000000*%
%ADD21O,2.200000X1.000000*%
G04 APERTURE END LIST*
D10*
%TO.C,U4*%
X107265200Y-96216900D03*
X107265200Y-93676900D03*
X107265200Y-91136900D03*
X107265200Y-88596900D03*
X185363572Y-108916620D03*
X185363572Y-106376620D03*
X185363572Y-103836620D03*
X185363572Y-101296620D03*
X185363572Y-98756620D03*
X185363572Y-96216620D03*
X185363572Y-93676620D03*
X185363572Y-91136620D03*
X185363572Y-88596620D03*
X185363572Y-86056620D03*
X185363572Y-83516620D03*
X185363572Y-80976620D03*
X185363572Y-78436620D03*
X185363572Y-75896620D03*
D11*
X183764844Y-114492077D03*
X183758501Y-70404566D03*
X107865200Y-70391900D03*
X107864844Y-114492077D03*
%TD*%
D12*
%TO.C,J1*%
X96400000Y-80500000D03*
D13*
X99100000Y-79500000D03*
X99100000Y-74500000D03*
D12*
X96400000Y-73500000D03*
%TD*%
D11*
%TO.C,H4*%
X185000000Y-58000000D03*
%TD*%
%TO.C,H3*%
X185000000Y-131000000D03*
%TD*%
%TO.C,H2*%
X100000000Y-131000000D03*
%TD*%
%TO.C,H1*%
X100000000Y-58000000D03*
%TD*%
D14*
%TO.C,U3*%
X130100000Y-67260000D03*
X130100000Y-68660000D03*
X130800000Y-66560000D03*
X130800000Y-67960000D03*
X130800000Y-69360000D03*
X131500000Y-67260000D03*
X131500000Y-68660000D03*
X132200000Y-66560000D03*
X132200000Y-67960000D03*
X132200000Y-69360000D03*
X132900000Y-67260000D03*
X132900000Y-68660000D03*
%TD*%
D15*
%TO.C,Y2*%
X116100000Y-71345000D03*
X118000000Y-71345000D03*
%TD*%
D16*
%TO.C,U6*%
X170039700Y-55233400D03*
D17*
X172579700Y-55233400D03*
X170039700Y-57773400D03*
X172579700Y-57773400D03*
X170039700Y-60313400D03*
X172579700Y-60313400D03*
X170039700Y-62853400D03*
X172579700Y-62853400D03*
%TD*%
D18*
%TO.C,EN*%
X170350000Y-121875000D03*
X170350000Y-128375000D03*
X174850000Y-121875000D03*
X174850000Y-128375000D03*
%TD*%
D19*
%TO.C,D2*%
X130454400Y-126489700D03*
X130454400Y-124614700D03*
%TD*%
D18*
%TO.C,BOOT*%
X161250000Y-121875000D03*
X161250000Y-128375000D03*
X165750000Y-121875000D03*
X165750000Y-128375000D03*
%TD*%
%TO.C,SW1*%
X141696000Y-128345000D03*
X141696000Y-121845000D03*
X137196000Y-128345000D03*
X137196000Y-121845000D03*
%TD*%
D16*
%TO.C,J3*%
X105968800Y-125450600D03*
D17*
X108508800Y-125450600D03*
X111048800Y-125450600D03*
X113588800Y-125450600D03*
X116128800Y-125450600D03*
X118668800Y-125450600D03*
%TD*%
D18*
%TO.C,SW2*%
X150496000Y-128345000D03*
X150496000Y-121845000D03*
X145996000Y-128345000D03*
X145996000Y-121845000D03*
%TD*%
D19*
%TO.C,D3*%
X156274400Y-126548800D03*
X156274400Y-124673800D03*
%TD*%
%TO.C,D4*%
X179074400Y-126948800D03*
X179074400Y-125073800D03*
%TD*%
%TO.C,D1*%
X123672600Y-126542800D03*
X123672600Y-124667800D03*
%TD*%
D20*
%TO.C,J2*%
X101805000Y-84680000D03*
D21*
X97825000Y-84680000D03*
D20*
X101805000Y-93320000D03*
D21*
X97825000Y-93320000D03*
%TD*%
M02*
