%TF.GenerationSoftware,KiCad,Pcbnew,9.0.2*%
%TF.CreationDate,2025-11-28T20:50:14+01:00*%
%TF.ProjectId,stacja_pogodowa,73746163-6a61-45f7-906f-676f646f7761,rev?*%
%TF.SameCoordinates,Original*%
%TF.FileFunction,Legend,Bot*%
%TF.FilePolarity,Positive*%
%FSLAX46Y46*%
G04 Gerber Fmt 4.6, Leading zero omitted, Abs format (unit mm)*
G04 Created by KiCad (PCBNEW 9.0.2) date 2025-11-28 20:50:14*
%MOMM*%
%LPD*%
G01*
G04 APERTURE LIST*
%ADD10C,0.400000*%
%ADD11C,0.350000*%
G04 APERTURE END LIST*
D10*
G36*
X83341870Y-39408063D02*
G01*
X83424542Y-39523497D01*
X83505197Y-39604844D01*
X83584442Y-39658491D01*
X83663594Y-39689062D01*
X83744626Y-39699078D01*
X83814588Y-39689455D01*
X83881769Y-39660122D01*
X83942029Y-39614345D01*
X83996441Y-39551311D01*
X84038528Y-39480375D01*
X84061287Y-39416123D01*
X84106350Y-39209005D01*
X84158388Y-38998730D01*
X84189881Y-38902847D01*
X84216451Y-38858006D01*
X84250507Y-38829735D01*
X84293562Y-38815286D01*
X84293562Y-38777428D01*
X84220598Y-38752946D01*
X84153285Y-38704795D01*
X84089986Y-38628073D01*
X84042655Y-38539310D01*
X84014717Y-38447288D01*
X84005355Y-38350369D01*
X84014172Y-38256659D01*
X84039583Y-38174733D01*
X84081173Y-38102251D01*
X84140055Y-38037616D01*
X84236113Y-37971960D01*
X84350818Y-37931408D01*
X84489200Y-37917083D01*
X84622787Y-37928909D01*
X84747282Y-37963838D01*
X84864840Y-38022209D01*
X84977076Y-38105882D01*
X85072264Y-38207604D01*
X85137888Y-38316051D01*
X85177005Y-38433078D01*
X85190300Y-38561517D01*
X85182120Y-38653539D01*
X85159252Y-38728790D01*
X85123011Y-38790617D01*
X85073111Y-38840462D01*
X85018341Y-38868888D01*
X84956437Y-38878422D01*
X84889217Y-38868147D01*
X84828776Y-38837346D01*
X84772766Y-38783168D01*
X84738328Y-38808447D01*
X84796792Y-38896646D01*
X84864750Y-38955999D01*
X84943636Y-38991275D01*
X85037037Y-39003475D01*
X85120460Y-38992637D01*
X85190010Y-38961473D01*
X85249040Y-38909319D01*
X85292184Y-38842284D01*
X85319460Y-38758983D01*
X85329274Y-38655062D01*
X85318850Y-38532284D01*
X85287813Y-38415271D01*
X85235604Y-38302334D01*
X85160486Y-38192139D01*
X85059630Y-38083778D01*
X84946818Y-37992595D01*
X84826307Y-37922510D01*
X84696903Y-37872292D01*
X84556983Y-37841621D01*
X84404570Y-37831109D01*
X84271855Y-37839728D01*
X84160507Y-37863872D01*
X84067049Y-37901691D01*
X83988625Y-37952376D01*
X83922229Y-38018399D01*
X83875282Y-38094463D01*
X83846433Y-38182565D01*
X83836339Y-38285767D01*
X83847152Y-38394748D01*
X83879393Y-38497782D01*
X83934036Y-38596810D01*
X84006563Y-38683097D01*
X84089188Y-38746283D01*
X84183408Y-38788785D01*
X84134534Y-38816881D01*
X84073743Y-38875491D01*
X84022576Y-38944054D01*
X83996318Y-38999811D01*
X83933426Y-39201311D01*
X83857529Y-39426552D01*
X83814846Y-39519682D01*
X83781343Y-39557875D01*
X83736037Y-39581210D01*
X83674895Y-39589658D01*
X83616021Y-39579184D01*
X83550969Y-39544697D01*
X83476557Y-39478392D01*
X83390230Y-39368984D01*
X83341870Y-39408063D01*
G37*
G36*
X84260101Y-38075840D02*
G01*
X84318970Y-38144883D01*
X84360692Y-38221800D01*
X84386205Y-38308187D01*
X84395045Y-38406301D01*
X84388651Y-38500480D01*
X84362316Y-38688890D01*
X84335789Y-38885245D01*
X84328122Y-39030219D01*
X84338553Y-39171114D01*
X84368562Y-39295885D01*
X84417101Y-39407152D01*
X84484316Y-39506981D01*
X84569371Y-39593213D01*
X84660157Y-39652206D01*
X84758271Y-39687200D01*
X84866311Y-39699078D01*
X84965817Y-39688210D01*
X85054644Y-39656420D01*
X85135345Y-39603213D01*
X85200197Y-39532418D01*
X85246434Y-39443331D01*
X85273709Y-39331615D01*
X85067201Y-39276538D01*
X85051325Y-39294124D01*
X85077753Y-39353411D01*
X85086374Y-39414535D01*
X85079274Y-39467192D01*
X85057909Y-39516234D01*
X85020673Y-39563157D01*
X84973240Y-39599142D01*
X84917128Y-39621054D01*
X84849825Y-39628736D01*
X84753069Y-39614993D01*
X84670112Y-39574774D01*
X84597278Y-39505882D01*
X84543442Y-39419201D01*
X84510254Y-39317974D01*
X84498604Y-39198503D01*
X84504539Y-39043776D01*
X84523150Y-38874148D01*
X84546353Y-38656650D01*
X84540028Y-38513130D01*
X84522800Y-38398160D01*
X84496894Y-38307016D01*
X84455439Y-38222628D01*
X84388087Y-38131611D01*
X84288921Y-38032365D01*
X84260101Y-38075840D01*
G37*
G36*
X82803070Y-39072351D02*
G01*
X82873764Y-39037913D01*
X82943998Y-39026922D01*
X83008420Y-39036770D01*
X83085394Y-39069860D01*
X83179082Y-39133778D01*
X83263043Y-39209975D01*
X83348545Y-39307788D01*
X83435781Y-39430533D01*
X83384368Y-39466315D01*
X83319521Y-39373869D01*
X83319521Y-39421252D01*
X83311855Y-39500897D01*
X83290445Y-39565330D01*
X83256385Y-39617745D01*
X83209879Y-39658257D01*
X83154091Y-39682695D01*
X83086147Y-39691263D01*
X83015663Y-39683847D01*
X82955355Y-39662564D01*
X82898378Y-39623815D01*
X82822121Y-39547648D01*
X82813385Y-39623211D01*
X82795254Y-39661099D01*
X82763661Y-39682931D01*
X82711723Y-39691263D01*
X82645096Y-39679234D01*
X82573318Y-39639967D01*
X82493049Y-39564861D01*
X82401901Y-39441158D01*
X82448796Y-39400125D01*
X82512892Y-39486631D01*
X82563712Y-39541664D01*
X82613403Y-39580811D01*
X82639305Y-39589658D01*
X82662891Y-39585620D01*
X82673011Y-39575980D01*
X82679117Y-39487930D01*
X82679117Y-39152585D01*
X82824930Y-39152585D01*
X82824930Y-39433220D01*
X82833461Y-39453419D01*
X82877808Y-39508203D01*
X82934624Y-39552654D01*
X82991748Y-39566210D01*
X83063156Y-39552509D01*
X83115945Y-39513087D01*
X83148999Y-39451990D01*
X83161374Y-39362023D01*
X83153836Y-39289173D01*
X83132241Y-39226991D01*
X83096894Y-39173224D01*
X83049972Y-39129498D01*
X83002296Y-39105183D01*
X82952180Y-39097264D01*
X82883083Y-39111031D01*
X82824930Y-39152585D01*
X82679117Y-39152585D01*
X82679117Y-39008848D01*
X82803070Y-39072351D01*
G37*
G36*
X82021511Y-38055363D02*
G01*
X82101899Y-38095645D01*
X82179640Y-38167431D01*
X82239316Y-38255650D01*
X82274561Y-38350731D01*
X82286496Y-38455272D01*
X82286496Y-39073939D01*
X82335467Y-39191175D01*
X82410450Y-39340041D01*
X82463939Y-39430045D01*
X82418632Y-39472177D01*
X82342027Y-39353597D01*
X82286496Y-39239780D01*
X82286496Y-39586605D01*
X82317235Y-39562793D01*
X82359891Y-39500631D01*
X82403685Y-39566706D01*
X82426448Y-39627637D01*
X82351683Y-39670881D01*
X82286496Y-39690652D01*
X82286496Y-40185000D01*
X82298400Y-40320775D01*
X82326905Y-40397599D01*
X82365787Y-40436689D01*
X82416556Y-40449392D01*
X82462454Y-40440543D01*
X82498377Y-40414588D01*
X82522103Y-40376533D01*
X82530129Y-40330812D01*
X82521336Y-40291001D01*
X82547836Y-40268286D01*
X82664706Y-40381981D01*
X82604019Y-40450910D01*
X82533010Y-40490560D01*
X82447941Y-40504103D01*
X82365392Y-40493357D01*
X82293705Y-40461960D01*
X82230076Y-40408726D01*
X82182326Y-40340415D01*
X82152683Y-40257524D01*
X82142149Y-40156057D01*
X82142149Y-39691263D01*
X82075548Y-39679116D01*
X82003401Y-39639333D01*
X81922264Y-39562984D01*
X81829640Y-39436884D01*
X81877390Y-39384005D01*
X81978214Y-39521638D01*
X82031995Y-39574026D01*
X82085437Y-39601310D01*
X82142149Y-39612861D01*
X82142149Y-39035104D01*
X81943012Y-38700010D01*
X81845882Y-38504853D01*
X81802679Y-38385587D01*
X81779122Y-38283649D01*
X81774955Y-38233377D01*
X81891678Y-38233377D01*
X81903692Y-38349702D01*
X81943935Y-38492774D01*
X82020231Y-38668983D01*
X82142149Y-38885261D01*
X82142149Y-38365146D01*
X82128800Y-38258845D01*
X82092568Y-38181842D01*
X82055695Y-38141554D01*
X82018018Y-38119578D01*
X81978018Y-38112477D01*
X81931806Y-38124722D01*
X81903277Y-38160993D01*
X81891678Y-38233377D01*
X81774955Y-38233377D01*
X81771877Y-38196252D01*
X81782765Y-38127019D01*
X81812006Y-38081436D01*
X81860326Y-38052965D01*
X81935642Y-38042135D01*
X82021511Y-38055363D01*
G37*
G36*
X81284856Y-39072351D02*
G01*
X81355551Y-39037913D01*
X81425785Y-39026922D01*
X81490206Y-39036770D01*
X81567180Y-39069860D01*
X81660868Y-39133778D01*
X81744829Y-39209975D01*
X81830331Y-39307788D01*
X81917568Y-39430533D01*
X81866154Y-39466315D01*
X81801308Y-39373869D01*
X81801308Y-39421252D01*
X81793641Y-39500897D01*
X81772232Y-39565330D01*
X81738171Y-39617745D01*
X81691666Y-39658257D01*
X81635878Y-39682695D01*
X81567934Y-39691263D01*
X81497450Y-39683847D01*
X81437142Y-39662564D01*
X81380164Y-39623815D01*
X81303907Y-39547648D01*
X81295171Y-39623211D01*
X81277041Y-39661099D01*
X81245448Y-39682931D01*
X81193510Y-39691263D01*
X81126882Y-39679234D01*
X81055104Y-39639967D01*
X80974835Y-39564861D01*
X80883688Y-39441158D01*
X80930582Y-39400125D01*
X80994678Y-39486631D01*
X81045498Y-39541664D01*
X81095189Y-39580811D01*
X81121092Y-39589658D01*
X81144678Y-39585620D01*
X81154797Y-39575980D01*
X81160903Y-39487930D01*
X81160903Y-39152585D01*
X81306716Y-39152585D01*
X81306716Y-39433220D01*
X81315248Y-39453419D01*
X81359595Y-39508203D01*
X81416411Y-39552654D01*
X81473534Y-39566210D01*
X81544942Y-39552509D01*
X81597732Y-39513087D01*
X81630785Y-39451990D01*
X81643161Y-39362023D01*
X81635623Y-39289173D01*
X81614028Y-39226991D01*
X81578681Y-39173224D01*
X81531759Y-39129498D01*
X81484082Y-39105183D01*
X81433967Y-39097264D01*
X81364869Y-39111031D01*
X81306716Y-39152585D01*
X81160903Y-39152585D01*
X81160903Y-39008848D01*
X81284856Y-39072351D01*
G37*
G36*
X80466542Y-38050789D02*
G01*
X80529645Y-38077672D01*
X80594885Y-38125927D01*
X80663503Y-38200771D01*
X80732868Y-38311640D01*
X80773713Y-38428700D01*
X80787456Y-38554678D01*
X80787456Y-39061360D01*
X80952930Y-39174933D01*
X80946824Y-39256877D01*
X80809193Y-39159912D01*
X80869838Y-39295625D01*
X80954274Y-39430167D01*
X80905914Y-39469124D01*
X80842963Y-39378471D01*
X80787456Y-39271531D01*
X80787456Y-39505638D01*
X80779234Y-39612385D01*
X80761933Y-39657435D01*
X80731064Y-39682445D01*
X80686584Y-39691263D01*
X80614381Y-39678893D01*
X80537710Y-39638941D01*
X80453322Y-39563529D01*
X80358932Y-39440792D01*
X80407170Y-39400247D01*
X80508522Y-39525277D01*
X80569194Y-39577405D01*
X80604518Y-39589658D01*
X80624883Y-39582686D01*
X80636514Y-39560348D01*
X80642986Y-39445554D01*
X80642986Y-39047805D01*
X80454797Y-38917013D01*
X80349040Y-38845694D01*
X80358321Y-38765704D01*
X80489113Y-38855830D01*
X80558845Y-38900038D01*
X80398914Y-38635079D01*
X80305630Y-38445482D01*
X80260465Y-38313719D01*
X80254351Y-38269403D01*
X80351605Y-38269403D01*
X80364590Y-38371210D01*
X80409490Y-38503632D01*
X80485336Y-38656315D01*
X80642986Y-38927393D01*
X80642986Y-38477009D01*
X80635527Y-38367679D01*
X80615264Y-38282230D01*
X80584490Y-38215914D01*
X80539762Y-38160143D01*
X80492936Y-38130026D01*
X80441974Y-38120293D01*
X80404969Y-38128287D01*
X80378039Y-38151728D01*
X80359248Y-38195283D01*
X80351605Y-38269403D01*
X80254351Y-38269403D01*
X80248168Y-38224584D01*
X80259180Y-38148041D01*
X80289567Y-38092083D01*
X80337864Y-38055014D01*
X80403750Y-38042135D01*
X80466542Y-38050789D01*
G37*
G36*
X77564061Y-39408063D02*
G01*
X77646733Y-39523497D01*
X77727388Y-39604844D01*
X77806633Y-39658491D01*
X77885785Y-39689062D01*
X77966817Y-39699078D01*
X78036780Y-39689455D01*
X78103960Y-39660122D01*
X78164220Y-39614345D01*
X78218632Y-39551311D01*
X78260719Y-39480375D01*
X78283478Y-39416123D01*
X78328541Y-39209005D01*
X78380579Y-38998730D01*
X78412072Y-38902847D01*
X78438642Y-38858006D01*
X78472698Y-38829735D01*
X78515753Y-38815286D01*
X78515753Y-38777428D01*
X78442790Y-38752946D01*
X78375476Y-38704795D01*
X78312177Y-38628073D01*
X78264847Y-38539310D01*
X78236909Y-38447288D01*
X78227547Y-38350369D01*
X78236364Y-38256659D01*
X78261775Y-38174733D01*
X78303364Y-38102251D01*
X78362247Y-38037616D01*
X78458305Y-37971960D01*
X78573009Y-37931408D01*
X78711392Y-37917083D01*
X78844978Y-37928909D01*
X78969473Y-37963838D01*
X79087031Y-38022209D01*
X79199267Y-38105882D01*
X79294455Y-38207604D01*
X79360079Y-38316051D01*
X79399196Y-38433078D01*
X79412491Y-38561517D01*
X79404312Y-38653539D01*
X79381443Y-38728790D01*
X79345202Y-38790617D01*
X79295302Y-38840462D01*
X79240532Y-38868888D01*
X79178628Y-38878422D01*
X79111408Y-38868147D01*
X79050968Y-38837346D01*
X78994958Y-38783168D01*
X78960519Y-38808447D01*
X79018983Y-38896646D01*
X79086941Y-38955999D01*
X79165828Y-38991275D01*
X79259228Y-39003475D01*
X79342651Y-38992637D01*
X79412202Y-38961473D01*
X79471231Y-38909319D01*
X79514375Y-38842284D01*
X79541651Y-38758983D01*
X79551465Y-38655062D01*
X79541041Y-38532284D01*
X79510004Y-38415271D01*
X79457796Y-38302334D01*
X79382677Y-38192139D01*
X79281821Y-38083778D01*
X79169009Y-37992595D01*
X79048499Y-37922510D01*
X78919095Y-37872292D01*
X78779174Y-37841621D01*
X78626762Y-37831109D01*
X78494046Y-37839728D01*
X78382699Y-37863872D01*
X78289241Y-37901691D01*
X78210816Y-37952376D01*
X78144420Y-38018399D01*
X78097473Y-38094463D01*
X78068624Y-38182565D01*
X78058531Y-38285767D01*
X78069343Y-38394748D01*
X78101584Y-38497782D01*
X78156228Y-38596810D01*
X78228755Y-38683097D01*
X78311379Y-38746283D01*
X78405600Y-38788785D01*
X78356725Y-38816881D01*
X78295935Y-38875491D01*
X78244767Y-38944054D01*
X78218510Y-38999811D01*
X78155617Y-39201311D01*
X78079720Y-39426552D01*
X78037037Y-39519682D01*
X78003534Y-39557875D01*
X77958228Y-39581210D01*
X77897086Y-39589658D01*
X77838212Y-39579184D01*
X77773160Y-39544697D01*
X77698748Y-39478392D01*
X77612421Y-39368984D01*
X77564061Y-39408063D01*
G37*
G36*
X78482292Y-38075840D02*
G01*
X78541161Y-38144883D01*
X78582883Y-38221800D01*
X78608396Y-38308187D01*
X78617236Y-38406301D01*
X78610842Y-38500480D01*
X78584508Y-38688890D01*
X78557981Y-38885245D01*
X78550314Y-39030219D01*
X78560744Y-39171114D01*
X78590754Y-39295885D01*
X78639292Y-39407152D01*
X78706507Y-39506981D01*
X78791562Y-39593213D01*
X78882348Y-39652206D01*
X78980462Y-39687200D01*
X79088503Y-39699078D01*
X79188009Y-39688210D01*
X79276835Y-39656420D01*
X79357536Y-39603213D01*
X79422389Y-39532418D01*
X79468626Y-39443331D01*
X79495900Y-39331615D01*
X79289392Y-39276538D01*
X79273517Y-39294124D01*
X79299944Y-39353411D01*
X79308565Y-39414535D01*
X79301465Y-39467192D01*
X79280101Y-39516234D01*
X79242864Y-39563157D01*
X79195431Y-39599142D01*
X79139319Y-39621054D01*
X79072016Y-39628736D01*
X78975260Y-39614993D01*
X78892303Y-39574774D01*
X78819469Y-39505882D01*
X78765633Y-39419201D01*
X78732445Y-39317974D01*
X78720795Y-39198503D01*
X78726730Y-39043776D01*
X78745341Y-38874148D01*
X78768545Y-38656650D01*
X78762219Y-38513130D01*
X78744991Y-38398160D01*
X78719085Y-38307016D01*
X78677630Y-38222628D01*
X78610279Y-38131611D01*
X78511113Y-38032365D01*
X78482292Y-38075840D01*
G37*
G36*
X76606385Y-39408307D02*
G01*
X76692008Y-39533246D01*
X76765408Y-39611797D01*
X76828799Y-39656029D01*
X76884944Y-39675020D01*
X76884944Y-40109651D01*
X76896673Y-40214955D01*
X76930515Y-40305613D01*
X76986549Y-40384912D01*
X77060178Y-40447113D01*
X77143108Y-40483754D01*
X77238607Y-40496287D01*
X77322875Y-40485518D01*
X77408600Y-40452079D01*
X77483666Y-40398512D01*
X77539881Y-40326660D01*
X77420568Y-40189762D01*
X77396999Y-40211744D01*
X77402739Y-40264989D01*
X77389781Y-40322850D01*
X77348639Y-40376608D01*
X77289127Y-40413419D01*
X77216748Y-40425945D01*
X77163952Y-40418478D01*
X77120872Y-40397038D01*
X77085101Y-40360854D01*
X77050689Y-40287087D01*
X77037595Y-40177794D01*
X77037595Y-39425038D01*
X77140745Y-39560525D01*
X77209054Y-39632522D01*
X77277612Y-39677781D01*
X77339724Y-39691263D01*
X77399863Y-39681489D01*
X77439845Y-39655028D01*
X77465108Y-39610785D01*
X77474790Y-39541175D01*
X77474790Y-39237093D01*
X77527182Y-39339208D01*
X77604117Y-39456545D01*
X77649424Y-39414413D01*
X77532622Y-39211554D01*
X77474180Y-39067100D01*
X77320795Y-38993339D01*
X77320795Y-39538000D01*
X77311513Y-39571744D01*
X77286479Y-39581842D01*
X77272801Y-39581842D01*
X77243868Y-39567404D01*
X77176311Y-39494454D01*
X77037595Y-39298520D01*
X77037595Y-39067466D01*
X76884944Y-38993339D01*
X76884944Y-39573660D01*
X76833261Y-39555382D01*
X76760632Y-39495819D01*
X76657431Y-39369106D01*
X76606385Y-39408307D01*
G37*
G36*
X76364584Y-38997002D02*
G01*
X76298929Y-39038773D01*
X76242344Y-39091925D01*
X76194103Y-39157592D01*
X76157317Y-39230419D01*
X76136162Y-39301350D01*
X76129256Y-39371549D01*
X76137862Y-39454567D01*
X76162961Y-39528587D01*
X76204727Y-39595642D01*
X76260567Y-39649323D01*
X76324141Y-39680590D01*
X76398290Y-39691263D01*
X76456719Y-39682106D01*
X76524563Y-39651695D01*
X76586854Y-39603617D01*
X76643387Y-39533604D01*
X76590557Y-39471401D01*
X76514794Y-39416612D01*
X76500628Y-39434319D01*
X76503681Y-39474863D01*
X76493837Y-39528561D01*
X76463869Y-39576468D01*
X76420319Y-39610304D01*
X76373621Y-39620921D01*
X76317339Y-39607943D01*
X76271406Y-39568164D01*
X76241876Y-39510096D01*
X76231350Y-39434685D01*
X76242392Y-39357520D01*
X76276116Y-39283695D01*
X76335979Y-39210892D01*
X76428454Y-39137930D01*
X76542515Y-39316350D01*
X76646318Y-39469124D01*
X76694556Y-39430167D01*
X76558832Y-39208762D01*
X76414288Y-38925073D01*
X76375697Y-38928492D01*
X76364584Y-38997002D01*
G37*
G36*
X75895882Y-39437739D02*
G01*
X75980494Y-39553453D01*
X76070557Y-39633379D01*
X76167090Y-39683596D01*
X76272627Y-39707138D01*
X76283007Y-39673921D01*
X76187787Y-39641372D01*
X76113014Y-39595642D01*
X76043638Y-39528179D01*
X75942655Y-39400369D01*
X75895882Y-39437739D01*
G37*
G36*
X75466457Y-38039682D02*
G01*
X75548694Y-38080110D01*
X75629902Y-38152533D01*
X75692628Y-38241743D01*
X75729680Y-38338657D01*
X75742254Y-38446113D01*
X75742254Y-39067466D01*
X75766285Y-39114182D01*
X75959263Y-39422229D01*
X75913956Y-39464483D01*
X75742254Y-39214501D01*
X75742254Y-39717274D01*
X75597784Y-39640460D01*
X75597784Y-39453004D01*
X75532449Y-39372037D01*
X75414263Y-39544678D01*
X75343893Y-39626905D01*
X75296068Y-39662872D01*
X75243672Y-39684063D01*
X75185013Y-39691263D01*
X75103399Y-39678088D01*
X75020280Y-39636456D01*
X74932614Y-39559637D01*
X74838555Y-39436884D01*
X74886182Y-39384005D01*
X74990440Y-39517129D01*
X75059560Y-39575108D01*
X75105757Y-39589658D01*
X75159819Y-39580804D01*
X75210065Y-39553765D01*
X75258408Y-39505150D01*
X75428768Y-39258586D01*
X75351275Y-39182900D01*
X75292405Y-39146515D01*
X75246563Y-39136343D01*
X75209592Y-39146179D01*
X75172528Y-39179304D01*
X75133600Y-39247351D01*
X75068882Y-39203966D01*
X75039893Y-39171857D01*
X75032240Y-39147212D01*
X75041173Y-39117166D01*
X75076448Y-39072107D01*
X75125190Y-39038146D01*
X75182327Y-39026922D01*
X75235749Y-39033915D01*
X75292790Y-39056104D01*
X75355129Y-39096531D01*
X75449033Y-39183907D01*
X75597784Y-39355795D01*
X75597784Y-39007016D01*
X75429827Y-38739676D01*
X75318004Y-38521584D01*
X75259872Y-38374586D01*
X75230492Y-38265291D01*
X75225892Y-38221287D01*
X75333757Y-38221287D01*
X75348502Y-38336575D01*
X75402634Y-38507662D01*
X75483032Y-38685534D01*
X75597784Y-38885261D01*
X75597784Y-38381144D01*
X75584799Y-38270660D01*
X75548080Y-38180865D01*
X75509971Y-38131577D01*
X75470573Y-38105271D01*
X75428157Y-38096845D01*
X75389657Y-38105833D01*
X75359525Y-38133115D01*
X75340460Y-38172349D01*
X75333757Y-38221287D01*
X75225892Y-38221287D01*
X75222138Y-38185383D01*
X75232978Y-38113106D01*
X75261756Y-38066173D01*
X75308515Y-38037347D01*
X75380408Y-38026503D01*
X75466457Y-38039682D01*
G37*
G36*
X74508875Y-39027357D02*
G01*
X74574605Y-39052800D01*
X74642062Y-39097875D01*
X74743929Y-39201975D01*
X74918667Y-39430411D01*
X74867131Y-39466437D01*
X74798866Y-39374724D01*
X74802285Y-39430289D01*
X74794027Y-39510267D01*
X74771160Y-39573141D01*
X74734874Y-39622752D01*
X74686036Y-39660042D01*
X74626269Y-39683075D01*
X74552424Y-39691263D01*
X74449244Y-39683837D01*
X74366071Y-39663356D01*
X74299145Y-39631667D01*
X74239705Y-39586649D01*
X74179992Y-39523225D01*
X74119748Y-39437739D01*
X74166643Y-39400369D01*
X74237627Y-39481494D01*
X74310502Y-39536413D01*
X74387888Y-39571513D01*
X74451430Y-39581842D01*
X74533340Y-39570477D01*
X74587809Y-39540326D01*
X74622644Y-39492205D01*
X74493279Y-39411061D01*
X74405652Y-39336557D01*
X74350430Y-39267791D01*
X74320374Y-39203222D01*
X74318007Y-39187634D01*
X74430669Y-39187634D01*
X74441661Y-39246656D01*
X74476683Y-39305814D01*
X74542709Y-39367629D01*
X74650976Y-39433098D01*
X74660746Y-39398538D01*
X74671493Y-39315251D01*
X74659402Y-39230238D01*
X74624720Y-39161133D01*
X74589832Y-39124631D01*
X74552127Y-39104088D01*
X74510048Y-39097264D01*
X74477019Y-39103712D01*
X74452163Y-39122421D01*
X74436319Y-39150418D01*
X74430669Y-39187634D01*
X74318007Y-39187634D01*
X74310868Y-39140617D01*
X74320394Y-39091505D01*
X74348360Y-39053056D01*
X74389973Y-39027880D01*
X74443248Y-39019106D01*
X74508875Y-39027357D01*
G37*
D11*
X72200000Y-45500000D03*
X72200000Y-48040000D03*
X85200000Y-27500000D03*
X71960000Y-22380000D03*
X74500000Y-22380000D03*
X71960000Y-24920000D03*
X74500000Y-24920000D03*
X71960000Y-27460000D03*
X74500000Y-27460000D03*
X71960000Y-30000000D03*
X74500000Y-30000000D03*
X85960000Y-42760000D03*
X88500000Y-42760000D03*
X85960000Y-45300000D03*
X88500000Y-45300000D03*
X85960000Y-47840000D03*
X88500000Y-47840000D03*
M02*
