%TF.GenerationSoftware,KiCad,Pcbnew,9.0.2*%
%TF.CreationDate,2025-11-28T20:50:14+01:00*%
%TF.ProjectId,stacja_pogodowa,73746163-6a61-45f7-906f-676f646f7761,rev?*%
%TF.SameCoordinates,Original*%
%TF.FileFunction,Copper,L2,Bot*%
%TF.FilePolarity,Positive*%
%FSLAX46Y46*%
G04 Gerber Fmt 4.6, Leading zero omitted, Abs format (unit mm)*
G04 Created by KiCad (PCBNEW 9.0.2) date 2025-11-28 20:50:14*
%MOMM*%
%LPD*%
G01*
G04 APERTURE LIST*
%TA.AperFunction,ComponentPad*%
%ADD10R,1.700000X1.700000*%
%TD*%
%TA.AperFunction,ComponentPad*%
%ADD11C,1.700000*%
%TD*%
%TA.AperFunction,ViaPad*%
%ADD12C,0.600000*%
%TD*%
%ADD13C,0.300000*%
%ADD14C,0.350000*%
G04 APERTURE END LIST*
D10*
%TO.P,J1,1,Pin_1*%
%TO.N,VDD*%
X72200000Y-45500000D03*
D11*
%TO.P,J1,2,Pin_2*%
%TO.N,GND*%
X72200000Y-48040000D03*
%TD*%
D10*
%TO.P,U1,1,GND*%
%TO.N,GND*%
X71960000Y-22380000D03*
D11*
%TO.P,U1,2,VCC*%
%TO.N,VDD*%
X74500000Y-22380000D03*
%TO.P,U1,3,CE*%
%TO.N,/NRF_CE*%
X71960000Y-24920000D03*
%TO.P,U1,4,~{CSN}*%
%TO.N,/CSN_CSN*%
X74500000Y-24920000D03*
%TO.P,U1,5,SCK*%
%TO.N,/NRF_SCK*%
X71960000Y-27460000D03*
%TO.P,U1,6,MOSI*%
%TO.N,/NRF_MOSI*%
X74500000Y-27460000D03*
%TO.P,U1,7,MISO*%
%TO.N,/NRF_MISO*%
X71960000Y-30000000D03*
%TO.P,U1,8,IRQ*%
%TO.N,unconnected-(U1-IRQ-Pad8)*%
X74500000Y-30000000D03*
%TD*%
D10*
%TO.P,J2,1,Pin_1*%
%TO.N,/UPDI*%
X85960000Y-42760000D03*
D11*
%TO.P,J2,2,Pin_2*%
%TO.N,VDD*%
X88500000Y-42760000D03*
%TO.P,J2,3,Pin_3*%
%TO.N,unconnected-(J2-Pin_3-Pad3)*%
X85960000Y-45300000D03*
%TO.P,J2,4,Pin_4*%
%TO.N,unconnected-(J2-Pin_4-Pad4)*%
X88500000Y-45300000D03*
%TO.P,J2,5,Pin_5*%
%TO.N,unconnected-(J2-Pin_5-Pad5)*%
X85960000Y-47840000D03*
%TO.P,J2,6,Pin_6*%
%TO.N,GND*%
X88500000Y-47840000D03*
%TD*%
D12*
%TO.N,GND*%
X80800000Y-26400000D03*
X80800000Y-34000000D03*
X77600000Y-36800000D03*
X72400000Y-34000000D03*
X74800000Y-50400000D03*
X88000000Y-34000000D03*
X84200000Y-50400000D03*
X76300000Y-36800000D03*
X89200000Y-26600000D03*
X75525000Y-46075000D03*
X83000000Y-34000000D03*
X78600000Y-34000000D03*
X70600000Y-50400000D03*
X73000000Y-42800000D03*
X70400000Y-42800000D03*
X81000000Y-22000000D03*
X88600000Y-50400000D03*
X88000000Y-22000000D03*
%TD*%
%TA.AperFunction,Conductor*%
%TO.N,GND*%
G36*
X87301444Y-45953999D02*
G01*
X87340486Y-45999056D01*
X87344951Y-46007820D01*
X87469890Y-46179786D01*
X87620213Y-46330109D01*
X87792179Y-46455048D01*
X87792181Y-46455049D01*
X87792184Y-46455051D01*
X87801493Y-46459794D01*
X87852290Y-46507766D01*
X87869087Y-46575587D01*
X87846552Y-46641722D01*
X87801505Y-46680760D01*
X87792446Y-46685376D01*
X87792440Y-46685380D01*
X87738282Y-46724727D01*
X87738282Y-46724728D01*
X88370591Y-47357037D01*
X88307007Y-47374075D01*
X88192993Y-47439901D01*
X88099901Y-47532993D01*
X88034075Y-47647007D01*
X88017037Y-47710591D01*
X87384728Y-47078282D01*
X87384727Y-47078282D01*
X87345380Y-47132440D01*
X87345376Y-47132446D01*
X87340760Y-47141505D01*
X87292781Y-47192297D01*
X87224959Y-47209087D01*
X87158826Y-47186543D01*
X87119794Y-47141493D01*
X87115051Y-47132184D01*
X87115049Y-47132181D01*
X87115048Y-47132179D01*
X86990109Y-46960213D01*
X86839786Y-46809890D01*
X86667820Y-46684951D01*
X86659600Y-46680763D01*
X86659054Y-46680485D01*
X86608259Y-46632512D01*
X86591463Y-46564692D01*
X86613999Y-46498556D01*
X86659054Y-46459515D01*
X86667816Y-46455051D01*
X86746502Y-46397883D01*
X86839786Y-46330109D01*
X86839788Y-46330106D01*
X86839792Y-46330104D01*
X86990104Y-46179792D01*
X86990106Y-46179788D01*
X86990109Y-46179786D01*
X87115048Y-46007820D01*
X87115047Y-46007820D01*
X87115051Y-46007816D01*
X87119514Y-45999054D01*
X87167488Y-45948259D01*
X87235308Y-45931463D01*
X87301444Y-45953999D01*
G37*
%TD.AperFunction*%
%TA.AperFunction,Conductor*%
G36*
X90442539Y-20520185D02*
G01*
X90488294Y-20572989D01*
X90499500Y-20624500D01*
X90499500Y-51375500D01*
X90479815Y-51442539D01*
X90427011Y-51488294D01*
X90375500Y-51499500D01*
X69624500Y-51499500D01*
X69557461Y-51479815D01*
X69511706Y-51427011D01*
X69500500Y-51375500D01*
X69500500Y-44602135D01*
X70849500Y-44602135D01*
X70849500Y-46397870D01*
X70849501Y-46397876D01*
X70855908Y-46457483D01*
X70906202Y-46592328D01*
X70906206Y-46592335D01*
X70992452Y-46707544D01*
X70992455Y-46707547D01*
X71107664Y-46793793D01*
X71107671Y-46793797D01*
X71150819Y-46809890D01*
X71242517Y-46844091D01*
X71302127Y-46850500D01*
X71312685Y-46850499D01*
X71379723Y-46870179D01*
X71400372Y-46886818D01*
X72070591Y-47557037D01*
X72007007Y-47574075D01*
X71892993Y-47639901D01*
X71799901Y-47732993D01*
X71734075Y-47847007D01*
X71717037Y-47910591D01*
X71084728Y-47278282D01*
X71084727Y-47278282D01*
X71045380Y-47332439D01*
X70948904Y-47521782D01*
X70883242Y-47723869D01*
X70883242Y-47723872D01*
X70850000Y-47933753D01*
X70850000Y-48146246D01*
X70883242Y-48356127D01*
X70883242Y-48356130D01*
X70948904Y-48558217D01*
X71045375Y-48747550D01*
X71084728Y-48801716D01*
X71717037Y-48169408D01*
X71734075Y-48232993D01*
X71799901Y-48347007D01*
X71892993Y-48440099D01*
X72007007Y-48505925D01*
X72070590Y-48522962D01*
X71438282Y-49155269D01*
X71438282Y-49155270D01*
X71492449Y-49194624D01*
X71681782Y-49291095D01*
X71883870Y-49356757D01*
X72093754Y-49390000D01*
X72306246Y-49390000D01*
X72516127Y-49356757D01*
X72516130Y-49356757D01*
X72718217Y-49291095D01*
X72907554Y-49194622D01*
X72961716Y-49155270D01*
X72961717Y-49155270D01*
X72329408Y-48522962D01*
X72392993Y-48505925D01*
X72507007Y-48440099D01*
X72600099Y-48347007D01*
X72665925Y-48232993D01*
X72682962Y-48169408D01*
X73315270Y-48801717D01*
X73315270Y-48801716D01*
X73354622Y-48747554D01*
X73451095Y-48558217D01*
X73516757Y-48356130D01*
X73516757Y-48356127D01*
X73550000Y-48146246D01*
X73550000Y-47933753D01*
X73516757Y-47723872D01*
X73516757Y-47723869D01*
X73451095Y-47521782D01*
X73354624Y-47332449D01*
X73315270Y-47278282D01*
X73315269Y-47278282D01*
X72682962Y-47910590D01*
X72665925Y-47847007D01*
X72600099Y-47732993D01*
X72507007Y-47639901D01*
X72392993Y-47574075D01*
X72329409Y-47557037D01*
X72999627Y-46886818D01*
X73060950Y-46853333D01*
X73087307Y-46850499D01*
X73097872Y-46850499D01*
X73157483Y-46844091D01*
X73292331Y-46793796D01*
X73407546Y-46707546D01*
X73493796Y-46592331D01*
X73544091Y-46457483D01*
X73550500Y-46397873D01*
X73550499Y-44602128D01*
X73544091Y-44542517D01*
X73498475Y-44420215D01*
X73493797Y-44407671D01*
X73493793Y-44407664D01*
X73407547Y-44292455D01*
X73407544Y-44292452D01*
X73292335Y-44206206D01*
X73292328Y-44206202D01*
X73157482Y-44155908D01*
X73157483Y-44155908D01*
X73097883Y-44149501D01*
X73097881Y-44149500D01*
X73097873Y-44149500D01*
X73097864Y-44149500D01*
X71302129Y-44149500D01*
X71302123Y-44149501D01*
X71242516Y-44155908D01*
X71107671Y-44206202D01*
X71107664Y-44206206D01*
X70992455Y-44292452D01*
X70992452Y-44292455D01*
X70906206Y-44407664D01*
X70906202Y-44407671D01*
X70855908Y-44542517D01*
X70850569Y-44592182D01*
X70849501Y-44602123D01*
X70849500Y-44602135D01*
X69500500Y-44602135D01*
X69500500Y-41862135D01*
X84609500Y-41862135D01*
X84609500Y-43657870D01*
X84609501Y-43657876D01*
X84615908Y-43717483D01*
X84666202Y-43852328D01*
X84666206Y-43852335D01*
X84752452Y-43967544D01*
X84752455Y-43967547D01*
X84867664Y-44053793D01*
X84867671Y-44053797D01*
X84999082Y-44102810D01*
X85055016Y-44144681D01*
X85079433Y-44210145D01*
X85064582Y-44278418D01*
X85043431Y-44306673D01*
X84929889Y-44420215D01*
X84804951Y-44592179D01*
X84708444Y-44781585D01*
X84642753Y-44983760D01*
X84609500Y-45193713D01*
X84609500Y-45406286D01*
X84642753Y-45616239D01*
X84708444Y-45818414D01*
X84804951Y-46007820D01*
X84929890Y-46179786D01*
X85080213Y-46330109D01*
X85252182Y-46455050D01*
X85260946Y-46459516D01*
X85311742Y-46507491D01*
X85328536Y-46575312D01*
X85305998Y-46641447D01*
X85260946Y-46680484D01*
X85252182Y-46684949D01*
X85080213Y-46809890D01*
X84929890Y-46960213D01*
X84804951Y-47132179D01*
X84708444Y-47321585D01*
X84642753Y-47523760D01*
X84609500Y-47733713D01*
X84609500Y-47946286D01*
X84642735Y-48156127D01*
X84642754Y-48156243D01*
X84704737Y-48347007D01*
X84708444Y-48358414D01*
X84804951Y-48547820D01*
X84929890Y-48719786D01*
X85080213Y-48870109D01*
X85252179Y-48995048D01*
X85252181Y-48995049D01*
X85252184Y-48995051D01*
X85441588Y-49091557D01*
X85643757Y-49157246D01*
X85853713Y-49190500D01*
X85853714Y-49190500D01*
X86066286Y-49190500D01*
X86066287Y-49190500D01*
X86276243Y-49157246D01*
X86478412Y-49091557D01*
X86667816Y-48995051D01*
X86722572Y-48955269D01*
X86839786Y-48870109D01*
X86839788Y-48870106D01*
X86839792Y-48870104D01*
X86990104Y-48719792D01*
X86990106Y-48719788D01*
X86990109Y-48719786D01*
X87075890Y-48601717D01*
X87115051Y-48547816D01*
X87119793Y-48538508D01*
X87167763Y-48487711D01*
X87235583Y-48470911D01*
X87301719Y-48493445D01*
X87340763Y-48538500D01*
X87345373Y-48547547D01*
X87384728Y-48601716D01*
X88017037Y-47969408D01*
X88034075Y-48032993D01*
X88099901Y-48147007D01*
X88192993Y-48240099D01*
X88307007Y-48305925D01*
X88370590Y-48322962D01*
X87738282Y-48955269D01*
X87738282Y-48955270D01*
X87792449Y-48994624D01*
X87981782Y-49091095D01*
X88183870Y-49156757D01*
X88393754Y-49190000D01*
X88606246Y-49190000D01*
X88816127Y-49156757D01*
X88816130Y-49156757D01*
X89018217Y-49091095D01*
X89207554Y-48994622D01*
X89261716Y-48955270D01*
X89261717Y-48955270D01*
X88629408Y-48322962D01*
X88692993Y-48305925D01*
X88807007Y-48240099D01*
X88900099Y-48147007D01*
X88965925Y-48032993D01*
X88982962Y-47969408D01*
X89615270Y-48601717D01*
X89615270Y-48601716D01*
X89654622Y-48547554D01*
X89751095Y-48358217D01*
X89816757Y-48156130D01*
X89816757Y-48156127D01*
X89850000Y-47946246D01*
X89850000Y-47733753D01*
X89816757Y-47523872D01*
X89816757Y-47523869D01*
X89751095Y-47321782D01*
X89654624Y-47132449D01*
X89615270Y-47078282D01*
X89615269Y-47078282D01*
X88982962Y-47710590D01*
X88965925Y-47647007D01*
X88900099Y-47532993D01*
X88807007Y-47439901D01*
X88692993Y-47374075D01*
X88629409Y-47357037D01*
X89261716Y-46724728D01*
X89207547Y-46685373D01*
X89207547Y-46685372D01*
X89198500Y-46680763D01*
X89147706Y-46632788D01*
X89130912Y-46564966D01*
X89153451Y-46498832D01*
X89198508Y-46459793D01*
X89207816Y-46455051D01*
X89287007Y-46397515D01*
X89379786Y-46330109D01*
X89379788Y-46330106D01*
X89379792Y-46330104D01*
X89530104Y-46179792D01*
X89530106Y-46179788D01*
X89530109Y-46179786D01*
X89655048Y-46007820D01*
X89655047Y-46007820D01*
X89655051Y-46007816D01*
X89751557Y-45818412D01*
X89817246Y-45616243D01*
X89850500Y-45406287D01*
X89850500Y-45193713D01*
X89817246Y-44983757D01*
X89751557Y-44781588D01*
X89655051Y-44592184D01*
X89655049Y-44592181D01*
X89655048Y-44592179D01*
X89530109Y-44420213D01*
X89379786Y-44269890D01*
X89207820Y-44144951D01*
X89207115Y-44144591D01*
X89199054Y-44140485D01*
X89148259Y-44092512D01*
X89131463Y-44024692D01*
X89153999Y-43958556D01*
X89199054Y-43919515D01*
X89207816Y-43915051D01*
X89294138Y-43852335D01*
X89379786Y-43790109D01*
X89379788Y-43790106D01*
X89379792Y-43790104D01*
X89530104Y-43639792D01*
X89530106Y-43639788D01*
X89530109Y-43639786D01*
X89655048Y-43467820D01*
X89655047Y-43467820D01*
X89655051Y-43467816D01*
X89751557Y-43278412D01*
X89817246Y-43076243D01*
X89850500Y-42866287D01*
X89850500Y-42653713D01*
X89817246Y-42443757D01*
X89751557Y-42241588D01*
X89655051Y-42052184D01*
X89655049Y-42052181D01*
X89655048Y-42052179D01*
X89530109Y-41880213D01*
X89379786Y-41729890D01*
X89207820Y-41604951D01*
X89018414Y-41508444D01*
X89018413Y-41508443D01*
X89018412Y-41508443D01*
X88816243Y-41442754D01*
X88816241Y-41442753D01*
X88816240Y-41442753D01*
X88654957Y-41417208D01*
X88606287Y-41409500D01*
X88393713Y-41409500D01*
X88345042Y-41417208D01*
X88183760Y-41442753D01*
X87981585Y-41508444D01*
X87792179Y-41604951D01*
X87620215Y-41729889D01*
X87506673Y-41843431D01*
X87445350Y-41876915D01*
X87375658Y-41871931D01*
X87319725Y-41830059D01*
X87302810Y-41799082D01*
X87253797Y-41667671D01*
X87253793Y-41667664D01*
X87167547Y-41552455D01*
X87167544Y-41552452D01*
X87052335Y-41466206D01*
X87052328Y-41466202D01*
X86917482Y-41415908D01*
X86917483Y-41415908D01*
X86857883Y-41409501D01*
X86857881Y-41409500D01*
X86857873Y-41409500D01*
X86857864Y-41409500D01*
X85062129Y-41409500D01*
X85062123Y-41409501D01*
X85002516Y-41415908D01*
X84867671Y-41466202D01*
X84867664Y-41466206D01*
X84752455Y-41552452D01*
X84752452Y-41552455D01*
X84666206Y-41667664D01*
X84666202Y-41667671D01*
X84615908Y-41802517D01*
X84609501Y-41862116D01*
X84609500Y-41862135D01*
X69500500Y-41862135D01*
X69500500Y-24813713D01*
X70609500Y-24813713D01*
X70609500Y-25026286D01*
X70642753Y-25236239D01*
X70708444Y-25438414D01*
X70804951Y-25627820D01*
X70929890Y-25799786D01*
X71080213Y-25950109D01*
X71252182Y-26075050D01*
X71260946Y-26079516D01*
X71311742Y-26127491D01*
X71328536Y-26195312D01*
X71305998Y-26261447D01*
X71260946Y-26300484D01*
X71252182Y-26304949D01*
X71080213Y-26429890D01*
X70929890Y-26580213D01*
X70804951Y-26752179D01*
X70708444Y-26941585D01*
X70642753Y-27143760D01*
X70609500Y-27353713D01*
X70609500Y-27566287D01*
X70642754Y-27776243D01*
X70670548Y-27861785D01*
X70708444Y-27978414D01*
X70804951Y-28167820D01*
X70929890Y-28339786D01*
X71080213Y-28490109D01*
X71252182Y-28615050D01*
X71260946Y-28619516D01*
X71311742Y-28667491D01*
X71328536Y-28735312D01*
X71305998Y-28801447D01*
X71260946Y-28840484D01*
X71252182Y-28844949D01*
X71080213Y-28969890D01*
X70929890Y-29120213D01*
X70804951Y-29292179D01*
X70708444Y-29481585D01*
X70642753Y-29683760D01*
X70609500Y-29893713D01*
X70609500Y-30106286D01*
X70642753Y-30316239D01*
X70708444Y-30518414D01*
X70804951Y-30707820D01*
X70929890Y-30879786D01*
X71080213Y-31030109D01*
X71252179Y-31155048D01*
X71252181Y-31155049D01*
X71252184Y-31155051D01*
X71441588Y-31251557D01*
X71643757Y-31317246D01*
X71853713Y-31350500D01*
X71853714Y-31350500D01*
X72066286Y-31350500D01*
X72066287Y-31350500D01*
X72276243Y-31317246D01*
X72478412Y-31251557D01*
X72667816Y-31155051D01*
X72689789Y-31139086D01*
X72839786Y-31030109D01*
X72839788Y-31030106D01*
X72839792Y-31030104D01*
X72990104Y-30879792D01*
X72990106Y-30879788D01*
X72990109Y-30879786D01*
X73115048Y-30707820D01*
X73115047Y-30707820D01*
X73115051Y-30707816D01*
X73119514Y-30699054D01*
X73167488Y-30648259D01*
X73235308Y-30631463D01*
X73301444Y-30653999D01*
X73340486Y-30699056D01*
X73344951Y-30707820D01*
X73469890Y-30879786D01*
X73620213Y-31030109D01*
X73792179Y-31155048D01*
X73792181Y-31155049D01*
X73792184Y-31155051D01*
X73981588Y-31251557D01*
X74183757Y-31317246D01*
X74393713Y-31350500D01*
X74393714Y-31350500D01*
X74606286Y-31350500D01*
X74606287Y-31350500D01*
X74816243Y-31317246D01*
X75018412Y-31251557D01*
X75207816Y-31155051D01*
X75229789Y-31139086D01*
X75379786Y-31030109D01*
X75379788Y-31030106D01*
X75379792Y-31030104D01*
X75530104Y-30879792D01*
X75530106Y-30879788D01*
X75530109Y-30879786D01*
X75655048Y-30707820D01*
X75655047Y-30707820D01*
X75655051Y-30707816D01*
X75751557Y-30518412D01*
X75817246Y-30316243D01*
X75850500Y-30106287D01*
X75850500Y-29893713D01*
X75817246Y-29683757D01*
X75751557Y-29481588D01*
X75655051Y-29292184D01*
X75655049Y-29292181D01*
X75655048Y-29292179D01*
X75530109Y-29120213D01*
X75379786Y-28969890D01*
X75207820Y-28844951D01*
X75207115Y-28844591D01*
X75199054Y-28840485D01*
X75148259Y-28792512D01*
X75131463Y-28724692D01*
X75153999Y-28658556D01*
X75199054Y-28619515D01*
X75207816Y-28615051D01*
X75229789Y-28599086D01*
X75379786Y-28490109D01*
X75379788Y-28490106D01*
X75379792Y-28490104D01*
X75530104Y-28339792D01*
X75530106Y-28339788D01*
X75530109Y-28339786D01*
X75655048Y-28167820D01*
X75655047Y-28167820D01*
X75655051Y-28167816D01*
X75751557Y-27978412D01*
X75817246Y-27776243D01*
X75850500Y-27566287D01*
X75850500Y-27378711D01*
X83349500Y-27378711D01*
X83349500Y-27621288D01*
X83381161Y-27861785D01*
X83443947Y-28096104D01*
X83536773Y-28320205D01*
X83536777Y-28320214D01*
X83558974Y-28358661D01*
X83658064Y-28530289D01*
X83658066Y-28530292D01*
X83658067Y-28530293D01*
X83805733Y-28722736D01*
X83805739Y-28722743D01*
X83977256Y-28894260D01*
X83977262Y-28894265D01*
X84169711Y-29041936D01*
X84379788Y-29163224D01*
X84603900Y-29256054D01*
X84838211Y-29318838D01*
X85018586Y-29342584D01*
X85078711Y-29350500D01*
X85078712Y-29350500D01*
X85321289Y-29350500D01*
X85369388Y-29344167D01*
X85561789Y-29318838D01*
X85796100Y-29256054D01*
X86020212Y-29163224D01*
X86230289Y-29041936D01*
X86422738Y-28894265D01*
X86594265Y-28722738D01*
X86741936Y-28530289D01*
X86863224Y-28320212D01*
X86956054Y-28096100D01*
X87018838Y-27861789D01*
X87050500Y-27621288D01*
X87050500Y-27378712D01*
X87018838Y-27138211D01*
X86956054Y-26903900D01*
X86863224Y-26679788D01*
X86741936Y-26469711D01*
X86681018Y-26390321D01*
X86594266Y-26277263D01*
X86594260Y-26277256D01*
X86422743Y-26105739D01*
X86422736Y-26105733D01*
X86230293Y-25958067D01*
X86230292Y-25958066D01*
X86230289Y-25958064D01*
X86020212Y-25836776D01*
X85930925Y-25799792D01*
X85796104Y-25743947D01*
X85561785Y-25681161D01*
X85321289Y-25649500D01*
X85321288Y-25649500D01*
X85078712Y-25649500D01*
X85078711Y-25649500D01*
X84838214Y-25681161D01*
X84603895Y-25743947D01*
X84379794Y-25836773D01*
X84379785Y-25836777D01*
X84197851Y-25941817D01*
X84183490Y-25950109D01*
X84169706Y-25958067D01*
X83977263Y-26105733D01*
X83977256Y-26105739D01*
X83805739Y-26277256D01*
X83805733Y-26277263D01*
X83658067Y-26469706D01*
X83536777Y-26679785D01*
X83536773Y-26679794D01*
X83443947Y-26903895D01*
X83381161Y-27138214D01*
X83349500Y-27378711D01*
X75850500Y-27378711D01*
X75850500Y-27353713D01*
X75817246Y-27143757D01*
X75751557Y-26941588D01*
X75655051Y-26752184D01*
X75655049Y-26752181D01*
X75655048Y-26752179D01*
X75530109Y-26580213D01*
X75379786Y-26429890D01*
X75207820Y-26304951D01*
X75207115Y-26304591D01*
X75199054Y-26300485D01*
X75148259Y-26252512D01*
X75131463Y-26184692D01*
X75153999Y-26118556D01*
X75199054Y-26079515D01*
X75207816Y-26075051D01*
X75229789Y-26059086D01*
X75379786Y-25950109D01*
X75379788Y-25950106D01*
X75379792Y-25950104D01*
X75530104Y-25799792D01*
X75530106Y-25799788D01*
X75530109Y-25799786D01*
X75655048Y-25627820D01*
X75655047Y-25627820D01*
X75655051Y-25627816D01*
X75751557Y-25438412D01*
X75817246Y-25236243D01*
X75850500Y-25026287D01*
X75850500Y-24813713D01*
X75817246Y-24603757D01*
X75751557Y-24401588D01*
X75655051Y-24212184D01*
X75655049Y-24212181D01*
X75655048Y-24212179D01*
X75530109Y-24040213D01*
X75379786Y-23889890D01*
X75207820Y-23764951D01*
X75207115Y-23764591D01*
X75199054Y-23760485D01*
X75148259Y-23712512D01*
X75131463Y-23644692D01*
X75153999Y-23578556D01*
X75199054Y-23539515D01*
X75207816Y-23535051D01*
X75294471Y-23472093D01*
X75379786Y-23410109D01*
X75379788Y-23410106D01*
X75379792Y-23410104D01*
X75530104Y-23259792D01*
X75530106Y-23259788D01*
X75530109Y-23259786D01*
X75655048Y-23087820D01*
X75655047Y-23087820D01*
X75655051Y-23087816D01*
X75751557Y-22898412D01*
X75817246Y-22696243D01*
X75850500Y-22486287D01*
X75850500Y-22273713D01*
X75817246Y-22063757D01*
X75751557Y-21861588D01*
X75655051Y-21672184D01*
X75655049Y-21672181D01*
X75655048Y-21672179D01*
X75530109Y-21500213D01*
X75379786Y-21349890D01*
X75207820Y-21224951D01*
X75018414Y-21128444D01*
X75018413Y-21128443D01*
X75018412Y-21128443D01*
X74816243Y-21062754D01*
X74816241Y-21062753D01*
X74816240Y-21062753D01*
X74654957Y-21037208D01*
X74606287Y-21029500D01*
X74393713Y-21029500D01*
X74345042Y-21037208D01*
X74183760Y-21062753D01*
X73981585Y-21128444D01*
X73792179Y-21224951D01*
X73620215Y-21349889D01*
X73506285Y-21463819D01*
X73444962Y-21497303D01*
X73375270Y-21492319D01*
X73319337Y-21450447D01*
X73302422Y-21419470D01*
X73253354Y-21287913D01*
X73253350Y-21287906D01*
X73167190Y-21172812D01*
X73167187Y-21172809D01*
X73052093Y-21086649D01*
X73052086Y-21086645D01*
X72917379Y-21036403D01*
X72917372Y-21036401D01*
X72857844Y-21030000D01*
X72210000Y-21030000D01*
X72210000Y-21946988D01*
X72152993Y-21914075D01*
X72025826Y-21880000D01*
X71894174Y-21880000D01*
X71767007Y-21914075D01*
X71710000Y-21946988D01*
X71710000Y-21030000D01*
X71062155Y-21030000D01*
X71002627Y-21036401D01*
X71002620Y-21036403D01*
X70867913Y-21086645D01*
X70867906Y-21086649D01*
X70752812Y-21172809D01*
X70752809Y-21172812D01*
X70666649Y-21287906D01*
X70666645Y-21287913D01*
X70616403Y-21422620D01*
X70616401Y-21422627D01*
X70610000Y-21482155D01*
X70610000Y-22130000D01*
X71526988Y-22130000D01*
X71494075Y-22187007D01*
X71460000Y-22314174D01*
X71460000Y-22445826D01*
X71494075Y-22572993D01*
X71526988Y-22630000D01*
X70610000Y-22630000D01*
X70610000Y-23277844D01*
X70616401Y-23337372D01*
X70616403Y-23337379D01*
X70666645Y-23472086D01*
X70666649Y-23472093D01*
X70752809Y-23587187D01*
X70752812Y-23587190D01*
X70867906Y-23673350D01*
X70867913Y-23673354D01*
X70999470Y-23722422D01*
X71055404Y-23764293D01*
X71079821Y-23829758D01*
X71064969Y-23898031D01*
X71043819Y-23926285D01*
X70929889Y-24040215D01*
X70804951Y-24212179D01*
X70708444Y-24401585D01*
X70642753Y-24603760D01*
X70609500Y-24813713D01*
X69500500Y-24813713D01*
X69500500Y-20624500D01*
X69520185Y-20557461D01*
X69572989Y-20511706D01*
X69624500Y-20500500D01*
X90375500Y-20500500D01*
X90442539Y-20520185D01*
G37*
%TD.AperFunction*%
%TD*%
D13*
X80800000Y-26400000D03*
X80800000Y-34000000D03*
X77600000Y-36800000D03*
X72400000Y-34000000D03*
X74800000Y-50400000D03*
X88000000Y-34000000D03*
X84200000Y-50400000D03*
X76300000Y-36800000D03*
X89200000Y-26600000D03*
X75525000Y-46075000D03*
X83000000Y-34000000D03*
X78600000Y-34000000D03*
X70600000Y-50400000D03*
X73000000Y-42800000D03*
X70400000Y-42800000D03*
X81000000Y-22000000D03*
X88600000Y-50400000D03*
X88000000Y-22000000D03*
D14*
X72200000Y-45500000D03*
X72200000Y-48040000D03*
X85200000Y-27500000D03*
X71960000Y-22380000D03*
X74500000Y-22380000D03*
X71960000Y-24920000D03*
X74500000Y-24920000D03*
X71960000Y-27460000D03*
X74500000Y-27460000D03*
X71960000Y-30000000D03*
X74500000Y-30000000D03*
X85960000Y-42760000D03*
X88500000Y-42760000D03*
X85960000Y-45300000D03*
X88500000Y-45300000D03*
X85960000Y-47840000D03*
X88500000Y-47840000D03*
M02*
