%TF.GenerationSoftware,KiCad,Pcbnew,9.0.2*%
%TF.CreationDate,2025-11-28T20:50:14+01:00*%
%TF.ProjectId,stacja_pogodowa,73746163-6a61-45f7-906f-676f646f7761,rev?*%
%TF.SameCoordinates,Original*%
%TF.FileFunction,Copper,L1,Top*%
%TF.FilePolarity,Positive*%
%FSLAX46Y46*%
G04 Gerber Fmt 4.6, Leading zero omitted, Abs format (unit mm)*
G04 Created by KiCad (PCBNEW 9.0.2) date 2025-11-28 20:50:14*
%MOMM*%
%LPD*%
G01*
G04 APERTURE LIST*
G04 Aperture macros list*
%AMRoundRect*
0 Rectangle with rounded corners*
0 $1 Rounding radius*
0 $2 $3 $4 $5 $6 $7 $8 $9 X,Y pos of 4 corners*
0 Add a 4 corners polygon primitive as box body*
4,1,4,$2,$3,$4,$5,$6,$7,$8,$9,$2,$3,0*
0 Add four circle primitives for the rounded corners*
1,1,$1+$1,$2,$3*
1,1,$1+$1,$4,$5*
1,1,$1+$1,$6,$7*
1,1,$1+$1,$8,$9*
0 Add four rect primitives between the rounded corners*
20,1,$1+$1,$2,$3,$4,$5,0*
20,1,$1+$1,$4,$5,$6,$7,0*
20,1,$1+$1,$6,$7,$8,$9,0*
20,1,$1+$1,$8,$9,$2,$3,0*%
G04 Aperture macros list end*
%TA.AperFunction,ComponentPad*%
%ADD10R,1.700000X1.700000*%
%TD*%
%TA.AperFunction,ComponentPad*%
%ADD11C,1.700000*%
%TD*%
%TA.AperFunction,SMDPad,CuDef*%
%ADD12RoundRect,0.243750X-0.243750X-0.456250X0.243750X-0.456250X0.243750X0.456250X-0.243750X0.456250X0*%
%TD*%
%TA.AperFunction,SMDPad,CuDef*%
%ADD13RoundRect,0.237500X0.250000X0.237500X-0.250000X0.237500X-0.250000X-0.237500X0.250000X-0.237500X0*%
%TD*%
%TA.AperFunction,SMDPad,CuDef*%
%ADD14R,1.000000X0.350000*%
%TD*%
%TA.AperFunction,SMDPad,CuDef*%
%ADD15RoundRect,0.237500X-0.237500X0.300000X-0.237500X-0.300000X0.237500X-0.300000X0.237500X0.300000X0*%
%TD*%
%TA.AperFunction,SMDPad,CuDef*%
%ADD16RoundRect,0.150000X-0.150000X0.825000X-0.150000X-0.825000X0.150000X-0.825000X0.150000X0.825000X0*%
%TD*%
%TA.AperFunction,SMDPad,CuDef*%
%ADD17RoundRect,0.237500X0.237500X-0.300000X0.237500X0.300000X-0.237500X0.300000X-0.237500X-0.300000X0*%
%TD*%
%TA.AperFunction,ViaPad*%
%ADD18C,0.600000*%
%TD*%
%TA.AperFunction,Conductor*%
%ADD19C,0.200000*%
%TD*%
%TA.AperFunction,Conductor*%
%ADD20C,0.300000*%
%TD*%
%TA.AperFunction,Conductor*%
%ADD21C,0.350000*%
%TD*%
%ADD22C,0.300000*%
%ADD23C,0.350000*%
G04 APERTURE END LIST*
D10*
%TO.P,J1,1,Pin_1*%
%TO.N,VDD*%
X72200000Y-45500000D03*
D11*
%TO.P,J1,2,Pin_2*%
%TO.N,GND*%
X72200000Y-48040000D03*
%TD*%
D12*
%TO.P,D1,1,K*%
%TO.N,GND*%
X86725000Y-38900000D03*
%TO.P,D1,2,A*%
%TO.N,Net-(D1-A)*%
X88600000Y-38900000D03*
%TD*%
D13*
%TO.P,R3,1*%
%TO.N,/BME_SDA*%
X73000000Y-41000000D03*
%TO.P,R3,2*%
%TO.N,VDD*%
X71175000Y-41000000D03*
%TD*%
%TO.P,R1,1*%
%TO.N,Net-(D1-A)*%
X88600000Y-36800000D03*
%TO.P,R1,2*%
%TO.N,Net-(U2-PA6)*%
X86775000Y-36800000D03*
%TD*%
D10*
%TO.P,U1,1,GND*%
%TO.N,GND*%
X71960000Y-22380000D03*
D11*
%TO.P,U1,2,VCC*%
%TO.N,VDD*%
X74500000Y-22380000D03*
%TO.P,U1,3,CE*%
%TO.N,/NRF_CE*%
X71960000Y-24920000D03*
%TO.P,U1,4,~{CSN}*%
%TO.N,/CSN_CSN*%
X74500000Y-24920000D03*
%TO.P,U1,5,SCK*%
%TO.N,/NRF_SCK*%
X71960000Y-27460000D03*
%TO.P,U1,6,MOSI*%
%TO.N,/NRF_MOSI*%
X74500000Y-27460000D03*
%TO.P,U1,7,MISO*%
%TO.N,/NRF_MISO*%
X71960000Y-30000000D03*
%TO.P,U1,8,IRQ*%
%TO.N,unconnected-(U1-IRQ-Pad8)*%
X74500000Y-30000000D03*
%TD*%
D14*
%TO.P,U3,1,GND*%
%TO.N,GND*%
X75400000Y-48975000D03*
%TO.P,U3,2,CSB*%
%TO.N,VDD*%
X75400000Y-48325000D03*
%TO.P,U3,3,SDI*%
%TO.N,/BME_SDA*%
X75400000Y-47675000D03*
%TO.P,U3,4,SCK*%
%TO.N,/BME_SCL*%
X75400000Y-47025000D03*
%TO.P,U3,5,SDO*%
%TO.N,GND*%
X77950000Y-47025000D03*
%TO.P,U3,6,VDDIO*%
%TO.N,VDD*%
X77950000Y-47675000D03*
%TO.P,U3,7,GND*%
%TO.N,GND*%
X77950000Y-48325000D03*
%TO.P,U3,8,VDD*%
%TO.N,VDD*%
X77950000Y-48975000D03*
%TD*%
D10*
%TO.P,J2,1,Pin_1*%
%TO.N,/UPDI*%
X85960000Y-42760000D03*
D11*
%TO.P,J2,2,Pin_2*%
%TO.N,VDD*%
X88500000Y-42760000D03*
%TO.P,J2,3,Pin_3*%
%TO.N,unconnected-(J2-Pin_3-Pad3)*%
X85960000Y-45300000D03*
%TO.P,J2,4,Pin_4*%
%TO.N,unconnected-(J2-Pin_4-Pad4)*%
X88500000Y-45300000D03*
%TO.P,J2,5,Pin_5*%
%TO.N,unconnected-(J2-Pin_5-Pad5)*%
X85960000Y-47840000D03*
%TO.P,J2,6,Pin_6*%
%TO.N,GND*%
X88500000Y-47840000D03*
%TD*%
D15*
%TO.P,C3,1*%
%TO.N,VDD*%
X81800000Y-47600000D03*
%TO.P,C3,2*%
%TO.N,GND*%
X81800000Y-49325000D03*
%TD*%
D16*
%TO.P,U2,1,VCC*%
%TO.N,VDD*%
X82710000Y-39125000D03*
%TO.P,U2,2,PA4*%
%TO.N,/CSN_CSN*%
X81440000Y-39125000D03*
%TO.P,U2,3,PA5*%
%TO.N,/NRF_CE*%
X80170000Y-39125000D03*
%TO.P,U2,4,PA6*%
%TO.N,Net-(U2-PA6)*%
X78900000Y-39125000D03*
%TO.P,U2,5,PA7*%
%TO.N,unconnected-(U2-PA7-Pad5)*%
X77630000Y-39125000D03*
%TO.P,U2,6,PB3*%
%TO.N,unconnected-(U2-PB3-Pad6)*%
X76360000Y-39125000D03*
%TO.P,U2,7,PB2*%
%TO.N,unconnected-(U2-PB2-Pad7)*%
X75090000Y-39125000D03*
%TO.P,U2,8,PB1*%
%TO.N,/BME_SDA*%
X75090000Y-44075000D03*
%TO.P,U2,9,PB0*%
%TO.N,/BME_SCL*%
X76360000Y-44075000D03*
%TO.P,U2,10,~{RESET}/PA0*%
%TO.N,/UPDI*%
X77630000Y-44075000D03*
%TO.P,U2,11,PA1*%
%TO.N,/NRF_MOSI*%
X78900000Y-44075000D03*
%TO.P,U2,12,PA2*%
%TO.N,/NRF_MISO*%
X80170000Y-44075000D03*
%TO.P,U2,13,PA3*%
%TO.N,/NRF_SCK*%
X81440000Y-44075000D03*
%TO.P,U2,14,GND*%
%TO.N,GND*%
X82710000Y-44075000D03*
%TD*%
D15*
%TO.P,C1,1*%
%TO.N,VDD*%
X84600000Y-37075000D03*
%TO.P,C1,2*%
%TO.N,GND*%
X84600000Y-38800000D03*
%TD*%
%TO.P,C4,1*%
%TO.N,VDD*%
X79700000Y-47562500D03*
%TO.P,C4,2*%
%TO.N,GND*%
X79700000Y-49287500D03*
%TD*%
D17*
%TO.P,C2,1*%
%TO.N,VDD*%
X78400000Y-24400000D03*
%TO.P,C2,2*%
%TO.N,GND*%
X78400000Y-22675000D03*
%TD*%
D13*
%TO.P,R2,1*%
%TO.N,/BME_SCL*%
X73000000Y-39000000D03*
%TO.P,R2,2*%
%TO.N,VDD*%
X71175000Y-39000000D03*
%TD*%
D18*
%TO.N,GND*%
X80800000Y-26400000D03*
X80800000Y-34000000D03*
X77600000Y-36800000D03*
X72400000Y-34000000D03*
X74800000Y-50400000D03*
X88000000Y-34000000D03*
X84200000Y-50400000D03*
X76300000Y-36800000D03*
X89200000Y-26600000D03*
X75525000Y-46075000D03*
X83000000Y-34000000D03*
X78600000Y-34000000D03*
X70600000Y-50400000D03*
X73000000Y-42800000D03*
X70400000Y-42800000D03*
X81000000Y-22000000D03*
X88600000Y-50400000D03*
X88000000Y-22000000D03*
%TD*%
D19*
%TO.N,/NRF_SCK*%
X73200000Y-30600000D02*
X73200000Y-28700000D01*
X78299000Y-35699000D02*
X73200000Y-30600000D01*
X78299000Y-40140968D02*
X78299000Y-35699000D01*
X79459032Y-41301000D02*
X78299000Y-40140968D01*
X79951000Y-41301000D02*
X79459032Y-41301000D01*
X81440000Y-42790000D02*
X79951000Y-41301000D01*
X73200000Y-28700000D02*
X71960000Y-27460000D01*
X81440000Y-44075000D02*
X81440000Y-42790000D01*
D20*
%TO.N,GND*%
X85600529Y-43961000D02*
X87161000Y-43961000D01*
X78962500Y-49287500D02*
X77926000Y-50324000D01*
X76900000Y-48002000D02*
X76900000Y-47200000D01*
X86725000Y-41000000D02*
X86725000Y-38900000D01*
X86725000Y-41000000D02*
X90101000Y-41000000D01*
X77374000Y-50324000D02*
X76025000Y-48975000D01*
X77926000Y-50324000D02*
X77374000Y-50324000D01*
X84600000Y-38800000D02*
X86625000Y-38800000D01*
X90101000Y-41000000D02*
X90101000Y-26101000D01*
X77325000Y-22675000D02*
X78400000Y-22675000D01*
X77075000Y-47025000D02*
X77700000Y-47025000D01*
X86675000Y-22675000D02*
X78400000Y-22675000D01*
D21*
X79737500Y-49325000D02*
X79700000Y-49287500D01*
D20*
X73240000Y-21100000D02*
X75700000Y-21100000D01*
X87161000Y-43961000D02*
X87161000Y-41559000D01*
X88500000Y-47840000D02*
X87015000Y-49325000D01*
X83143265Y-46418265D02*
X85600529Y-43961000D01*
X77223000Y-48325000D02*
X76900000Y-48002000D01*
X87161000Y-41559000D02*
X86725000Y-41559000D01*
X87015000Y-49325000D02*
X81800000Y-49325000D01*
X75700000Y-21100000D02*
X77300000Y-22700000D01*
X71960000Y-22380000D02*
X73240000Y-21100000D01*
X77950000Y-47025000D02*
X78600000Y-47025000D01*
X76025000Y-48975000D02*
X73135000Y-48975000D01*
X77700000Y-48325000D02*
X77223000Y-48325000D01*
X86725000Y-41559000D02*
X86725000Y-41000000D01*
X76900000Y-47200000D02*
X77075000Y-47025000D01*
X82710000Y-44075000D02*
X82710000Y-42490000D01*
X81800000Y-49325000D02*
X79737500Y-49325000D01*
X84600000Y-40600000D02*
X84600000Y-38800000D01*
X79700000Y-49287500D02*
X78962500Y-49287500D01*
X90101000Y-46239000D02*
X90101000Y-41000000D01*
X88500000Y-47840000D02*
X90101000Y-46239000D01*
D21*
X84700000Y-38900000D02*
X84600000Y-38800000D01*
D20*
X86625000Y-38800000D02*
X86725000Y-38900000D01*
X90101000Y-26101000D02*
X86675000Y-22675000D01*
X73135000Y-48975000D02*
X72200000Y-48040000D01*
X82710000Y-42490000D02*
X84600000Y-40600000D01*
X79206735Y-46418265D02*
X83143265Y-46418265D01*
X78600000Y-47025000D02*
X79206735Y-46418265D01*
%TO.N,VDD*%
X78550000Y-48975000D02*
X78801000Y-48724000D01*
X78801000Y-48724000D02*
X78801000Y-47911500D01*
X70000000Y-37000000D02*
X71175000Y-38175000D01*
X76125000Y-48325000D02*
X75825000Y-48325000D01*
D21*
X82710000Y-38490000D02*
X82710000Y-39125000D01*
D20*
X70000000Y-24800000D02*
X70000000Y-37000000D01*
X77000000Y-24400000D02*
X78400000Y-24400000D01*
X79700000Y-47562500D02*
X81762500Y-47562500D01*
X74500000Y-22380000D02*
X74980000Y-22380000D01*
X79150000Y-47562500D02*
X79700000Y-47562500D01*
X87274000Y-44590462D02*
X88500000Y-43364462D01*
X78400000Y-26600000D02*
X84600000Y-32800000D01*
X72875000Y-23700000D02*
X71100000Y-23700000D01*
X78801000Y-47911500D02*
X79150000Y-47562500D01*
X84125000Y-37075000D02*
X83525000Y-37075000D01*
X84600000Y-32800000D02*
X84600000Y-37075000D01*
D21*
X77700000Y-48975000D02*
X78025000Y-48975000D01*
D20*
X72200000Y-42025000D02*
X71175000Y-41000000D01*
X87274000Y-45807826D02*
X87274000Y-44590462D01*
X74195000Y-22380000D02*
X72875000Y-23700000D01*
X74500000Y-22380000D02*
X74195000Y-22380000D01*
X71175000Y-41000000D02*
X71175000Y-39000000D01*
D21*
X84600000Y-37075000D02*
X84125000Y-37075000D01*
D20*
X82710000Y-37890000D02*
X82710000Y-38490000D01*
X78400000Y-24400000D02*
X78400000Y-26600000D01*
X75650000Y-48325000D02*
X74750000Y-48325000D01*
D21*
X81762500Y-47562500D02*
X81800000Y-47600000D01*
D20*
X77700000Y-47675000D02*
X79037500Y-47675000D01*
X79037500Y-47675000D02*
X79150000Y-47562500D01*
X74980000Y-22380000D02*
X77000000Y-24400000D01*
X74750000Y-48325000D02*
X72200000Y-45775000D01*
X84466174Y-47600000D02*
X85540174Y-46526000D01*
X71100000Y-23700000D02*
X70000000Y-24800000D01*
D21*
X88500000Y-43364462D02*
X88500000Y-42760000D01*
D20*
X81800000Y-47600000D02*
X84466174Y-47600000D01*
X83525000Y-37075000D02*
X82710000Y-37890000D01*
X85540174Y-46526000D02*
X86555826Y-46526000D01*
X71175000Y-38175000D02*
X71175000Y-39000000D01*
X77950000Y-48975000D02*
X78550000Y-48975000D01*
X72200000Y-45500000D02*
X72200000Y-42025000D01*
X72200000Y-45775000D02*
X72200000Y-45500000D01*
X86555826Y-46526000D02*
X87274000Y-45807826D01*
X76775000Y-48975000D02*
X76125000Y-48325000D01*
X77700000Y-48975000D02*
X76775000Y-48975000D01*
D19*
%TO.N,/UPDI*%
X77630000Y-44075000D02*
X77630000Y-45049999D01*
X77630000Y-45049999D02*
X78080001Y-45500000D01*
X78080001Y-45500000D02*
X83220000Y-45500000D01*
X83220000Y-45500000D02*
X85960000Y-42760000D01*
%TO.N,Net-(D1-A)*%
X88600000Y-38900000D02*
X88600000Y-36800000D01*
%TO.N,Net-(U2-PA6)*%
X78900000Y-40099999D02*
X79700001Y-40900000D01*
X83824000Y-39627968D02*
X83824000Y-38270366D01*
X79700001Y-40900000D02*
X82551968Y-40900000D01*
X85661500Y-37913500D02*
X86775000Y-36800000D01*
X82551968Y-40900000D02*
X83824000Y-39627968D01*
X83824000Y-38270366D02*
X84180866Y-37913500D01*
X84180866Y-37913500D02*
X85661500Y-37913500D01*
X78900000Y-39125000D02*
X78900000Y-40099999D01*
%TO.N,/BME_SCL*%
X74175000Y-40550000D02*
X76360000Y-42735000D01*
X74175000Y-39375000D02*
X74175000Y-40550000D01*
X76125000Y-47025000D02*
X76360000Y-46790000D01*
X76360000Y-46790000D02*
X76360000Y-44075000D01*
X73000000Y-39000000D02*
X73800000Y-39000000D01*
X75650000Y-47025000D02*
X76125000Y-47025000D01*
X73800000Y-39000000D02*
X74175000Y-39375000D01*
X76360000Y-42735000D02*
X76360000Y-44075000D01*
%TO.N,/BME_SDA*%
X75090000Y-44075000D02*
X75090000Y-42340000D01*
X75400000Y-47675000D02*
X74773000Y-47675000D01*
X74225000Y-46500000D02*
X75090000Y-45635000D01*
X74225000Y-47127000D02*
X74225000Y-46500000D01*
X75090000Y-45635000D02*
X75090000Y-45450000D01*
X75090000Y-44075000D02*
X75090000Y-45450000D01*
X74773000Y-47675000D02*
X74225000Y-47127000D01*
X73750000Y-41000000D02*
X73000000Y-41000000D01*
X75090000Y-42340000D02*
X73750000Y-41000000D01*
X75200000Y-47675000D02*
X75650000Y-47675000D01*
%TO.N,/CSN_CSN*%
X74913367Y-24920000D02*
X74500000Y-24920000D01*
X81440000Y-39125000D02*
X81440000Y-31446633D01*
X81440000Y-31446633D02*
X74913367Y-24920000D01*
%TO.N,/NRF_CE*%
X74867760Y-26200000D02*
X73800000Y-26200000D01*
X72520000Y-24920000D02*
X71960000Y-24920000D01*
X80170000Y-31502240D02*
X74867760Y-26200000D01*
X80170000Y-39125000D02*
X80170000Y-31502240D01*
X73800000Y-26200000D02*
X72520000Y-24920000D01*
%TO.N,/NRF_MISO*%
X76961000Y-35561000D02*
X71960000Y-30560000D01*
X79414984Y-42014984D02*
X78835016Y-42014984D01*
X80170000Y-42770000D02*
X79414984Y-42014984D01*
X80170000Y-44075000D02*
X80170000Y-42770000D01*
X78835016Y-42014984D02*
X76961000Y-40140968D01*
X76961000Y-40140968D02*
X76961000Y-35561000D01*
X71960000Y-30560000D02*
X71960000Y-30000000D01*
%TO.N,/NRF_MOSI*%
X78687484Y-42587484D02*
X78137516Y-42587484D01*
X78900000Y-42800000D02*
X78687484Y-42587484D01*
X70601000Y-26799000D02*
X71200000Y-26200000D01*
X73860000Y-27460000D02*
X74500000Y-27460000D01*
X78137516Y-42587484D02*
X75691000Y-40140968D01*
X71200000Y-26200000D02*
X72600000Y-26200000D01*
X72600000Y-26200000D02*
X73860000Y-27460000D01*
X75691000Y-40140968D02*
X75691000Y-35691000D01*
X78900000Y-44075000D02*
X78900000Y-42800000D01*
X75691000Y-35691000D02*
X70601000Y-30601000D01*
X70601000Y-30601000D02*
X70601000Y-26799000D01*
%TD*%
%TA.AperFunction,Conductor*%
%TO.N,GND*%
G36*
X90458691Y-20519407D02*
G01*
X90494655Y-20568907D01*
X90499500Y-20599500D01*
X90499500Y-51400500D01*
X90480593Y-51458691D01*
X90431093Y-51494655D01*
X90400500Y-51499500D01*
X69599500Y-51499500D01*
X69541309Y-51480593D01*
X69505345Y-51431093D01*
X69500500Y-51400500D01*
X69500500Y-37205313D01*
X69519407Y-37147122D01*
X69568907Y-37111158D01*
X69630093Y-37111158D01*
X69679593Y-37147122D01*
X69685228Y-37155800D01*
X69719530Y-37215212D01*
X70233304Y-37728986D01*
X70727112Y-38222794D01*
X70754889Y-38277311D01*
X70745318Y-38337743D01*
X70715897Y-38372453D01*
X70611791Y-38449287D01*
X70611785Y-38449293D01*
X70533384Y-38555523D01*
X70489776Y-38680147D01*
X70489774Y-38680155D01*
X70487000Y-38709733D01*
X70487000Y-39290266D01*
X70489774Y-39319844D01*
X70489776Y-39319852D01*
X70533384Y-39444476D01*
X70611785Y-39550706D01*
X70611789Y-39550711D01*
X70611792Y-39550713D01*
X70611793Y-39550714D01*
X70718021Y-39629114D01*
X70718023Y-39629114D01*
X70718025Y-39629116D01*
X70758198Y-39643173D01*
X70806878Y-39680238D01*
X70824500Y-39736617D01*
X70824500Y-40263382D01*
X70805593Y-40321573D01*
X70758198Y-40356826D01*
X70718027Y-40370882D01*
X70718021Y-40370885D01*
X70611793Y-40449285D01*
X70611785Y-40449293D01*
X70533384Y-40555523D01*
X70489776Y-40680147D01*
X70489774Y-40680155D01*
X70487000Y-40709733D01*
X70487000Y-41290266D01*
X70489774Y-41319844D01*
X70489776Y-41319852D01*
X70533384Y-41444476D01*
X70607928Y-41545480D01*
X70611789Y-41550711D01*
X70611792Y-41550713D01*
X70611793Y-41550714D01*
X70718023Y-41629115D01*
X70718024Y-41629115D01*
X70718025Y-41629116D01*
X70842651Y-41672725D01*
X70869941Y-41675284D01*
X70872233Y-41675499D01*
X70872238Y-41675500D01*
X70872244Y-41675500D01*
X71313810Y-41675500D01*
X71372001Y-41694407D01*
X71383814Y-41704496D01*
X71820504Y-42141186D01*
X71848281Y-42195703D01*
X71849500Y-42211190D01*
X71849500Y-44350500D01*
X71830593Y-44408691D01*
X71781093Y-44444655D01*
X71750500Y-44449500D01*
X71330252Y-44449500D01*
X71330251Y-44449500D01*
X71330241Y-44449501D01*
X71271772Y-44461132D01*
X71271766Y-44461134D01*
X71205451Y-44505445D01*
X71205445Y-44505451D01*
X71161134Y-44571766D01*
X71161132Y-44571772D01*
X71149501Y-44630241D01*
X71149500Y-44630253D01*
X71149500Y-46369746D01*
X71149501Y-46369758D01*
X71161132Y-46428227D01*
X71161134Y-46428233D01*
X71204282Y-46492807D01*
X71205448Y-46494552D01*
X71271769Y-46538867D01*
X71316231Y-46547711D01*
X71330241Y-46550498D01*
X71330246Y-46550498D01*
X71330252Y-46550500D01*
X71790456Y-46550500D01*
X71848647Y-46569407D01*
X71884611Y-46618907D01*
X71884611Y-46680093D01*
X71848647Y-46729593D01*
X71821049Y-46743655D01*
X71681784Y-46788904D01*
X71492446Y-46885376D01*
X71492442Y-46885378D01*
X71438282Y-46924728D01*
X72070591Y-47557037D01*
X72007007Y-47574075D01*
X71892993Y-47639901D01*
X71799901Y-47732993D01*
X71734075Y-47847007D01*
X71717037Y-47910591D01*
X71084728Y-47278282D01*
X71045378Y-47332442D01*
X71045376Y-47332446D01*
X70948904Y-47521784D01*
X70883240Y-47723878D01*
X70850000Y-47933749D01*
X70850000Y-48146250D01*
X70883240Y-48356121D01*
X70948904Y-48558215D01*
X71045376Y-48747553D01*
X71045380Y-48747559D01*
X71084728Y-48801716D01*
X71084729Y-48801716D01*
X71717037Y-48169407D01*
X71734075Y-48232993D01*
X71799901Y-48347007D01*
X71892993Y-48440099D01*
X72007007Y-48505925D01*
X72070589Y-48522962D01*
X71438282Y-49155269D01*
X71438282Y-49155270D01*
X71492440Y-49194619D01*
X71492446Y-49194623D01*
X71681784Y-49291095D01*
X71883878Y-49356759D01*
X72093750Y-49390000D01*
X72306250Y-49390000D01*
X72516121Y-49356759D01*
X72718215Y-49291095D01*
X72901268Y-49197824D01*
X74399999Y-49197824D01*
X74406401Y-49257370D01*
X74406403Y-49257381D01*
X74456646Y-49392088D01*
X74456647Y-49392090D01*
X74542807Y-49507184D01*
X74542815Y-49507192D01*
X74657909Y-49593352D01*
X74657911Y-49593353D01*
X74792618Y-49643596D01*
X74792629Y-49643598D01*
X74852176Y-49650000D01*
X75224999Y-49650000D01*
X75225000Y-49649999D01*
X75225000Y-49150001D01*
X75224999Y-49150000D01*
X74400001Y-49150000D01*
X74400000Y-49150001D01*
X74400000Y-49197824D01*
X74399999Y-49197824D01*
X72901268Y-49197824D01*
X72907556Y-49194620D01*
X72961716Y-49155270D01*
X72329408Y-48522962D01*
X72392993Y-48505925D01*
X72507007Y-48440099D01*
X72600099Y-48347007D01*
X72665925Y-48232993D01*
X72682962Y-48169408D01*
X73315270Y-48801716D01*
X73354620Y-48747556D01*
X73451095Y-48558215D01*
X73516759Y-48356121D01*
X73550000Y-48146250D01*
X73550000Y-47933751D01*
X73538747Y-47862706D01*
X73548318Y-47802274D01*
X73591582Y-47759009D01*
X73652014Y-47749437D01*
X73706531Y-47777214D01*
X73706532Y-47777214D01*
X74419966Y-48490648D01*
X74447743Y-48545165D01*
X74442720Y-48595248D01*
X74406403Y-48692618D01*
X74406401Y-48692629D01*
X74400000Y-48752175D01*
X74400000Y-48799999D01*
X74400001Y-48800000D01*
X75301000Y-48800000D01*
X75359191Y-48818907D01*
X75395155Y-48868407D01*
X75400000Y-48899000D01*
X75400000Y-48974999D01*
X75400001Y-48975000D01*
X75476000Y-48975000D01*
X75534191Y-48993907D01*
X75570155Y-49043407D01*
X75575000Y-49074000D01*
X75575000Y-49649999D01*
X75575001Y-49650000D01*
X75947824Y-49650000D01*
X76007370Y-49643598D01*
X76007381Y-49643596D01*
X76142088Y-49593353D01*
X76142090Y-49593352D01*
X76257184Y-49507192D01*
X76257192Y-49507184D01*
X76343352Y-49392090D01*
X76343353Y-49392088D01*
X76385428Y-49279279D01*
X76423478Y-49231364D01*
X76482425Y-49214966D01*
X76539753Y-49236347D01*
X76548180Y-49243862D01*
X76559788Y-49255470D01*
X76598871Y-49278034D01*
X76627481Y-49294553D01*
X76627480Y-49294553D01*
X76637124Y-49300120D01*
X76639712Y-49301614D01*
X76728856Y-49325500D01*
X77321732Y-49325500D01*
X77361723Y-49337630D01*
X77362757Y-49335134D01*
X77371764Y-49338863D01*
X77371769Y-49338867D01*
X77416231Y-49347711D01*
X77430241Y-49350498D01*
X77430246Y-49350498D01*
X77430252Y-49350500D01*
X77430253Y-49350500D01*
X78469747Y-49350500D01*
X78469748Y-49350500D01*
X78528231Y-49338867D01*
X78528237Y-49338862D01*
X78537243Y-49335134D01*
X78537994Y-49336947D01*
X78568959Y-49325939D01*
X78573607Y-49325500D01*
X78596144Y-49325500D01*
X78608411Y-49322212D01*
X78616691Y-49321431D01*
X78638824Y-49326380D01*
X78661476Y-49327567D01*
X78668092Y-49332925D01*
X78676402Y-49334783D01*
X78691400Y-49351797D01*
X78709027Y-49366071D01*
X78711580Y-49374691D01*
X78716861Y-49380682D01*
X78718501Y-49398055D01*
X78725000Y-49419992D01*
X78725000Y-49636654D01*
X78735317Y-49737642D01*
X78735320Y-49737654D01*
X78789548Y-49901306D01*
X78880053Y-50048035D01*
X79001964Y-50169946D01*
X79148693Y-50260451D01*
X79312351Y-50314681D01*
X79413344Y-50324999D01*
X79449999Y-50324999D01*
X79450000Y-50324998D01*
X79450000Y-49537501D01*
X79950000Y-49537501D01*
X79950000Y-50324998D01*
X79950001Y-50324999D01*
X79986654Y-50324999D01*
X80087642Y-50314682D01*
X80087654Y-50314679D01*
X80251306Y-50260451D01*
X80398035Y-50169946D01*
X80519946Y-50048035D01*
X80610451Y-49901305D01*
X80649811Y-49782523D01*
X80686061Y-49733233D01*
X80744361Y-49714664D01*
X80802441Y-49733909D01*
X80837761Y-49782522D01*
X80889548Y-49938806D01*
X80980053Y-50085535D01*
X81101964Y-50207446D01*
X81248693Y-50297951D01*
X81412351Y-50352181D01*
X81513344Y-50362499D01*
X81549999Y-50362499D01*
X81550000Y-50362498D01*
X81550000Y-49575001D01*
X82050000Y-49575001D01*
X82050000Y-50362498D01*
X82050001Y-50362499D01*
X82086654Y-50362499D01*
X82187642Y-50352182D01*
X82187654Y-50352179D01*
X82351306Y-50297951D01*
X82498035Y-50207446D01*
X82619946Y-50085535D01*
X82710451Y-49938806D01*
X82764681Y-49775148D01*
X82775000Y-49674155D01*
X82775000Y-49575001D01*
X82774999Y-49575000D01*
X82050001Y-49575000D01*
X82050000Y-49575001D01*
X81550000Y-49575001D01*
X81549999Y-49575000D01*
X80811761Y-49575000D01*
X80784234Y-49589025D01*
X80723802Y-49579451D01*
X80698746Y-49561247D01*
X80674999Y-49537500D01*
X79950001Y-49537500D01*
X79950000Y-49537501D01*
X79450000Y-49537501D01*
X79450000Y-49386500D01*
X79468907Y-49328309D01*
X79518407Y-49292345D01*
X79549000Y-49287500D01*
X79699999Y-49287500D01*
X79700000Y-49287499D01*
X79700000Y-49136500D01*
X79718907Y-49078309D01*
X79768407Y-49042345D01*
X79799000Y-49037500D01*
X80688236Y-49037500D01*
X80715759Y-49023475D01*
X80776191Y-49033045D01*
X80801253Y-49051252D01*
X80825001Y-49075000D01*
X82774998Y-49075000D01*
X82774999Y-49074999D01*
X82774999Y-48975845D01*
X82764682Y-48874857D01*
X82764679Y-48874845D01*
X82710451Y-48711193D01*
X82619946Y-48564464D01*
X82498036Y-48442554D01*
X82371630Y-48364585D01*
X82332029Y-48317944D01*
X82327406Y-48256934D01*
X82347946Y-48220390D01*
X82346306Y-48219180D01*
X82399571Y-48147007D01*
X82429116Y-48106975D01*
X82452552Y-48040000D01*
X82460670Y-48016802D01*
X82497736Y-47968121D01*
X82554114Y-47950500D01*
X84512316Y-47950500D01*
X84512318Y-47950500D01*
X84601462Y-47926614D01*
X84620781Y-47915460D01*
X84681386Y-47880470D01*
X84744739Y-47817116D01*
X84749452Y-47813425D01*
X84772832Y-47804882D01*
X84795012Y-47793581D01*
X84801116Y-47794547D01*
X84806921Y-47792427D01*
X84830857Y-47799258D01*
X84855444Y-47803152D01*
X84859813Y-47807521D01*
X84865758Y-47809218D01*
X84881109Y-47828816D01*
X84898709Y-47846416D01*
X84900395Y-47853438D01*
X84903487Y-47857386D01*
X84903867Y-47867901D01*
X84909500Y-47891362D01*
X84909500Y-47943467D01*
X84949869Y-48146418D01*
X85029058Y-48337597D01*
X85142353Y-48507156D01*
X85144023Y-48509655D01*
X85290345Y-48655977D01*
X85462402Y-48770941D01*
X85653580Y-48850130D01*
X85856535Y-48890500D01*
X85856536Y-48890500D01*
X86063464Y-48890500D01*
X86063465Y-48890500D01*
X86266420Y-48850130D01*
X86457598Y-48770941D01*
X86629655Y-48655977D01*
X86775977Y-48509655D01*
X86890941Y-48337598D01*
X86970130Y-48146420D01*
X86979762Y-48097996D01*
X87009656Y-48044613D01*
X87065221Y-48018996D01*
X87125231Y-48030932D01*
X87166764Y-48075861D01*
X87174640Y-48101822D01*
X87183241Y-48156122D01*
X87248904Y-48358215D01*
X87345376Y-48547553D01*
X87345380Y-48547559D01*
X87384728Y-48601716D01*
X87384729Y-48601716D01*
X88017037Y-47969407D01*
X88034075Y-48032993D01*
X88099901Y-48147007D01*
X88192993Y-48240099D01*
X88307007Y-48305925D01*
X88370589Y-48322962D01*
X87738282Y-48955269D01*
X87738282Y-48955270D01*
X87792440Y-48994619D01*
X87792446Y-48994623D01*
X87981784Y-49091095D01*
X88183878Y-49156759D01*
X88393750Y-49190000D01*
X88606250Y-49190000D01*
X88816121Y-49156759D01*
X89018215Y-49091095D01*
X89207556Y-48994620D01*
X89261716Y-48955270D01*
X88629408Y-48322962D01*
X88692993Y-48305925D01*
X88807007Y-48240099D01*
X88900099Y-48147007D01*
X88965925Y-48032993D01*
X88982962Y-47969408D01*
X89615270Y-48601716D01*
X89654620Y-48547556D01*
X89751095Y-48358215D01*
X89816759Y-48156121D01*
X89850000Y-47946250D01*
X89850000Y-47733749D01*
X89816759Y-47523878D01*
X89751095Y-47321784D01*
X89654623Y-47132446D01*
X89654619Y-47132440D01*
X89615270Y-47078282D01*
X89615269Y-47078282D01*
X88982962Y-47710589D01*
X88965925Y-47647007D01*
X88900099Y-47532993D01*
X88807007Y-47439901D01*
X88692993Y-47374075D01*
X88629407Y-47357037D01*
X89261716Y-46724729D01*
X89261716Y-46724728D01*
X89207559Y-46685380D01*
X89207553Y-46685376D01*
X89018215Y-46588904D01*
X88816122Y-46523241D01*
X88761822Y-46514640D01*
X88707306Y-46486862D01*
X88679529Y-46432345D01*
X88689101Y-46371913D01*
X88732366Y-46328649D01*
X88757993Y-46319762D01*
X88806420Y-46310130D01*
X88997598Y-46230941D01*
X89169655Y-46115977D01*
X89315977Y-45969655D01*
X89430941Y-45797598D01*
X89510130Y-45606420D01*
X89550500Y-45403465D01*
X89550500Y-45196535D01*
X89510130Y-44993580D01*
X89430941Y-44802402D01*
X89315977Y-44630345D01*
X89169655Y-44484023D01*
X89135399Y-44461134D01*
X88997597Y-44369058D01*
X88806418Y-44289869D01*
X88603467Y-44249500D01*
X88603465Y-44249500D01*
X88396535Y-44249500D01*
X88396527Y-44249500D01*
X88359743Y-44256817D01*
X88298982Y-44249624D01*
X88254053Y-44208091D01*
X88242117Y-44148081D01*
X88267734Y-44092516D01*
X88270414Y-44089728D01*
X88384144Y-43976000D01*
X88520649Y-43839496D01*
X88575165Y-43811719D01*
X88590652Y-43810500D01*
X88603464Y-43810500D01*
X88603465Y-43810500D01*
X88806420Y-43770130D01*
X88997598Y-43690941D01*
X89169655Y-43575977D01*
X89315977Y-43429655D01*
X89430941Y-43257598D01*
X89510130Y-43066420D01*
X89550500Y-42863465D01*
X89550500Y-42656535D01*
X89510130Y-42453580D01*
X89430941Y-42262402D01*
X89315977Y-42090345D01*
X89169655Y-41944023D01*
X89089182Y-41890253D01*
X88997597Y-41829058D01*
X88806418Y-41749869D01*
X88603467Y-41709500D01*
X88603465Y-41709500D01*
X88396535Y-41709500D01*
X88396532Y-41709500D01*
X88193581Y-41749869D01*
X88002402Y-41829058D01*
X87830348Y-41944020D01*
X87684020Y-42090348D01*
X87569058Y-42262402D01*
X87489869Y-42453581D01*
X87449500Y-42656532D01*
X87449500Y-42863467D01*
X87489869Y-43066418D01*
X87569058Y-43257597D01*
X87684020Y-43429651D01*
X87684023Y-43429655D01*
X87741571Y-43487203D01*
X87769347Y-43541718D01*
X87759776Y-43602150D01*
X87741570Y-43627208D01*
X86993529Y-44375250D01*
X86950662Y-44449498D01*
X86950662Y-44449500D01*
X86947386Y-44455174D01*
X86945789Y-44461134D01*
X86923499Y-44544320D01*
X86922653Y-44550752D01*
X86919760Y-44550371D01*
X86904593Y-44597052D01*
X86855093Y-44633016D01*
X86793907Y-44633016D01*
X86754498Y-44608866D01*
X86629655Y-44484023D01*
X86595399Y-44461134D01*
X86457597Y-44369058D01*
X86266418Y-44289869D01*
X86063467Y-44249500D01*
X86063465Y-44249500D01*
X85856535Y-44249500D01*
X85856532Y-44249500D01*
X85653581Y-44289869D01*
X85462402Y-44369058D01*
X85290348Y-44484020D01*
X85144020Y-44630348D01*
X85029058Y-44802402D01*
X84949869Y-44993581D01*
X84909500Y-45196532D01*
X84909500Y-45403467D01*
X84949869Y-45606418D01*
X85029058Y-45797597D01*
X85079412Y-45872957D01*
X85144023Y-45969655D01*
X85290345Y-46115977D01*
X85290348Y-46115979D01*
X85290353Y-46115984D01*
X85294107Y-46119065D01*
X85292969Y-46120450D01*
X85326326Y-46162737D01*
X85328746Y-46223874D01*
X85303459Y-46267034D01*
X84349988Y-47220504D01*
X84295471Y-47248281D01*
X84279984Y-47249500D01*
X82554114Y-47249500D01*
X82495923Y-47230593D01*
X82460670Y-47183198D01*
X82442908Y-47132440D01*
X82429116Y-47093025D01*
X82429113Y-47093021D01*
X82350714Y-46986793D01*
X82350713Y-46986792D01*
X82350711Y-46986789D01*
X82334075Y-46974511D01*
X82244476Y-46908384D01*
X82119852Y-46864776D01*
X82119851Y-46864775D01*
X82119849Y-46864775D01*
X82119847Y-46864774D01*
X82119844Y-46864774D01*
X82090266Y-46862000D01*
X82090256Y-46862000D01*
X81509744Y-46862000D01*
X81509733Y-46862000D01*
X81480155Y-46864774D01*
X81480147Y-46864776D01*
X81355523Y-46908384D01*
X81249293Y-46986785D01*
X81249285Y-46986793D01*
X81170885Y-47093021D01*
X81170882Y-47093027D01*
X81152452Y-47145698D01*
X81115386Y-47194379D01*
X81059008Y-47212000D01*
X80454114Y-47212000D01*
X80395923Y-47193093D01*
X80360670Y-47145698D01*
X80342237Y-47093023D01*
X80329116Y-47055525D01*
X80305166Y-47023074D01*
X80250714Y-46949293D01*
X80250712Y-46949291D01*
X80250711Y-46949289D01*
X80250706Y-46949285D01*
X80144476Y-46870884D01*
X80019852Y-46827276D01*
X80019851Y-46827275D01*
X80019849Y-46827275D01*
X80019847Y-46827274D01*
X80019844Y-46827274D01*
X79990266Y-46824500D01*
X79990256Y-46824500D01*
X79409744Y-46824500D01*
X79409733Y-46824500D01*
X79380155Y-46827274D01*
X79380147Y-46827276D01*
X79255523Y-46870884D01*
X79149293Y-46949285D01*
X79149287Y-46949291D01*
X79128655Y-46977247D01*
X79078887Y-47012839D01*
X79017703Y-47012381D01*
X78968474Y-46976047D01*
X78950000Y-46918458D01*
X78950000Y-46802175D01*
X78943598Y-46742629D01*
X78943596Y-46742618D01*
X78893353Y-46607911D01*
X78893352Y-46607909D01*
X78807192Y-46492815D01*
X78807184Y-46492807D01*
X78692090Y-46406647D01*
X78692088Y-46406646D01*
X78557381Y-46356403D01*
X78557370Y-46356401D01*
X78497824Y-46350000D01*
X78125001Y-46350000D01*
X78125000Y-46350001D01*
X78125000Y-47200500D01*
X78120155Y-47215411D01*
X78120155Y-47231093D01*
X78110938Y-47243778D01*
X78106093Y-47258691D01*
X78093407Y-47267907D01*
X78084191Y-47280593D01*
X78069278Y-47285438D01*
X78056593Y-47294655D01*
X78026000Y-47299500D01*
X77874000Y-47299500D01*
X77815809Y-47280593D01*
X77779845Y-47231093D01*
X77775000Y-47200500D01*
X77775000Y-47200001D01*
X77774999Y-47200000D01*
X76950001Y-47200000D01*
X76950000Y-47200001D01*
X76950000Y-47247824D01*
X76949999Y-47247824D01*
X76956401Y-47307370D01*
X76956403Y-47307381D01*
X77006646Y-47442088D01*
X77006647Y-47442090D01*
X77092807Y-47557184D01*
X77092811Y-47557188D01*
X77144317Y-47595745D01*
X77179570Y-47645754D01*
X77178696Y-47706933D01*
X77144318Y-47754251D01*
X77092816Y-47792806D01*
X77092807Y-47792815D01*
X77006647Y-47907909D01*
X77006646Y-47907911D01*
X76956403Y-48042618D01*
X76956401Y-48042629D01*
X76950000Y-48102175D01*
X76950000Y-48149999D01*
X76950001Y-48150000D01*
X77774999Y-48150000D01*
X77775000Y-48149999D01*
X77775000Y-48149500D01*
X77779845Y-48134588D01*
X77779845Y-48118907D01*
X77789061Y-48106221D01*
X77793907Y-48091309D01*
X77806592Y-48082092D01*
X77815809Y-48069407D01*
X77830721Y-48064561D01*
X77843407Y-48055345D01*
X77874000Y-48050500D01*
X78026000Y-48050500D01*
X78084191Y-48069407D01*
X78120155Y-48118907D01*
X78125000Y-48149500D01*
X78125000Y-48226000D01*
X78106093Y-48284191D01*
X78056593Y-48320155D01*
X78026000Y-48325000D01*
X77950001Y-48325000D01*
X77950000Y-48325001D01*
X77950000Y-48401000D01*
X77931093Y-48459191D01*
X77881593Y-48495155D01*
X77851000Y-48500000D01*
X76950000Y-48500000D01*
X76942844Y-48507156D01*
X76888327Y-48534932D01*
X76827895Y-48525360D01*
X76802838Y-48507155D01*
X76340214Y-48044532D01*
X76340212Y-48044530D01*
X76260288Y-47998386D01*
X76255294Y-47997047D01*
X76245979Y-47994551D01*
X76245979Y-47994552D01*
X76173396Y-47975103D01*
X76122083Y-47941780D01*
X76100156Y-47884659D01*
X76100498Y-47869756D01*
X76100500Y-47869748D01*
X76100500Y-47480252D01*
X76100499Y-47480250D01*
X76100499Y-47480243D01*
X76092607Y-47440571D01*
X76099797Y-47379809D01*
X76141329Y-47334879D01*
X76164081Y-47325628D01*
X76164559Y-47325500D01*
X76164562Y-47325500D01*
X76240989Y-47305021D01*
X76240992Y-47305019D01*
X76240993Y-47305019D01*
X76274908Y-47285438D01*
X76309511Y-47265460D01*
X76344378Y-47230593D01*
X76365461Y-47209511D01*
X76519448Y-47055523D01*
X76600460Y-46974511D01*
X76615022Y-46949289D01*
X76618949Y-46942488D01*
X76632822Y-46918458D01*
X76640021Y-46905989D01*
X76660500Y-46829562D01*
X76660500Y-46802175D01*
X76950000Y-46802175D01*
X76950000Y-46849999D01*
X76950001Y-46850000D01*
X77774999Y-46850000D01*
X77775000Y-46849999D01*
X77775000Y-46350001D01*
X77774999Y-46350000D01*
X77402176Y-46350000D01*
X77342629Y-46356401D01*
X77342618Y-46356403D01*
X77207911Y-46406646D01*
X77207909Y-46406647D01*
X77092815Y-46492807D01*
X77092807Y-46492815D01*
X77006647Y-46607909D01*
X77006646Y-46607911D01*
X76956403Y-46742618D01*
X76956401Y-46742629D01*
X76950000Y-46802175D01*
X76660500Y-46802175D01*
X76660500Y-45278365D01*
X76679407Y-45220174D01*
X76710108Y-45194389D01*
X76709806Y-45193965D01*
X76715197Y-45190115D01*
X76716020Y-45189423D01*
X76716483Y-45189198D01*
X76799198Y-45106483D01*
X76850573Y-45001393D01*
X76860500Y-44933260D01*
X76860500Y-43216740D01*
X76850573Y-43148607D01*
X76799198Y-43043517D01*
X76716483Y-42960802D01*
X76716017Y-42960574D01*
X76715603Y-42960173D01*
X76709808Y-42956036D01*
X76710428Y-42955167D01*
X76672045Y-42918031D01*
X76660500Y-42871635D01*
X76660500Y-42695439D01*
X76660500Y-42695438D01*
X76649400Y-42654012D01*
X76649400Y-42654011D01*
X76649400Y-42654010D01*
X76640021Y-42619010D01*
X76640020Y-42619008D01*
X76600463Y-42550493D01*
X76600462Y-42550492D01*
X76600461Y-42550491D01*
X76600460Y-42550489D01*
X74504496Y-40454525D01*
X74476719Y-40400008D01*
X74475500Y-40384521D01*
X74475500Y-40219988D01*
X74494407Y-40161797D01*
X74543907Y-40125833D01*
X74605093Y-40125833D01*
X74642600Y-40153083D01*
X74645002Y-40150682D01*
X74650801Y-40156481D01*
X74650802Y-40156483D01*
X74733517Y-40239198D01*
X74769116Y-40256601D01*
X74838604Y-40290572D01*
X74838605Y-40290572D01*
X74838607Y-40290573D01*
X74906740Y-40300500D01*
X74906743Y-40300500D01*
X75273257Y-40300500D01*
X75273260Y-40300500D01*
X75341393Y-40290573D01*
X75341398Y-40290570D01*
X75342136Y-40290343D01*
X75342893Y-40290353D01*
X75349001Y-40289464D01*
X75349143Y-40290443D01*
X75403315Y-40291223D01*
X75445411Y-40321430D01*
X75445952Y-40320890D01*
X75449241Y-40324179D01*
X75449911Y-40324660D01*
X75450534Y-40325472D01*
X75450538Y-40325476D01*
X75450540Y-40325479D01*
X76665947Y-41540886D01*
X77855557Y-42730496D01*
X77883334Y-42785013D01*
X77873763Y-42845445D01*
X77830498Y-42888710D01*
X77785553Y-42899500D01*
X77446740Y-42899500D01*
X77412673Y-42904463D01*
X77378604Y-42909427D01*
X77273518Y-42960801D01*
X77190801Y-43043518D01*
X77139427Y-43148604D01*
X77139427Y-43148607D01*
X77129500Y-43216740D01*
X77129500Y-44933260D01*
X77136118Y-44978682D01*
X77139427Y-45001395D01*
X77172921Y-45069907D01*
X77190802Y-45106483D01*
X77273517Y-45189198D01*
X77378607Y-45240573D01*
X77378608Y-45240573D01*
X77379765Y-45240931D01*
X77381589Y-45242031D01*
X77385515Y-45243950D01*
X77385346Y-45244295D01*
X77420544Y-45265515D01*
X77895489Y-45740459D01*
X77895494Y-45740463D01*
X77964009Y-45780020D01*
X77964007Y-45780020D01*
X77964011Y-45780021D01*
X77964013Y-45780022D01*
X78040439Y-45800500D01*
X78040441Y-45800500D01*
X83259563Y-45800500D01*
X83259563Y-45800499D01*
X83335989Y-45780021D01*
X83404511Y-45740460D01*
X83460460Y-45684511D01*
X85305475Y-43839496D01*
X85359992Y-43811719D01*
X85375479Y-43810500D01*
X86829747Y-43810500D01*
X86829748Y-43810500D01*
X86888231Y-43798867D01*
X86954552Y-43754552D01*
X86998867Y-43688231D01*
X87010500Y-43629748D01*
X87010500Y-41890252D01*
X86998867Y-41831769D01*
X86954552Y-41765448D01*
X86932009Y-41750385D01*
X86888233Y-41721134D01*
X86888231Y-41721133D01*
X86888228Y-41721132D01*
X86888227Y-41721132D01*
X86829758Y-41709501D01*
X86829748Y-41709500D01*
X85090252Y-41709500D01*
X85090251Y-41709500D01*
X85090241Y-41709501D01*
X85031772Y-41721132D01*
X85031766Y-41721134D01*
X84965451Y-41765445D01*
X84965445Y-41765451D01*
X84921134Y-41831766D01*
X84921132Y-41831772D01*
X84909501Y-41890241D01*
X84909500Y-41890253D01*
X84909500Y-43344521D01*
X84890593Y-43402712D01*
X84880504Y-43414525D01*
X83679004Y-44616025D01*
X83624487Y-44643802D01*
X83564055Y-44634231D01*
X83520790Y-44590966D01*
X83510000Y-44546021D01*
X83510000Y-44325001D01*
X83509999Y-44325000D01*
X82809000Y-44325000D01*
X82750809Y-44306093D01*
X82714845Y-44256593D01*
X82710000Y-44226000D01*
X82710000Y-44075001D01*
X82709999Y-44075000D01*
X82559000Y-44075000D01*
X82500809Y-44056093D01*
X82464845Y-44006593D01*
X82460000Y-43976000D01*
X82460000Y-43824999D01*
X82960000Y-43824999D01*
X82960001Y-43825000D01*
X83509999Y-43825000D01*
X83510000Y-43824999D01*
X83510000Y-43184363D01*
X83507100Y-43147510D01*
X83461280Y-42989799D01*
X83461280Y-42989798D01*
X83377685Y-42848447D01*
X83261552Y-42732314D01*
X83120201Y-42648719D01*
X83120202Y-42648719D01*
X82962491Y-42602900D01*
X82960000Y-42602702D01*
X82960000Y-43824999D01*
X82460000Y-43824999D01*
X82460000Y-42602703D01*
X82459999Y-42602702D01*
X82457508Y-42602900D01*
X82299798Y-42648719D01*
X82158447Y-42732314D01*
X82042315Y-42848446D01*
X81974173Y-42963668D01*
X81956480Y-42979265D01*
X81941288Y-42997313D01*
X81933947Y-42999130D01*
X81928277Y-43004130D01*
X81904794Y-43006349D01*
X81881896Y-43012020D01*
X81875535Y-43009115D01*
X81867363Y-43009888D01*
X81825203Y-42989008D01*
X81821953Y-42986272D01*
X81796483Y-42960802D01*
X81785068Y-42955221D01*
X81775743Y-42947371D01*
X81765700Y-42931242D01*
X81752045Y-42918031D01*
X81748431Y-42903507D01*
X81743402Y-42895431D01*
X81744076Y-42886006D01*
X81740500Y-42871635D01*
X81740500Y-42750437D01*
X81740499Y-42750435D01*
X81735643Y-42732314D01*
X81720021Y-42674011D01*
X81709931Y-42656535D01*
X81680460Y-42605489D01*
X81624511Y-42549539D01*
X81624511Y-42549540D01*
X80444475Y-41369504D01*
X80416698Y-41314987D01*
X80426269Y-41254555D01*
X80469534Y-41211290D01*
X80514479Y-41200500D01*
X82591531Y-41200500D01*
X82591531Y-41200499D01*
X82667957Y-41180021D01*
X82736479Y-41140460D01*
X82792428Y-41084511D01*
X84047050Y-39829888D01*
X84101563Y-39802114D01*
X84148191Y-39805920D01*
X84212348Y-39827180D01*
X84212355Y-39827182D01*
X84313344Y-39837499D01*
X84349999Y-39837499D01*
X84350000Y-39837498D01*
X84350000Y-39050001D01*
X84850000Y-39050001D01*
X84850000Y-39837498D01*
X84850001Y-39837499D01*
X84886654Y-39837499D01*
X84987642Y-39827182D01*
X84987654Y-39827179D01*
X85151306Y-39772951D01*
X85298035Y-39682446D01*
X85419946Y-39560535D01*
X85510451Y-39413806D01*
X85544525Y-39310977D01*
X85580776Y-39261687D01*
X85639076Y-39243119D01*
X85697155Y-39262364D01*
X85732831Y-39312072D01*
X85737500Y-39342117D01*
X85737500Y-39405816D01*
X85747906Y-39507670D01*
X85802595Y-39672712D01*
X85893868Y-39820688D01*
X86016811Y-39943631D01*
X86164787Y-40034904D01*
X86329829Y-40089593D01*
X86431684Y-40100000D01*
X86474999Y-40100000D01*
X86475000Y-40099999D01*
X86475000Y-39150001D01*
X86975000Y-39150001D01*
X86975000Y-40099999D01*
X86975001Y-40100000D01*
X87018316Y-40100000D01*
X87120170Y-40089593D01*
X87285212Y-40034904D01*
X87433188Y-39943631D01*
X87556131Y-39820688D01*
X87647404Y-39672712D01*
X87702093Y-39507670D01*
X87712500Y-39405816D01*
X87712500Y-39150001D01*
X87712499Y-39150000D01*
X86975001Y-39150000D01*
X86975000Y-39150001D01*
X86475000Y-39150001D01*
X86474999Y-39150000D01*
X85731241Y-39150000D01*
X85689487Y-39171274D01*
X85629055Y-39161703D01*
X85585790Y-39118438D01*
X85575000Y-39073493D01*
X85575000Y-39050001D01*
X85574999Y-39050000D01*
X84850001Y-39050000D01*
X84850000Y-39050001D01*
X84350000Y-39050001D01*
X84349999Y-39050000D01*
X84223500Y-39050000D01*
X84165309Y-39031093D01*
X84129345Y-38981593D01*
X84124500Y-38951000D01*
X84124500Y-38649000D01*
X84143407Y-38590809D01*
X84192907Y-38554845D01*
X84223500Y-38550000D01*
X85581257Y-38550000D01*
X85623013Y-38528725D01*
X85683445Y-38538296D01*
X85726710Y-38581561D01*
X85737500Y-38626506D01*
X85737500Y-38649999D01*
X85737501Y-38650000D01*
X86474999Y-38650000D01*
X86475000Y-38649999D01*
X86475000Y-37700001D01*
X86975000Y-37700001D01*
X86975000Y-38649999D01*
X86975001Y-38650000D01*
X87712499Y-38650000D01*
X87712500Y-38649999D01*
X87712500Y-38394183D01*
X87702093Y-38292329D01*
X87647404Y-38127287D01*
X87556131Y-37979311D01*
X87433188Y-37856368D01*
X87285212Y-37765095D01*
X87120170Y-37710406D01*
X87018316Y-37700000D01*
X86975001Y-37700000D01*
X86975000Y-37700001D01*
X86475000Y-37700001D01*
X86457488Y-37682489D01*
X86429711Y-37627972D01*
X86439282Y-37567540D01*
X86457486Y-37542484D01*
X86495475Y-37504496D01*
X86549992Y-37476719D01*
X86565478Y-37475500D01*
X87077762Y-37475500D01*
X87077765Y-37475499D01*
X87107349Y-37472725D01*
X87231975Y-37429116D01*
X87338211Y-37350711D01*
X87416616Y-37244475D01*
X87460225Y-37119849D01*
X87463000Y-37090256D01*
X87463000Y-36509744D01*
X87463000Y-36509738D01*
X87462999Y-36509733D01*
X87912000Y-36509733D01*
X87912000Y-37090266D01*
X87914774Y-37119844D01*
X87914776Y-37119852D01*
X87958384Y-37244476D01*
X88036785Y-37350706D01*
X88036789Y-37350711D01*
X88036792Y-37350713D01*
X88036793Y-37350714D01*
X88143023Y-37429115D01*
X88143024Y-37429115D01*
X88143025Y-37429116D01*
X88233198Y-37460669D01*
X88281878Y-37497734D01*
X88299500Y-37554113D01*
X88299500Y-37922701D01*
X88280593Y-37980892D01*
X88233198Y-38016145D01*
X88146324Y-38046543D01*
X88146321Y-38046544D01*
X88146321Y-38046545D01*
X88038570Y-38126070D01*
X87967184Y-38222794D01*
X87959043Y-38233824D01*
X87914815Y-38360222D01*
X87914813Y-38360231D01*
X87912000Y-38390226D01*
X87912000Y-39409773D01*
X87914813Y-39439768D01*
X87914815Y-39439777D01*
X87959043Y-39566175D01*
X87959044Y-39566176D01*
X87959045Y-39566179D01*
X88038570Y-39673930D01*
X88146321Y-39753455D01*
X88272726Y-39797686D01*
X88302726Y-39800499D01*
X88302730Y-39800500D01*
X88302736Y-39800500D01*
X88897270Y-39800500D01*
X88897272Y-39800499D01*
X88927274Y-39797686D01*
X89053679Y-39753455D01*
X89161430Y-39673930D01*
X89240955Y-39566179D01*
X89285186Y-39439774D01*
X89287999Y-39409772D01*
X89288000Y-39409770D01*
X89288000Y-38390230D01*
X89287999Y-38390226D01*
X89285186Y-38360226D01*
X89240955Y-38233821D01*
X89161430Y-38126070D01*
X89053679Y-38046545D01*
X89053676Y-38046544D01*
X89053675Y-38046543D01*
X89053676Y-38046543D01*
X88966802Y-38016145D01*
X88918122Y-37979080D01*
X88900500Y-37922701D01*
X88900500Y-37554113D01*
X88919407Y-37495922D01*
X88966801Y-37460669D01*
X89056975Y-37429116D01*
X89163211Y-37350711D01*
X89241616Y-37244475D01*
X89285225Y-37119849D01*
X89288000Y-37090256D01*
X89288000Y-36509744D01*
X89288000Y-36509738D01*
X89287999Y-36509733D01*
X89285225Y-36480155D01*
X89285225Y-36480151D01*
X89241616Y-36355525D01*
X89237907Y-36350500D01*
X89163214Y-36249293D01*
X89163213Y-36249292D01*
X89163211Y-36249289D01*
X89163206Y-36249285D01*
X89056976Y-36170884D01*
X88932352Y-36127276D01*
X88932351Y-36127275D01*
X88932349Y-36127275D01*
X88932347Y-36127274D01*
X88932344Y-36127274D01*
X88902766Y-36124500D01*
X88902756Y-36124500D01*
X88297244Y-36124500D01*
X88297233Y-36124500D01*
X88267655Y-36127274D01*
X88267647Y-36127276D01*
X88143023Y-36170884D01*
X88036793Y-36249285D01*
X88036785Y-36249293D01*
X87958384Y-36355523D01*
X87914776Y-36480147D01*
X87914774Y-36480155D01*
X87912000Y-36509733D01*
X87462999Y-36509733D01*
X87460225Y-36480155D01*
X87460225Y-36480151D01*
X87416616Y-36355525D01*
X87412907Y-36350500D01*
X87338214Y-36249293D01*
X87338213Y-36249292D01*
X87338211Y-36249289D01*
X87338206Y-36249285D01*
X87231976Y-36170884D01*
X87107352Y-36127276D01*
X87107351Y-36127275D01*
X87107349Y-36127275D01*
X87107347Y-36127274D01*
X87107344Y-36127274D01*
X87077766Y-36124500D01*
X87077756Y-36124500D01*
X86472244Y-36124500D01*
X86472233Y-36124500D01*
X86442655Y-36127274D01*
X86442647Y-36127276D01*
X86318023Y-36170884D01*
X86211793Y-36249285D01*
X86211785Y-36249293D01*
X86133384Y-36355523D01*
X86089776Y-36480147D01*
X86089774Y-36480155D01*
X86087000Y-36509733D01*
X86087000Y-37022021D01*
X86068093Y-37080212D01*
X86058004Y-37092025D01*
X85566025Y-37584004D01*
X85558907Y-37587630D01*
X85554212Y-37594093D01*
X85532163Y-37601256D01*
X85511508Y-37611781D01*
X85496021Y-37613000D01*
X85357788Y-37613000D01*
X85299597Y-37594093D01*
X85263633Y-37544593D01*
X85263633Y-37483407D01*
X85264343Y-37481303D01*
X85265947Y-37476719D01*
X85272725Y-37457349D01*
X85275500Y-37427756D01*
X85275500Y-36722244D01*
X85275500Y-36722238D01*
X85275499Y-36722233D01*
X85272725Y-36692655D01*
X85272725Y-36692651D01*
X85229116Y-36568025D01*
X85150711Y-36461789D01*
X85150706Y-36461785D01*
X85044478Y-36383385D01*
X85044472Y-36383382D01*
X85016802Y-36373700D01*
X84968121Y-36336634D01*
X84950500Y-36280256D01*
X84950500Y-32753857D01*
X84950500Y-32753856D01*
X84926614Y-32664712D01*
X84880470Y-32584788D01*
X79674392Y-27378710D01*
X83349500Y-27378710D01*
X83349500Y-27621289D01*
X83381161Y-27861781D01*
X83381161Y-27861786D01*
X83443944Y-28096092D01*
X83443948Y-28096105D01*
X83536772Y-28320204D01*
X83536774Y-28320208D01*
X83536776Y-28320212D01*
X83658064Y-28530289D01*
X83658066Y-28530292D01*
X83805729Y-28722731D01*
X83805731Y-28722733D01*
X83805735Y-28722738D01*
X83977262Y-28894265D01*
X83977266Y-28894268D01*
X83977268Y-28894270D01*
X84101856Y-28989869D01*
X84169711Y-29041936D01*
X84379788Y-29163224D01*
X84603900Y-29256054D01*
X84838211Y-29318838D01*
X85078712Y-29350500D01*
X85078713Y-29350500D01*
X85321287Y-29350500D01*
X85321288Y-29350500D01*
X85561789Y-29318838D01*
X85796100Y-29256054D01*
X86020212Y-29163224D01*
X86230289Y-29041936D01*
X86422738Y-28894265D01*
X86594265Y-28722738D01*
X86741936Y-28530289D01*
X86863224Y-28320212D01*
X86956054Y-28096100D01*
X87018838Y-27861789D01*
X87050500Y-27621288D01*
X87050500Y-27378712D01*
X87018838Y-27138211D01*
X86956054Y-26903900D01*
X86864562Y-26683019D01*
X86863227Y-26679795D01*
X86863226Y-26679794D01*
X86863224Y-26679788D01*
X86741936Y-26469711D01*
X86594265Y-26277262D01*
X86422738Y-26105735D01*
X86422733Y-26105731D01*
X86422731Y-26105729D01*
X86230292Y-25958066D01*
X86230289Y-25958064D01*
X86020212Y-25836776D01*
X86020208Y-25836774D01*
X86020204Y-25836772D01*
X85796105Y-25743948D01*
X85796104Y-25743947D01*
X85796100Y-25743946D01*
X85561789Y-25681162D01*
X85561786Y-25681161D01*
X85561784Y-25681161D01*
X85321289Y-25649500D01*
X85321288Y-25649500D01*
X85078712Y-25649500D01*
X85078710Y-25649500D01*
X84838218Y-25681161D01*
X84838213Y-25681161D01*
X84603907Y-25743944D01*
X84603894Y-25743948D01*
X84379795Y-25836772D01*
X84169707Y-25958066D01*
X83977268Y-26105729D01*
X83805729Y-26277268D01*
X83658066Y-26469707D01*
X83536772Y-26679795D01*
X83443948Y-26903894D01*
X83443944Y-26903907D01*
X83381161Y-27138213D01*
X83381161Y-27138218D01*
X83349500Y-27378710D01*
X79674392Y-27378710D01*
X78779496Y-26483814D01*
X78751719Y-26429297D01*
X78750500Y-26413810D01*
X78750500Y-25194743D01*
X78769407Y-25136552D01*
X78816801Y-25101299D01*
X78844475Y-25091616D01*
X78950711Y-25013211D01*
X79029116Y-24906975D01*
X79072725Y-24782349D01*
X79075500Y-24752756D01*
X79075500Y-24047244D01*
X79075500Y-24047238D01*
X79075499Y-24047233D01*
X79074059Y-24031879D01*
X79072725Y-24017651D01*
X79029116Y-23893025D01*
X78950711Y-23786789D01*
X78946306Y-23780820D01*
X78948326Y-23779329D01*
X78925822Y-23735161D01*
X78935393Y-23674729D01*
X78971630Y-23635413D01*
X79098038Y-23557443D01*
X79219946Y-23435535D01*
X79310451Y-23288806D01*
X79364681Y-23125148D01*
X79375000Y-23024155D01*
X79375000Y-22925001D01*
X79374999Y-22925000D01*
X77425002Y-22925000D01*
X77425001Y-22925001D01*
X77425001Y-23024154D01*
X77435317Y-23125142D01*
X77435320Y-23125154D01*
X77489548Y-23288806D01*
X77580053Y-23435535D01*
X77701963Y-23557445D01*
X77828369Y-23635414D01*
X77867970Y-23682055D01*
X77872593Y-23743065D01*
X77852059Y-23779613D01*
X77853694Y-23780820D01*
X77770884Y-23893023D01*
X77770884Y-23893024D01*
X77739330Y-23983198D01*
X77702264Y-24031879D01*
X77645886Y-24049500D01*
X77186189Y-24049500D01*
X77127998Y-24030593D01*
X77116185Y-24020504D01*
X75579496Y-22483814D01*
X75575869Y-22476696D01*
X75569407Y-22472001D01*
X75562243Y-22449952D01*
X75551719Y-22429297D01*
X75550500Y-22413810D01*
X75550500Y-22325844D01*
X77425000Y-22325844D01*
X77425000Y-22424999D01*
X77425001Y-22425000D01*
X78149999Y-22425000D01*
X78150000Y-22424999D01*
X78150000Y-21637501D01*
X78650000Y-21637501D01*
X78650000Y-22424999D01*
X78650001Y-22425000D01*
X79374998Y-22425000D01*
X79374999Y-22424999D01*
X79374999Y-22325845D01*
X79364682Y-22224857D01*
X79364679Y-22224845D01*
X79310451Y-22061193D01*
X79219946Y-21914464D01*
X79098035Y-21792553D01*
X78951306Y-21702048D01*
X78787648Y-21647818D01*
X78686655Y-21637500D01*
X78650001Y-21637500D01*
X78650000Y-21637501D01*
X78150000Y-21637501D01*
X78150000Y-21637500D01*
X78113357Y-21637500D01*
X78113351Y-21637501D01*
X78012357Y-21647817D01*
X78012345Y-21647820D01*
X77848693Y-21702048D01*
X77701964Y-21792553D01*
X77580053Y-21914464D01*
X77489548Y-22061193D01*
X77435318Y-22224851D01*
X77425000Y-22325844D01*
X75550500Y-22325844D01*
X75550500Y-22276536D01*
X75550499Y-22276532D01*
X75540220Y-22224857D01*
X75510130Y-22073580D01*
X75430941Y-21882402D01*
X75315977Y-21710345D01*
X75169655Y-21564023D01*
X74997598Y-21449059D01*
X74997599Y-21449059D01*
X74997597Y-21449058D01*
X74806418Y-21369869D01*
X74603467Y-21329500D01*
X74603465Y-21329500D01*
X74396535Y-21329500D01*
X74396532Y-21329500D01*
X74193581Y-21369869D01*
X74002402Y-21449058D01*
X73830348Y-21564020D01*
X73684020Y-21710348D01*
X73569058Y-21882402D01*
X73500464Y-22048004D01*
X73460727Y-22094529D01*
X73401232Y-22108813D01*
X73344705Y-22085398D01*
X73312735Y-22033229D01*
X73310000Y-22010118D01*
X73310000Y-21482175D01*
X73303598Y-21422629D01*
X73303596Y-21422618D01*
X73253353Y-21287911D01*
X73253352Y-21287909D01*
X73167192Y-21172815D01*
X73167184Y-21172807D01*
X73052090Y-21086647D01*
X73052088Y-21086646D01*
X72917381Y-21036403D01*
X72917370Y-21036401D01*
X72857824Y-21030000D01*
X72210001Y-21030000D01*
X72210000Y-21030001D01*
X72210000Y-21946988D01*
X72152993Y-21914075D01*
X72025826Y-21880000D01*
X71894174Y-21880000D01*
X71767007Y-21914075D01*
X71710000Y-21946988D01*
X71710000Y-21030001D01*
X71709999Y-21030000D01*
X71062176Y-21030000D01*
X71002629Y-21036401D01*
X71002618Y-21036403D01*
X70867911Y-21086646D01*
X70867909Y-21086647D01*
X70752815Y-21172807D01*
X70752807Y-21172815D01*
X70666647Y-21287909D01*
X70666646Y-21287911D01*
X70616403Y-21422618D01*
X70616401Y-21422629D01*
X70610000Y-21482175D01*
X70610000Y-22129999D01*
X70610001Y-22130000D01*
X71526988Y-22130000D01*
X71494075Y-22187007D01*
X71460000Y-22314174D01*
X71460000Y-22445826D01*
X71494075Y-22572993D01*
X71526988Y-22630000D01*
X70610001Y-22630000D01*
X70610000Y-22630001D01*
X70610000Y-23277824D01*
X70609999Y-23277824D01*
X70616401Y-23337370D01*
X70616403Y-23337381D01*
X70666645Y-23472087D01*
X70686124Y-23498106D01*
X70705862Y-23556020D01*
X70687789Y-23614475D01*
X70676876Y-23627439D01*
X69719532Y-24584785D01*
X69719530Y-24584787D01*
X69719530Y-24584788D01*
X69702908Y-24613580D01*
X69687667Y-24639978D01*
X69687662Y-24639986D01*
X69685232Y-24644194D01*
X69639759Y-24685131D01*
X69578908Y-24691521D01*
X69525923Y-24660923D01*
X69501041Y-24605025D01*
X69500500Y-24594686D01*
X69500500Y-20599500D01*
X69519407Y-20541309D01*
X69568907Y-20505345D01*
X69599500Y-20500500D01*
X90400500Y-20500500D01*
X90458691Y-20519407D01*
G37*
%TD.AperFunction*%
%TA.AperFunction,Conductor*%
G36*
X87712656Y-45998288D02*
G01*
X87830345Y-46115977D01*
X88002402Y-46230941D01*
X88193580Y-46310130D01*
X88242003Y-46319762D01*
X88295386Y-46349657D01*
X88321003Y-46405221D01*
X88309067Y-46465231D01*
X88264138Y-46506765D01*
X88238177Y-46514640D01*
X88183877Y-46523241D01*
X87981784Y-46588904D01*
X87792446Y-46685376D01*
X87792442Y-46685378D01*
X87738282Y-46724728D01*
X88370591Y-47357037D01*
X88307007Y-47374075D01*
X88192993Y-47439901D01*
X88099901Y-47532993D01*
X88034075Y-47647007D01*
X88017037Y-47710591D01*
X87384728Y-47078282D01*
X87345378Y-47132442D01*
X87345376Y-47132446D01*
X87248904Y-47321784D01*
X87183241Y-47523877D01*
X87174640Y-47578177D01*
X87146862Y-47632694D01*
X87092345Y-47660470D01*
X87031913Y-47650898D01*
X86988649Y-47607633D01*
X86979762Y-47582006D01*
X86970130Y-47533580D01*
X86890941Y-47342402D01*
X86775977Y-47170345D01*
X86629655Y-47024023D01*
X86629651Y-47024020D01*
X86628705Y-47023074D01*
X86600928Y-46968557D01*
X86610499Y-46908125D01*
X86653764Y-46864860D01*
X86659851Y-46862015D01*
X86666299Y-46859263D01*
X86691114Y-46852614D01*
X86712115Y-46840489D01*
X86771038Y-46806470D01*
X87554469Y-46023038D01*
X87556916Y-46018798D01*
X87602381Y-45977856D01*
X87663231Y-45971456D01*
X87712656Y-45998288D01*
G37*
%TD.AperFunction*%
%TA.AperFunction,Conductor*%
G36*
X73738558Y-41428318D02*
G01*
X73777267Y-41452238D01*
X74760504Y-42435475D01*
X74788281Y-42489992D01*
X74789500Y-42505479D01*
X74789500Y-42871635D01*
X74770593Y-42929826D01*
X74739889Y-42955612D01*
X74740192Y-42956036D01*
X74734817Y-42959873D01*
X74733982Y-42960574D01*
X74733800Y-42960663D01*
X74733518Y-42960801D01*
X74650801Y-43043518D01*
X74599427Y-43148604D01*
X74599427Y-43148607D01*
X74589500Y-43216740D01*
X74589500Y-44933260D01*
X74596118Y-44978682D01*
X74599427Y-45001395D01*
X74632921Y-45069907D01*
X74650802Y-45106483D01*
X74733517Y-45189198D01*
X74733978Y-45189423D01*
X74734387Y-45189819D01*
X74740194Y-45193965D01*
X74739572Y-45194835D01*
X74751201Y-45206085D01*
X74770593Y-45220174D01*
X74772806Y-45226986D01*
X74777953Y-45231965D01*
X74789500Y-45278365D01*
X74789500Y-45469521D01*
X74770593Y-45527712D01*
X74760504Y-45539525D01*
X74040489Y-46259540D01*
X74040488Y-46259539D01*
X73984539Y-46315489D01*
X73944980Y-46384007D01*
X73944978Y-46384011D01*
X73924500Y-46460435D01*
X73924500Y-46764810D01*
X73905593Y-46823001D01*
X73856093Y-46858965D01*
X73794907Y-46858965D01*
X73755496Y-46834814D01*
X73279496Y-46358814D01*
X73251719Y-46304297D01*
X73250500Y-46288810D01*
X73250500Y-44630253D01*
X73250498Y-44630241D01*
X73243896Y-44597052D01*
X73238867Y-44571769D01*
X73194552Y-44505448D01*
X73162488Y-44484023D01*
X73128233Y-44461134D01*
X73128231Y-44461133D01*
X73128228Y-44461132D01*
X73128227Y-44461132D01*
X73069758Y-44449501D01*
X73069748Y-44449500D01*
X73069747Y-44449500D01*
X72649500Y-44449500D01*
X72591309Y-44430593D01*
X72555345Y-44381093D01*
X72550500Y-44350500D01*
X72550500Y-41978857D01*
X72550500Y-41978856D01*
X72526614Y-41889712D01*
X72480470Y-41809788D01*
X72475581Y-41804899D01*
X72447806Y-41750385D01*
X72457377Y-41689953D01*
X72500642Y-41646688D01*
X72561074Y-41637117D01*
X72578283Y-41641453D01*
X72667651Y-41672725D01*
X72694941Y-41675284D01*
X72697233Y-41675499D01*
X72697238Y-41675500D01*
X72697244Y-41675500D01*
X73302762Y-41675500D01*
X73302765Y-41675499D01*
X73332349Y-41672725D01*
X73456975Y-41629116D01*
X73563211Y-41550711D01*
X73627609Y-41463453D01*
X73677374Y-41427862D01*
X73738558Y-41428318D01*
G37*
%TD.AperFunction*%
%TA.AperFunction,Conductor*%
G36*
X75559504Y-42359475D02*
G01*
X76012646Y-42812618D01*
X76040423Y-42867134D01*
X76030852Y-42927566D01*
X76008193Y-42953877D01*
X76009318Y-42955002D01*
X76003518Y-42960801D01*
X76003517Y-42960802D01*
X75960189Y-43004130D01*
X75920801Y-43043518D01*
X75869427Y-43148604D01*
X75869427Y-43148607D01*
X75859500Y-43216740D01*
X75859500Y-44933260D01*
X75866118Y-44978682D01*
X75869427Y-45001395D01*
X75902921Y-45069907D01*
X75920802Y-45106483D01*
X76003517Y-45189198D01*
X76003978Y-45189423D01*
X76004387Y-45189819D01*
X76010194Y-45193965D01*
X76009572Y-45194835D01*
X76047953Y-45231965D01*
X76059500Y-45278365D01*
X76059500Y-46556666D01*
X76040593Y-46614857D01*
X75991093Y-46650821D01*
X75941186Y-46653764D01*
X75919751Y-46649500D01*
X75919748Y-46649500D01*
X74880252Y-46649500D01*
X74880251Y-46649500D01*
X74880241Y-46649501D01*
X74821772Y-46661132D01*
X74821766Y-46661134D01*
X74755451Y-46705445D01*
X74755445Y-46705451D01*
X74706815Y-46778231D01*
X74658765Y-46816110D01*
X74597627Y-46818512D01*
X74546753Y-46784519D01*
X74525576Y-46727115D01*
X74525500Y-46723229D01*
X74525500Y-46665478D01*
X74544407Y-46607287D01*
X74554490Y-46595480D01*
X75330460Y-45819511D01*
X75370022Y-45750988D01*
X75390500Y-45674562D01*
X75390500Y-45595438D01*
X75390500Y-45410438D01*
X75390500Y-45278365D01*
X75409407Y-45220174D01*
X75440108Y-45194389D01*
X75439806Y-45193965D01*
X75445197Y-45190115D01*
X75446020Y-45189423D01*
X75446483Y-45189198D01*
X75529198Y-45106483D01*
X75580573Y-45001393D01*
X75590500Y-44933260D01*
X75590500Y-43216740D01*
X75580573Y-43148607D01*
X75529198Y-43043517D01*
X75446483Y-42960802D01*
X75446017Y-42960574D01*
X75445603Y-42960173D01*
X75439808Y-42956036D01*
X75440428Y-42955167D01*
X75402045Y-42918031D01*
X75390500Y-42871635D01*
X75390500Y-42429478D01*
X75409407Y-42371287D01*
X75458907Y-42335323D01*
X75520093Y-42335323D01*
X75559504Y-42359475D01*
G37*
%TD.AperFunction*%
%TA.AperFunction,Conductor*%
G36*
X70519501Y-30944472D02*
G01*
X75361505Y-35786476D01*
X75389281Y-35840991D01*
X75390500Y-35856478D01*
X75390500Y-37852112D01*
X75371593Y-37910303D01*
X75322093Y-37946267D01*
X75277231Y-37950078D01*
X75273266Y-37949500D01*
X75273260Y-37949500D01*
X74906740Y-37949500D01*
X74872673Y-37954463D01*
X74838604Y-37959427D01*
X74733518Y-38010801D01*
X74650801Y-38093518D01*
X74599427Y-38198604D01*
X74599427Y-38198607D01*
X74589990Y-38263382D01*
X74589500Y-38266743D01*
X74589500Y-39125657D01*
X74570593Y-39183848D01*
X74521093Y-39219812D01*
X74459907Y-39219812D01*
X74422049Y-39193075D01*
X74420048Y-39195077D01*
X74359512Y-39134540D01*
X73984510Y-38759539D01*
X73915992Y-38719980D01*
X73915988Y-38719978D01*
X73839564Y-38699500D01*
X73839562Y-38699500D01*
X73762239Y-38699500D01*
X73704048Y-38680593D01*
X73668795Y-38633198D01*
X73641616Y-38555525D01*
X73641114Y-38554845D01*
X73563214Y-38449293D01*
X73563213Y-38449292D01*
X73563211Y-38449289D01*
X73563206Y-38449285D01*
X73456976Y-38370884D01*
X73332352Y-38327276D01*
X73332351Y-38327275D01*
X73332349Y-38327275D01*
X73332347Y-38327274D01*
X73332344Y-38327274D01*
X73302766Y-38324500D01*
X73302756Y-38324500D01*
X72697244Y-38324500D01*
X72697233Y-38324500D01*
X72667655Y-38327274D01*
X72667647Y-38327276D01*
X72543023Y-38370884D01*
X72436793Y-38449285D01*
X72436785Y-38449293D01*
X72358384Y-38555523D01*
X72314776Y-38680147D01*
X72314774Y-38680155D01*
X72312000Y-38709733D01*
X72312000Y-39290266D01*
X72314774Y-39319844D01*
X72314776Y-39319852D01*
X72358384Y-39444476D01*
X72436785Y-39550706D01*
X72436789Y-39550711D01*
X72436792Y-39550713D01*
X72436793Y-39550714D01*
X72543023Y-39629115D01*
X72543024Y-39629115D01*
X72543025Y-39629116D01*
X72667651Y-39672725D01*
X72694791Y-39675270D01*
X72697233Y-39675499D01*
X72697238Y-39675500D01*
X72697244Y-39675500D01*
X73302762Y-39675500D01*
X73302765Y-39675499D01*
X73332349Y-39672725D01*
X73456975Y-39629116D01*
X73563211Y-39550711D01*
X73603773Y-39495750D01*
X73646022Y-39438506D01*
X73647645Y-39439704D01*
X73661866Y-39425901D01*
X73683027Y-39404741D01*
X73683791Y-39404619D01*
X73684346Y-39404082D01*
X73713928Y-39399846D01*
X73743459Y-39395170D01*
X73744147Y-39395520D01*
X73744914Y-39395411D01*
X73797976Y-39422947D01*
X73845504Y-39470475D01*
X73873281Y-39524992D01*
X73874500Y-39540479D01*
X73874500Y-40596051D01*
X73872667Y-40596051D01*
X73863092Y-40647733D01*
X73818712Y-40689853D01*
X73776086Y-40699500D01*
X73762239Y-40699500D01*
X73704048Y-40680593D01*
X73668795Y-40633198D01*
X73641616Y-40555525D01*
X73563211Y-40449289D01*
X73549632Y-40439267D01*
X73456976Y-40370884D01*
X73332352Y-40327276D01*
X73332351Y-40327275D01*
X73332349Y-40327275D01*
X73332347Y-40327274D01*
X73332344Y-40327274D01*
X73302766Y-40324500D01*
X73302756Y-40324500D01*
X72697244Y-40324500D01*
X72697233Y-40324500D01*
X72667655Y-40327274D01*
X72667647Y-40327276D01*
X72543023Y-40370884D01*
X72436793Y-40449285D01*
X72436785Y-40449293D01*
X72358384Y-40555523D01*
X72314776Y-40680147D01*
X72314774Y-40680155D01*
X72312000Y-40709733D01*
X72312000Y-41290266D01*
X72314774Y-41319844D01*
X72314776Y-41319852D01*
X72346045Y-41409213D01*
X72347418Y-41470383D01*
X72312575Y-41520678D01*
X72254823Y-41540886D01*
X72196222Y-41523290D01*
X72182597Y-41511915D01*
X71891996Y-41221314D01*
X71864219Y-41166797D01*
X71863000Y-41151310D01*
X71863000Y-40709738D01*
X71862999Y-40709733D01*
X71860225Y-40680155D01*
X71860225Y-40680151D01*
X71816616Y-40555525D01*
X71738211Y-40449289D01*
X71724632Y-40439267D01*
X71631978Y-40370885D01*
X71631972Y-40370882D01*
X71591802Y-40356826D01*
X71543121Y-40319760D01*
X71525500Y-40263382D01*
X71525500Y-39736617D01*
X71544407Y-39678426D01*
X71591801Y-39643173D01*
X71631975Y-39629116D01*
X71738211Y-39550711D01*
X71816616Y-39444475D01*
X71860225Y-39319849D01*
X71863000Y-39290256D01*
X71863000Y-38709744D01*
X71863000Y-38709738D01*
X71862999Y-38709733D01*
X71860225Y-38680155D01*
X71860225Y-38680151D01*
X71816616Y-38555525D01*
X71816114Y-38554845D01*
X71738214Y-38449293D01*
X71738213Y-38449292D01*
X71738211Y-38449289D01*
X71738206Y-38449285D01*
X71631978Y-38370885D01*
X71631972Y-38370882D01*
X71591802Y-38356826D01*
X71543121Y-38319760D01*
X71525500Y-38263382D01*
X71525500Y-38128857D01*
X71525500Y-38128856D01*
X71501614Y-38039712D01*
X71455470Y-37959788D01*
X70379496Y-36883814D01*
X70351719Y-36829297D01*
X70350500Y-36813810D01*
X70350500Y-31014478D01*
X70369407Y-30956287D01*
X70418907Y-30920323D01*
X70480093Y-30920323D01*
X70519501Y-30944472D01*
G37*
%TD.AperFunction*%
%TA.AperFunction,Conductor*%
G36*
X75288225Y-23187161D02*
G01*
X75304856Y-23200537D01*
X76719531Y-24615212D01*
X76719530Y-24615212D01*
X76784787Y-24680468D01*
X76784789Y-24680470D01*
X76803930Y-24691521D01*
X76864712Y-24726614D01*
X76953856Y-24750500D01*
X77645886Y-24750500D01*
X77704077Y-24769407D01*
X77739330Y-24816802D01*
X77770884Y-24906975D01*
X77770884Y-24906976D01*
X77849285Y-25013206D01*
X77849289Y-25013211D01*
X77849292Y-25013213D01*
X77849293Y-25013214D01*
X77955521Y-25091614D01*
X77955523Y-25091614D01*
X77955525Y-25091616D01*
X77983198Y-25101299D01*
X78031878Y-25138363D01*
X78049500Y-25194743D01*
X78049500Y-26646144D01*
X78059379Y-26683012D01*
X78059380Y-26683019D01*
X78073385Y-26735285D01*
X78073386Y-26735288D01*
X78119530Y-26815212D01*
X84220505Y-32916187D01*
X84248281Y-32970702D01*
X84249500Y-32986189D01*
X84249500Y-36280256D01*
X84230593Y-36338447D01*
X84183198Y-36373700D01*
X84155527Y-36383382D01*
X84155521Y-36383385D01*
X84049293Y-36461785D01*
X84049285Y-36461793D01*
X83970884Y-36568023D01*
X83970884Y-36568024D01*
X83939330Y-36658198D01*
X83902264Y-36706879D01*
X83845886Y-36724500D01*
X83478856Y-36724500D01*
X83389712Y-36748386D01*
X83309788Y-36794530D01*
X82429526Y-37674792D01*
X82398237Y-37728986D01*
X82398238Y-37728987D01*
X82383386Y-37754711D01*
X82359500Y-37843857D01*
X82359500Y-37963812D01*
X82340593Y-38022003D01*
X82330509Y-38033809D01*
X82278464Y-38085855D01*
X82270801Y-38093518D01*
X82219427Y-38198604D01*
X82219427Y-38198607D01*
X82209500Y-38266740D01*
X82209500Y-39983260D01*
X82216118Y-40028682D01*
X82219427Y-40051395D01*
X82243189Y-40100000D01*
X82270802Y-40156483D01*
X82353517Y-40239198D01*
X82458607Y-40290573D01*
X82505842Y-40297455D01*
X82520434Y-40304663D01*
X82536513Y-40307210D01*
X82547176Y-40317873D01*
X82560698Y-40324553D01*
X82568268Y-40338965D01*
X82579777Y-40350475D01*
X82582136Y-40365369D01*
X82589149Y-40378721D01*
X82586802Y-40394829D01*
X82589349Y-40410907D01*
X82582503Y-40424343D01*
X82580329Y-40439267D01*
X82561572Y-40465423D01*
X82456493Y-40570503D01*
X82401976Y-40598281D01*
X82386489Y-40599500D01*
X79865480Y-40599500D01*
X79807289Y-40580593D01*
X79795476Y-40570504D01*
X79403054Y-40178082D01*
X79375277Y-40123565D01*
X79384119Y-40064595D01*
X79390572Y-40051396D01*
X79390572Y-40051394D01*
X79390573Y-40051393D01*
X79400500Y-39983260D01*
X79400500Y-38266740D01*
X79390573Y-38198607D01*
X79368948Y-38154373D01*
X79365483Y-38147285D01*
X79339198Y-38093517D01*
X79256483Y-38010802D01*
X79245867Y-38005612D01*
X79151395Y-37959427D01*
X79124139Y-37955456D01*
X79083260Y-37949500D01*
X78716740Y-37949500D01*
X78716733Y-37949500D01*
X78712769Y-37950078D01*
X78652461Y-37939756D01*
X78609738Y-37895956D01*
X78599500Y-37852112D01*
X78599500Y-35659437D01*
X78599499Y-35659435D01*
X78597355Y-35651435D01*
X78579021Y-35583011D01*
X78539460Y-35514489D01*
X78531460Y-35506489D01*
X78483511Y-35458539D01*
X78483511Y-35458540D01*
X74226521Y-31201550D01*
X74198744Y-31147033D01*
X74208315Y-31086601D01*
X74251580Y-31043336D01*
X74312012Y-31033765D01*
X74315797Y-31034440D01*
X74396535Y-31050500D01*
X74396536Y-31050500D01*
X74603464Y-31050500D01*
X74603465Y-31050500D01*
X74806420Y-31010130D01*
X74997598Y-30930941D01*
X75169655Y-30815977D01*
X75315977Y-30669655D01*
X75430941Y-30497598D01*
X75510130Y-30306420D01*
X75550500Y-30103465D01*
X75550500Y-29896535D01*
X75510130Y-29693580D01*
X75430941Y-29502402D01*
X75315977Y-29330345D01*
X75169655Y-29184023D01*
X75169651Y-29184020D01*
X74997597Y-29069058D01*
X74806418Y-28989869D01*
X74603467Y-28949500D01*
X74603465Y-28949500D01*
X74396535Y-28949500D01*
X74396532Y-28949500D01*
X74193581Y-28989869D01*
X74002402Y-29069058D01*
X73830348Y-29184020D01*
X73684020Y-29330348D01*
X73681813Y-29333652D01*
X73633761Y-29371529D01*
X73572622Y-29373928D01*
X73521750Y-29339932D01*
X73500576Y-29282528D01*
X73500500Y-29278646D01*
X73500500Y-28660437D01*
X73500499Y-28660435D01*
X73480021Y-28584011D01*
X73480019Y-28584007D01*
X73440460Y-28515489D01*
X73384511Y-28459539D01*
X73384511Y-28459540D01*
X72935263Y-28010292D01*
X72907486Y-27955775D01*
X72913802Y-27902405D01*
X72970130Y-27766420D01*
X73010500Y-27563465D01*
X73010500Y-27356535D01*
X72994448Y-27275837D01*
X73001639Y-27215078D01*
X73043172Y-27170148D01*
X73103181Y-27158211D01*
X73158747Y-27183827D01*
X73161550Y-27186521D01*
X73420504Y-27445475D01*
X73448281Y-27499992D01*
X73449500Y-27515479D01*
X73449500Y-27563467D01*
X73489869Y-27766418D01*
X73569058Y-27957597D01*
X73684020Y-28129651D01*
X73684023Y-28129655D01*
X73830345Y-28275977D01*
X74002402Y-28390941D01*
X74193580Y-28470130D01*
X74396535Y-28510500D01*
X74396536Y-28510500D01*
X74603464Y-28510500D01*
X74603465Y-28510500D01*
X74806420Y-28470130D01*
X74997598Y-28390941D01*
X75169655Y-28275977D01*
X75315977Y-28129655D01*
X75430941Y-27957598D01*
X75510130Y-27766420D01*
X75550500Y-27563465D01*
X75550500Y-27546719D01*
X75569407Y-27488528D01*
X75618907Y-27452564D01*
X75680093Y-27452564D01*
X75719504Y-27476715D01*
X79840504Y-31597715D01*
X79868281Y-31652232D01*
X79869500Y-31667719D01*
X79869500Y-37921635D01*
X79850593Y-37979826D01*
X79819889Y-38005612D01*
X79820192Y-38006036D01*
X79814817Y-38009873D01*
X79813982Y-38010574D01*
X79813800Y-38010663D01*
X79813518Y-38010801D01*
X79730801Y-38093518D01*
X79679427Y-38198604D01*
X79679427Y-38198607D01*
X79669500Y-38266740D01*
X79669500Y-39983260D01*
X79676118Y-40028682D01*
X79679427Y-40051395D01*
X79703189Y-40100000D01*
X79730802Y-40156483D01*
X79813517Y-40239198D01*
X79849116Y-40256601D01*
X79918604Y-40290572D01*
X79918605Y-40290572D01*
X79918607Y-40290573D01*
X79986740Y-40300500D01*
X79986743Y-40300500D01*
X80353257Y-40300500D01*
X80353260Y-40300500D01*
X80421393Y-40290573D01*
X80526483Y-40239198D01*
X80609198Y-40156483D01*
X80660573Y-40051393D01*
X80670500Y-39983260D01*
X80670500Y-38266740D01*
X80660573Y-38198607D01*
X80638948Y-38154373D01*
X80635483Y-38147285D01*
X80609198Y-38093517D01*
X80526483Y-38010802D01*
X80526017Y-38010574D01*
X80525603Y-38010173D01*
X80519808Y-38006036D01*
X80520428Y-38005167D01*
X80482045Y-37968031D01*
X80470500Y-37921635D01*
X80470500Y-31462678D01*
X80455600Y-31407071D01*
X80450022Y-31386252D01*
X80410460Y-31317729D01*
X75052271Y-25959540D01*
X75052268Y-25959538D01*
X75050571Y-25957841D01*
X75039380Y-25935878D01*
X75025519Y-25915502D01*
X75025718Y-25909063D01*
X75022794Y-25903324D01*
X75026649Y-25878980D01*
X75027412Y-25854346D01*
X75031348Y-25849309D01*
X75032365Y-25842892D01*
X75064890Y-25805982D01*
X75065200Y-25805770D01*
X75169655Y-25735977D01*
X75173614Y-25732017D01*
X75181328Y-25726770D01*
X75202150Y-25720709D01*
X75221464Y-25710854D01*
X75230900Y-25712342D01*
X75240076Y-25709672D01*
X75260484Y-25717008D01*
X75281903Y-25720387D01*
X75293692Y-25728946D01*
X75297654Y-25730371D01*
X75299605Y-25733240D01*
X75307017Y-25738621D01*
X81110504Y-31542108D01*
X81138281Y-31596625D01*
X81139500Y-31612112D01*
X81139500Y-37921635D01*
X81120593Y-37979826D01*
X81089889Y-38005612D01*
X81090192Y-38006036D01*
X81084817Y-38009873D01*
X81083982Y-38010574D01*
X81083800Y-38010663D01*
X81083518Y-38010801D01*
X81000801Y-38093518D01*
X80949427Y-38198604D01*
X80949427Y-38198607D01*
X80939500Y-38266740D01*
X80939500Y-39983260D01*
X80946118Y-40028682D01*
X80949427Y-40051395D01*
X80973189Y-40100000D01*
X81000802Y-40156483D01*
X81083517Y-40239198D01*
X81119116Y-40256601D01*
X81188604Y-40290572D01*
X81188605Y-40290572D01*
X81188607Y-40290573D01*
X81256740Y-40300500D01*
X81256743Y-40300500D01*
X81623257Y-40300500D01*
X81623260Y-40300500D01*
X81691393Y-40290573D01*
X81796483Y-40239198D01*
X81879198Y-40156483D01*
X81930573Y-40051393D01*
X81940500Y-39983260D01*
X81940500Y-38266740D01*
X81930573Y-38198607D01*
X81908948Y-38154373D01*
X81905483Y-38147285D01*
X81879198Y-38093517D01*
X81796483Y-38010802D01*
X81796017Y-38010574D01*
X81795603Y-38010173D01*
X81789808Y-38006036D01*
X81790428Y-38005167D01*
X81752045Y-37968031D01*
X81740500Y-37921635D01*
X81740500Y-31407070D01*
X81740499Y-31407066D01*
X81720021Y-31330644D01*
X81720019Y-31330640D01*
X81680460Y-31262122D01*
X81624511Y-31206172D01*
X81624511Y-31206173D01*
X75569883Y-25151545D01*
X75542106Y-25097028D01*
X75542790Y-25062225D01*
X75550499Y-25023472D01*
X75550500Y-25023463D01*
X75550500Y-24816536D01*
X75550499Y-24816532D01*
X75543700Y-24782352D01*
X75510130Y-24613580D01*
X75430941Y-24422402D01*
X75315977Y-24250345D01*
X75169655Y-24104023D01*
X75169651Y-24104020D01*
X74997597Y-23989058D01*
X74806418Y-23909869D01*
X74603467Y-23869500D01*
X74603465Y-23869500D01*
X74396535Y-23869500D01*
X74396532Y-23869500D01*
X74193581Y-23909869D01*
X74002402Y-23989058D01*
X73830348Y-24104020D01*
X73684020Y-24250348D01*
X73569058Y-24422402D01*
X73489869Y-24613581D01*
X73449500Y-24816532D01*
X73449500Y-25023467D01*
X73485415Y-25204024D01*
X73478223Y-25264785D01*
X73436690Y-25309715D01*
X73376681Y-25321652D01*
X73321116Y-25296036D01*
X73318313Y-25293342D01*
X73039496Y-25014525D01*
X73011719Y-24960008D01*
X73010500Y-24944521D01*
X73010500Y-24816536D01*
X73010499Y-24816532D01*
X73003700Y-24782352D01*
X72970130Y-24613580D01*
X72890941Y-24422402D01*
X72775977Y-24250345D01*
X72745133Y-24219501D01*
X72717358Y-24164987D01*
X72726929Y-24104555D01*
X72770194Y-24061290D01*
X72815139Y-24050500D01*
X72921142Y-24050500D01*
X72921144Y-24050500D01*
X73010288Y-24026614D01*
X73025812Y-24017651D01*
X73090212Y-23980470D01*
X73799487Y-23271193D01*
X73854002Y-23243418D01*
X73914434Y-23252989D01*
X73924490Y-23258883D01*
X73942917Y-23271195D01*
X74002402Y-23310941D01*
X74193580Y-23390130D01*
X74396535Y-23430500D01*
X74396536Y-23430500D01*
X74603464Y-23430500D01*
X74603465Y-23430500D01*
X74806420Y-23390130D01*
X74997598Y-23310941D01*
X75169655Y-23195977D01*
X75169661Y-23195970D01*
X75172046Y-23194014D01*
X75173362Y-23193498D01*
X75173699Y-23193274D01*
X75173748Y-23193347D01*
X75229022Y-23171713D01*
X75288225Y-23187161D01*
G37*
%TD.AperFunction*%
%TA.AperFunction,Conductor*%
G36*
X71700910Y-31019544D02*
G01*
X71856535Y-31050500D01*
X71984521Y-31050500D01*
X72042712Y-31069407D01*
X72054525Y-31079496D01*
X76631504Y-35656475D01*
X76659281Y-35710992D01*
X76660500Y-35726479D01*
X76660500Y-37852112D01*
X76641593Y-37910303D01*
X76592093Y-37946267D01*
X76547231Y-37950078D01*
X76543266Y-37949500D01*
X76543260Y-37949500D01*
X76176740Y-37949500D01*
X76104772Y-37959985D01*
X76044464Y-37949664D01*
X76001739Y-37905866D01*
X75991500Y-37862019D01*
X75991500Y-35651437D01*
X75991499Y-35651435D01*
X75971021Y-35575011D01*
X75971019Y-35575007D01*
X75931460Y-35506489D01*
X75875511Y-35450539D01*
X75875511Y-35450540D01*
X71611623Y-31186652D01*
X71583846Y-31132135D01*
X71593417Y-31071703D01*
X71636682Y-31028438D01*
X71697114Y-31018867D01*
X71700910Y-31019544D01*
G37*
%TD.AperFunction*%
%TA.AperFunction,Conductor*%
G36*
X72847847Y-30663755D02*
G01*
X72874412Y-30667963D01*
X72877261Y-30670812D01*
X72881181Y-30671753D01*
X72898654Y-30692205D01*
X72917676Y-30711228D01*
X72919445Y-30715065D01*
X72936444Y-30744510D01*
X72936445Y-30744510D01*
X72936446Y-30744511D01*
X72959540Y-30784511D01*
X77969505Y-35794476D01*
X77997281Y-35848991D01*
X77998500Y-35864478D01*
X77998500Y-37862019D01*
X77979593Y-37920210D01*
X77930093Y-37956174D01*
X77885228Y-37959985D01*
X77824827Y-37951185D01*
X77813260Y-37949500D01*
X77446740Y-37949500D01*
X77374772Y-37959985D01*
X77314464Y-37949664D01*
X77271739Y-37905866D01*
X77261500Y-37862019D01*
X77261500Y-35521437D01*
X77261499Y-35521435D01*
X77241021Y-35445011D01*
X77241019Y-35445007D01*
X77201460Y-35376489D01*
X77145511Y-35320539D01*
X77145511Y-35320540D01*
X72705304Y-30880333D01*
X72677527Y-30825816D01*
X72687098Y-30765384D01*
X72705301Y-30740330D01*
X72759464Y-30686167D01*
X72763053Y-30684338D01*
X72765159Y-30680901D01*
X72790018Y-30670599D01*
X72813980Y-30658391D01*
X72817959Y-30659021D01*
X72821684Y-30657478D01*
X72847847Y-30663755D01*
G37*
%TD.AperFunction*%
%TD*%
D22*
X80800000Y-26400000D03*
X80800000Y-34000000D03*
X77600000Y-36800000D03*
X72400000Y-34000000D03*
X74800000Y-50400000D03*
X88000000Y-34000000D03*
X84200000Y-50400000D03*
X76300000Y-36800000D03*
X89200000Y-26600000D03*
X75525000Y-46075000D03*
X83000000Y-34000000D03*
X78600000Y-34000000D03*
X70600000Y-50400000D03*
X73000000Y-42800000D03*
X70400000Y-42800000D03*
X81000000Y-22000000D03*
X88600000Y-50400000D03*
X88000000Y-22000000D03*
D23*
X72200000Y-45500000D03*
X72200000Y-48040000D03*
X85200000Y-27500000D03*
X71960000Y-22380000D03*
X74500000Y-22380000D03*
X71960000Y-24920000D03*
X74500000Y-24920000D03*
X71960000Y-27460000D03*
X74500000Y-27460000D03*
X71960000Y-30000000D03*
X74500000Y-30000000D03*
X85960000Y-42760000D03*
X88500000Y-42760000D03*
X85960000Y-45300000D03*
X88500000Y-45300000D03*
X85960000Y-47840000D03*
X88500000Y-47840000D03*
M02*
